<svg width="40" height="40" viewBox="0 0 40 40" fill="none" xmlns="http://www.w3.org/2000/svg">
<rect width="40" height="40" rx="8" fill="url(#paint0_linear_2170_15968)"/>
<path d="M10.5555 24.0708C10.4609 24.2446 10.1335 24.8022 9.84238 25.3235C9.54401 25.8376 8.91089 26.931 8.43787 27.7492C7.96485 28.5674 7.22258 29.849 6.78594 30.5948C6.35658 31.3479 6 31.9923 6 32.0285C6 32.0647 7.95758 32.0937 10.8321 32.0937H15.6642L16.5593 30.5514C17.0468 29.7115 17.5999 28.7557 17.7891 28.4371C17.9783 28.1185 18.3131 27.5464 18.5314 27.1699C18.7497 26.7934 19.1136 26.1707 19.3319 25.7942C19.5575 25.4176 19.8995 24.8166 20.1106 24.4691C20.3143 24.1143 20.4817 23.8174 20.4817 23.7957C20.4817 23.7812 18.2912 23.7667 15.6059 23.7667H10.7375L10.5555 24.0708Z" fill="#A3A1A1"/>
<path d="M20.8516 23.8898C21.1146 24.3822 25.4765 31.8041 25.5715 31.9271L25.6884 32.0937H30.5032C33.6596 32.0937 35.3254 32.072 35.3254 32.0213C35.3254 31.9634 33.3162 28.4877 31.1974 24.889C30.9855 24.527 30.7517 24.1288 30.6786 23.9984L30.5471 23.7667H25.6591C21.0342 23.7667 20.7858 23.774 20.8516 23.8898Z" fill="#A3A1A1"/>
<path d="M20.5747 7.06911C20.2747 7.54724 15.9525 15.0997 15.8922 15.2447L15.8048 15.4307L18.222 19.6174C19.8066 22.3619 20.6619 23.7994 20.7064 23.7738C20.7572 23.7444 22.798 20.2367 24.8918 16.5713C25.1031 16.2037 25.3351 15.7986 25.4128 15.6691L25.5501 15.4373L23.0962 11.1871C20.7744 7.16558 20.6433 6.95324 20.5747 7.06911Z" fill="#A3A1A1"/>
<defs>
<linearGradient id="paint0_linear_2170_15968" x1="20" y1="-52" x2="20.3175" y2="106.999" gradientUnits="userSpaceOnUse">
<stop stop-color="#A7A7A7"/>
<stop offset="0.448245" stop-color="#F1F1F1"/>
<stop offset="1" stop-color="#8B8B8B"/>
</linearGradient>
</defs>
</svg>
