<svg width="22" height="22" viewBox="0 0 22 22" fill="none" xmlns="http://www.w3.org/2000/svg">
<path d="M18.6671 7.83845L17.5396 9.53428C18.0833 10.6188 18.3495 11.8212 18.3143 13.0339C18.2791 14.2465 17.9437 15.4315 17.3379 16.4826H4.63293C3.84566 15.1169 3.51945 13.5338 3.70264 11.9681C3.88583 10.4024 4.56868 8.93737 5.64995 7.79026C6.73122 6.64314 8.15336 5.87499 9.70552 5.59967C11.2577 5.32435 12.8573 5.55653 14.2671 6.26178L15.9629 5.13428C14.2364 4.02715 12.1884 3.53104 10.1466 3.72531C8.10476 3.91958 6.18709 4.793 4.7003 6.20588C3.21351 7.61875 2.24351 9.48943 1.94546 11.5187C1.64741 13.548 2.03853 15.6186 3.05626 17.3993C3.21623 17.6764 3.44593 17.9068 3.72252 18.0676C3.99912 18.2284 4.31299 18.314 4.63293 18.3159H17.3288C17.6518 18.3172 17.9695 18.2331 18.2496 18.0722C18.5297 17.9112 18.7622 17.6791 18.9238 17.3993C19.7684 15.9362 20.1922 14.2682 20.1485 12.5794C20.1049 10.8906 19.5954 9.24674 18.6763 7.82928L18.6671 7.83845Z" fill="#808080"/>
<path d="M9.69293 14.1084C9.8632 14.2789 10.0654 14.4141 10.288 14.5064C10.5105 14.5987 10.7491 14.6461 10.99 14.6461C11.2309 14.6461 11.4695 14.5987 11.6921 14.5064C11.9146 14.4141 12.1168 14.2789 12.2871 14.1084L17.4754 6.32595L9.69293 11.5143C9.52247 11.6845 9.38725 11.8867 9.29499 12.1093C9.20272 12.3319 9.15524 12.5704 9.15524 12.8114C9.15524 13.0523 9.20272 13.2909 9.29499 13.5134C9.38725 13.736 9.52247 13.9382 9.69293 14.1084Z" fill="#808080"/>
</svg>
