<svg width="21" height="23" viewBox="0 0 21 23" fill="none" xmlns="http://www.w3.org/2000/svg">
<path d="M14.8994 9.17756L13.2894 10.7876C13.056 11.0209 13.056 11.3826 13.2894 11.6159L14.8994 13.2259C15.226 13.5526 15.7744 13.4009 15.891 12.9576C16.0194 12.3742 16.0894 11.7909 16.0894 11.1842C16.0894 10.5892 16.0194 10.0059 15.8794 9.45756C15.7744 9.01422 15.226 8.85089 14.8994 9.17756ZM19.706 6.26089C19.4144 5.61922 18.5627 5.47922 18.0727 5.98089C17.7694 6.28422 17.711 6.72756 17.8744 7.12422C18.411 8.37256 18.7144 9.73756 18.7144 11.1726C18.7144 12.6192 18.411 13.9959 17.8627 15.2442C17.6994 15.6176 17.7577 16.0492 18.0494 16.3409C18.5277 16.8192 19.3327 16.6792 19.6244 16.0726C20.3594 14.5559 20.7677 12.8526 20.7677 11.0559C20.756 9.36422 20.3827 7.73089 19.706 6.26089ZM9.56769 11.1842L13.756 7.00756C14.211 6.55256 14.211 5.81756 13.756 5.35089L8.75103 0.34589C8.01603 -0.38911 6.75603 0.124223 6.75603 1.16256V8.37256L2.2177 3.83422C1.7627 3.37922 1.0277 3.37922 0.572695 3.83422C0.117695 4.28922 0.117695 5.02422 0.572695 5.47922L6.2777 11.1842L0.572695 16.8892C0.117695 17.3442 0.117695 18.0792 0.572695 18.5342C1.0277 18.9892 1.7627 18.9892 2.2177 18.5342L6.75603 13.9959V21.2059C6.75603 22.2442 8.01603 22.7692 8.75103 22.0342L13.756 17.0176C14.211 16.5626 14.211 15.8276 13.756 15.3609L9.56769 11.1842ZM9.08936 3.98589L11.2827 6.17922L9.08936 8.37256V3.98589ZM9.08936 18.3826V13.9959L11.2827 16.1892L9.08936 18.3826Z" fill="#0A7DEB"/>
</svg>
