<svg width="80" height="80" viewBox="0 0 80 80" fill="none" xmlns="http://www.w3.org/2000/svg">
<path d="M0 0H80V57.284H0V0Z" fill="url(#paint0_linear_2478_12642)"/>
<path d="M1 0H80V57.284H1V0Z" fill="url(#paint1_linear_2478_12642)"/>
<path d="M0 0H21V79.0123H0V0Z" fill="url(#paint2_linear_2478_12642)"/>
<path d="M21 57.2839L8 79.0123L80 80V57.2839H21Z" fill="url(#paint3_linear_2478_12642)"/>
<g clip-path="url(#clip0_2478_12642)">
<path d="M47.7381 16.676C47.7178 17.025 47.6856 17.3724 47.6432 17.7131C45.7673 16.7745 43.6953 16.2745 41.5894 16.2522C38.1287 16.2522 35.2153 17.5818 34.6984 17.8378C34.6705 17.85 34.6433 17.8639 34.6171 17.8793C34.6171 17.8793 34.1675 11.9751 34.8628 10.7957C35.0925 10.5758 35.3434 10.3782 35.6119 10.2057V15.963C35.6119 15.963 36.4407 15.4328 36.7339 15.4328V9.7611L36.9813 9.85498V15.3946C36.9813 15.3946 37.7557 15.0273 38.1302 15.0273V9.44945L38.5185 9.35858V15.0721C38.9397 14.9077 39.3931 14.8379 39.8455 14.8677V9.16357H40.0963V14.9059C40.0963 14.9059 40.8403 14.6649 41.4657 14.8677V9.24501L41.7538 9.28657V14.8644C42.115 14.7958 42.4884 14.8233 42.8351 14.9442V9.491L43.1741 9.57078V14.9442C43.5278 14.9442 43.7327 14.9442 44.0743 15.1389V9.67909L44.4689 9.77521V15.353C44.8036 15.3846 45.0079 15.3628 45.3042 15.5188V10.0241L45.7145 10.3087V15.665C45.7145 15.665 46.1924 15.665 46.5841 15.963V10.5896L46.9178 10.8788V16.1242L47.7381 16.676Z" fill="url(#paint4_linear_2478_12642)"/>
<path d="M51.9616 24.3081V30.3197C50.1905 30.0305 44.7079 29.1995 40.5862 29.1995C36.5746 29.1995 31.6988 30.0438 29.9531 30.3729C29.9531 26.8826 29.9819 24.451 30.0413 24.0704C30.2904 22.4416 34.6172 19.1857 34.6172 19.1857V19.0195C37.0179 18.3333 39.5041 17.977 42.0047 17.9608C43.9398 17.9553 45.8574 18.32 47.6501 19.0344V19.1824C50.9634 21.2981 51.9616 24.3081 51.9616 24.3081Z" fill="url(#paint5_linear_2478_12642)"/>
<path d="M47.6432 17.7132V19.0328C45.8506 18.3184 43.933 17.9537 41.9979 17.9591C39.4973 17.9754 37.0111 18.3317 34.6104 19.0179V17.876C34.6366 17.8606 34.6637 17.8467 34.6917 17.8345C35.2001 17.5852 38.1219 16.2489 41.5827 16.2489C43.6799 16.2715 45.7436 16.7668 47.6144 17.6965L47.6365 17.7098C47.639 17.7102 47.6414 17.7114 47.6432 17.7132Z" fill="url(#paint6_linear_2478_12642)"/>
<path d="M41.5829 16.2489C38.1221 16.2489 35.2088 17.5785 34.6919 17.8345C42.4506 13.7592 47.435 17.5503 47.6367 17.7098C45.7607 16.7712 43.6887 16.2712 41.5829 16.2489Z" fill="#DDA322"/>
<path d="M51.9616 30.3198V31.9336C50.4007 31.6461 45.9044 30.9032 41.0844 30.9032C36.656 30.9032 32.0411 31.4832 29.9497 31.7874C29.9497 31.2888 29.9497 30.8234 29.9497 30.368C31.6953 30.0356 36.5712 29.1946 40.5828 29.1946C44.7079 29.1996 50.1905 30.0306 51.9616 30.3198Z" fill="url(#paint7_linear_2478_12642)"/>
<path d="M51.9617 31.9337V55.9951C50.5059 56.8693 46.9028 58.5879 41.0846 58.5879C35.4223 58.5879 31.6836 56.7895 30.0566 55.804C30.0075 48.6572 29.9465 38.65 29.9498 31.7874C32.0412 31.4833 36.6561 30.9032 41.0846 30.9032C45.9045 30.9032 50.4008 31.6461 51.9617 31.9337Z" fill="url(#paint8_linear_2478_12642)"/>
<path d="M34.6104 59.0798L34.6917 60.1352C39.2575 62.0099 41.9979 60.8681 41.9979 60.8681L42.4149 61.6858C39.5066 62.4986 34.7765 61.1872 34.7765 61.1872L34.9459 62.329C38.5982 64.1191 43.4199 62.5717 43.4199 62.5717L43.7588 63.3878C40.9789 64.1154 38.0494 64.0866 35.2849 63.3047C35.2849 64.9351 37.3593 65.5052 37.3593 65.5052C46.3095 65.5052 50.5498 63.5673 51.9734 62.718V64.7723C51.3074 65.9939 49.1516 69.1667 40.515 69.1667C31.8784 69.1667 30.1378 64.6094 30.1378 64.6094C30.1378 64.6094 30.1073 60.9363 30.0684 55.8005C31.6954 56.7861 35.434 58.5845 41.0963 58.5845C46.9145 58.5845 50.5176 56.8659 51.9734 55.9917V57.3213C43.3673 61.8637 34.6104 59.0798 34.6104 59.0798Z" fill="url(#paint9_linear_2478_12642)"/>
<path d="M51.9617 57.3263V62.7246C50.5381 63.5739 46.2977 65.5119 37.3476 65.5119C37.3476 65.5119 35.2732 64.9418 35.2732 63.3113C38.0377 64.0933 40.9672 64.122 43.7471 63.3944L43.4081 62.5784C43.4081 62.5784 38.5915 64.1257 34.9342 62.3357L34.7647 61.1939C34.7647 61.1939 39.4949 62.4986 42.4031 61.6925L41.9862 60.8748C41.9862 60.8748 39.2457 62.0166 34.68 60.1418L34.5986 59.0864C34.5986 59.0864 43.3674 61.8637 51.9617 57.3263Z" fill="url(#paint10_linear_2478_12642)"/>
<path d="M47.7383 16.6763L46.891 16.1245V10.8757L46.6825 10.7095V16.0862C46.3435 15.7621 45.6877 15.7622 45.6877 15.7622V10.3057L45.3979 10.1395V15.6375C45.1053 15.4829 44.7845 15.3863 44.4539 15.3533V9.77546L44.1149 9.73391V15.1904C43.7844 15.1103 43.4597 15.0691 43.159 15.0691V9.57103H42.9131V14.9944C42.5596 14.9422 42.0932 14.8646 41.7388 14.8646V9.28682L41.4783 9.24527V14.8646C40.7544 14.7931 40.0813 14.9029 40.0813 14.9029V9.28682H39.9069V14.8646C39.3684 14.8646 39.0187 14.9273 38.5119 15.0691V9.42592L38.2204 9.4497V15.1286C37.8459 15.1286 36.9748 15.4331 36.9748 15.4331V9.85524L36.764 9.89555V15.464C36.3541 15.6375 35.6025 16.0678 35.6025 16.0678L35.6054 10.2026C36.6453 9.51969 37.8447 9.10628 39.0916 9.00095C40.723 8.85341 42.3659 8.88127 43.9912 9.08405C43.9912 9.08405 46.6825 9.77546 47.6957 10.7677C47.6957 10.7677 48.174 12.6462 47.7383 16.6763Z" fill="url(#paint11_linear_2478_12642)"/>
</g>
<defs>
<linearGradient id="paint0_linear_2478_12642" x1="26" y1="34.0741" x2="-12.2583" y2="-36.9428" gradientUnits="userSpaceOnUse">
<stop stop-color="#D9D9D9"/>
<stop offset="1" stop-color="#737373"/>
</linearGradient>
<linearGradient id="paint1_linear_2478_12642" x1="26.675" y1="34.0741" x2="-11.8468" y2="-36.5381" gradientUnits="userSpaceOnUse">
<stop stop-color="#D9D9D9"/>
<stop offset="1" stop-color="#737373"/>
</linearGradient>
<linearGradient id="paint2_linear_2478_12642" x1="4.5374e-07" y1="29.6296" x2="9.35996" y2="67.4427" gradientUnits="userSpaceOnUse">
<stop stop-color="#A09E9E"/>
<stop offset="1" stop-color="#7B7B7B"/>
</linearGradient>
<linearGradient id="paint3_linear_2478_12642" x1="49.641" y1="73.9153" x2="44.7456" y2="41.2026" gradientUnits="userSpaceOnUse">
<stop stop-color="#C5C5C5"/>
<stop offset="1" stop-color="#5F5F5F"/>
</linearGradient>
<linearGradient id="paint4_linear_2478_12642" x1="44.7576" y1="16.1347" x2="27.8844" y2="15.0216" gradientUnits="userSpaceOnUse">
<stop offset="0.314841" stop-color="#363C7A"/>
<stop offset="1" stop-color="#636EE0"/>
</linearGradient>
<linearGradient id="paint5_linear_2478_12642" x1="24.6024" y1="20.6968" x2="62.1114" y2="20.1402" gradientUnits="userSpaceOnUse">
<stop offset="0.264911" stop-color="#DDA322"/>
<stop offset="0.395657" stop-color="#F6BB3E"/>
<stop offset="1" stop-color="#BB7C0D"/>
</linearGradient>
<linearGradient id="paint6_linear_2478_12642" x1="41.0682" y1="19.9588" x2="41.0979" y2="14.0551" gradientUnits="userSpaceOnUse">
<stop stop-color="#9E731E" stop-opacity="0.871369"/>
<stop offset="0.462479" stop-color="#E0A22A"/>
<stop offset="1" stop-color="#7A5817" stop-opacity="0.8"/>
</linearGradient>
<linearGradient id="paint7_linear_2478_12642" x1="30.6831" y1="29.1502" x2="54.1856" y2="29.7764" gradientUnits="userSpaceOnUse">
<stop offset="0.0288399" stop-color="#BF851E"/>
<stop offset="0.402316" stop-color="#F6BC3F"/>
<stop offset="0.804913" stop-color="#BF851E"/>
</linearGradient>
<linearGradient id="paint8_linear_2478_12642" x1="24.5981" y1="37.0059" x2="62.1197" y2="36.7562" gradientUnits="userSpaceOnUse">
<stop offset="0.218419" stop-color="#DDA322"/>
<stop offset="0.395657" stop-color="#F6BB3E"/>
<stop offset="1" stop-color="#BB7C0D"/>
</linearGradient>
<linearGradient id="paint9_linear_2478_12642" x1="41.0682" y1="55.852" x2="41.0682" y2="73.0942" gradientUnits="userSpaceOnUse">
<stop offset="0.63629" stop-color="#E0A22A"/>
<stop offset="1" stop-color="#7A5817" stop-opacity="0.8"/>
</linearGradient>
<linearGradient id="paint10_linear_2478_12642" x1="31.2298" y1="67.4586" x2="58.3268" y2="58.5145" gradientUnits="userSpaceOnUse">
<stop stop-color="#E1A32B"/>
<stop offset="0.631996" stop-color="#D89621"/>
<stop offset="1" stop-color="#D19C3C"/>
</linearGradient>
<linearGradient id="paint11_linear_2478_12642" x1="46.8758" y1="14.3906" x2="33.3482" y2="14.0427" gradientUnits="userSpaceOnUse">
<stop stop-color="#2E345C"/>
<stop offset="0.69869" stop-color="#2E366D"/>
<stop offset="1" stop-color="#4A56AC"/>
</linearGradient>
<clipPath id="clip0_2478_12642">
<rect width="22" height="60.2469" fill="white" transform="translate(30 8.88892)"/>
</clipPath>
</defs>
</svg>
