<svg width="236" height="200" viewBox="0 0 236 200" fill="none" xmlns="http://www.w3.org/2000/svg">
<path opacity="0.2" d="M24.2636 119.346C21.1793 149.292 37.8612 145.575 37.8612 145.575C49.9118 178.848 91.3348 162.04 91.3348 162.04C109.115 187.955 129.377 161.498 129.377 161.498C174.114 194.058 185.964 139.443 185.964 139.443C216.368 146.402 210.629 110.876 210.629 110.876C224.828 82.6791 198.215 74.4178 198.215 74.4178C207.143 50.6038 182.297 51.8301 182.297 51.8301C170.132 6.48359 139.537 37.7793 139.537 37.7793C91.3348 -11.8927 72.2657 42.9985 72.2657 42.9985C48.8806 30.1265 47.2668 55.5852 47.2668 55.5852C7.71544 45.4132 22.8408 99.8195 22.8408 99.8195C7.40987 106.474 24.2636 119.346 24.2636 119.346ZM56.0136 72.3644C56.0136 72.3644 70.1841 75.6537 74.1564 59.0551C74.1564 59.0551 110.499 85.5976 148.341 50.6893C148.341 50.6893 152.533 73.7999 173.092 76.4998C173.092 76.4998 171.392 95.9788 188.208 104.069C188.208 104.069 161.786 115.239 168.575 141.63C168.575 141.63 147.921 128.434 141.944 151.374C141.944 151.374 121.185 119.831 95.0015 148.123C95.0015 148.123 95.3071 107.491 52.5664 120.477C52.5664 120.477 57.9997 107.938 42.6547 105.067C42.6452 105.058 66.5173 100.77 56.0136 72.3644Z" fill="#FAFAFA"/>
<path d="M145.243 25.2863L55.0597 30.2746C52.9745 30.3899 51.3781 32.1663 51.4939 34.2422L58.1211 152.996C58.2369 155.072 60.0212 156.662 62.1064 156.546L152.29 151.558C154.375 151.443 155.972 149.666 155.856 147.59L149.229 28.8363C149.113 26.7603 147.328 25.1709 145.243 25.2863Z" fill="#CBCBCB"/>
<path d="M152.843 32.8497L62.6598 37.838C60.5746 37.9534 58.9782 39.7298 59.094 41.8057L65.7212 160.56C65.837 162.636 67.6213 164.225 69.7064 164.11L159.89 159.121C161.975 159.006 163.572 157.23 163.456 155.154L156.829 36.3997C156.713 34.3238 154.929 32.7344 152.843 32.8497Z" fill="#E4E4E4"/>
<path d="M166.78 45.0232H76.4576C74.3692 45.0232 72.6763 46.7087 72.6763 48.7878V167.725C72.6763 169.804 74.3692 171.49 76.4576 171.49H166.78C168.869 171.49 170.562 169.804 170.562 167.725V48.7878C170.562 46.7087 168.869 45.0232 166.78 45.0232Z" fill="#A3A1A1"/>
<path d="M91.373 70.2063H115.57" stroke="#E4E4E4" stroke-width="2" stroke-linecap="round" stroke-linejoin="round"/>
<path d="M91.373 122.768H126.341" stroke="#E4E4E4" stroke-width="2" stroke-linecap="round" stroke-linejoin="round"/>
<path d="M92.3375 103.175L90.1699 102.814C90.1699 102.814 90.1699 98.5266 90.3895 95.7031C90.4 94.9191 90.5386 94.1421 90.8001 93.4025C90.972 93.1133 91.1601 92.834 91.3635 92.5659C92.7959 90.579 96.2907 86.149 97.3793 84.7705L98.0573 83.9719C98.6589 83.3635 100.234 82.2227 103.653 81.966C107.177 81.7682 110.709 81.7682 114.233 81.966L122.416 82.3938C123.828 82.4584 125.201 82.8664 126.417 83.5822C126.701 83.7614 126.975 83.9549 127.239 84.1621C127.422 84.3079 127.594 84.4668 127.754 84.6374L127.859 84.7515H127.926C127.926 84.7515 128.327 85.1222 128.881 85.7021L137.265 94.3722C137.306 94.3885 137.342 94.4147 137.37 94.4482H137.303L143.118 97.9562L143.176 98.0132L143.262 98.0988C143.367 98.2319 143.491 98.3935 143.624 98.5931L143.758 98.8022L143.892 99.0494C143.959 99.173 144.035 99.3061 144.102 99.4582C144.188 99.6293 144.274 99.8099 144.36 100.01C145.229 102.025 145.181 105.714 144.102 106.189L142.345 106.303C141.81 108.147 140.492 109.459 138.907 109.516C138.106 109.473 137.337 109.186 136.704 108.695C136.07 108.204 135.603 107.532 135.365 106.769L122.426 107.615H122.33L119.943 107.197V107.244H119.876C119.561 109.592 117.909 111.418 115.856 111.484C113.507 111.56 111.54 109.326 111.445 106.512C111.445 106.331 111.445 106.16 111.445 105.98L110.681 105.894C110.685 105.869 110.685 105.843 110.681 105.818L104.102 104.867L101.132 104.44C101.132 104.525 101.132 104.573 101.132 104.573H100.177C100.175 104.541 100.175 104.509 100.177 104.478C100.129 107.14 98.5634 108.993 96.539 108.86C94.0754 108.699 92.624 107.14 92.8245 104.25C92.8245 103.841 92.8245 103.651 92.9104 103.299L91.9556 103.128C91.9556 103.128 92.3089 103.318 92.3375 103.175Z" fill="#DBDBDB"/>
<path d="M93.9322 105.077C93.9136 105.008 93.9096 104.935 93.9206 104.865C93.9316 104.794 93.9573 104.726 93.996 104.666C94.0348 104.606 94.0857 104.555 94.1456 104.515C94.2055 104.476 94.273 104.449 94.3438 104.437C94.4146 104.425 94.4872 104.428 94.5568 104.446C94.6264 104.463 94.6916 104.495 94.7481 104.539C94.8047 104.583 94.8513 104.639 94.8851 104.702C94.9189 104.765 94.9391 104.834 94.9444 104.906C94.9578 105.322 95.108 105.722 95.3719 106.045C95.6359 106.367 95.9989 106.595 96.4054 106.693C96.4991 106.75 96.5722 106.835 96.6138 106.936C96.6555 107.037 96.6636 107.149 96.6369 107.255C96.6103 107.362 96.5503 107.456 96.4657 107.526C96.3811 107.596 96.2763 107.637 96.1666 107.643L95.8897 107.558C95.3632 107.368 94.9008 107.034 94.5548 106.596C94.2088 106.157 93.9931 105.631 93.9322 105.077ZM98.7066 106.712C98.5904 106.641 98.5071 106.527 98.4749 106.395C98.4427 106.264 98.4642 106.124 98.5348 106.008C98.635 105.851 98.7152 105.682 98.7735 105.504C98.9842 104.818 99.03 104.092 98.9072 103.384C98.8869 103.25 98.9213 103.112 99.0028 103.003C99.0843 102.893 99.2062 102.82 99.3416 102.8C99.4771 102.78 99.6151 102.814 99.7253 102.895C99.8354 102.976 99.9086 103.097 99.9289 103.232C100.069 104.103 100.007 104.994 99.7475 105.837C99.6611 106.086 99.5491 106.325 99.4133 106.55C99.3512 106.648 99.2586 106.722 99.1498 106.761C99.041 106.801 98.9221 106.803 98.8117 106.769L98.7066 106.712ZM115.131 109.649C115.135 109.582 115.154 109.517 115.184 109.457C115.215 109.397 115.257 109.343 115.309 109.3C115.361 109.257 115.42 109.224 115.485 109.204C115.549 109.184 115.617 109.177 115.685 109.183H116.219C117.222 109.183 117.461 109.183 117.862 108.47C117.894 108.412 117.937 108.361 117.989 108.32C118.04 108.278 118.1 108.247 118.164 108.229C118.228 108.21 118.295 108.204 118.361 108.212C118.427 108.219 118.491 108.239 118.549 108.271C118.61 108.302 118.663 108.345 118.707 108.397C118.75 108.449 118.783 108.509 118.802 108.573C118.822 108.638 118.828 108.706 118.821 108.773C118.813 108.841 118.792 108.906 118.759 108.965C118.072 110.22 117.289 110.21 116.21 110.201H115.599C115.558 110.21 115.515 110.21 115.474 110.201C115.364 110.162 115.272 110.085 115.214 109.983C115.156 109.882 115.137 109.764 115.159 109.649H115.131ZM91.6691 101.626V101.036C91.6716 100.969 91.6874 100.903 91.7156 100.841C91.7438 100.78 91.7839 100.725 91.8336 100.679C91.8832 100.633 91.9415 100.597 92.005 100.574C92.0686 100.55 92.1361 100.539 92.2039 100.542C92.2716 100.542 92.3386 100.556 92.4007 100.582C92.4629 100.609 92.519 100.648 92.5655 100.697C92.612 100.746 92.648 100.804 92.6712 100.867C92.6944 100.93 92.7043 100.998 92.7004 101.065V101.188L94.7057 101.426C94.7805 101.432 94.8532 101.454 94.919 101.49C94.9848 101.526 95.0423 101.576 95.0876 101.635C95.127 101.697 95.1525 101.766 95.1624 101.838C95.1723 101.91 95.1663 101.984 95.1449 102.054C95.1152 102.186 95.0343 102.301 94.9199 102.374C94.8055 102.447 94.6667 102.472 94.5338 102.443L92.1561 102.149H92.0511C91.9359 102.12 91.8346 102.052 91.7648 101.956C91.6949 101.861 91.6611 101.744 91.6691 101.626ZM113.278 107.7C113.139 106.617 113.181 105.519 113.402 104.449C113.432 104.317 113.513 104.202 113.627 104.129C113.742 104.056 113.881 104.031 114.013 104.059C114.079 104.072 114.142 104.097 114.198 104.134C114.254 104.172 114.301 104.22 114.338 104.276C114.374 104.332 114.399 104.394 114.411 104.46C114.422 104.526 114.42 104.593 114.405 104.658C114.216 105.597 114.177 106.56 114.29 107.51C114.303 107.577 114.301 107.645 114.287 107.71C114.272 107.776 114.245 107.838 114.205 107.893C114.166 107.948 114.116 107.995 114.059 108.03C114.001 108.066 113.937 108.089 113.87 108.1C113.788 108.114 113.704 108.114 113.622 108.1C113.532 108.07 113.451 108.018 113.387 107.948C113.324 107.878 113.279 107.793 113.259 107.7H113.278ZM101.208 102.947C101.218 102.88 101.24 102.816 101.275 102.758C101.309 102.7 101.355 102.649 101.409 102.608C101.463 102.568 101.524 102.538 101.59 102.521C101.656 102.504 101.724 102.5 101.791 102.51L104.837 102.9C104.905 102.907 104.97 102.927 105.029 102.96C105.089 102.993 105.141 103.037 105.183 103.09C105.225 103.143 105.255 103.204 105.273 103.27C105.291 103.335 105.295 103.403 105.286 103.47C105.267 103.603 105.196 103.723 105.089 103.805C104.982 103.887 104.847 103.924 104.713 103.907L101.657 103.518H101.552C101.431 103.474 101.331 103.389 101.269 103.276C101.208 103.164 101.189 103.034 101.218 102.909L101.208 102.947ZM107.32 103.727C107.339 103.594 107.409 103.473 107.516 103.392C107.624 103.31 107.759 103.273 107.893 103.289L110.948 103.679C111.082 103.697 111.204 103.767 111.287 103.874C111.369 103.981 111.405 104.116 111.388 104.25C111.37 104.383 111.299 104.504 111.192 104.586C111.085 104.668 110.949 104.705 110.815 104.687L107.759 104.297H107.663C107.536 104.261 107.427 104.178 107.36 104.065C107.292 103.952 107.271 103.817 107.301 103.689L107.32 103.727ZM91.7742 98.0227L91.8601 94.9616C91.8651 94.8271 91.9229 94.6999 92.0211 94.6075C92.1194 94.515 92.2501 94.4647 92.3853 94.4673C92.5204 94.4722 92.6481 94.5298 92.741 94.6276C92.8338 94.7254 92.8844 94.8556 92.8818 94.9901L92.7959 98.0607C92.7909 98.1952 92.7331 98.3224 92.6349 98.4149C92.5366 98.5073 92.4059 98.5577 92.2707 98.5551C92.2203 98.5651 92.1684 98.5651 92.1179 98.5551C91.9934 98.5214 91.8864 98.4417 91.819 98.3321C91.7515 98.2225 91.7286 98.0915 91.7551 97.9657L91.7742 98.0227ZM118.922 105.761L119.046 105.343C119.082 105.218 119.164 105.111 119.275 105.044C119.387 104.977 119.52 104.955 119.647 104.982L122.216 105.552C122.282 105.565 122.345 105.592 122.401 105.63C122.457 105.668 122.504 105.717 122.541 105.774C122.577 105.831 122.602 105.894 122.613 105.96C122.625 106.027 122.623 106.095 122.607 106.16C122.578 106.292 122.497 106.407 122.382 106.48C122.268 106.553 122.129 106.578 121.996 106.55L119.896 106.084C119.852 106.208 119.762 106.31 119.644 106.368C119.527 106.427 119.391 106.438 119.265 106.398C119.192 106.381 119.124 106.349 119.065 106.304C119.006 106.258 118.957 106.201 118.923 106.135C118.888 106.069 118.868 105.996 118.865 105.922C118.862 105.847 118.874 105.773 118.902 105.704L118.922 105.761ZM124.651 106.17C124.631 106.098 124.627 106.023 124.639 105.95C124.651 105.877 124.679 105.807 124.721 105.746C124.763 105.684 124.817 105.633 124.881 105.594C124.945 105.556 125.016 105.532 125.09 105.523L128.146 105.21C128.214 105.203 128.282 105.21 128.347 105.23C128.412 105.25 128.473 105.282 128.525 105.326C128.577 105.369 128.621 105.422 128.652 105.482C128.684 105.542 128.703 105.608 128.709 105.676C128.716 105.742 128.709 105.809 128.69 105.872C128.67 105.936 128.638 105.995 128.595 106.046C128.553 106.098 128.5 106.14 128.441 106.171C128.382 106.202 128.317 106.221 128.251 106.227L125.186 106.531C125.116 106.546 125.045 106.546 124.976 106.531C124.882 106.501 124.799 106.446 124.735 106.373C124.671 106.299 124.629 106.209 124.613 106.113L124.651 106.17ZM137.857 109.022C137.355 108.707 136.925 108.291 136.596 107.799C136.267 107.308 136.046 106.752 135.947 106.17C135.916 106.038 135.938 105.898 136.01 105.782C136.081 105.666 136.196 105.584 136.329 105.552C136.463 105.523 136.603 105.548 136.719 105.621C136.835 105.694 136.918 105.809 136.95 105.942C137.012 106.376 137.163 106.793 137.395 107.166C137.627 107.539 137.934 107.86 138.296 108.109C138.423 108.163 138.523 108.266 138.574 108.393C138.625 108.52 138.623 108.663 138.568 108.789C138.514 108.915 138.411 109.014 138.283 109.065C138.155 109.116 138.012 109.114 137.886 109.06L137.857 109.022ZM130.743 105.523C130.73 105.389 130.77 105.254 130.856 105.149C130.942 105.044 131.066 104.977 131.201 104.963L134.267 104.658C134.402 104.645 134.537 104.686 134.643 104.771C134.748 104.856 134.816 104.98 134.83 105.115C134.843 105.249 134.803 105.384 134.717 105.489C134.631 105.594 134.507 105.661 134.372 105.676L131.306 105.98C131.234 105.994 131.159 105.994 131.087 105.98C130.991 105.946 130.907 105.885 130.845 105.803C130.784 105.722 130.749 105.625 130.743 105.523ZM93.6362 92.7941C93.5296 92.7114 93.4599 92.5904 93.442 92.457C93.4242 92.3237 93.4596 92.1887 93.5407 92.0811L95.4505 89.6474C95.5352 89.5407 95.6585 89.471 95.794 89.4533C95.9295 89.4355 96.0666 89.4711 96.1762 89.5523C96.2828 89.635 96.3525 89.7561 96.3703 89.8894C96.3882 90.0227 96.3528 90.1577 96.2717 90.2653L94.3619 92.699C94.2971 92.7845 94.2066 92.8471 94.1036 92.8779C94.0005 92.9086 93.8903 92.9059 93.789 92.8701C93.7323 92.8584 93.6796 92.8322 93.6362 92.7941ZM140.569 108.547C140.517 108.504 140.474 108.452 140.443 108.393C140.412 108.335 140.392 108.27 140.386 108.204C140.38 108.138 140.387 108.071 140.407 108.007C140.427 107.944 140.459 107.885 140.502 107.834C140.637 107.658 140.744 107.462 140.817 107.254C140.994 106.613 141.036 105.943 140.941 105.286C140.931 105.229 140.931 105.171 140.941 105.115C140.905 105.057 140.882 104.992 140.874 104.925C140.865 104.858 140.869 104.79 140.886 104.724C140.903 104.659 140.933 104.598 140.973 104.544C141.014 104.49 141.065 104.445 141.124 104.411C141.182 104.376 141.247 104.354 141.314 104.345C142.555 104.183 142.832 103.822 142.946 103.48C142.994 103.351 143.02 103.217 143.023 103.08C143.024 103.013 143.039 102.946 143.067 102.885C143.095 102.823 143.135 102.768 143.185 102.723C143.235 102.677 143.294 102.643 143.358 102.621C143.422 102.599 143.49 102.59 143.558 102.595C143.625 102.598 143.691 102.614 143.752 102.642C143.813 102.67 143.868 102.71 143.914 102.76C143.959 102.809 143.994 102.867 144.016 102.931C144.039 102.994 144.048 103.061 144.045 103.128C144.035 103.36 143.993 103.591 143.92 103.812C143.763 104.204 143.503 104.547 143.167 104.804C142.831 105.062 142.432 105.225 142.011 105.276C142.109 106.048 142.043 106.832 141.82 107.577C141.716 107.922 141.548 108.245 141.323 108.528C141.257 108.606 141.169 108.662 141.07 108.689C140.971 108.717 140.866 108.713 140.769 108.68C140.69 108.657 140.62 108.61 140.569 108.547ZM97.3984 87.9172C97.3467 87.8749 97.304 87.8229 97.2726 87.7641C97.2412 87.7053 97.2219 87.6409 97.2157 87.5746C97.2094 87.5083 97.2165 87.4414 97.2364 87.3778C97.2563 87.3143 97.2887 87.2552 97.3316 87.2042C98.0036 86.3836 98.7659 85.6406 99.6042 84.9892C99.6567 84.941 99.7187 84.9042 99.7862 84.8811C99.8537 84.858 99.9253 84.8492 99.9964 84.855C100.068 84.8609 100.137 84.8815 100.199 84.9153C100.262 84.9492 100.317 84.9957 100.361 85.0518C100.405 85.1079 100.436 85.1725 100.454 85.2414C100.471 85.3103 100.474 85.3821 100.462 85.4522C100.45 85.5222 100.424 85.5891 100.385 85.6485C100.345 85.7079 100.294 85.7585 100.234 85.7972C99.4571 86.4021 98.7493 87.0907 98.1242 87.8507C98.0579 87.9314 97.9684 87.9901 97.8678 88.0189C97.7671 88.0478 97.6601 88.0455 97.5608 88.0123C97.4999 87.9939 97.4442 87.9613 97.3984 87.9172ZM142.278 100.399C141.814 99.561 141.16 98.8417 140.368 98.2984C140.262 98.2157 140.192 98.0947 140.174 97.9613C140.156 97.828 140.192 97.693 140.273 97.5854C140.312 97.5311 140.363 97.4852 140.42 97.4505C140.478 97.4157 140.542 97.3928 140.609 97.3831C140.676 97.3733 140.744 97.377 140.809 97.3938C140.874 97.4105 140.935 97.4402 140.989 97.4808C141.89 98.1227 142.632 98.9617 143.157 99.9335C143.188 99.9933 143.206 100.059 143.211 100.126C143.217 100.193 143.208 100.26 143.187 100.324C143.166 100.388 143.132 100.447 143.087 100.497C143.042 100.548 142.988 100.589 142.927 100.618C142.866 100.646 142.799 100.661 142.732 100.661C142.664 100.661 142.597 100.646 142.536 100.618C142.427 100.577 142.336 100.5 142.278 100.399ZM135.384 96.0168L134.935 95.5605C134.88 95.5143 134.835 95.4572 134.804 95.3927C134.773 95.3283 134.755 95.2581 134.752 95.1865C134.75 95.1149 134.762 95.0436 134.789 94.9771C134.816 94.9107 134.856 94.8505 134.908 94.8006C134.959 94.7506 135.021 94.7119 135.088 94.687C135.156 94.6621 135.228 94.6515 135.3 94.6559C135.371 94.6603 135.441 94.6797 135.505 94.7127C135.569 94.7457 135.625 94.7916 135.67 94.8475L136.014 95.1993C136.234 95.2563 136.663 95.3704 137.217 95.551C137.57 95.6746 137.924 95.8077 138.258 95.9503C138.321 95.9742 138.379 96.0107 138.428 96.0577C138.477 96.1047 138.515 96.1611 138.541 96.2234C138.567 96.2858 138.58 96.3527 138.579 96.4202C138.578 96.4877 138.563 96.5542 138.535 96.6157C138.482 96.7398 138.382 96.8383 138.257 96.8899C138.132 96.9415 137.992 96.942 137.867 96.8914C137.551 96.7583 137.217 96.6348 136.912 96.5207C136.176 96.2735 135.67 96.1594 135.67 96.1594H135.594C135.514 96.1282 135.442 96.0794 135.384 96.0168ZM102.087 84.0765C102.048 83.9467 102.06 83.8066 102.123 83.686C102.185 83.5654 102.292 83.4736 102.421 83.4301C102.662 83.3453 102.912 83.2879 103.166 83.259C103.548 83.2114 104.255 83.2114 105.649 83.2114C105.785 83.2114 105.917 83.2655 106.013 83.3618C106.11 83.4581 106.164 83.5886 106.164 83.7248C106.164 83.8609 106.11 83.9915 106.013 84.0878C105.917 84.1841 105.785 84.2381 105.649 84.2381C104.34 84.2381 103.443 84.2381 103.261 84.2381C103.083 84.2659 102.907 84.3104 102.736 84.3712C102.631 84.4047 102.517 84.4047 102.412 84.3712C102.339 84.3484 102.273 84.3102 102.217 84.2593C102.161 84.2084 102.116 84.1461 102.087 84.0765ZM132.787 93.3455L130.628 91.1589C130.535 91.0617 130.483 90.9323 130.483 90.7977C130.483 90.6631 130.535 90.5337 130.628 90.4364C130.725 90.3412 130.855 90.2878 130.991 90.2878C131.127 90.2878 131.258 90.3412 131.354 90.4364L133.503 92.623C133.598 92.7191 133.652 92.8489 133.652 92.9842C133.652 93.1195 133.598 93.2493 133.503 93.3455C133.435 93.4124 133.35 93.4593 133.258 93.4811C133.165 93.5029 133.068 93.4988 132.977 93.4691C132.905 93.4442 132.839 93.4017 132.787 93.3455ZM108.217 83.7723C108.22 83.6369 108.275 83.5078 108.371 83.412C108.467 83.3163 108.597 83.2614 108.733 83.259H111.827C111.894 83.2602 111.961 83.2747 112.023 83.3017C112.085 83.3286 112.142 83.3675 112.189 83.416C112.236 83.4646 112.273 83.5219 112.297 83.5846C112.322 83.6474 112.334 83.7144 112.333 83.7818C112.328 83.9172 112.27 84.0453 112.172 84.1393C112.074 84.2333 111.944 84.2858 111.808 84.2857H108.733C108.679 84.2955 108.624 84.2955 108.571 84.2857C108.463 84.2504 108.371 84.1811 108.307 84.0884C108.243 83.9956 108.212 83.8846 108.217 83.7723ZM128.48 88.9629L126.331 86.7669C126.284 86.7201 126.247 86.6645 126.222 86.6034C126.196 86.5422 126.183 86.4766 126.183 86.4104C126.183 86.3442 126.196 86.2786 126.222 86.2174C126.247 86.1563 126.284 86.1007 126.331 86.0539C126.428 85.9587 126.558 85.9053 126.694 85.9053C126.83 85.9053 126.961 85.9587 127.057 86.0539L129.206 88.2499C129.301 88.3461 129.355 88.4759 129.355 88.6112C129.355 88.7465 129.301 88.8763 129.206 88.9724C129.139 89.0407 129.054 89.0879 128.96 89.1081C128.867 89.1284 128.77 89.1209 128.68 89.0865C128.604 89.0643 128.534 89.0215 128.48 88.9629ZM114.386 83.8389C114.391 83.7044 114.449 83.5772 114.547 83.4848C114.645 83.3923 114.776 83.3419 114.911 83.3445C116.019 83.3445 117.069 83.3445 118.005 83.4301C118.073 83.4325 118.139 83.4483 118.201 83.4763C118.262 83.5044 118.318 83.5443 118.364 83.5938C118.41 83.6432 118.446 83.7012 118.47 83.7645C118.493 83.8278 118.504 83.895 118.501 83.9624C118.494 84.0978 118.434 84.225 118.334 84.3172C118.235 84.4094 118.103 84.4595 117.967 84.4568L114.892 84.3617C114.842 84.3717 114.79 84.3717 114.739 84.3617C114.63 84.3261 114.536 84.2553 114.472 84.1606C114.408 84.0659 114.378 83.9527 114.386 83.8389ZM120.554 84.086C120.573 83.953 120.644 83.8327 120.751 83.7509C120.858 83.6691 120.993 83.6325 121.127 83.6487C122.02 83.7629 122.9 83.9634 123.753 84.2476L124.221 84.4188C124.33 84.4783 124.414 84.5751 124.457 84.6914C124.5 84.8077 124.5 84.9356 124.456 85.0514C124.411 85.1673 124.327 85.2633 124.217 85.3217C124.107 85.3802 123.98 85.3971 123.858 85.3694C122.934 85.023 121.973 84.7806 120.994 84.6469H120.898C120.783 84.6098 120.685 84.5329 120.622 84.4299C120.559 84.327 120.535 84.205 120.554 84.086Z" fill="#CBCBCB"/>
<path d="M200.087 62.3538L158.597 183.677L158.492 183.772L142.612 178.401L142.574 178.249L184.007 56.916L200.087 62.3538Z" fill="#CBCBCB"/>
<path d="M158.492 183.772L151.598 190.018L144.589 187.641L142.612 178.401L158.492 183.772Z" fill="#DBDBDB"/>
<path d="M185.856 54.3153L200.168 59.1576C200.408 59.2387 200.606 59.4113 200.718 59.6375C200.83 59.8637 200.847 60.1248 200.765 60.3636L198.135 68.0684L182.06 62.6296L184.703 54.8888C184.788 54.6669 184.954 54.4849 185.168 54.3788C185.381 54.2726 185.627 54.25 185.856 54.3153Z" fill="#A3A1A1"/>
<path d="M198.258 67.6014L182.219 62.1748L180.658 66.7473L196.697 72.1739L198.258 67.6014Z" fill="#DBDBDB"/>
<path d="M151.598 190.018L146.155 194.942L144.589 187.641L151.598 190.018Z" fill="#A3A1A1"/>
<path d="M191.35 70.2414L185.718 68.3357L147.624 179.93L153.257 181.836L191.35 70.2414Z" fill="#A3A1A1"/>
<path d="M187.157 144.101C187.32 143.93 187.501 143.778 187.663 143.616C188.093 143.198 186.604 144.339 187.53 143.73C187.73 143.607 187.931 143.483 188.141 143.379L188.456 143.217C189.124 142.856 187.988 143.379 187.959 143.417C188.16 143.151 189.105 143.037 189.411 142.97C189.716 142.903 190.576 142.78 189.611 142.903C188.647 143.027 189.764 142.903 190.003 142.903C190.471 142.903 190.958 142.903 191.407 142.903C191.855 142.903 190.108 142.675 190.824 142.827L191.158 142.884C191.407 142.941 191.655 142.998 191.894 143.075C192.132 143.151 192.925 143.474 192.056 143.075C191.187 142.675 192.056 143.075 192.237 143.198C192.419 143.322 192.753 143.455 192.763 143.54C192.772 143.626 191.808 142.675 192.218 143.122C192.323 143.236 192.447 143.331 192.552 143.436C193.183 144.016 192.123 142.713 192.333 143.113C192.425 143.292 192.527 143.467 192.638 143.635C192.963 144.139 192.276 142.4 192.467 143.284C192.485 143.391 192.514 143.496 192.552 143.597C192.772 144.177 192.495 142.419 192.486 143.065C192.486 143.293 192.486 143.531 192.486 143.769C192.505 143.891 192.505 144.016 192.486 144.139C192.486 144.139 192.743 142.846 192.552 143.521C192.476 143.797 192.428 144.063 192.342 144.339C192.256 144.615 192.237 144.615 192.19 144.757C191.932 145.537 192.753 143.807 192.247 144.605C192.151 144.748 192.065 144.919 191.98 145.071C191.731 145.518 191.731 145.014 192.228 144.776C191.972 144.966 191.744 145.19 191.55 145.442C191.941 144.852 192.285 144.928 191.894 145.166L191.502 145.413C191.168 145.613 190.824 145.793 190.471 145.965C188.967 146.632 187.555 147.488 186.269 148.512C183.118 151.193 181.82 154.872 180.416 158.608C179.595 160.804 181.371 163.599 183.548 164.103C184.686 164.388 185.891 164.23 186.917 163.661C187.942 163.092 188.711 162.156 189.067 161.042L190.022 158.561C190.184 158.152 190.757 157.201 190.022 158.399C190.213 158.076 190.347 157.705 190.528 157.372C190.71 157.04 190.939 156.697 191.149 156.365C191.521 155.775 190.958 156.621 190.901 156.669C191.056 156.508 191.199 156.337 191.33 156.156C191.617 155.832 191.922 155.509 192.285 155.205C192.415 155.108 192.536 155 192.648 154.882C192.056 155.319 191.941 155.414 192.323 155.148L192.619 154.958C193.889 154.178 195.322 153.703 196.553 152.866C198.606 151.469 200.139 149.438 200.917 147.086C201.553 145.421 201.711 143.613 201.374 141.864C201.037 140.114 200.217 138.493 199.008 137.18C196.73 135.035 193.691 133.876 190.557 133.958C188.78 133.929 187.015 134.25 185.363 134.902C183.711 135.555 182.205 136.526 180.932 137.76C180.152 138.609 179.732 139.725 179.758 140.875C179.785 142.024 180.255 143.12 181.072 143.933C181.889 144.746 182.989 145.215 184.144 145.241C185.299 145.267 186.419 144.848 187.272 144.073L187.157 144.101Z" fill="#A3A1A1"/>
<path d="M181.495 177.013C187.224 177.013 187.272 168.086 181.495 168.086C175.718 168.086 175.708 177.013 181.495 177.013Z" fill="#A3A1A1"/>
<path d="M183.033 168.372C183.033 168.372 185.63 173.743 183.329 176.291C183.338 176.291 189.068 171.956 183.033 168.372Z" fill="#CBCBCB"/>
<path d="M185.076 164.179C185.076 164.179 187.377 164.531 190.338 155.252C190.338 155.252 191.636 153.227 195.981 151.45C200.326 149.672 200.822 142.19 200.593 140.27C200.364 138.35 205.11 150.033 193.174 154.463C191.26 155.852 189.906 157.874 189.354 160.167C188.313 164.464 185.076 164.179 185.076 164.179Z" fill="#CBCBCB"/>
<path d="M33.6217 21.3423C33.7076 21.0761 33.8127 20.8099 33.8986 20.5437C34.1182 19.8592 33.1729 21.9126 33.8222 20.7433C33.9592 20.495 34.109 20.2538 34.271 20.0208C34.3474 19.9068 34.4429 19.7927 34.5193 19.6691C35.0349 18.9181 34.1087 20.1064 34.0991 20.1634C34.166 19.7737 35.1113 19.1177 35.4073 18.8705C35.7033 18.6234 36.5436 18.0244 35.5888 18.6899C34.6339 19.3554 35.7511 18.6044 35.9898 18.4713C36.4863 18.1861 37.0115 17.9674 37.5272 17.7202C38.0428 17.4731 35.9994 18.2051 36.8492 17.9674L37.2503 17.8438C37.5367 17.7678 37.8423 17.6917 38.1383 17.6442C38.4343 17.5966 39.4656 17.4826 38.3293 17.5776C37.193 17.6727 38.3293 17.5776 38.5966 17.5776C38.7017 17.5776 39.2937 17.5776 39.351 17.6442C39.4083 17.7107 37.8423 17.2639 38.5394 17.5111C38.7017 17.5681 38.8927 17.6062 39.0645 17.6537C40.0672 17.9294 38.1956 17.1213 38.6444 17.435C38.8449 17.5776 39.0645 17.7012 39.2746 17.8248C39.8953 18.1861 38.186 16.703 38.8927 17.5491C38.969 17.6252 39.0645 17.7583 39.1505 17.8343C39.7234 18.3287 38.4343 16.5985 38.7876 17.3019C38.9118 17.5491 39.055 17.7963 39.1887 18.0435C39.2661 18.1738 39.324 18.3147 39.3606 18.4618C39.3606 18.5188 38.9118 16.9407 39.0836 17.7678C39.16 18.1005 39.2555 18.4237 39.3128 18.7184C39.3128 18.8991 39.3128 19.0797 39.3892 19.2508C39.5611 20.2015 39.4465 17.9009 39.3892 19.0512C39.3892 19.2698 39.3892 19.4885 39.3892 19.7071C39.3892 20.325 39.0932 19.7927 39.4942 19.2508C39.3183 19.5973 39.199 19.9696 39.1409 20.3536C39.2269 19.498 39.6375 19.4029 39.351 19.8592L39.0741 20.3441C38.8258 20.7433 38.5584 21.1236 38.2815 21.5039C37.0246 23.0683 35.9752 24.7873 35.1591 26.6184C33.2493 31.2481 33.9654 35.9159 34.5766 40.7072C34.9299 43.5117 38.3961 45.5461 41.0221 44.8426C42.4086 44.5068 43.6126 43.6537 44.3856 42.4596C45.1585 41.2655 45.4414 39.8214 45.1758 38.4256C45.0421 37.3704 44.8893 36.3152 44.7557 35.2599C44.6888 34.7276 44.7557 33.3586 44.7557 35.0603C44.7557 34.604 44.7557 34.1096 44.7557 33.6723C44.7557 33.235 44.8225 32.7217 44.8511 32.2558C44.918 31.4193 44.7938 32.6266 44.7557 32.7217C44.8331 32.4634 44.8905 32.1996 44.9275 31.9326C45.0249 31.4226 45.1492 30.918 45.2999 30.4211C45.3829 30.2392 45.4531 30.0518 45.51 29.8602C45.1185 30.6682 45.0517 30.8108 45.3095 30.3355C45.3763 30.2024 45.4432 30.0788 45.5196 29.9552C46.4744 28.4152 47.7063 27.1033 48.5561 25.5252C49.9685 22.8811 50.4685 19.848 49.9789 16.8932C49.7146 14.7598 48.8605 12.7413 47.5117 11.0628C46.1629 9.38425 44.3724 8.11156 42.3398 7.38655C38.7781 6.19823 34.7007 6.95876 31.4636 8.64143C29.5418 9.61226 27.8318 10.952 26.4323 12.5836C25.0327 14.2152 23.9712 16.1063 23.3089 18.148C23.0964 18.8241 23.0196 19.5351 23.0831 20.2407C23.1466 20.9462 23.3491 21.6324 23.6789 22.2601C24.0088 22.8877 24.4596 23.4445 25.0056 23.8987C25.5516 24.3529 26.1821 24.6956 26.8611 24.9072C27.5401 25.1188 28.2544 25.1952 28.963 25.132C29.6717 25.0688 30.361 24.8673 30.9914 24.5389C31.6218 24.2105 32.1811 23.7617 32.6374 23.2181C33.0936 22.6745 33.4378 22.0468 33.6503 21.3708L33.6217 21.3423Z" fill="#A3A1A1"/>
<path d="M46.1017 59.7679C52.2798 56.5547 47.2667 46.9815 41.0599 50.2043C34.8532 53.427 39.9141 62.9907 46.1017 59.7679Z" fill="#A3A1A1"/>
<path d="M42.9697 49.4343C42.9697 49.4343 49.1765 50.8603 47.7442 58.4656C49.1765 57.5149 50.6088 49.9097 42.9697 49.4343Z" fill="#CBCBCB"/>
<path d="M42.7217 44.0156C42.7217 44.0156 45.023 43.6953 43.9248 33.2732C43.9248 33.2732 43.8034 28.9094 47.2192 24.2419C49.6542 20.9146 49.1879 13.3093 45.8633 9.69675C44.4023 7.60531 56.3384 15.6859 46.3121 28.9952C45.3572 30.8965 44.3064 34.5384 45.023 37.3039C46.3407 42.4945 42.7217 44.0156 42.7217 44.0156Z" fill="#CBCBCB"/>
</svg>
