<svg width="85" height="97" viewBox="0 0 85 97" fill="none" xmlns="http://www.w3.org/2000/svg">
<g clip-path="url(#clip0_3310_41682)">
<path d="M55.6656 96.0823L40.4759 69.7095L36.5941 68.665L23.9551 75.9446L22.9106 79.8264L38.1003 106.199C39.2181 108.14 41.6883 108.804 43.6289 107.687L54.178 101.611C56.1081 100.532 56.7833 98.0229 55.6656 96.0823ZM43.0711 98.6644L30.9193 77.5662L34.4523 75.5313L46.604 96.6295L43.0711 98.6644Z" fill="black" fill-opacity="0.08"/>
<path d="M47.1067 60.2246L54.1229 56.1836L60.1987 66.7327C66.0207 63.3795 68.0252 55.9296 64.672 50.1077L54.5264 32.4926L47.5103 36.5337L50.4854 25.4765L48.4898 21.9541L30.8747 32.0996L32.9096 35.6326L44.006 38.6183L36.9898 42.6593L40.0277 47.9339L25.6471 56.2165L13.8106 35.6657L15.3087 30.0979L6.65348 15.0703L-7.42859 23.1811L1.25532 38.2583L6.78391 39.7459L18.6204 60.2968L14.3908 62.7329L6.0783 60.4962L-20.2945 75.6859C-22.2351 76.8036 -22.8998 79.2739 -21.7821 81.2145L-15.7062 91.7636C-14.5885 93.7043 -12.1182 94.3689 -10.1776 93.2512L16.1952 78.0615L18.4318 69.749L44.0582 54.9892L47.1067 60.2246ZM10.3839 71.9987L-10.7143 84.1504L-12.7492 80.6175L8.34907 68.4657L10.3839 71.9987Z" fill="black" fill-opacity="0.08"/>
</g>
<defs>
<clipPath id="clip0_3310_41682">
<rect width="97.4506" height="97.4506" fill="white" transform="translate(-9.67969) rotate(15.0598)"/>
</clipPath>
</defs>
</svg>
