<svg width="48" height="40" viewBox="0 0 48 40" fill="none" xmlns="http://www.w3.org/2000/svg">
<path d="M24 33C25.4667 33 26.6667 31.8 26.6667 30.3333H21.3334C21.3334 31.8 22.5334 33 24 33ZM32 25V18.3333C32 14.24 29.8267 10.8133 26 9.90667V9C26 7.89333 25.1067 7 24 7C22.8934 7 22 7.89333 22 9V9.90667C18.1867 10.8133 16 14.2267 16 18.3333V25L13.3334 27.6667V29H34.6667V27.6667L32 25ZM29.3334 26.3333H18.6667V18.3333C18.6667 15.0267 20.68 12.3333 24 12.3333C27.32 12.3333 29.3334 15.0267 29.3334 18.3333V26.3333Z" fill="#808080"/>
<circle cx="30" cy="13" r="6" fill="#ED4646"/>
</svg>
