<svg width="89" height="77" viewBox="0 0 89 77" fill="none" xmlns="http://www.w3.org/2000/svg">
<path d="M49.0703 86.0781C46.0755 89.0729 43.0026 90.5703 39.8516 90.5703C36.7005 90.5964 33.6016 89.0859 30.5547 86.0391L5.51562 61.0781C2.46875 58.0312 0.958333 54.9323 0.984375 51.7812C1.01042 48.6042 2.50781 45.5182 5.47656 42.5234L43.9922 4.125C45.0078 3.08333 45.9453 2.3151 46.8047 1.82031C47.6901 1.29948 48.6536 0.960938 49.6953 0.804688C50.737 0.622396 52.026 0.53125 53.5625 0.53125H68.4062C69.8646 0.53125 71.0755 0.674479 72.0391 0.960938C73.0286 1.22135 73.9401 1.67708 74.7734 2.32812C75.6328 2.95312 76.6094 3.8125 77.7031 4.90625L86.6484 13.8125C87.7422 14.9062 88.6016 15.8828 89.2266 16.7422C89.8776 17.6016 90.3333 18.526 90.5938 19.5156C90.8542 20.4792 90.9844 21.6901 90.9844 23.1484V37.9531C90.9844 39.4896 90.9062 40.7917 90.75 41.8594C90.5938 42.901 90.2682 43.8646 89.7734 44.75C89.2786 45.6094 88.5104 46.5729 87.4688 47.6406L49.0703 86.0781ZM61.3359 33.9688C62.9505 33.9688 64.3177 33.4089 65.4375 32.2891C66.5573 31.1693 67.1172 29.8021 67.1172 28.1875C67.1172 26.5469 66.5573 25.1797 65.4375 24.0859C64.3177 22.9661 62.9505 22.4062 61.3359 22.4062C59.6693 22.4062 58.276 22.9661 57.1562 24.0859C56.0625 25.1797 55.5156 26.5469 55.5156 28.1875C55.5156 29.8021 56.0625 31.1693 57.1562 32.2891C58.276 33.4089 59.6693 33.9688 61.3359 33.9688Z" fill="#D7F3FF" fill-opacity="0.8"/>
</svg>
