<svg width="33" height="59" viewBox="0 0 33 59" fill="none" xmlns="http://www.w3.org/2000/svg">
<path d="M20.4695 4.3462C20.0386 4.24214 19.5912 4.23205 19.1562 4.31658V2.74937C19.1564 2.65966 19.1912 2.57368 19.253 2.51024C19.3148 2.44681 19.3985 2.41109 19.4858 2.41089H20.1118C20.1551 2.41079 20.198 2.41948 20.2381 2.43646C20.2781 2.45343 20.3145 2.47836 20.3451 2.50981C20.3757 2.54126 20.4 2.57861 20.4165 2.61972C20.4331 2.66083 20.4415 2.70489 20.4414 2.74937V4.31658L20.4695 4.3462Z" fill="#D7F3FF" fill-opacity="0.6"/>
<path d="M21.0293 10.0987C19.8804 10.4883 19.0143 10.2779 18.5664 10.0987L18.5801 10.0002L18.9696 9.43507V4.70678C18.9696 4.58061 19.0181 4.45954 19.1044 4.36978L19.1549 4.31646C19.5899 4.23193 20.0373 4.24202 20.4682 4.34608L20.4913 4.36978C20.5773 4.45971 20.6255 4.58073 20.6254 4.70678V9.43359L21.0141 9.9987L21.0293 10.0987Z" fill="#D7F3FF" fill-opacity="0.8"/>
<path d="M22.4708 21.1165C20.2272 20.5803 18.047 20.904 17.1289 21.0899L18.567 10.0972C19.0148 10.2779 19.881 10.4882 21.0298 10.0972L22.4722 21.1136L22.4708 21.1165Z" fill="#D7F3FF"/>
<path d="M23.0067 21.6329C20.2005 22.1314 17.6021 21.8011 16.5996 21.6329L17.1304 21.1145V21.0908C18.0485 20.9049 20.2315 20.5812 22.4723 21.1174L23.0067 21.6329Z" fill="#D7F3FF" fill-opacity="0.8"/>
<path d="M23.8232 25.4198C19.6504 26.0997 15.7754 25.4198 15.7754 25.4198L16.097 22.5268C16.1299 22.2309 16.2629 21.9562 16.4728 21.7506L16.5961 21.6313C17.5986 21.801 20.197 22.1313 23.0032 21.6313L23.1244 21.7491C23.3356 21.9538 23.4693 22.2289 23.5015 22.5253L23.8232 25.4198Z" fill="#D7F3FF"/>
<path d="M23.9915 25.4197V26.5647C23.9917 26.653 23.9696 26.7397 23.9274 26.8166C23.8852 26.8934 23.8243 26.9577 23.7506 27.0032C23.6726 27.0525 23.5826 27.0782 23.491 27.0772H16.1053C16.0935 27.078 16.0817 27.078 16.0699 27.0772C15.9437 27.0681 15.8256 27.0101 15.7394 26.9149C15.6532 26.8198 15.6053 26.6947 15.6055 26.5647V25.4197H15.7742C15.7742 25.4197 19.6492 26.0996 23.822 25.4197H23.9915Z" fill="#D7F3FF" fill-opacity="0.8"/>
<path d="M27.2005 55.0072C27.2005 56.6019 25.9586 56.9574 25.9586 56.9574H13.2237C12.9425 56.9285 12.2941 56.5937 12.3468 55.4138L12.5386 55.4553C12.5984 55.4684 12.6602 55.4692 12.7203 55.4577C12.7805 55.4461 12.8378 55.4224 12.8889 55.388C12.9401 55.3536 12.9841 55.309 13.0184 55.257C13.0528 55.205 13.0767 55.1466 13.0889 55.085L13.5418 52.8979C13.5545 52.8364 13.5553 52.773 13.5441 52.7112C13.5328 52.6495 13.5098 52.5906 13.4762 52.5381C13.4427 52.4856 13.3994 52.4404 13.3487 52.4051C13.2981 52.3699 13.2411 52.3453 13.1812 52.3328L12.9814 52.2898C12.9646 52.2858 12.9475 52.2835 12.9302 52.2831C13.0319 51.6773 13.1372 50.9914 13.2425 50.2575C13.2541 50.2604 13.2659 50.2626 13.2778 50.2641L13.487 50.2938C13.6088 50.3102 13.7321 50.2766 13.8299 50.2001C13.9277 50.1237 13.9921 50.0107 14.0091 49.8857L14.2976 47.6674C14.3138 47.5422 14.2811 47.4156 14.2067 47.3151C14.1322 47.2146 14.022 47.1485 13.9002 47.1312L13.6904 47.1038C13.6806 47.1023 13.6706 47.1023 13.6608 47.1038C13.7228 46.5853 13.7834 46.0669 13.8404 45.5558C13.8515 45.5586 13.8628 45.5604 13.8743 45.561L14.0834 45.5832C14.144 45.5898 14.2053 45.584 14.2638 45.5662C14.3222 45.5485 14.3767 45.519 14.424 45.4796C14.4714 45.4402 14.5107 45.3916 14.5398 45.3365C14.5688 45.2815 14.587 45.2211 14.5933 45.1588L14.819 42.9369C14.8254 42.8747 14.8198 42.8118 14.8026 42.7518C14.7853 42.6919 14.7567 42.636 14.7184 42.5873C14.6801 42.5387 14.6328 42.4983 14.5793 42.4684C14.5258 42.4386 14.4671 42.4198 14.4065 42.4133L14.1959 42.391C14.182 42.3903 14.168 42.3903 14.1541 42.391C14.2262 41.5489 14.2731 40.7779 14.2983 40.1284C14.4361 36.1585 13.1927 33.5707 13.6074 32.2605C14.0221 30.9503 15.7811 28.1869 15.9874 27.7588C16.0797 27.5699 16.0905 27.3144 16.0725 27.0841C16.0842 27.0848 16.096 27.0848 16.1078 27.0841H23.4914C23.583 27.085 23.673 27.0593 23.751 27.01C23.8037 27.4114 23.8794 27.8892 23.9566 28.0069C24.0957 28.2195 24.2335 28.4676 25.0607 29.2831C25.8879 30.0985 25.8908 30.6584 25.8908 30.6584L26.6502 34.5217C26.6502 34.5217 27.2373 36.754 26.6156 38.0316C25.9939 39.3092 26.3055 40.7949 26.3055 40.7949C27.4428 48.9465 27.2005 53.4119 27.2005 55.0072Z" fill="#D7F3FF"/>
<path d="M14.2951 47.6682L14.0066 49.8864C13.9896 50.0114 13.9252 50.1244 13.8274 50.2009C13.7296 50.2773 13.6063 50.311 13.4845 50.2945L13.2753 50.2649C13.2634 50.2634 13.2516 50.2612 13.24 50.2582C13.126 50.2332 13.0254 50.1647 12.9585 50.0666C12.8916 49.9685 12.8633 49.848 12.8794 49.7294L13.1679 47.5126C13.1839 47.3934 13.2435 47.285 13.3346 47.2093C13.4257 47.1336 13.5414 47.0964 13.6583 47.1053C13.6681 47.1038 13.6781 47.1038 13.6879 47.1053L13.8977 47.1327C14.0194 47.15 14.1294 47.216 14.2039 47.3163C14.2783 47.4166 14.3111 47.5431 14.2951 47.6682Z" fill="#D7F3FF" fill-opacity="0.8"/>
<path d="M14.8183 42.9332L14.5926 45.1551C14.5863 45.2174 14.5681 45.2778 14.5391 45.3328C14.51 45.3879 14.4707 45.4365 14.4234 45.4759C14.376 45.5153 14.3215 45.5448 14.2631 45.5625C14.2046 45.5803 14.1434 45.5861 14.0827 45.5795L13.8736 45.5573C13.8622 45.5567 13.8508 45.5549 13.8397 45.5521C13.7242 45.5312 13.6207 45.4661 13.5501 45.3698C13.4796 45.2736 13.4472 45.1535 13.4596 45.0337L13.6854 42.8095C13.6974 42.6911 13.7521 42.5817 13.8387 42.5026C13.9253 42.4235 14.0375 42.3806 14.1534 42.3821C14.1673 42.3814 14.1813 42.3814 14.1952 42.3821L14.4058 42.4044C14.4669 42.4109 14.526 42.4298 14.5799 42.46C14.6338 42.4902 14.6813 42.5311 14.7197 42.5803C14.758 42.6295 14.7865 42.686 14.8034 42.7466C14.8204 42.8072 14.8255 42.8706 14.8183 42.9332Z" fill="#D7F3FF" fill-opacity="0.8"/>
<path d="M13.5416 52.9016L13.0887 55.0887C13.0765 55.1503 13.0526 55.2088 13.0182 55.2608C12.9839 55.3128 12.9399 55.3573 12.8887 55.3917C12.8376 55.4261 12.7803 55.4498 12.7201 55.4614C12.66 55.4729 12.5983 55.4721 12.5384 55.459L12.3466 55.4176H12.3314C12.2716 55.4049 12.2148 55.3802 12.1642 55.3449C12.1137 55.3096 12.0704 55.2644 12.0369 55.2119C12.0034 55.1594 11.9803 55.1006 11.969 55.0389C11.9577 54.9772 11.9583 54.9139 11.9708 54.8524L12.4274 52.6601C12.4519 52.5463 12.5163 52.4457 12.6083 52.3774C12.7003 52.3092 12.8135 52.278 12.9264 52.2898C12.9437 52.2902 12.9608 52.2924 12.9776 52.2965L13.1846 52.3424C13.3038 52.3686 13.4081 52.442 13.475 52.5467C13.5418 52.6514 13.5658 52.7789 13.5416 52.9016Z" fill="#D7F3FF" fill-opacity="0.8"/>
</svg>
