<svg width="22" height="22" viewBox="0 0 22 22" fill="none" xmlns="http://www.w3.org/2000/svg">
<path d="M10.9993 11.4585C10.1484 11.4585 9.33239 11.7965 8.73071 12.3982C8.12904 12.9999 7.79102 13.8159 7.79102 14.6668C7.79102 15.5177 8.12904 16.3338 8.73071 16.9355C9.33239 17.5371 10.1484 17.8752 10.9993 17.8752C11.8503 17.8752 12.6663 17.5371 13.268 16.9355C13.8697 16.3338 14.2077 15.5177 14.2077 14.6668C14.2077 13.8159 13.8697 12.9999 13.268 12.3982C12.6663 11.7965 11.8503 11.4585 10.9993 11.4585ZM9.62435 14.6668C9.62435 14.3022 9.76921 13.9524 10.0271 13.6946C10.2849 13.4367 10.6347 13.2918 10.9993 13.2918C11.364 13.2918 11.7138 13.4367 11.9716 13.6946C12.2295 13.9524 12.3743 14.3022 12.3743 14.6668C12.3743 15.0315 12.2295 15.3812 11.9716 15.6391C11.7138 15.897 11.364 16.0418 10.9993 16.0418C10.6347 16.0418 10.2849 15.897 10.0271 15.6391C9.76921 15.3812 9.62435 15.0315 9.62435 14.6668Z" fill="#808080"/>
<path d="M16.0655 4.68959L13.1514 0.604004L2.4365 9.16384L1.8425 9.15742V9.16659H1.375V20.1666H20.625V9.16659H19.7432L17.9887 4.03417L16.0655 4.68959ZM17.8062 9.16659H8.61392L15.4605 6.83275L16.8557 6.38634L17.8062 9.16659ZM14.2542 5.30742L7.18667 7.71642L12.7838 3.24492L14.2542 5.30742ZM3.20833 16.6548V12.6765C3.59533 12.5399 3.94685 12.3185 4.23711 12.0283C4.52738 11.7382 4.74904 11.3868 4.88583 10.9999H17.1142C17.2508 11.387 17.4725 11.7386 17.7627 12.0289C18.053 12.3191 18.4046 12.5407 18.7917 12.6774V16.6558C18.4046 16.7924 18.053 17.014 17.7627 17.3043C17.4725 17.5946 17.2508 17.9462 17.1142 18.3333H4.88767C4.75034 17.9461 4.5283 17.5945 4.23777 17.3042C3.94724 17.0138 3.59553 16.792 3.20833 16.6548Z" fill="#808080"/>
</svg>
