<svg width="50" height="38" viewBox="0 0 50 38" fill="none" xmlns="http://www.w3.org/2000/svg">
<g clip-path="url(#clip0_3305_60960)">
<path d="M36.9803 27.427C37.0692 27.5197 37.1832 27.5842 37.308 27.6124C37.4327 27.6405 37.5626 27.631 37.6811 27.5851C37.8194 27.5238 37.9356 27.4221 38.0147 27.2931C38.0407 27.2558 38.0598 27.214 38.071 27.1698L38.0751 27.15C38.0757 27.1242 37.986 27.1196 37.9084 27.1044C37.8669 27.1006 37.8275 27.084 37.7955 27.0569C37.7931 27.0524 37.7898 27.0485 37.7856 27.0456C37.645 26.9013 37.3363 27.0667 37.167 27.018C37.1368 27.01 37.1101 26.9918 37.0916 26.9665L37.0547 26.9121C34.9443 23.9375 34.6161 19.7699 34.5891 18.9048C34.573 18.8031 34.5782 18.6994 34.6043 18.6004C34.6304 18.5013 34.6769 18.409 34.7408 18.3294C34.8248 18.2374 34.9237 18.16 35.0333 18.1006L35.0515 18.0846C35.0999 18.0582 35.1379 18.0161 35.1593 17.965C35.1778 17.9307 35.1877 17.8923 35.1881 17.8531C35.1975 17.7875 35.1914 17.7205 35.1703 17.6573C35.1511 17.5864 35.1067 17.5246 35.0456 17.4836C34.9844 17.4426 34.9106 17.4253 34.8382 17.4349C34.6471 17.4594 34.3925 17.5377 34.2951 17.6916C33.7887 18.496 34.094 19.8547 34.1993 20.738C34.2184 20.9128 34.2424 21.0851 34.2691 21.2605C34.8102 24.837 36.5334 26.951 36.9803 27.427Z" fill="#D7F3FF" fill-opacity="0.6"/>
<path d="M37.9087 27.1035C35.658 24.5153 35.23 19.0587 35.1578 17.9603C34.9854 17.9305 34.5911 18.2123 34.5132 18.7231C34.384 19.5587 34.8772 23.6271 36.9247 26.7543C37.2173 27.2012 37.4933 27.2918 37.8117 27.1559C37.845 27.1404 37.8774 27.1229 37.9087 27.1035Z" fill="#D7F3FF" fill-opacity="0.96"/>
<path d="M38.9052 26.9051C36.6565 24.3171 36.1924 18.8592 36.1203 17.7589C35.9469 17.73 35.5535 18.0129 35.4756 18.5236C35.3464 19.3593 35.7879 23.5078 37.8862 26.5538C38.126 27.0036 38.4567 27.0915 38.7782 26.951C38.8102 26.9377 38.876 26.9237 38.9052 26.9051Z" fill="#D7F3FF" fill-opacity="0.96"/>
<path d="M39.9627 26.6401C39.9654 26.5962 39.7378 26.6074 39.6855 26.5395C39.5309 26.3424 39.1028 26.6122 38.9806 26.4337C36.902 23.4077 36.6659 19.1904 36.6564 18.3207C36.6423 18.2185 36.6497 18.1148 36.6781 18.0162C36.7066 17.9176 36.7553 17.8263 36.8214 17.7482C36.9127 17.6519 37.0206 17.5728 37.14 17.5146C37.4038 17.3795 37.3132 16.821 36.9406 16.8563C36.7479 16.8768 36.4887 16.9519 36.3925 17.1011C35.8694 17.8966 36.1363 19.2564 36.2234 20.1393C36.2361 20.3089 36.2616 20.4889 36.2836 20.663C36.7465 24.252 38.4253 26.403 38.8645 26.8948C38.9518 26.9889 39.0646 27.0555 39.1887 27.0863C39.3128 27.1171 39.4428 27.1107 39.5624 27.068C39.6553 27.0285 39.7388 26.9701 39.8077 26.8964C39.8766 26.8228 39.9294 26.7355 39.9627 26.6401Z" fill="#D7F3FF" fill-opacity="0.6"/>
<path d="M39.8047 26.5971C37.6116 23.9604 37.3 18.4921 37.2555 17.3966C37.0806 17.36 36.6837 17.6368 36.5945 18.1448C36.4481 18.9793 36.8529 23.0527 38.8278 26.2254C39.074 26.6851 39.386 26.7756 39.712 26.6421C39.7437 26.6288 39.7746 26.6138 39.8047 26.5971Z" fill="#D7F3FF" fill-opacity="0.96"/>
<path d="M40.9086 26.409C40.9123 26.3642 40.6848 26.3736 40.6356 26.3011C40.4839 26.1032 40.0535 26.3661 39.9358 26.1909C37.8942 23.1398 37.7125 18.9235 37.7099 18.0515C37.6977 17.9492 37.7067 17.8458 37.7364 17.7477C37.7661 17.6496 37.8158 17.5589 37.8824 17.4815C37.9752 17.3858 38.0843 17.3074 38.2047 17.25C38.4702 17.1188 38.381 16.5538 38.013 16.5903C37.8204 16.6089 37.5646 16.6756 37.4625 16.8282C36.9302 17.6174 37.1818 18.9779 37.2629 19.8643C37.2736 20.0356 37.2954 20.2135 37.3155 20.3874C37.7358 23.9829 39.3912 26.1581 39.8173 26.645C39.9033 26.7401 40.015 26.808 40.1385 26.8403C40.262 26.8726 40.3918 26.8679 40.5118 26.8267C40.6031 26.788 40.6854 26.731 40.7536 26.6592C40.8218 26.5874 40.8746 26.5023 40.9086 26.409Z" fill="#D7F3FF" fill-opacity="0.6"/>
<path d="M40.8725 26.3507C38.7166 23.6832 38.343 18.2278 38.3093 17.1264C38.1345 17.0878 37.7332 17.3596 37.6382 17.8672C37.4774 18.7034 37.7955 22.766 39.7366 25.9592C39.922 26.263 40.3244 26.5305 40.652 26.401C40.684 26.388 40.8421 26.367 40.8725 26.3507Z" fill="#D7F3FF" fill-opacity="0.96"/>
<path d="M41.9411 26.1552C41.9438 26.1113 41.7153 26.1215 41.6619 26.0544C41.5073 25.8574 41.0803 26.1263 40.9581 25.9478C38.8795 22.9218 38.6472 18.7047 38.6358 17.8349C38.6225 17.7326 38.6303 17.6289 38.6589 17.5302C38.6875 17.4316 38.7361 17.3401 38.8018 17.2616C38.8936 17.1658 39.0014 17.0868 39.1204 17.0279C39.3842 16.8928 39.2936 16.3344 38.9219 16.3706C38.7302 16.3903 38.4691 16.4652 38.3739 16.6135C37.8498 17.41 38.1177 18.7688 38.2028 19.6536C38.2155 19.8231 38.2401 20.0021 38.2621 20.1762C38.7258 23.7662 40.4028 25.9171 40.8375 26.4037C40.9246 26.4982 41.0374 26.565 41.1616 26.5958C41.2858 26.6266 41.4158 26.6201 41.5355 26.577C41.6285 26.5384 41.7125 26.4811 41.7822 26.4085C41.852 26.336 41.9061 26.2498 41.9411 26.1552Z" fill="#D7F3FF" fill-opacity="0.6"/>
<path d="M41.7385 26.1034C39.5587 23.4773 39.2491 18.0462 39.2069 16.947C39.0313 16.9102 38.6331 17.1886 38.5424 17.6975C38.3903 18.5317 38.7759 22.5984 40.7368 25.7612C40.923 26.062 41.2908 26.3082 41.6175 26.1733C41.6494 26.1603 41.7085 26.1206 41.7385 26.1034Z" fill="#D7F3FF" fill-opacity="0.96"/>
<path d="M42.9075 25.9762C42.9102 25.9324 42.6826 25.9436 42.6302 25.8757C42.4756 25.6786 42.0476 25.9484 41.9254 25.7699C39.8478 22.743 39.6136 18.5258 39.6041 17.6561C39.59 17.554 39.5974 17.4503 39.6258 17.3517C39.6542 17.2531 39.703 17.1618 39.769 17.0837C39.8604 16.9874 39.9683 16.9082 40.0876 16.85C40.4563 16.7257 40.2619 16.1556 39.8883 16.1917C39.6975 16.2124 39.4363 16.2873 39.3412 16.4356C38.8181 17.2312 39.085 18.5909 39.1701 19.4757C39.1876 19.6507 39.2077 19.8246 39.2304 19.9974C39.6932 23.5864 41.3701 25.7392 41.8093 26.231C41.8965 26.3252 42.0092 26.3919 42.1334 26.4228C42.2575 26.4536 42.3876 26.4471 42.5072 26.4042C42.6001 26.3647 42.6836 26.3063 42.7525 26.2326C42.8213 26.159 42.8741 26.0717 42.9075 25.9762Z" fill="#D7F3FF" fill-opacity="0.6"/>
<path d="M42.7427 25.926C40.5506 23.2884 40.2723 17.8086 40.2241 16.7091C40.0503 16.6715 39.6247 16.965 39.5355 17.473C39.3891 18.3074 39.792 22.3807 41.7658 25.5543C41.9783 25.9661 42.3241 26.1045 42.649 25.9719C42.6804 25.9589 42.7141 25.9402 42.7427 25.926Z" fill="#D7F3FF" fill-opacity="0.96"/>
<path d="M43.8428 25.6905C43.8473 25.6467 43.6191 25.6532 43.5698 25.5825C43.4192 25.3819 42.9852 25.6407 42.8679 25.4597C40.8571 22.3888 40.7129 18.1705 40.7244 17.3023C40.7123 17.1992 40.722 17.0949 40.7529 16.9963C40.7838 16.8976 40.8352 16.8069 40.9037 16.7299C40.9978 16.636 41.1073 16.559 41.2277 16.5024C41.494 16.3742 41.4143 15.8099 41.0429 15.8404C40.8504 15.8571 40.5937 15.9228 40.4898 16.0733C39.9483 16.8561 40.1872 18.2205 40.2548 19.1097C40.2655 19.281 40.2843 19.4596 40.3025 19.6334C40.6863 23.232 42.3159 25.4207 42.7397 25.9151C42.8255 26.0115 42.9376 26.0806 43.0619 26.1137C43.1861 26.1468 43.317 26.1423 43.4378 26.1008C43.5298 26.0636 43.613 26.0081 43.6826 25.9376C43.7522 25.8671 43.8067 25.783 43.8428 25.6905Z" fill="#D7F3FF" fill-opacity="0.6"/>
<path d="M43.6789 25.6365C41.5452 22.9514 41.363 17.4819 41.3377 16.384C41.1632 16.3417 40.7592 16.6103 40.6585 17.1175C40.4932 17.9486 40.8067 22.0279 42.7109 25.2444C42.97 25.682 43.256 25.8061 43.5844 25.6795C43.6168 25.6673 43.6484 25.6529 43.6789 25.6365Z" fill="#D7F3FF" fill-opacity="0.96"/>
<path d="M44.7955 25.4818C44.8011 25.4372 44.572 25.4407 44.5207 25.3719C44.373 25.1705 43.9364 25.4243 43.8201 25.2425C41.8463 22.1465 41.7578 17.9264 41.777 17.0569C41.7667 16.9544 41.7778 16.8511 41.8096 16.7536C41.8414 16.6561 41.8932 16.5666 41.9617 16.4907C42.0567 16.3973 42.1676 16.3217 42.2892 16.2672C42.5573 16.141 42.4833 15.5771 42.1122 15.6038C41.9199 15.6167 41.6615 15.6785 41.5567 15.828C41.0051 16.6052 41.2276 17.9713 41.2845 18.8626C41.2942 19.0348 41.3093 19.2112 41.3255 19.3868C41.6624 22.9849 43.2679 25.1928 43.6838 25.6905C43.7675 25.7883 43.878 25.8592 44.0013 25.8944C44.1246 25.9297 44.2552 25.9275 44.3764 25.8883C44.4708 25.8535 44.5567 25.7994 44.6288 25.7294C44.7009 25.6595 44.7577 25.5752 44.7955 25.4818Z" fill="#D7F3FF" fill-opacity="0.6"/>
<path d="M44.6297 25.421C43.1814 22.4522 42.4127 17.2448 42.4011 16.1422C42.2267 16.0979 41.8201 16.3616 41.7139 16.8665C41.5355 17.7072 41.8087 21.8975 43.7496 25.1579C43.8258 25.2911 43.9453 25.3945 44.0879 25.4504C44.2306 25.5063 44.3875 25.5113 44.5322 25.4647C44.5657 25.4525 44.5983 25.4378 44.6297 25.421Z" fill="#D7F3FF" fill-opacity="0.96"/>
<path d="M37.7821 27.0454L37.8573 27.1313C37.8904 27.1692 37.9182 27.2009 37.9468 27.2336C37.9535 27.2422 37.9606 27.2504 37.9683 27.2582C37.9825 27.2744 37.9987 27.2888 38.0164 27.301C38.0403 27.3197 38.0651 27.3372 38.0908 27.3533C38.1761 27.398 38.2694 27.4248 38.365 27.4319C38.4606 27.439 38.5564 27.4263 38.6464 27.3946C38.8081 27.3191 38.9385 27.1903 39.0161 27.0295C39.0278 27.0074 39.0351 26.9832 39.0376 26.9583C39.0383 26.9324 38.9544 26.9264 38.872 26.9118C38.8303 26.9067 38.7909 26.8898 38.7581 26.8633C38.6245 26.6984 38.2997 26.876 38.1277 26.8242C38.0972 26.8169 38.0704 26.7986 38.0523 26.7728C38.0389 26.7574 38.0228 26.739 38.0093 26.7237C35.9 23.7481 35.5718 19.5806 35.5457 18.7165C35.5292 18.6149 35.534 18.5113 35.5598 18.4122C35.5856 18.3131 35.6318 18.2207 35.6955 18.141C35.7854 18.0431 35.8917 17.9617 36.0097 17.9003C36.0585 17.8744 36.2338 17.8277 36.2554 17.7768C36.3583 17.5639 36.0958 17.2071 35.7959 17.2438C35.6741 17.2594 35.5556 17.2931 35.4442 17.3438C35.369 17.3809 35.3049 17.437 35.2582 17.5066C35.2252 17.5598 35.1953 17.6149 35.1687 17.6716C35.1444 17.7254 35.121 17.7803 35.1001 17.8401C35.0792 17.8999 35.0724 17.9329 35.0599 17.9818C35.0469 18.0254 35.0362 18.0698 35.0279 18.1146C34.8746 18.89 35.0752 19.8598 35.1578 20.5499C35.1768 20.7247 35.2017 20.898 35.2275 21.0723C35.7231 24.2967 37.1791 26.3339 37.7821 27.0454Z" fill="#D7F3FF" fill-opacity="0.6"/>
<path d="M36.0615 28.9288L36.1362 28.8634C36.1362 28.8634 36.1811 28.88 36.2537 28.8997C36.3963 28.9431 36.5445 28.9645 36.6931 28.9632C36.8061 28.9621 37.774 28.9902 38.0876 27.3436C38.0619 27.3275 38.037 27.31 38.0132 27.2913C37.9341 27.4202 37.8179 27.522 37.6796 27.5832C37.5611 27.6291 37.4312 27.6386 37.3064 27.6105C37.1817 27.5823 37.0677 27.5178 36.9788 27.4251C36.5319 26.9491 34.8087 24.8351 34.2617 21.2601C34.235 21.0847 34.211 20.9124 34.1919 20.7377C34.0933 19.8539 33.788 18.4952 34.2945 17.6907C34.3929 17.5359 34.6465 17.4585 34.8375 17.4341C34.91 17.4245 34.9837 17.4418 35.0449 17.4827C35.1061 17.5237 35.1505 17.5855 35.1696 17.6565C35.1962 17.5998 35.2261 17.5447 35.2591 17.4915C35.3058 17.4219 35.3699 17.3658 35.4451 17.3287C35.2872 17.1237 34.45 16.0733 33.6954 16.1718C33.4855 16.1999 33.2847 16.2734 33.1068 16.3872C32.929 16.501 32.7785 16.6524 32.6656 16.831C32.6248 16.8897 32.5899 16.9523 32.5614 17.0179L32.5426 16.9964C32.2102 18.4731 31.6297 23.7115 36.0615 28.9288Z" fill="#D7F3FF" fill-opacity="0.72"/>
<path d="M27.071 30.3L27.8042 31.1378L29.2289 30.834L29.5612 30.0121C26.5128 26.2307 26.6666 19.7192 26.6778 19.5198L26.3041 19.1947L25.048 19.5587L24.4663 20.1038L24.3794 20.1799L24.3106 20.2401L24.2004 20.3365L24.2305 22.1763L25.1377 26.6627L27.071 30.3Z" fill="#D7F3FF" fill-opacity="0.68"/>
<path d="M25.0708 29.6873C25.0708 29.6873 25.683 30.091 26.1308 30.3554C26.7237 30.3658 27.0688 30.3017 27.0688 30.3017L25.1355 26.6645L24.2327 22.1851L24.2148 20.5837L24.1056 20.6793L23.0541 21.3197L22.8643 22.5697C22.8643 22.5697 23.062 25.1498 23.3612 26.3873C23.6517 27.5638 25.0708 29.6873 25.0708 29.6873Z" fill="#D7F3FF" fill-opacity="0.8"/>
<path d="M13.4753 32.575L13.5067 32.5476C13.5067 32.5476 14.0014 32.6458 15.1413 32.4142C16.2811 32.1827 25.0716 29.6855 25.0716 29.6855C25.0716 29.6855 23.6525 27.5619 23.3731 26.392C23.0739 25.1545 22.8762 22.5744 22.8762 22.5744L13.2653 25.7967C13.2653 25.7967 12.1417 26.2488 11.7388 26.7207C11.7138 26.7077 11.6879 26.6965 11.6614 26.6873C11.6597 27.8643 11.8365 29.0368 12.1856 30.1648C12.4631 31.0398 12.9005 31.8572 13.4753 32.575Z" fill="#D7F3FF" fill-opacity="0.76"/>
<path d="M8.32573 33.2334C8.50271 33.3458 8.86012 33.5298 9.13701 33.4158C9.13701 33.4158 9.1712 33.4202 9.22984 33.4321C8.82672 32.8654 8.27002 32.0375 7.97537 31.4029C7.64821 30.7047 7.53745 29.4377 7.50317 28.6458C7.41989 28.6599 7.34042 28.6904 7.26933 28.7356C7.19824 28.7807 7.13694 28.8396 7.08896 28.9089C6.97692 29.6826 6.8721 30.9051 7.21789 31.5329C7.55629 32.1191 7.92612 32.6867 8.32573 33.2334Z" fill="#D7F3FF" fill-opacity="0.6"/>
<path d="M9.23274 33.4342C9.58468 33.4876 10.7624 33.6583 11.0111 33.4876C11.0482 33.4623 11.0838 33.4348 11.1176 33.4052C10.7453 33.0084 10.2027 32.2946 9.63843 31.103C9.11581 29.9532 8.90041 28.6902 9.01352 27.4389C8.74259 27.4811 8.48587 27.5858 8.26357 27.7448C7.99547 28.0075 7.76618 28.3073 7.58248 28.6353C7.58248 28.6353 7.55264 28.6379 7.5062 28.646C7.54226 29.44 7.65123 30.7049 7.97839 31.4031C8.27293 32.0396 8.82963 32.8675 9.23274 33.4342Z" fill="#D7F3FF" fill-opacity="0.6"/>
<path d="M11.1137 33.4096C11.2247 33.3179 11.2988 33.189 11.3224 33.0463C11.3736 33.0808 11.4274 33.111 11.4835 33.1366C10.819 32.3434 10.3105 31.432 9.98546 30.4516C9.49468 29.0421 9.47578 27.9495 9.54298 27.2837C9.52687 27.3112 9.51506 27.341 9.50793 27.3722C9.34206 27.3857 9.17727 27.4093 9.01446 27.4427C8.90134 28.694 9.11675 29.957 9.63936 31.1067C10.1989 32.2989 10.7405 33.0118 11.1137 33.4096Z" fill="#D7F3FF" fill-opacity="0.6"/>
<path d="M11.4831 33.1367C11.7732 33.2658 12.0972 33.293 12.4022 33.214C12.6336 33.1422 12.8529 33.0367 13.0531 32.9009C12.2746 32.107 11.6594 31.1681 11.2428 30.1387C10.8295 29.0173 10.6887 27.8163 10.8322 26.6359C10.3668 26.7161 9.74577 26.8224 9.5416 27.2685C9.4744 27.9343 9.4933 29.0269 9.98408 30.4364C10.3076 31.4223 10.8165 32.339 11.4831 33.1367Z" fill="#D7F3FF" fill-opacity="0.92"/>
<path d="M13.0561 32.9039C13.2071 32.8064 13.3488 32.6952 13.4793 32.5715C12.9028 31.8527 12.4641 31.0339 12.1859 30.1572C11.8368 29.0292 11.6601 27.8567 11.6617 26.6797C11.4163 26.5933 11.153 26.5742 10.8992 26.6243L10.8354 26.635C10.6919 27.8169 10.8332 29.0193 11.2477 30.1418C11.6637 31.1711 12.2783 32.1099 13.0561 32.9039Z" fill="#D7F3FF" fill-opacity="0.6"/>
<path d="M2.25976 34.3599L3.9636 34.6157C3.10183 33.3673 2.69976 31.8614 2.82708 30.3589L2.78502 30.3578L1.24165 31.5277C1.18831 32.0436 1.25216 32.5663 1.42846 33.0567C1.60475 33.5471 1.88892 33.9926 2.25976 34.3599Z" fill="#D7F3FF" fill-opacity="0.72"/>
<path d="M3.96366 34.6156L4.21223 34.6528L4.2758 34.6622L4.97688 33.9313L5.94532 33.4957L6.51925 33.819L8.21743 33.1585C8.25315 33.1847 8.29037 33.2088 8.32888 33.2307C7.92934 32.6866 7.55936 32.1215 7.22058 31.5379C6.87556 30.9131 6.9796 29.6876 7.09164 28.9139C7.05566 28.9793 7.03246 29.0511 7.02328 29.1255L5.43136 29.581L4.76364 30.2828L4.12692 30.4263L3.07596 30.3759L2.82982 30.3619C2.70245 31.863 3.10352 33.3677 3.96366 34.6156Z" fill="#D7F3FF" fill-opacity="0.72"/>
<path d="M43.5734 16.8596C43.5734 16.8596 43.4351 15.7468 43.6668 15.3995C43.6854 15.3659 43.7139 15.3388 43.7484 15.3218C43.7829 15.3048 43.8219 15.2987 43.8602 15.3043C43.9665 15.3197 44.1022 15.4177 44.2817 15.6309L47.8295 14.5911C47.8295 14.5911 49.3535 14.213 50.1026 16.0829C50.8517 17.9528 50.6693 17.7403 50.6693 17.7403L51.1123 18.2323L51.3795 19.8412L50.977 20.542C50.9429 20.7384 50.8671 20.9247 50.7548 21.0884C50.6425 21.2521 50.4962 21.3895 50.3258 21.4912C49.7587 21.7978 46.717 22.8428 46.717 22.8428L46.9172 24.214C46.887 24.364 46.8313 24.5074 46.7526 24.638C46.7222 24.7035 46.6682 24.7549 46.6013 24.7819C46.5345 24.809 46.4595 24.8098 46.3915 24.7842C46.2819 24.73 46.1864 24.6509 46.1125 24.5532C45.5093 23.8292 43.5734 16.8596 43.5734 16.8596ZM48.4694 19.9472C49.2713 19.6068 49.3628 18.6975 49.3628 18.6975C49.3628 18.6975 49.0372 17.4054 48.7921 16.4132C48.5469 15.4211 47.6981 15.6996 47.6981 15.6996L44.5738 16.6849C44.2329 16.6708 44.2216 17.0474 44.2216 17.0474C43.931 17.9557 45.2219 21.1037 45.2219 21.1037C45.2219 21.1037 47.6676 20.2876 48.4694 19.9472Z" fill="#D7F3FF" fill-opacity="0.6"/>
<path d="M46.392 24.7843C46.2825 24.7301 46.187 24.651 46.1131 24.5533C45.5079 23.8311 43.574 16.8597 43.574 16.8597C43.574 16.8597 43.4357 15.7469 43.6673 15.3996L42.3481 16.0627C42.1989 16.5209 42.1566 17.0084 42.2243 17.488C42.3492 18.2223 43.4812 22.9473 43.7582 23.7473C44.0351 24.5472 44.1876 24.9684 44.5769 25.5111L46.392 24.7843Z" fill="#D7F3FF" fill-opacity="0.72"/>
<path d="M29.5584 30.0128L29.9971 30.5141L31.3303 30.173C31.3303 30.173 31.7638 29.5443 31.8459 29.2954L30.2468 26.399L28.5969 20.3153L28.5795 18.6144L28.4104 18.4986L27.3125 18.8108C27.3125 18.8108 26.7931 19.119 26.6782 19.514C26.6683 19.7251 26.5099 26.2314 29.5584 30.0128Z" fill="#D7F3FF" fill-opacity="0.6"/>
<path d="M31.9087 29.3832C31.9087 29.3832 32.702 30.2735 33.4968 30.0495C34.2916 29.8255 35.5997 29.3925 35.5997 29.3925L36.1252 28.873C31.6935 23.6557 32.2908 18.3711 32.5444 17.0003C32.3782 16.8163 32.1675 16.6781 31.933 16.5996C31.5185 16.4583 29.362 17.4296 29.362 17.4296C29.362 17.4296 28.5653 17.7251 28.559 18.4597L28.5717 18.6216L28.5891 20.3225L30.239 26.4062L31.8381 29.3026C31.8473 29.283 31.9052 29.4047 31.9087 29.3832Z" fill="#D7F3FF" fill-opacity="0.76"/>
</g>
<defs>
<clipPath id="clip0_3305_60960">
<rect width="48.1959" height="25.462" fill="white" transform="matrix(-0.752539 0.658548 0.658548 0.752539 36.2695 0)"/>
</clipPath>
</defs>
</svg>
