<svg width="80" height="80" viewBox="0 0 80 80" fill="none" xmlns="http://www.w3.org/2000/svg">
<path d="M1 0H80V57.284H1V0Z" fill="url(#paint0_linear_2478_12524)"/>
<path d="M1 0H21V79.0123H1V0Z" fill="url(#paint1_linear_2478_12524)"/>
<path d="M21.396 57.2839L8 79.0123L80 80V57.2839H21.396Z" fill="url(#paint2_linear_2478_12524)"/>
<g clip-path="url(#clip0_2478_12524)">
<path d="M26.9308 12.2189C26.904 12.6862 26.8139 13.1479 26.6629 13.5913C26.6619 13.6063 26.6619 13.6214 26.6629 13.6364H18.2794C18.1509 13.1382 18.0812 12.6268 18.0716 12.1125C18.0692 12.0433 18.0809 11.9743 18.1061 11.9097C18.1313 11.8451 18.1693 11.7862 18.2181 11.7366C18.2668 11.687 18.3251 11.6478 18.3895 11.6212C18.4539 11.5946 18.5231 11.5812 18.5928 11.5819L26.4209 11.669C26.4913 11.6704 26.5606 11.6859 26.6247 11.7146C26.6888 11.7433 26.7464 11.7845 26.794 11.8359C26.8417 11.8873 26.8783 11.9477 26.9018 12.0135C26.9254 12.0794 26.9352 12.1492 26.9308 12.2189Z" fill="url(#paint3_linear_2478_12524)"/>
<path d="M26.8309 14.9869L18.5 23.7097V24.0352L21.0583 23.2541L24.9286 20.52L29.1924 15.3124C28.1429 15.5728 27.1808 15.2039 26.8309 14.9869Z" fill="url(#paint4_linear_2478_12524)"/>
<path d="M55.1094 18.3243C53.0537 17.1067 47.4128 13.9702 42.0398 13.6121C42.0398 13.6121 39.8185 12.7897 37.4315 14.7007C35.0446 16.6116 30.0678 20.3368 30.0678 20.3368C30.0678 20.3368 26.8203 22.5429 31.0291 24.1555C35.2378 25.7681 46.5846 31.2382 46.5846 31.2382C46.5846 31.2382 49.345 33.1508 50.7317 30.2174C52.1184 27.284 55.8043 21.3254 55.8043 21.3254C55.8043 21.3254 57.1667 19.5418 55.1094 18.3243ZM53.5506 20.1755C53.5506 20.1755 52.9855 21.5253 52.422 23.1718C51.8586 24.8183 51.063 24.7522 51.063 24.7522L36.2024 19.0806C35.673 18.4549 36.2024 17.7308 36.2024 17.7308C36.2024 17.7308 37.6053 16.244 39.1251 15.3925C40.7278 14.4926 45.159 15.6553 45.159 15.6553C45.159 15.6553 50.7431 17.2583 52.7906 18.4887C53.747 19.0644 53.5506 20.1755 53.5506 20.1755Z" fill="#B81C1D"/>
<path d="M53.5508 20.1755C53.5508 20.1755 52.9857 21.5253 52.4222 23.1718C51.8588 24.8183 51.0632 24.7522 51.0632 24.7522L36.2025 19.0806C35.6732 18.4548 36.2025 17.7308 36.2025 17.7308C36.2025 17.7308 37.6055 16.2439 39.1253 15.3925C40.728 14.4926 45.1592 15.6553 45.1592 15.6553C45.1592 15.6553 50.7433 17.2583 52.7908 18.4887C53.7472 19.0644 53.5508 20.1755 53.5508 20.1755Z" stroke="#E02126" stroke-miterlimit="10"/>
<path d="M61.9311 48.5578C61.7525 45.6551 61.8434 31.4284 61.8434 31.4284C62.5498 25.9842 60.3382 19.0418 60.3382 19.0418L60.1629 18.9064C59.7977 20.0993 59.2453 21.2275 58.5261 22.2494C57.1329 24.1587 50.7646 35.0972 49.7708 38.2579C48.7771 41.4187 46.5233 50.0495 51.2322 57.6917C51.2322 57.6917 54.0202 62.7005 59.9225 63.8197C59.9225 63.8197 61.1339 59.8655 61.9701 56.4984C62.001 53.207 62.0123 49.8576 61.9311 48.5578ZM56.006 55.1228C55.3403 55.7162 54.1485 56.5742 54.1485 56.5742C54.1485 56.5742 52.8884 57.2998 52.1236 55.684C51.3589 54.0681 49.7026 52.0943 50.3992 43.6957C50.3992 43.6957 51.4953 38.2934 52.1236 36.8759C52.752 35.4584 54.4472 36.0535 54.4472 36.0535L56.1035 36.9098C56.1035 36.9098 56.5695 37.271 56.5354 39.1158V53.7101C56.5637 53.9693 56.5306 54.2314 56.4387 54.4756C56.3468 54.7198 56.1986 54.9392 56.006 55.1164V55.1228Z" fill="url(#paint5_linear_2478_12524)"/>
<path d="M61.9311 48.5578C61.7525 45.6551 61.8434 31.4284 61.8434 31.4284C62.5498 25.9842 60.3382 19.0418 60.3382 19.0418L60.1629 18.9064C59.7977 20.0993 59.2453 21.2275 58.5261 22.2494C57.1329 24.1587 50.7646 35.0972 49.7708 38.2579C48.7771 41.4187 46.5233 50.0495 51.2322 57.6917C51.2322 57.6917 54.0202 62.7005 59.9225 63.8197C59.9225 63.8197 61.1339 59.8655 61.9701 56.4984C62.001 53.207 62.0123 49.8576 61.9311 48.5578ZM56.006 55.1228C55.3403 55.7162 54.1485 56.5742 54.1485 56.5742C54.1485 56.5742 52.8884 57.2998 52.1236 55.684C51.3589 54.0681 49.7026 52.0943 50.3992 43.6957C50.3992 43.6957 51.4953 38.2934 52.1236 36.8759C52.752 35.4584 54.4472 36.0535 54.4472 36.0535L56.1035 36.9098C56.1035 36.9098 56.5695 37.271 56.5354 39.1158V53.7101C56.5637 53.9693 56.5306 54.2314 56.4387 54.4756C56.3468 54.7198 56.1986 54.9392 56.006 55.1164V55.1228Z" fill="url(#paint6_linear_2478_12524)" fill-opacity="0.2"/>
<path d="M56.5354 53.7021C56.565 53.9626 56.5326 54.2263 56.4406 54.472C56.3486 54.7177 56.1998 54.9384 56.006 55.1164C55.3403 55.7098 54.1484 56.5678 54.1484 56.5678C54.1484 56.5678 52.8884 57.2934 52.1236 55.6776C51.3588 54.0617 49.7026 52.0879 50.3992 43.6893C50.3992 43.6893 51.4952 38.287 52.1236 36.8695C52.752 35.452 54.4472 36.047 54.4472 36.047L56.1034 36.9034C56.1034 36.9034 56.5695 37.2646 56.5354 39.1094V53.7021Z" stroke="#E02126" stroke-miterlimit="10"/>
<path fill-rule="evenodd" clip-rule="evenodd" d="M61.8433 64.3955C61.8433 64.3955 61.9228 60.4913 61.965 56.492C61.1288 59.8592 59.9175 63.8133 59.9175 63.8133C54.0151 62.6942 51.2271 57.6853 51.2271 57.6853C46.5183 50.0431 48.7996 41.5201 49.7901 38.3561C50.7806 35.1921 57.1279 24.1523 58.521 22.243C59.2403 21.2211 59.855 20.1506 60.2201 18.9577C57.1573 16.6836 53.8047 14.6707 50.339 13.0655C44.5892 10.4288 37.3392 10.7788 36.6296 11.0449C35.92 11.311 31.505 14.0298 30.5308 14.6443C30.0818 14.9356 29.5936 15.1625 29.0807 15.3183C27.6729 17.1067 23.3538 22.1898 18.6887 23.7379C18.6887 23.7379 25.3136 17.6937 26.8351 15.0168C26.5607 14.5427 26.6386 13.8218 26.6646 13.6396H18.2795C18.3101 13.7686 18.3264 13.9005 18.3282 14.0331C18.3282 14.5604 17.8833 15.8779 17.8833 15.8779V24.8377C17.3604 26.4008 17.063 28.0296 17 29.6756V55.0406C17.1048 55.072 17.1966 55.1359 17.2621 55.223C17.3276 55.3101 17.3632 55.4157 17.3637 55.5244V56.2485C17.3629 56.3571 17.3272 56.4626 17.2618 56.5496C17.1963 56.6367 17.1046 56.7007 17 56.7323V57.9079C17.0809 57.9314 17.1546 57.9746 17.2143 58.0337C17.3099 58.13 17.3635 58.2597 17.3637 58.3949V59.1206L17.3637 59.1219V59.1238C17.3632 59.2325 17.3276 59.3381 17.2621 59.4252C17.2441 59.449 17.2242 59.4712 17.2026 59.4914C17.1446 59.5457 17.0751 59.5854 17 59.6081V60.6526C17.0812 60.6754 17.1551 60.7187 17.2143 60.7784C17.3099 60.8747 17.3635 61.0044 17.3637 61.1396V61.141C17.3637 61.1427 17.3637 61.1443 17.3637 61.146V61.8685C17.3634 61.9772 17.3279 62.083 17.2624 62.1701C17.1969 62.2572 17.1049 62.3211 17 62.3523V65.7469C17.099 68.4158 20.28 68.1336 20.28 68.1336C20.28 68.1336 57.878 68.2787 58.8393 68.1336C59.1707 68.0848 59.4066 68.0813 59.6111 68.0783C60.083 68.0713 60.3874 68.0667 61.3107 67.5143C62.0073 67.0966 61.8433 64.3955 61.8433 64.3955ZM31.0292 24.1523C26.8188 22.5397 30.068 20.3336 30.068 20.3336C30.068 20.3336 35.0448 16.6101 37.4317 14.7007C39.8186 12.7913 42.0399 13.6122 42.0399 13.6122C47.4129 13.9766 53.0539 17.1116 55.1095 18.3243C57.1652 19.537 55.8045 21.3222 55.8045 21.3222C55.8045 21.3222 52.1235 27.2889 50.7319 30.2142C49.3403 33.1395 46.5848 31.235 46.5848 31.235C46.5848 31.235 35.2413 25.7682 31.0292 24.1523Z" fill="url(#paint7_linear_2478_12524)"/>
</g>
<defs>
<linearGradient id="paint0_linear_2478_12524" x1="26.675" y1="34.0741" x2="-11.8468" y2="-36.5381" gradientUnits="userSpaceOnUse">
<stop stop-color="#D9D9D9"/>
<stop offset="1" stop-color="#737373"/>
</linearGradient>
<linearGradient id="paint1_linear_2478_12524" x1="1" y1="29.6296" x2="10.7701" y2="67.2202" gradientUnits="userSpaceOnUse">
<stop stop-color="#A09E9E"/>
<stop offset="1" stop-color="#7B7B7B"/>
</linearGradient>
<linearGradient id="paint2_linear_2478_12524" x1="49.641" y1="73.9153" x2="44.7456" y2="41.2026" gradientUnits="userSpaceOnUse">
<stop stop-color="#C5C5C5"/>
<stop offset="1" stop-color="#5F5F5F"/>
</linearGradient>
<linearGradient id="paint3_linear_2478_12524" x1="19.6151" y1="10.4303" x2="18.9691" y2="17.7218" gradientUnits="userSpaceOnUse">
<stop stop-color="#DE2126"/>
<stop offset="0.828706" stop-color="#781215"/>
</linearGradient>
<linearGradient id="paint4_linear_2478_12524" x1="22.1735" y1="17.5908" x2="22.8767" y2="12.1632" gradientUnits="userSpaceOnUse">
<stop stop-color="#BE2122"/>
<stop offset="1" stop-color="#9E181B"/>
</linearGradient>
<linearGradient id="paint5_linear_2478_12524" x1="45.3953" y1="36.5334" x2="69.8939" y2="51.346" gradientUnits="userSpaceOnUse">
<stop offset="0.161092" stop-color="#E02126"/>
<stop offset="1" stop-color="#7A1215"/>
</linearGradient>
<linearGradient id="paint6_linear_2478_12524" x1="58.2524" y1="39.7882" x2="47.9793" y2="35.2384" gradientUnits="userSpaceOnUse">
<stop stop-opacity="0"/>
<stop offset="0.88801"/>
</linearGradient>
<linearGradient id="paint7_linear_2478_12524" x1="39.4913" y1="19.0879" x2="10.7565" y2="64.4428" gradientUnits="userSpaceOnUse">
<stop stop-color="#CE2323"/>
<stop offset="0.802091" stop-color="#991B1C"/>
</linearGradient>
<clipPath id="clip0_2478_12524">
<rect width="45" height="57.284" fill="white" transform="translate(17 10.8643)"/>
</clipPath>
</defs>
</svg>
