<svg width="80" height="80" viewBox="0 0 80 80" fill="none" xmlns="http://www.w3.org/2000/svg">
<path d="M0 0H80V57.284H0V0Z" fill="url(#paint0_linear_2478_12875)"/>
<path d="M1 0H80V57.284H1V0Z" fill="url(#paint1_linear_2478_12875)"/>
<path d="M0 0H21V79.0123H0V0Z" fill="url(#paint2_linear_2478_12875)"/>
<path d="M21 57.2839L8 79.0123L80 80V57.2839H21Z" fill="url(#paint3_linear_2478_12875)"/>
<g filter="url(#filter0_d_2478_12875)">
<path d="M48.9048 67.3921C48.9048 68.9502 47.6556 69.2976 47.6556 69.2976H34.8461C34.5632 69.2694 33.911 68.9423 33.964 67.7894L34.1569 67.83C34.2171 67.8428 34.2792 67.8435 34.3397 67.8322C34.4002 67.821 34.4579 67.7978 34.5093 67.7642C34.5608 67.7305 34.6051 67.687 34.6396 67.6362C34.6741 67.5854 34.6982 67.5283 34.7104 67.4681L35.166 65.3311C35.1788 65.271 35.1796 65.209 35.1683 65.1487C35.157 65.0884 35.1338 65.0309 35.1001 64.9795C35.0663 64.9282 35.0227 64.884 34.9718 64.8496C34.9209 64.8151 34.8636 64.7911 34.8033 64.7789L34.6024 64.7369C34.5855 64.733 34.5682 64.7308 34.5508 64.7304C34.6531 64.1384 34.759 63.4683 34.865 62.7511C34.8767 62.754 34.8885 62.7561 34.9005 62.7576L35.1109 62.7866C35.2334 62.8026 35.3574 62.7698 35.4558 62.6951C35.5542 62.6204 35.619 62.5099 35.6361 62.3878L35.9263 60.2204C35.9426 60.0981 35.9097 59.9743 35.8348 59.8761C35.7599 59.7779 35.6491 59.7133 35.5265 59.6964L35.3154 59.6696C35.3056 59.6682 35.2956 59.6682 35.2857 59.6696C35.3481 59.163 35.409 58.6565 35.4663 58.1571C35.4775 58.1599 35.4889 58.1616 35.5004 58.1622L35.7108 58.1839C35.7718 58.1903 35.8334 58.1847 35.8922 58.1673C35.951 58.1499 36.0058 58.1211 36.0534 58.0826C36.1011 58.0441 36.1406 57.9966 36.1698 57.9428C36.199 57.8891 36.2173 57.8301 36.2237 57.7692L36.4507 55.5981C36.4572 55.5374 36.4515 55.4759 36.4342 55.4173C36.4168 55.3587 36.388 55.3041 36.3495 55.2566C36.311 55.2091 36.2634 55.1696 36.2096 55.1404C36.1558 55.1112 36.0967 55.0929 36.0358 55.0865L35.824 55.0648C35.81 55.0641 35.7959 55.0641 35.7819 55.0648C35.8544 54.2419 35.9016 53.4886 35.927 52.8539C36.0655 48.9749 34.8149 46.4463 35.232 45.1661C35.6491 43.8859 37.4184 41.1858 37.6259 40.7675C37.7188 40.583 37.7297 40.3333 37.7115 40.1083C37.7234 40.109 37.7352 40.109 37.7471 40.1083H45.174C45.2661 40.1092 45.3566 40.0841 45.4351 40.0359C45.4881 40.4281 45.5642 40.8949 45.6419 41.01C45.7819 41.2177 45.9204 41.4601 46.7525 42.2569C47.5845 43.0537 47.5874 43.6008 47.5874 43.6008L48.3513 47.3756C48.3513 47.3756 48.9418 49.5568 48.3165 50.8051C47.6912 52.0535 48.0046 53.5052 48.0046 53.5052C49.1486 61.4702 48.9048 65.8333 48.9048 67.3921Z" fill="url(#paint4_linear_2478_12875)"/>
</g>
<path d="M42.134 17.891C41.7005 17.7893 41.2505 17.7795 40.813 17.8621V16.3307C40.8132 16.2431 40.8482 16.1591 40.9103 16.0971C40.9724 16.0351 41.0566 16.0002 41.1445 16H41.7742C41.8177 15.9999 41.8609 16.0084 41.9012 16.025C41.9414 16.0416 41.978 16.0659 42.0088 16.0967C42.0396 16.1274 42.064 16.1639 42.0807 16.2041C42.0973 16.2442 42.1058 16.2873 42.1057 16.3307V17.8621L42.134 17.891Z" fill="#BD2D32"/>
<path d="M42.6985 23.5121C41.5429 23.8928 40.6717 23.6873 40.2212 23.5121L40.235 23.4159L40.6267 22.8637V18.2437C40.6268 18.1204 40.6755 18.0021 40.7624 17.9144L40.8131 17.8623C41.2507 17.7797 41.7007 17.7895 42.1341 17.8912L42.1573 17.9144C42.2439 18.0022 42.2923 18.1205 42.2923 18.2437V22.8623L42.6833 23.4144L42.6985 23.5121Z" fill="url(#paint5_linear_2478_12875)"/>
<path d="M44.1476 34.2776C41.8908 33.7536 39.6979 34.0699 38.7744 34.2515L40.2209 23.5105C40.6714 23.6871 41.5426 23.8926 42.6982 23.5105L44.1491 34.2747L44.1476 34.2776Z" fill="url(#paint6_linear_2478_12875)"/>
<path d="M44.6859 34.7819C41.8633 35.2689 39.2496 34.9461 38.2412 34.7819L38.7751 34.2753V34.2521C39.6986 34.0705 41.8944 33.7542 44.1483 34.2782L44.6859 34.7819Z" fill="url(#paint7_linear_2478_12875)"/>
<path d="M45.5071 38.4824C41.3098 39.1468 37.4121 38.4824 37.4121 38.4824L37.7356 35.6557C37.7687 35.3665 37.9025 35.0981 38.1136 34.8973L38.2376 34.7808C39.246 34.9465 41.8597 35.2693 44.6823 34.7808L44.8042 34.8958C45.0167 35.0958 45.1512 35.3646 45.1836 35.6543L45.5071 38.4824Z" fill="url(#paint8_linear_2478_12875)"/>
<path d="M45.6774 38.4824V39.6012C45.6776 39.6875 45.6554 39.7723 45.6129 39.8473C45.5705 39.9224 45.5092 39.9853 45.4351 40.0297C45.3567 40.0779 45.2661 40.103 45.174 40.102H37.7449C37.7331 40.1028 37.7212 40.1028 37.7094 40.102C37.5824 40.0931 37.4636 40.0364 37.3769 39.9434C37.2902 39.8505 37.2421 39.7282 37.2422 39.6012V38.4824H37.4119C37.4119 38.4824 41.3096 39.1468 45.5069 38.4824H45.6774Z" fill="url(#paint9_linear_2478_12875)"/>
<path d="M35.925 60.2214L35.6348 62.3889C35.6177 62.511 35.5529 62.6215 35.4545 62.6961C35.3562 62.7708 35.2322 62.8037 35.1096 62.7876L34.8993 62.7587C34.8873 62.7572 34.8754 62.755 34.8637 62.7522C34.749 62.7277 34.6478 62.6608 34.5806 62.5649C34.5133 62.4691 34.4849 62.3514 34.501 62.2355L34.7912 60.0694C34.8073 59.953 34.8672 59.847 34.9589 59.7731C35.0505 59.6991 35.1669 59.6628 35.2845 59.6714C35.2943 59.67 35.3043 59.67 35.3142 59.6714L35.5253 59.6982C35.6477 59.7151 35.7584 59.7796 35.8333 59.8776C35.9081 59.9756 35.9411 60.0992 35.925 60.2214Z" fill="url(#paint10_linear_2478_12875)"/>
<path d="M36.4499 55.5946L36.2228 57.7657C36.2165 57.8265 36.1982 57.8855 36.169 57.9393C36.1397 57.9931 36.1002 58.0406 36.0526 58.0791C36.0049 58.1176 35.9501 58.1464 35.8913 58.1638C35.8326 58.1812 35.7709 58.1868 35.7099 58.1804L35.4996 58.1587C35.4881 58.158 35.4766 58.1564 35.4655 58.1536C35.3493 58.1332 35.2452 58.0695 35.1742 57.9755C35.1033 57.8815 35.0707 57.7641 35.0832 57.647L35.3102 55.4738C35.3223 55.3581 35.3774 55.2512 35.4645 55.1739C35.5516 55.0967 35.6645 55.0547 35.781 55.0562C35.795 55.0555 35.8091 55.0555 35.8231 55.0562L36.0349 55.0779C36.0963 55.0843 36.1558 55.1028 36.21 55.1323C36.2642 55.1618 36.312 55.2017 36.3506 55.2498C36.3892 55.2979 36.4178 55.3531 36.4349 55.4123C36.4519 55.4715 36.457 55.5335 36.4499 55.5946Z" fill="url(#paint11_linear_2478_12875)"/>
<path d="M35.1661 65.3348L34.7105 67.4718C34.6983 67.532 34.6742 67.5891 34.6397 67.64C34.6052 67.6908 34.5609 67.7343 34.5094 67.7679C34.458 67.8015 34.4003 67.8247 34.3398 67.836C34.2794 67.8473 34.2172 67.8465 34.157 67.8337L33.9641 67.7932H33.9489C33.8886 67.7808 33.8315 67.7566 33.7806 67.7221C33.7298 67.6876 33.6863 67.6435 33.6526 67.5922C33.6189 67.5409 33.5957 67.4835 33.5843 67.4232C33.5729 67.3629 33.5735 67.301 33.5861 67.241L34.0453 65.0989C34.07 64.9876 34.1348 64.8893 34.2273 64.8226C34.3198 64.7559 34.4337 64.7255 34.5473 64.737C34.5647 64.7374 34.5819 64.7396 34.5988 64.7435L34.807 64.7884C34.9269 64.814 35.0319 64.8857 35.0991 64.988C35.1663 65.0903 35.1904 65.2149 35.1661 65.3348Z" fill="url(#paint12_linear_2478_12875)"/>
<defs>
<filter id="filter0_d_2478_12875" x="29.9609" y="37.0359" width="22.9658" height="37.2617" filterUnits="userSpaceOnUse" color-interpolation-filters="sRGB">
<feFlood flood-opacity="0" result="BackgroundImageFix"/>
<feColorMatrix in="SourceAlpha" type="matrix" values="0 0 0 0 0 0 0 0 0 0 0 0 0 0 0 0 0 0 127 0" result="hardAlpha"/>
<feOffset dy="1"/>
<feGaussianBlur stdDeviation="2"/>
<feComposite in2="hardAlpha" operator="out"/>
<feColorMatrix type="matrix" values="0 0 0 0 0 0 0 0 0 0 0 0 0 0 0 0 0 0 0.25 0"/>
<feBlend mode="normal" in2="BackgroundImageFix" result="effect1_dropShadow_2478_12875"/>
<feBlend mode="normal" in="SourceGraphic" in2="effect1_dropShadow_2478_12875" result="shape"/>
</filter>
<linearGradient id="paint0_linear_2478_12875" x1="26" y1="34.0741" x2="-12.2583" y2="-36.9428" gradientUnits="userSpaceOnUse">
<stop stop-color="#D9D9D9"/>
<stop offset="1" stop-color="#737373"/>
</linearGradient>
<linearGradient id="paint1_linear_2478_12875" x1="26.675" y1="34.0741" x2="-11.8468" y2="-36.5381" gradientUnits="userSpaceOnUse">
<stop stop-color="#D9D9D9"/>
<stop offset="1" stop-color="#737373"/>
</linearGradient>
<linearGradient id="paint2_linear_2478_12875" x1="4.5374e-07" y1="29.6296" x2="9.35996" y2="67.4427" gradientUnits="userSpaceOnUse">
<stop stop-color="#A09E9E"/>
<stop offset="1" stop-color="#7B7B7B"/>
</linearGradient>
<linearGradient id="paint3_linear_2478_12875" x1="49.641" y1="73.9153" x2="44.7456" y2="41.2026" gradientUnits="userSpaceOnUse">
<stop stop-color="#C5C5C5"/>
<stop offset="1" stop-color="#5F5F5F"/>
</linearGradient>
<linearGradient id="paint4_linear_2478_12875" x1="43.8584" y1="43.7513" x2="29.7438" y2="51.2636" gradientUnits="userSpaceOnUse">
<stop stop-color="#DDDDDD"/>
<stop offset="0.174225" stop-color="#E7E7E7"/>
<stop offset="0.975398" stop-color="#DADADA"/>
</linearGradient>
<linearGradient id="paint5_linear_2478_12875" x1="40.2185" y1="22.7556" x2="43.3947" y2="22.7405" gradientUnits="userSpaceOnUse">
<stop offset="0.118304" stop-color="#CF282E"/>
<stop offset="0.222141" stop-color="#DF383E"/>
<stop offset="1" stop-color="#89191D"/>
</linearGradient>
<linearGradient id="paint6_linear_2478_12875" x1="38.7149" y1="31.1536" x2="46.8826" y2="30.7955" gradientUnits="userSpaceOnUse">
<stop stop-color="#C92127"/>
<stop offset="0.316225" stop-color="#DE373D"/>
<stop offset="1" stop-color="#631013"/>
</linearGradient>
<linearGradient id="paint7_linear_2478_12875" x1="38.1699" y1="34.7352" x2="45.771" y2="30.6352" gradientUnits="userSpaceOnUse">
<stop offset="0.10964" stop-color="#C92127"/>
<stop offset="0.37145" stop-color="#DE373D"/>
<stop offset="0.820234" stop-color="#631013"/>
</linearGradient>
<linearGradient id="paint8_linear_2478_12875" x1="37.4033" y1="38.1217" x2="47.7769" y2="37.883" gradientUnits="userSpaceOnUse">
<stop offset="0.118304" stop-color="#CF282E"/>
<stop offset="0.222141" stop-color="#DF383E"/>
<stop offset="1" stop-color="#89191D"/>
</linearGradient>
<linearGradient id="paint9_linear_2478_12875" x1="40.3245" y1="39.2533" x2="40.265" y2="41.8141" gradientUnits="userSpaceOnUse">
<stop stop-color="#DE383D"/>
<stop offset="1" stop-color="#350C0D"/>
</linearGradient>
<linearGradient id="paint10_linear_2478_12875" x1="34.7076" y1="60.877" x2="37.0223" y2="61.2778" gradientUnits="userSpaceOnUse">
<stop stop-color="#DDDDDD"/>
<stop offset="0.174225" stop-color="#E7E7E7"/>
<stop offset="0.975398" stop-color="#ECECEC"/>
</linearGradient>
<linearGradient id="paint11_linear_2478_12875" x1="35.2828" y1="56.2648" x2="37.5061" y2="56.6329" gradientUnits="userSpaceOnUse">
<stop stop-color="#DDDDDD"/>
<stop offset="0.174225" stop-color="#E7E7E7"/>
<stop offset="0.975398" stop-color="#ECECEC"/>
</linearGradient>
<linearGradient id="paint12_linear_2478_12875" x1="33.8118" y1="65.9368" x2="36.3768" y2="66.4346" gradientUnits="userSpaceOnUse">
<stop stop-color="#DDDDDD"/>
<stop offset="0.174225" stop-color="#E7E7E7"/>
<stop offset="0.975398" stop-color="#ECECEC"/>
</linearGradient>
</defs>
</svg>
