<svg width="32" height="32" viewBox="0 0 32 32" fill="none" xmlns="http://www.w3.org/2000/svg">
<path d="M16.0003 2.66675C8.64033 2.66675 2.66699 8.64008 2.66699 16.0001C2.66699 23.3601 8.64033 29.3334 16.0003 29.3334C23.3603 29.3334 29.3337 23.3601 29.3337 16.0001C29.3337 8.64008 23.3603 2.66675 16.0003 2.66675ZM17.3337 25.3334H14.667V22.6667H17.3337V25.3334ZM20.0937 15.0001L18.8937 16.2267C17.9337 17.2001 17.3337 18.0001 17.3337 20.0001H14.667V19.3334C14.667 17.8667 15.267 16.5334 16.227 15.5601L17.8803 13.8801C18.3737 13.4001 18.667 12.7334 18.667 12.0001C18.667 10.5334 17.467 9.33342 16.0003 9.33342C14.5337 9.33342 13.3337 10.5334 13.3337 12.0001H10.667C10.667 9.05341 13.0537 6.66675 16.0003 6.66675C18.947 6.66675 21.3337 9.05341 21.3337 12.0001C21.3337 13.1734 20.8537 14.2401 20.0937 15.0001Z" fill="#0A7DEB"/>
</svg>
