<svg width="33" height="32" viewBox="0 0 33 32" fill="none" xmlns="http://www.w3.org/2000/svg">
<path d="M29.4183 24.8916L22.3517 17.825H21.0316L17.645 21.2116V22.5316L24.7116 29.5983C25.2316 30.1183 26.0716 30.1183 26.5916 29.5983L29.4183 26.7716C29.9383 26.265 29.9383 25.4116 29.4183 24.8916ZM25.645 26.785L19.9916 21.1316L20.9383 20.185L26.5916 25.8383L25.645 26.785Z" fill="#808080"/>
<path d="M23.645 14.2516L25.525 12.3716L28.3517 15.1983C29.9116 13.6383 29.9116 11.105 28.3517 9.54496L23.6316 4.82496L21.7516 6.70496V2.94496L20.8183 1.99829L16.0983 6.71829L17.045 7.66496H20.8183L18.9383 9.54496L20.3516 10.9583L16.4983 14.8116L10.9916 9.30496V7.41162L6.96498 3.38496L3.19165 7.15829L7.23165 11.1983H9.11165L14.6183 16.705L13.485 17.8383H10.6583L3.59165 24.905C3.07165 25.425 3.07165 26.265 3.59165 26.785L6.41832 29.6116C6.93832 30.1316 7.77832 30.1316 8.29832 29.6116L15.365 22.545V19.7183L22.2316 12.8516L23.645 14.2516ZM13.005 21.1183L7.35165 26.7716L6.40498 25.825L12.0583 20.1716L13.005 21.1183Z" fill="#808080"/>
</svg>
