<svg width="28" height="28" viewBox="0 0 28 28" fill="none" xmlns="http://www.w3.org/2000/svg">
<path d="M18.3994 11.9888L16.7894 13.5988C16.556 13.8322 16.556 14.1938 16.7894 14.4272L18.3994 16.0372C18.726 16.3638 19.2744 16.2122 19.391 15.7688C19.5194 15.1855 19.5894 14.6022 19.5894 13.9955C19.5894 13.4005 19.5194 12.8172 19.3794 12.2688C19.2744 11.8255 18.726 11.6622 18.3994 11.9888ZM23.206 9.07217C22.9144 8.4305 22.0627 8.2905 21.5727 8.79217C21.2694 9.0955 21.211 9.53884 21.3744 9.9355C21.911 11.1838 22.2144 12.5488 22.2144 13.9838C22.2144 15.4305 21.911 16.8072 21.3627 18.0555C21.1994 18.4288 21.2577 18.8605 21.5494 19.1522C22.0277 19.6305 22.8327 19.4905 23.1244 18.8838C23.8594 17.3672 24.2677 15.6638 24.2677 13.8672C24.256 12.1755 23.8827 10.5422 23.206 9.07217ZM13.0677 13.9955L17.256 9.81884C17.711 9.36384 17.711 8.62884 17.256 8.16217L12.251 3.15717C11.516 2.42217 10.256 2.9355 10.256 3.97384V11.1838L5.7177 6.6455C5.2627 6.1905 4.5277 6.1905 4.0727 6.6455C3.6177 7.1005 3.6177 7.8355 4.0727 8.2905L9.77769 13.9955L4.0727 19.7005C3.6177 20.1555 3.6177 20.8905 4.0727 21.3455C4.5277 21.8005 5.2627 21.8005 5.7177 21.3455L10.256 16.8072V24.0172C10.256 25.0555 11.516 25.5805 12.251 24.8455L17.256 19.8288C17.711 19.3738 17.711 18.6388 17.256 18.1722L13.0677 13.9955ZM12.5894 6.79717L14.7827 8.9905L12.5894 11.1838V6.79717ZM12.5894 21.1938V16.8072L14.7827 19.0005L12.5894 21.1938Z" fill="#F5F5F5"/>
</svg>
