<svg width="36" height="63" viewBox="0 0 36 63" fill="none" xmlns="http://www.w3.org/2000/svg">
<path d="M33.5286 15.3848L33.4146 18.8075C33.4058 19.0687 33.2977 19.3161 33.1131 19.4978C32.9285 19.6794 32.6819 19.7809 32.4252 19.781H13.2629C13.033 19.7817 12.8103 19.6998 12.6339 19.5498C12.4389 19.3879 12.3122 19.156 12.28 18.9019L11.8585 15.5762C11.8164 15.2385 11.8542 14.8953 11.9689 14.5755C12.0835 14.2557 12.2717 13.9684 12.5176 13.7377L17.2913 9.25875C17.4344 9.12321 17.5961 9.00962 17.7713 8.92154C18.0638 8.77147 18.3868 8.69343 18.7143 8.6937H26.8509C26.9115 8.69301 26.9721 8.69606 27.0323 8.70281C27.4695 8.74086 27.8838 8.91829 28.2162 9.20987L32.8052 13.6938C33.0422 13.9027 33.2302 14.1631 33.3554 14.4557C33.4806 14.7484 33.5397 15.0658 33.5286 15.3848Z" fill="#D7F3FF"/>
<path d="M27.2818 7.22731V8.86367C27.5357 8.85456 27.2818 8.69952 26.8465 8.69041H18.7132C18.3868 8.69065 18.0649 8.76868 17.7734 8.91825V7.53959C19.6335 6.81684 21.5931 7.07576 23.5813 6.96957V1.79297H24.2461V6.96957C25.2089 6.96957 26.4658 6.91827 27.2818 7.22731Z" fill="#D7F3FF" fill-opacity="0.8"/>
<path d="M23.5794 1.79297V7.09094C21.5913 7.1966 19.6316 6.81741 17.7715 7.53959V3.33319C17.7715 2.9247 17.9308 2.53294 18.2145 2.24409C18.4982 1.95524 18.8829 1.79297 19.2841 1.79297H23.5794Z" fill="#D7F3FF" fill-opacity="0.6"/>
<path d="M27.2819 3.33319V7.27861C26.2652 6.96957 25.2089 6.96957 24.2461 6.96957V1.79297H25.5154C25.9166 1.79297 26.5552 1.95524 26.8388 2.24409C27.1225 2.53294 27.2819 2.9247 27.2819 3.33319Z" fill="#D7F3FF" fill-opacity="0.6"/>
<path d="M33.0777 19.5308V21.0577C32.9478 20.8903 32.7822 20.7551 32.5934 20.6624C32.4047 20.5697 32.1977 20.5219 31.9882 20.5225H13.6557C13.4626 20.5225 13.2716 20.5634 13.0949 20.6425C12.9181 20.7217 12.7594 20.8374 12.6289 20.9823V19.5531C12.8053 19.7032 13.028 19.785 13.2579 19.7843H32.4243C32.6651 19.7835 32.8974 19.6934 33.0777 19.5308Z" fill="#D7F3FF" fill-opacity="0.8"/>
<path d="M15.2468 53.659L15.815 54.4772C15.815 54.4772 18.5096 55.1118 21.0507 55.159L21.1914 56.3012C21.1914 56.3012 17.2476 56.3088 15.5642 55.5681L16.1161 56.5226C16.1161 56.5226 18.0149 56.9999 21.0507 57.2259L21.4135 58.3808C21.4135 58.3808 20.1214 58.9028 16.7179 58.0254L17.3086 59.1853C17.3086 59.1853 21.8 59.7272 27.9488 59.4463C30.428 59.037 32.1749 58.5101 33.3783 58.0254V58.23C33.3783 59.7823 32.7728 61.2709 31.6949 62.3685C30.617 63.4661 29.1551 64.0827 27.6307 64.0827H18.0149C17.26 64.0828 16.5125 63.9315 15.815 63.6374C15.1175 63.3434 14.4838 62.9123 13.9499 62.3688C13.416 61.8254 12.9925 61.1801 12.7035 60.47C12.4145 59.7599 12.2657 58.9987 12.2656 58.23V51.1959C13.0069 52.0517 15.3949 53.4834 23.0962 53.4834C29.6388 53.4834 32.2994 52.1711 33.3816 51.1089V52.4188C31.5151 53.5033 26.1506 56.2042 15.2468 53.659Z" fill="#D7F3FF" fill-opacity="0.8"/>
<path d="M33.3816 21.9392V51.109C32.2994 52.1711 29.6388 53.4835 23.0962 53.4835C15.3949 53.4835 13.0069 52.0518 12.2656 51.196V21.9392C12.2654 21.7531 12.3013 21.5688 12.3711 21.3968C12.4409 21.2248 12.5434 21.0685 12.6727 20.9369C12.8019 20.8053 12.9554 20.701 13.1243 20.6299C13.2932 20.5587 13.4742 20.5222 13.657 20.5225H31.9894C32.3585 20.5225 32.7125 20.6717 32.9735 20.9374C33.2346 21.203 33.3814 21.5634 33.3816 21.9392Z" fill="#D7F3FF"/>
<path d="M33.3819 52.4189V58.0222C32.1785 58.5069 30.4315 59.2499 27.9523 59.6592C22.2684 60.5975 16.6987 59.0289 16.6987 59.0289L16.108 57.869C19.0587 58.4696 21.3322 58.2955 21.3322 58.2955L20.996 57.3147C17.7299 57.4066 15.8363 56.5292 15.8363 56.5292L15.3367 55.4199C16.9857 56.0455 20.996 56.2501 20.996 56.2501L20.8641 55.4199C18.3231 55.3726 15.5677 54.4952 15.5677 54.4952L14.8867 53.3875C25.7873 55.936 31.5154 53.5035 33.3819 52.4189Z" fill="#D7F3FF"/>
</svg>
