<svg width="352" height="229" viewBox="0 0 352 229" fill="none" xmlns="http://www.w3.org/2000/svg">
<path d="M342.438 228.514C347.704 211.459 350.374 193.708 350.359 175.858C350.359 78.7292 272.642 0 176.706 0C80.7696 0 3.05231 78.7292 3.05231 175.858C3.03716 193.708 5.70749 211.459 10.9735 228.514H342.438Z" fill="#CBDBF3"/>
<path d="M326.614 228.514C334.997 204.444 337.502 178.716 333.92 153.48C330.338 128.244 320.773 104.232 306.023 83.452C291.274 62.6721 271.77 45.7276 249.14 34.0349C226.511 22.3421 201.414 16.2407 175.947 16.2407C150.48 16.2407 125.383 22.3421 102.753 34.0349C80.1236 45.7276 60.6192 62.6721 45.8701 83.452C31.1209 104.232 21.5556 128.244 17.9735 153.48C14.3914 178.716 16.8967 204.444 25.2799 228.514H326.614Z" fill="#8CB9E6"/>
<path d="M91.4693 21.8924L88.0366 23.8669L96.0998 37.9094L99.5325 35.9348L91.4693 21.8924Z" fill="#FDFFFD"/>
<path d="M177.701 0.134971L173.741 0.202637L174.005 16.3932L177.965 16.3256L177.701 0.134971Z" fill="#FDFFFD"/>
<path d="M25.5597 84.6781L23.5869 88.0981L37.5527 96.1685L39.5255 92.7484L25.5597 84.6781Z" fill="#FDFFFD"/>
<path d="M0 172.313L0 176.262H16.1263V172.313H0Z" fill="#FDFFFD"/>
<path d="M134.961 25.3426L138.589 24.2766L132.902 4.88527L129.274 5.95129L134.961 25.3426Z" fill="#FDFFFD"/>
<path d="M65.5733 65.9466L68.2471 63.2705L53.9695 48.9802L51.2958 51.6563L65.5733 65.9466Z" fill="#FDFFFD"/>
<path d="M25.5974 135.88L26.5684 132.223L7.05392 127.033L6.08292 130.691L25.5974 135.88Z" fill="#FDFFFD"/>
<path d="M26.816 218.101L26.0054 214.405L6.28333 218.738L7.094 222.434L26.816 218.101Z" fill="#FDFFFD"/>
<path d="M252.832 35.6033L256.249 37.5779L264.312 23.5996L260.895 21.625L252.832 35.6033Z" fill="#FDFFFD"/>
<path d="M312.434 92.7459L314.407 96.166L328.373 88.0956L326.4 84.6756L312.434 92.7459Z" fill="#FDFFFD"/>
<path d="M335.828 172.313V176.262H351.954V172.313H335.828Z" fill="#FDFFFD"/>
<path d="M222.656 5.96129L219.028 4.89526L213.341 24.2866L216.969 25.3526L222.656 5.96129Z" fill="#FDFFFD"/>
<path d="M300.647 51.6537L297.973 48.9775L283.696 63.2679L286.369 65.944L300.647 51.6537Z" fill="#FDFFFD"/>
<path d="M346.379 132.483L345.396 128.812L325.81 134.067L326.793 137.738L346.379 132.483Z" fill="#FDFFFD"/>
<path d="M344.873 222.464L345.684 218.768L325.962 214.435L325.151 218.131L344.873 222.464Z" fill="#FDFFFD"/>
<path d="M65.6007 207.332L201.98 174.571L199.708 165.028L61.9689 198.237L51.0586 207.332H65.6007Z" fill="#E6E7EB"/>
<path d="M176.574 191.655C186.24 191.655 194.075 183.812 194.075 174.138C194.075 164.463 186.24 156.621 176.574 156.621C166.908 156.621 159.073 164.463 159.073 174.138C159.073 183.812 166.908 191.655 176.574 191.655Z" fill="#4597E4"/>
</svg>
