<svg width="58" height="23" viewBox="0 0 58 23" fill="none" xmlns="http://www.w3.org/2000/svg">
<path d="M20.8627 2.88532L16.8999 1.55684C16.7765 1.51576 16.6423 1.52439 16.525 1.58091C16.4077 1.63743 16.3164 1.73753 16.2699 1.86044C15.0564 4.4852 13.8646 7.12008 12.5857 9.71264L12.5367 9.812C11.8705 11.1405 11.5936 10.9804 11.3758 10.9776C11.1943 10.9776 11.0409 10.7403 10.8729 10.5572L9.76377 9.1266L10.8248 9.15144C10.9281 9.1512 11.0272 9.10957 11.1002 9.03563C11.1734 8.9617 11.2147 8.86145 11.2151 8.75676V8.7402C11.2147 8.63553 11.1734 8.53527 11.1002 8.46134C11.0272 8.3874 10.9281 8.34577 10.8248 8.34552L8.85066 8.31884C8.74746 8.31909 8.64856 8.36075 8.57558 8.43472C8.50262 8.50868 8.46151 8.60893 8.46127 8.71352V8.72824C8.46083 8.73714 8.46083 8.74604 8.46127 8.75492L8.52299 10.7789C8.52323 10.8835 8.56434 10.9838 8.6373 11.0578C8.71028 11.1317 8.80918 11.1733 8.91238 11.1736H8.9269C9.03019 11.1733 9.12922 11.1317 9.20229 11.0578C9.27545 10.9839 9.31675 10.8836 9.3172 10.7789L9.2455 9.9316L10.3347 11.4036C10.3347 11.4036 10.8611 12.1 11.3767 12.1C12.259 12.1 12.6229 11.7955 13.3445 10.491C14.1959 8.9518 14.8304 7.29672 15.5674 5.69868C15.7825 5.21476 16.0131 4.74004 16.2354 4.2598C16.3498 4.01232 16.4651 3.76484 16.5704 3.51276C16.6566 3.30576 16.7274 3.08312 16.8862 2.91844C16.9751 2.83072 17.0927 2.77928 17.2166 2.774C17.4408 2.76204 17.6904 2.8936 17.9037 2.96628L18.5963 3.19996L19.4958 3.50356C19.6221 3.54646 19.7268 3.63813 19.787 3.75869C19.8471 3.87924 19.858 4.01897 19.8171 4.14756L16.9961 10.6069C16.9586 10.7345 16.9718 10.8719 17.0327 10.9899C17.0936 11.1078 17.1975 11.1971 17.3223 11.2386C17.4471 11.2802 17.5829 11.2708 17.701 11.2124C17.8191 11.1541 17.91 11.0514 17.9546 10.9261L21.1822 3.53852C21.2042 3.47441 21.2135 3.40648 21.2092 3.33874C21.205 3.27098 21.1875 3.20476 21.1578 3.14393C21.1281 3.08311 21.0867 3.02892 21.0359 2.98451C20.9853 2.94011 20.9264 2.90639 20.8627 2.88532Z" fill="#0A7DEB" stroke="#0A7DEB" stroke-miterlimit="10"/>
<path d="M4.27477 8.68734L4.28021 8.67446C4.28021 8.66526 4.28474 8.65698 4.28747 8.64778L5.05173 6.80778C5.09134 6.71124 5.09172 6.60273 5.05279 6.5059C5.01386 6.40906 4.93878 6.33174 4.84388 6.29074L4.83025 6.28522C4.73503 6.24483 4.62788 6.24431 4.53227 6.28379C4.43668 6.32328 4.3604 6.39955 4.32015 6.4959L3.96888 7.3423L2.58922 4.4719C2.53155 4.35126 2.52281 4.2125 2.56488 4.0854C2.60697 3.9583 2.69651 3.85298 2.81433 3.79202L4.79032 2.79198C4.90907 2.73197 5.04633 2.72168 5.1725 2.76333C5.29866 2.80498 5.40362 2.89524 5.46472 3.01462L7.61498 7.50146C7.67861 7.6163 7.78347 7.70183 7.90774 7.74027C8.03202 7.7787 8.16613 7.76707 8.28216 7.70779C8.39819 7.64851 8.48718 7.54616 8.53063 7.42204C8.57407 7.29792 8.56862 7.16161 8.51539 7.04146L6.00478 1.6061C5.97502 1.54591 5.93382 1.49227 5.88353 1.44828C5.83324 1.40428 5.77487 1.3708 5.71177 1.34977C5.64866 1.32874 5.58208 1.32056 5.51585 1.32572C5.44962 1.33086 5.38504 1.34924 5.32584 1.37978L1.59805 3.2759C1.48159 3.33469 1.39203 3.43679 1.34806 3.5609C1.30409 3.68501 1.3091 3.82154 1.36205 3.94198L3.02672 7.71398L2.22615 7.37266C2.17902 7.35253 2.12842 7.34202 2.07727 7.34171C2.02612 7.3414 1.97541 7.35132 1.92804 7.37088C1.88067 7.39045 1.83756 7.41928 1.80119 7.45574C1.76481 7.49219 1.73588 7.53555 1.71604 7.58334L1.71061 7.59714C1.67074 7.69367 1.67023 7.80227 1.70919 7.89917C1.74815 7.99607 1.82339 8.07339 1.91845 8.11418L3.76284 8.90078C3.81026 8.921 3.86115 8.9315 3.9126 8.9317C3.96404 8.93191 4.01501 8.9218 4.06259 8.90196C4.11016 8.88213 4.1534 8.85295 4.18982 8.81613C4.22623 8.77929 4.2551 8.73552 4.27477 8.68734Z" fill="#0A7DEB" stroke="#0A7DEB" stroke-miterlimit="10"/>
<path d="M17.7815 14.3028L17.2305 12.3496C17.2004 12.2476 17.1319 12.1616 17.04 12.1099C16.948 12.0583 16.8398 12.0454 16.7386 12.0736H16.724L16.6986 12.0837L14.7553 12.6201C14.7059 12.6338 14.6597 12.6573 14.6192 12.6892C14.5788 12.721 14.545 12.7606 14.5198 12.8057C14.4944 12.8508 14.4782 12.9006 14.4718 12.9521C14.4656 13.0035 14.4694 13.0558 14.483 13.1058V13.1206C14.5133 13.2225 14.5817 13.3083 14.6736 13.3599C14.7655 13.4115 14.8737 13.4246 14.975 13.3966L15.5722 13.2319V13.2254L15.9298 13.1261L15.702 13.53L15.4297 14.0304L14.7371 15.278L13.8422 16.8898L12.9554 18.486L12.2901 19.682C12.1004 20.0233 11.927 20.4419 11.4605 20.418C11.1047 20.3978 10.9395 20.1153 10.7833 19.8357L10.4484 19.2377L9.5117 17.5724L8.66029 16.0535L8.38799 15.5714L6.57265 12.4867L5.09043 10.1407C5.01552 10.0217 4.89853 9.93645 4.76348 9.90223C4.62844 9.868 4.48559 9.88751 4.36429 9.95669C4.28695 10.0004 4.22242 10.0641 4.1773 10.1414C4.13217 10.2187 4.10807 10.3067 4.10742 10.3964C4.10739 10.4839 4.13093 10.5699 4.1755 10.6448L7.13268 15.6671L7.49575 16.2752L8.33806 17.7031L9.31201 19.3527L10.0654 20.6287C10.1207 20.7207 10.1734 20.8182 10.2306 20.9102C10.4675 21.2865 10.9758 21.614 11.4242 21.614C12.0323 21.614 12.438 21.1779 12.7757 20.6333C13.0607 20.1733 15.5813 15.6717 16.3709 14.2595L16.606 13.8382L16.7295 13.5925V13.5714L16.7386 13.6017V13.5925L17 14.519C17.0301 14.621 17.0984 14.707 17.1904 14.7586C17.2823 14.8102 17.3905 14.8232 17.4919 14.795L17.5064 14.7904C17.5563 14.7769 17.6029 14.7537 17.6438 14.7218C17.6846 14.6899 17.7188 14.6502 17.7444 14.6048C17.77 14.5594 17.7865 14.5094 17.7928 14.4575C17.7992 14.4057 17.7954 14.3531 17.7815 14.3028Z" fill="#0A7DEB" stroke="#0A7DEB" stroke-linecap="round" stroke-linejoin="round"/>
<path d="M27.8008 8.88975C27.6798 8.88605 27.5605 8.91927 27.4585 8.98509C27.3584 9.05704 27.282 9.15765 27.2389 9.27399L25.4716 13.5584L23.7416 9.36933L24.0654 9.57157C24.0972 9.59148 24.1328 9.60483 24.1698 9.61086C24.2068 9.61689 24.2446 9.61546 24.2811 9.60667C24.3176 9.59789 24.3521 9.58192 24.3824 9.55965C24.4128 9.5374 24.4386 9.50929 24.4583 9.47694C24.4779 9.44461 24.4912 9.40865 24.4971 9.37115C24.5031 9.33365 24.5016 9.29533 24.493 9.25837C24.4843 9.22141 24.4685 9.18655 24.4465 9.15578C24.4245 9.125 24.3968 9.09891 24.3649 9.07899L22.9571 8.20362C22.9202 8.18075 22.8787 8.16667 22.8356 8.16247C22.7926 8.15826 22.7491 8.16403 22.7086 8.17934C22.668 8.19465 22.6314 8.21909 22.6016 8.25083C22.5718 8.28256 22.5495 8.32075 22.5363 8.36251L22.0386 9.96593C22.0273 10.0022 22.0232 10.0403 22.0265 10.0781C22.0297 10.116 22.0404 10.1528 22.0578 10.1865C22.0751 10.2201 22.0988 10.25 22.1276 10.2744C22.1564 10.2988 22.1896 10.3171 22.2254 10.3285C22.2532 10.3371 22.282 10.3414 22.311 10.3415C22.3718 10.3416 22.4309 10.322 22.48 10.2856C22.529 10.2492 22.5652 10.198 22.5834 10.1393L22.6776 9.83447L24.9339 15.1791C24.9753 15.2894 25.049 15.3843 25.1451 15.4509C25.2413 15.5175 25.3552 15.5527 25.4716 15.5518C25.5874 15.554 25.7008 15.5196 25.7962 15.4533C25.8916 15.387 25.9641 15.2922 26.0037 15.1821L28.2957 9.73188C28.3332 9.64744 28.3527 9.55586 28.3527 9.46323C28.3527 9.37059 28.3332 9.27902 28.2957 9.19455C28.2525 9.09969 28.1823 9.02004 28.0942 8.96575C28.006 8.91147 27.9038 8.88501 27.8008 8.88975ZM22.9799 8.9071C22.9656 8.9071 22.9799 8.9071 22.9686 8.9071H22.9799Z" fill="#0A7DEB"/>
<path d="M51.8239 14.3862H48.8045V12.7972H50.7171L50.6986 12.8175C50.6785 12.838 50.6628 12.8624 50.6523 12.8891C50.6417 12.9159 50.6365 12.9446 50.6371 12.9734C50.6375 13.0022 50.6437 13.0306 50.6552 13.057C50.6667 13.0834 50.6833 13.1073 50.7041 13.127C50.7247 13.1468 50.7491 13.1623 50.7758 13.1724C50.8024 13.1825 50.8308 13.1872 50.8593 13.1861C50.8877 13.1849 50.9156 13.1781 50.9415 13.1659C50.9673 13.1537 50.9904 13.1364 51.0095 13.115L51.6927 12.374C51.7307 12.3334 51.752 12.2796 51.752 12.2238C51.752 12.1678 51.7307 12.114 51.6927 12.0735L50.9795 11.3353C50.9413 11.2977 50.8906 11.276 50.8372 11.2744C50.7839 11.273 50.732 11.2918 50.6918 11.3272C50.6516 11.3628 50.626 11.4123 50.6201 11.4659C50.6142 11.5196 50.6284 11.5735 50.66 11.617H48.8059V10.0512H51.8254C51.9778 10.0526 52.1247 9.99352 52.2347 9.88652C52.291 9.83252 52.3359 9.76748 52.3665 9.69535C52.3972 9.62318 52.413 9.54546 52.413 9.46691C52.413 9.38836 52.3972 9.31064 52.3665 9.23849C52.3359 9.16634 52.291 9.10129 52.2347 9.04728C52.1248 8.94474 51.9805 8.88843 51.831 8.88983H48.2197C48.1423 8.88785 48.0655 8.90181 47.9936 8.93087C47.9218 8.95994 47.8565 9.00349 47.8019 9.05888C47.7471 9.11428 47.7041 9.18036 47.6754 9.25311C47.6468 9.32587 47.633 9.40376 47.635 9.48208V14.9553C47.633 15.0336 47.6468 15.1116 47.6754 15.1843C47.7041 15.257 47.7471 15.3231 47.8019 15.3785C47.8565 15.4339 47.9218 15.4775 47.9936 15.5065C48.0655 15.5356 48.1423 15.5496 48.2197 15.5476H51.8239C51.9739 15.5496 52.1189 15.4933 52.229 15.3901C52.2851 15.3361 52.3298 15.2712 52.3603 15.1992C52.3909 15.1271 52.4066 15.0496 52.4066 14.9712C52.4066 14.8928 52.3909 14.8152 52.3603 14.7433C52.3298 14.6713 52.2851 14.6063 52.229 14.5523C52.1202 14.446 51.9751 14.3864 51.8239 14.3862Z" fill="#0A7DEB"/>
<path d="M34.6391 8.72089C34.6337 8.68827 34.621 8.65735 34.6018 8.63052C34.5828 8.60369 34.5579 8.58166 34.529 8.56616C34.5003 8.55065 34.4682 8.54208 34.4356 8.54111C34.403 8.54013 34.3706 8.54679 34.3409 8.56055L33.3525 9.00401C33.3084 9.02379 33.2722 9.05808 33.2498 9.10131C33.2274 9.14455 33.22 9.19419 33.2289 9.2422C33.2378 9.29019 33.2625 9.33373 33.2989 9.36575C33.3353 9.39777 33.3814 9.41639 33.4295 9.41859L31.9048 11.9031L30.2275 9.16724C30.1795 9.09267 30.1174 9.02838 30.045 8.97801C29.9532 8.91813 29.8459 8.88745 29.7368 8.88989C29.5958 8.88833 29.459 8.93979 29.3532 9.03434C29.2559 9.12465 29.1907 9.245 29.1678 9.37669C29.1433 9.52842 29.1782 9.68381 29.2648 9.81004L31.243 12.988L31.2302 13.0081H31.2559L31.3115 13.0992V14.9554C31.3189 15.1076 31.3838 15.2511 31.4928 15.3562C31.6018 15.4612 31.7465 15.5197 31.897 15.5197C32.0475 15.5197 32.1922 15.4612 32.3012 15.3562C32.4101 15.2511 32.4751 15.1076 32.4824 14.9554V13.0963L32.5381 13.0053H32.5795L32.5595 12.9735L34.4422 9.96313C34.4613 9.99027 34.4867 10.0124 34.5159 10.0277C34.5451 10.0431 34.5775 10.0511 34.6105 10.0513C34.6228 10.0527 34.6352 10.0527 34.6476 10.0513C34.7033 10.0414 34.7529 10.0096 34.7856 9.96276C34.8181 9.91584 34.8311 9.85788 34.8216 9.80139L34.6391 8.72089Z" fill="#0A7DEB"/>
<path d="M39.5923 10.6405C39.6021 10.6896 39.6283 10.7338 39.6665 10.7656C39.7047 10.7974 39.7525 10.8149 39.802 10.8153C39.8157 10.8167 39.8296 10.8167 39.8433 10.8153L40.9173 10.6015C40.9474 10.5954 40.9758 10.5827 41.0004 10.5642C41.0251 10.5457 41.0454 10.522 41.0599 10.4946C41.0752 10.4674 41.0844 10.4372 41.0869 10.406C41.0893 10.3747 41.085 10.3433 41.0742 10.3141L40.672 9.21333C40.6626 9.18639 40.6481 9.16159 40.6292 9.14032C40.6104 9.11907 40.5877 9.10178 40.5622 9.08944C40.5368 9.07709 40.5092 9.06995 40.4811 9.06841C40.4529 9.06686 40.4247 9.07095 40.3981 9.08043C40.3715 9.08992 40.347 9.10461 40.3261 9.12368C40.3051 9.14275 40.2879 9.16583 40.2758 9.19158C40.2636 9.21734 40.2565 9.24527 40.255 9.27378C40.2535 9.3023 40.2575 9.33084 40.2669 9.35778C40.0539 9.20775 39.8229 9.08591 39.5794 8.9952C39.2248 8.87164 38.8519 8.81056 38.4769 8.81465C38.035 8.81213 37.5976 8.90419 37.1933 9.08477C36.8034 9.26159 36.4501 9.51155 36.1521 9.82149C35.8534 10.1333 35.617 10.5006 35.4561 10.9034C35.2046 11.5258 35.1374 12.2088 35.2625 12.8693C35.3875 13.5296 35.6996 14.1391 36.1606 14.623C36.4579 14.9352 36.8125 15.1855 37.2047 15.3597C37.6094 15.5384 38.0468 15.6289 38.4883 15.6255C38.8581 15.6265 39.226 15.5709 39.5794 15.4608C39.8008 15.3895 40.0115 15.2879 40.2056 15.1589C40.2131 15.19 40.2271 15.2189 40.2469 15.2439C40.2666 15.2688 40.2914 15.2891 40.3197 15.3033C40.3481 15.3173 40.3793 15.3247 40.4109 15.325C40.4516 15.3249 40.4914 15.3132 40.5257 15.2913C40.56 15.2693 40.5875 15.2379 40.6049 15.2008L41.0756 14.2012C41.0887 14.1726 41.0954 14.1416 41.0954 14.1102C41.0954 14.0788 41.0887 14.0477 41.0756 14.0192C41.0619 13.9899 41.042 13.964 41.0174 13.9433C40.9927 13.9226 40.964 13.9076 40.933 13.8993L39.8219 13.5699C39.7674 13.5537 39.7088 13.56 39.6589 13.5874C39.609 13.6149 39.572 13.6614 39.5559 13.7166C39.5398 13.7717 39.546 13.8311 39.5732 13.8816C39.6004 13.9321 39.6462 13.9697 39.7007 13.986L39.7905 14.012C39.6047 14.157 39.3985 14.2729 39.1787 14.3558C38.954 14.4376 38.717 14.4786 38.4783 14.4771C38.197 14.4792 37.9184 14.4206 37.6611 14.3052C37.4081 14.1878 37.1796 14.0226 36.9878 13.8184C36.7917 13.6085 36.6355 13.3636 36.5272 13.0961C36.4145 12.8176 36.3577 12.5189 36.3603 12.2179C36.3581 11.9206 36.4149 11.6259 36.5272 11.3512C36.6355 11.0837 36.7917 10.8389 36.9878 10.629C37.1814 10.4234 37.4117 10.2572 37.6668 10.1393C37.9223 10.0209 38.2003 9.96078 38.4812 9.96299C38.7277 9.95811 38.9732 9.99574 39.2072 10.0742C39.4032 10.1486 39.585 10.2567 39.7449 10.3935C39.6939 10.4084 39.65 10.4418 39.6219 10.4874C39.5937 10.533 39.5831 10.5875 39.5923 10.6405Z" fill="#0A7DEB"/>
<path d="M46.4381 14.047C46.4187 14.0256 46.3954 14.0083 46.3694 13.9961C46.3433 13.984 46.3151 13.9773 46.2864 13.9765C46.2577 13.9755 46.2292 13.9805 46.2025 13.991C46.1758 14.0016 46.1513 14.0174 46.1308 14.0376C46.1102 14.0579 46.0939 14.0821 46.0827 14.1088C46.0717 14.1356 46.0659 14.1644 46.066 14.1934C46.066 14.2225 46.0718 14.2512 46.0831 14.2779C46.0943 14.3046 46.1108 14.3288 46.1315 14.349L46.1757 14.3951H43.5227V9.48532C43.5153 9.33311 43.4504 9.18963 43.3414 9.08457C43.2324 8.9795 43.0877 8.9209 42.9373 8.9209C42.7868 8.9209 42.6421 8.9795 42.5331 9.08457C42.4241 9.18963 42.3592 9.33311 42.3518 9.48532V14.9557C42.3497 15.0364 42.3644 15.1167 42.3949 15.1913C42.4253 15.2659 42.4708 15.3333 42.5287 15.389C42.5828 15.4423 42.6468 15.4842 42.7171 15.5122C42.7874 15.5402 42.8625 15.5538 42.9379 15.5522H46.1428C46.1142 15.594 46.1012 15.6447 46.1062 15.6952C46.1112 15.7458 46.1337 15.7929 46.17 15.8281C46.2086 15.865 46.2595 15.8861 46.3126 15.8874C46.3417 15.8875 46.3706 15.8814 46.3972 15.8698C46.424 15.8581 46.4481 15.8409 46.468 15.8195L47.1512 15.0842C47.1894 15.0441 47.2109 14.9905 47.2109 14.9347C47.2109 14.879 47.1894 14.8253 47.1512 14.7852L46.4381 14.047Z" fill="#0A7DEB"/>
</svg>
