<svg width="28" height="28" viewBox="0 0 28 28" fill="none" xmlns="http://www.w3.org/2000/svg">
<path fill-rule="evenodd" clip-rule="evenodd" d="M6.10301 2.15381H21.8979C24.0787 2.15381 25.8466 3.92171 25.8466 6.10253V21.8974C25.8466 24.0782 24.0787 25.8461 21.8979 25.8461H6.10301C3.9222 25.8461 2.1543 24.0782 2.1543 21.8974V6.10253C2.1543 3.92171 3.9222 2.15381 6.10301 2.15381ZM12.8111 4.54873C11.8553 5.43392 11.8593 6.94897 12.8149 7.83416C13.6726 8.62844 14.9933 8.62484 15.8508 7.83053C16.8065 6.94533 16.8065 5.43391 15.8508 4.54872C14.9933 3.75442 13.6687 3.75443 12.8111 4.54873ZM12.6823 14.7258V20.8231H10.9151C10.0732 20.8231 9.39076 21.5056 9.39076 22.3475C9.39076 23.1893 10.0732 23.8718 10.9151 23.8718H18.3992C19.2411 23.8718 19.9235 23.1893 19.9235 22.3475C19.9235 21.5056 19.2411 20.8231 18.3992 20.8231H16.6321V13.0418C16.6321 11.9514 15.7483 11.0674 14.658 11.0674H10.0491C8.7372 11.0674 8.73558 14.7258 10.0491 14.7258H12.6823Z" fill="#0A7DEB" stroke="#0A7DEB"/>
</svg>
