<svg width="80" height="80" viewBox="0 0 80 80" fill="none" xmlns="http://www.w3.org/2000/svg">
<path d="M0 0H80V57.284H0V0Z" fill="url(#paint0_linear_2478_12703)"/>
<path d="M1 0H80V57.284H1V0Z" fill="url(#paint1_linear_2478_12703)"/>
<path d="M0 0H21V79.0123H0V0Z" fill="url(#paint2_linear_2478_12703)"/>
<path d="M21 57.2839L8 79.0123L80 80V57.2839H21Z" fill="url(#paint3_linear_2478_12703)"/>
<path d="M54.432 20.1878C53.7143 21.3567 52.3936 23.2978 50.5947 25.073C47.7798 27.8485 42.3858 29.531 33.942 29.4106C28.6746 29.3375 26.1679 28.659 25.0289 28.157C25.0099 27.6444 25 27.2904 25 27.1254C25 24.7823 27.4651 23.3976 27.4651 23.3976L43.8268 11.5963C43.9857 11.4458 44.1756 11.3309 44.3836 11.2592C44.7338 11.13 45.0977 11.0403 45.4683 10.9917H51.919C52.103 10.9901 52.2847 11.0331 52.448 11.1169C52.6113 11.2007 52.7512 11.3227 52.8555 11.4723C52.9432 11.5903 53.013 11.7204 53.0625 11.8584L53.3183 13.5007C53.3183 13.5007 53.7775 16.0445 54.432 20.1878Z" fill="url(#paint4_linear_2478_12703)"/>
<g filter="url(#filter0_d_2478_12703)">
<path d="M55.871 29.8992C55.3557 26.1669 54.8549 22.8456 54.4319 20.1877C53.7141 21.3566 52.3935 23.2977 50.5946 25.0729C47.7796 27.8485 42.3857 29.5309 33.9418 29.4106C28.6745 29.3375 26.1678 28.6589 25.0288 28.157C25.2765 34.8868 27.0238 69.1122 27.0238 69.1122C27.0238 69.1122 27.5554 72.059 30.7192 72.059H49.9781C49.9781 72.059 52.1774 72.3211 52.8798 69.1105C53.5822 65.8998 55.6061 51.1534 55.6061 51.1534C55.6061 51.1534 57.1908 39.4465 55.871 29.8992ZM52.5453 52.3491L52.1304 53.6508C52.0941 53.7549 52.0253 53.845 51.9339 53.9081C51.8424 53.9712 51.7331 54.0041 51.6215 54.0021H50.5367L50.3659 55.4064H51.3928C51.4752 55.4065 51.5565 55.4256 51.6301 55.4621C51.7038 55.4986 51.7678 55.5516 51.8171 55.6167C51.8664 55.6819 51.8996 55.7575 51.9141 55.8375C51.9287 55.9175 51.9241 55.9998 51.9008 56.0778L51.485 57.4571C51.4525 57.565 51.3856 57.6597 51.2943 57.7272C51.2029 57.7946 51.092 57.8312 50.9779 57.8316H50.0739L49.9419 58.93H50.5412C50.6208 58.9266 50.7001 58.9418 50.7725 58.9744C50.845 59.007 50.9086 59.056 50.9582 59.1175C51.0077 59.179 51.0418 59.2512 51.0576 59.3282C51.0735 59.4051 51.0706 59.4847 51.0493 59.5604L50.6334 60.8622C50.5976 60.9663 50.5292 61.0565 50.4381 61.1198C50.347 61.1831 50.2378 61.2162 50.1263 61.2143H49.668L49.5216 62.4501H49.6626C49.7422 62.4467 49.8214 62.4619 49.8939 62.4945C49.9663 62.527 50.03 62.5761 50.0795 62.6376C50.1291 62.6991 50.1632 62.7713 50.179 62.8482C50.1948 62.9252 50.192 63.0048 50.1706 63.0805L49.7548 64.3822C49.7199 64.4873 49.6519 64.5785 49.5606 64.6427C49.4694 64.7069 49.3597 64.7406 49.2477 64.7389C49.1754 65.9515 48.3067 65.9515 48.3067 65.9515H30.4987C28.6168 65.9515 28.8396 63.5943 28.8396 63.5943L27.4243 31.385C27.4243 31.385 27.3339 30.9517 28.171 30.9517H48.5715C48.5715 30.9517 51.2943 30.6582 51.8258 35.799C51.8258 41.828 50.8133 51.6696 50.8133 51.6696L50.807 51.7142H52.0382C52.1182 51.7105 52.198 51.7257 52.2709 51.7585C52.3438 51.7913 52.4078 51.8409 52.4574 51.9029C52.507 51.965 52.5408 52.0379 52.5561 52.1155C52.5714 52.1931 52.5677 52.2732 52.5453 52.3491Z" fill="url(#paint5_linear_2478_12703)"/>
</g>
<path d="M52.5454 52.349L52.1305 53.6508C52.0942 53.7549 52.0254 53.845 51.9339 53.9081C51.8425 53.9712 51.7331 54.0041 51.6215 54.0021H50.5368L50.3659 55.4064H51.3928C51.4753 55.4065 51.5565 55.4256 51.6302 55.4621C51.7038 55.4986 51.7678 55.5515 51.8171 55.6167C51.8664 55.6819 51.8997 55.7574 51.9142 55.8375C51.9287 55.9175 51.9242 55.9998 51.9009 56.0778L51.485 57.4571C51.4526 57.565 51.3857 57.6597 51.2944 57.7271C51.203 57.7946 51.092 57.8312 50.9779 57.8316H50.074L49.942 58.93H50.5413C50.6209 58.9266 50.7001 58.9418 50.7726 58.9744C50.8451 59.0069 50.9087 59.056 50.9582 59.1175C51.0078 59.179 51.0419 59.2512 51.0577 59.3281C51.0735 59.4051 51.0707 59.4847 51.0493 59.5604L50.6335 60.8621C50.5977 60.9663 50.5293 61.0565 50.4382 61.1198C50.347 61.1831 50.2378 61.2162 50.1264 61.2143H49.6681L49.5216 62.4501H49.6627C49.7422 62.4467 49.8215 62.4619 49.8939 62.4944C49.9664 62.527 50.03 62.5761 50.0796 62.6376C50.1291 62.699 50.1632 62.7712 50.1791 62.8482C50.1949 62.9252 50.192 63.0048 50.1707 63.0805L49.7549 64.3822C49.72 64.4873 49.6519 64.5785 49.5607 64.6427C49.4694 64.7069 49.3598 64.7406 49.2477 64.7389C49.1754 65.9515 48.3067 65.9515 48.3067 65.9515H30.4987C28.771 65.9515 28.771 63.4799 28.771 63.4799L27.2758 31.392C27.2758 31.392 27.1854 30.9586 28.0225 30.9586L48.5716 30.9586C48.5716 30.9586 51.8258 30.6546 51.8258 36.6836C51.8258 42.7127 50.8134 51.6696 50.8134 51.6696L50.8071 51.7142H52.0383C52.1183 51.7105 52.1981 51.7257 52.271 51.7585C52.3439 51.7913 52.4078 51.8408 52.4574 51.9029C52.507 51.965 52.5409 52.0379 52.5562 52.1155C52.5715 52.1931 52.5678 52.2731 52.5454 52.349Z" fill="url(#paint6_linear_2478_12703)"/>
<path d="M52.5454 52.349L52.1305 53.6508C52.0942 53.7549 52.0254 53.845 51.9339 53.9081C51.8425 53.9712 51.7331 54.0041 51.6215 54.0021H50.5368L50.3659 55.4064H51.3928C51.4753 55.4065 51.5565 55.4256 51.6302 55.4621C51.7038 55.4986 51.7678 55.5515 51.8171 55.6167C51.8664 55.6819 51.8997 55.7574 51.9142 55.8375C51.9287 55.9175 51.9242 55.9998 51.9009 56.0778L51.485 57.4571C51.4526 57.565 51.3857 57.6597 51.2944 57.7271C51.203 57.7946 51.092 57.8312 50.9779 57.8316H50.074L49.942 58.93H50.5413C50.6209 58.9266 50.7001 58.9418 50.7726 58.9744C50.8451 59.0069 50.9087 59.056 50.9582 59.1175C51.0078 59.179 51.0419 59.2512 51.0577 59.3281C51.0735 59.4051 51.0707 59.4847 51.0493 59.5604L50.6335 60.8621C50.5977 60.9663 50.5293 61.0565 50.4382 61.1198C50.347 61.1831 50.2378 61.2162 50.1264 61.2143H49.6681L49.5216 62.4501H49.6627C49.7422 62.4467 49.8215 62.4619 49.8939 62.4944C49.9664 62.527 50.03 62.5761 50.0796 62.6376C50.1291 62.699 50.1632 62.7712 50.1791 62.8482C50.1949 62.9252 50.192 63.0048 50.1707 63.0805L49.7549 64.3822C49.72 64.4873 49.6519 64.5785 49.5607 64.6427C49.4694 64.7069 49.3598 64.7406 49.2477 64.7389C49.1754 65.9515 48.3067 65.9515 48.3067 65.9515H30.4987C28.771 65.9515 28.771 63.4799 28.771 63.4799L27.2758 31.392C27.2758 31.392 27.1854 30.9586 28.0225 30.9586L48.5716 30.9586C48.5716 30.9586 51.8258 30.6546 51.8258 36.6836C51.8258 42.7127 50.8134 51.6696 50.8134 51.6696L50.8071 51.7142H52.0383C52.1183 51.7105 52.1981 51.7257 52.271 51.7585C52.3439 51.7913 52.4078 51.8408 52.4574 51.9029C52.507 51.965 52.5409 52.0379 52.5562 52.1155C52.5715 52.1931 52.5678 52.2731 52.5454 52.349Z" fill="url(#paint7_linear_2478_12703)" fill-opacity="0.15"/>
<path d="M52.8513 7.69195V11.4697C52.747 11.3201 52.6071 11.1981 52.4438 11.1143C52.2805 11.0305 52.0989 10.9875 51.9148 10.9891H45.4641C45.0935 11.0377 44.7296 11.1274 44.3794 11.2566V7.77933C44.3794 7.77933 44.6424 6.91357 45.5229 6.91357H51.7973C51.7973 6.91357 52.8513 6.96975 52.8513 7.69195Z" fill="url(#paint8_linear_2478_12703)"/>
<path d="M55.0504 19.1179C55.0504 19.1179 54.8371 19.5316 54.4321 20.1879Z" fill="black"/>
<path d="M53.0347 52.3655L52.5182 53.7031C52.4731 53.8101 52.3874 53.9026 52.2736 53.9675C52.1598 54.0323 52.0236 54.0661 51.8847 54.0641H48.959C48.8599 54.0674 48.7613 54.0517 48.6711 54.0181C48.5809 53.9845 48.5017 53.934 48.4401 53.8708C48.3784 53.8075 48.336 53.7333 48.3163 53.6542C48.2965 53.5751 48.3001 53.4932 48.3266 53.4154L48.8442 52.0779C48.8891 51.9711 48.9744 51.8787 49.0878 51.8139C49.2012 51.749 49.337 51.7151 49.4755 51.7169H52.408C52.5067 51.7139 52.605 51.7299 52.6947 51.7637C52.7844 51.7975 52.863 51.8481 52.9242 51.9113C52.9853 51.9746 53.0271 52.0487 53.0464 52.1276C53.0656 52.2066 53.0616 52.2881 53.0347 52.3655Z" fill="url(#paint9_linear_2478_12703)"/>
<defs>
<filter id="filter0_d_2478_12703" x="21.0288" y="17.1877" width="39.3672" height="59.8765" filterUnits="userSpaceOnUse" color-interpolation-filters="sRGB">
<feFlood flood-opacity="0" result="BackgroundImageFix"/>
<feColorMatrix in="SourceAlpha" type="matrix" values="0 0 0 0 0 0 0 0 0 0 0 0 0 0 0 0 0 0 127 0" result="hardAlpha"/>
<feOffset dy="1"/>
<feGaussianBlur stdDeviation="2"/>
<feComposite in2="hardAlpha" operator="out"/>
<feColorMatrix type="matrix" values="0 0 0 0 0 0 0 0 0 0 0 0 0 0 0 0 0 0 0.25 0"/>
<feBlend mode="normal" in2="BackgroundImageFix" result="effect1_dropShadow_2478_12703"/>
<feBlend mode="normal" in="SourceGraphic" in2="effect1_dropShadow_2478_12703" result="shape"/>
</filter>
<linearGradient id="paint0_linear_2478_12703" x1="26" y1="34.0741" x2="-12.2583" y2="-36.9428" gradientUnits="userSpaceOnUse">
<stop stop-color="#D9D9D9"/>
<stop offset="1" stop-color="#737373"/>
</linearGradient>
<linearGradient id="paint1_linear_2478_12703" x1="26.675" y1="34.0741" x2="-11.8468" y2="-36.5381" gradientUnits="userSpaceOnUse">
<stop stop-color="#D9D9D9"/>
<stop offset="1" stop-color="#737373"/>
</linearGradient>
<linearGradient id="paint2_linear_2478_12703" x1="4.5374e-07" y1="29.6296" x2="9.35996" y2="67.4427" gradientUnits="userSpaceOnUse">
<stop stop-color="#A09E9E"/>
<stop offset="1" stop-color="#7B7B7B"/>
</linearGradient>
<linearGradient id="paint3_linear_2478_12703" x1="49.641" y1="73.9153" x2="44.7456" y2="41.2026" gradientUnits="userSpaceOnUse">
<stop stop-color="#C5C5C5"/>
<stop offset="1" stop-color="#5F5F5F"/>
</linearGradient>
<linearGradient id="paint4_linear_2478_12703" x1="56.1788" y1="27.7967" x2="34.111" y2="3.68673" gradientUnits="userSpaceOnUse">
<stop offset="0.273851" stop-color="#D3C42A"/>
<stop offset="0.553716" stop-color="#E9D713"/>
<stop offset="0.670546" stop-color="#FDED40"/>
</linearGradient>
<linearGradient id="paint5_linear_2478_12703" x1="41.3205" y1="30.9517" x2="41.9002" y2="84.1478" gradientUnits="userSpaceOnUse">
<stop offset="0.00930253" stop-color="#E3DA4B"/>
<stop offset="0.345" stop-color="#F0E64C"/>
<stop offset="0.976176" stop-color="#B4AC32"/>
</linearGradient>
<linearGradient id="paint6_linear_2478_12703" x1="13.8329" y1="34.1802" x2="64.6166" y2="37.9692" gradientUnits="userSpaceOnUse">
<stop offset="0.186926" stop-color="#22712A"/>
<stop offset="0.426455" stop-color="#2D9738"/>
<stop offset="0.816793" stop-color="#22712A"/>
</linearGradient>
<linearGradient id="paint7_linear_2478_12703" x1="37.1603" y1="51.3496" x2="44.5142" y2="66.61" gradientUnits="userSpaceOnUse">
<stop stop-opacity="0"/>
<stop offset="1"/>
</linearGradient>
<linearGradient id="paint8_linear_2478_12703" x1="48.6014" y1="7.47226" x2="48.6014" y2="15.9102" gradientUnits="userSpaceOnUse">
<stop stop-color="#2D9738"/>
<stop offset="1" stop-color="#0F3112"/>
</linearGradient>
<linearGradient id="paint9_linear_2478_12703" x1="50.681" y1="51.7166" x2="51.9469" y2="60.7575" gradientUnits="userSpaceOnUse">
<stop stop-color="#DDCD21"/>
<stop offset="1" stop-color="#776E12"/>
</linearGradient>
</defs>
</svg>
