<svg width="361" height="200" viewBox="0 0 361 200" fill="none" xmlns="http://www.w3.org/2000/svg">
<g clip-path="url(#clip0_3328_51622)">
<rect width="361" height="200" rx="24" fill="#F5F5F5"/>
<path d="M32.8627 14.8853L28.8999 13.5568C28.7765 13.5158 28.6423 13.5244 28.525 13.5809C28.4077 13.6374 28.3164 13.7375 28.2699 13.8604C27.0564 16.4852 25.8646 19.1201 24.5857 21.7126L24.5367 21.812C23.8705 23.1405 23.5936 22.9804 23.3758 22.9776C23.1943 22.9776 23.0409 22.7403 22.8729 22.5572L21.7638 21.1266L22.8248 21.1514C22.9281 21.1512 23.0272 21.1096 23.1002 21.0356C23.1734 20.9617 23.2147 20.8614 23.2151 20.7568V20.7402C23.2147 20.6355 23.1734 20.5353 23.1002 20.4613C23.0272 20.3874 22.9281 20.3458 22.8248 20.3455L20.8507 20.3188C20.7475 20.3191 20.6486 20.3607 20.5756 20.4347C20.5026 20.5087 20.4615 20.6089 20.4613 20.7135V20.7282C20.4608 20.7371 20.4608 20.746 20.4613 20.7549L20.523 22.7789C20.5232 22.8835 20.5643 22.9838 20.6373 23.0578C20.7103 23.1317 20.8092 23.1733 20.9124 23.1736H20.9269C21.0302 23.1733 21.1292 23.1317 21.2023 23.0578C21.2754 22.9839 21.3167 22.8836 21.3172 22.7789L21.2455 21.9316L22.3347 23.4036C22.3347 23.4036 22.8611 24.1 23.3767 24.1C24.259 24.1 24.6229 23.7955 25.3445 22.491C26.1959 20.9518 26.8304 19.2967 27.5674 17.6987C27.7825 17.2148 28.0131 16.74 28.2354 16.2598C28.3498 16.0123 28.4651 15.7648 28.5704 15.5128C28.6566 15.3058 28.7274 15.0831 28.8862 14.9184C28.9751 14.8307 29.0927 14.7793 29.2166 14.774C29.4408 14.762 29.6904 14.8936 29.9037 14.9663L30.5963 15.2L31.4958 15.5036C31.6221 15.5465 31.7268 15.6381 31.787 15.7587C31.8471 15.8792 31.858 16.019 31.8171 16.1476L28.9961 22.6069C28.9586 22.7345 28.9718 22.8719 29.0327 22.9899C29.0936 23.1078 29.1975 23.1971 29.3223 23.2386C29.4471 23.2802 29.5829 23.2708 29.701 23.2124C29.8191 23.1541 29.91 23.0514 29.9546 22.9261L33.1822 15.5385C33.2042 15.4744 33.2135 15.4065 33.2092 15.3387C33.205 15.271 33.1875 15.2048 33.1578 15.1439C33.1281 15.0831 33.0867 15.0289 33.0359 14.9845C32.9853 14.9401 32.9264 14.9064 32.8627 14.8853Z" fill="#0A7DEB" stroke="#0A7DEB" stroke-width="0.5" stroke-miterlimit="10"/>
<path d="M16.2748 20.6873L16.2802 20.6745C16.2802 20.6653 16.2847 20.657 16.2875 20.6478L17.0517 18.8078C17.0913 18.7112 17.0917 18.6027 17.0528 18.5059C17.0139 18.4091 16.9388 18.3317 16.8439 18.2907L16.8303 18.2852C16.735 18.2448 16.6279 18.2443 16.5323 18.2838C16.4367 18.3233 16.3604 18.3996 16.3202 18.4959L15.9689 19.3423L14.5892 16.4719C14.5315 16.3513 14.5228 16.2125 14.5649 16.0854C14.607 15.9583 14.6965 15.853 14.8143 15.792L16.7903 14.792C16.9091 14.732 17.0463 14.7217 17.1725 14.7633C17.2987 14.805 17.4036 14.8952 17.4647 15.0146L19.615 19.5015C19.6786 19.6163 19.7835 19.7018 19.9077 19.7403C20.032 19.7787 20.1661 19.7671 20.2822 19.7078C20.3982 19.6485 20.4872 19.5462 20.5306 19.422C20.5741 19.2979 20.5686 19.1616 20.5154 19.0415L18.0048 13.6061C17.975 13.5459 17.9338 13.4923 17.8835 13.4483C17.8332 13.4043 17.7749 13.3708 17.7118 13.3498C17.6487 13.3287 17.5821 13.3206 17.5159 13.3257C17.4496 13.3309 17.385 13.3492 17.3258 13.3798L13.5981 15.2759C13.4816 15.3347 13.392 15.4368 13.3481 15.5609C13.3041 15.685 13.3091 15.8215 13.3621 15.942L15.0267 19.714L14.2262 19.3727C14.179 19.3525 14.1284 19.342 14.0773 19.3417C14.0261 19.3414 13.9754 19.3513 13.928 19.3709C13.8807 19.3904 13.8376 19.4193 13.8012 19.4557C13.7648 19.4922 13.7359 19.5355 13.716 19.5833L13.7106 19.5971C13.6707 19.6937 13.6702 19.8023 13.7092 19.8992C13.7481 19.9961 13.8234 20.0734 13.9185 20.1142L15.7628 20.9008C15.8103 20.921 15.8612 20.9315 15.9126 20.9317C15.964 20.9319 16.015 20.9218 16.0626 20.902C16.1102 20.8821 16.1534 20.853 16.1898 20.8161C16.2262 20.7793 16.2551 20.7355 16.2748 20.6873Z" fill="#0A7DEB" stroke="#0A7DEB" stroke-width="0.5" stroke-miterlimit="10"/>
<path d="M29.7815 26.3028L29.2305 24.3496C29.2004 24.2476 29.1319 24.1616 29.04 24.1099C28.948 24.0583 28.8398 24.0454 28.7386 24.0736H28.724L28.6986 24.0837L26.7553 24.6201C26.7059 24.6338 26.6597 24.6573 26.6192 24.6892C26.5788 24.721 26.545 24.7606 26.5198 24.8057C26.4944 24.8508 26.4782 24.9006 26.4718 24.9521C26.4656 25.0035 26.4694 25.0558 26.483 25.1058V25.1206C26.5133 25.2225 26.5818 25.3083 26.6736 25.3599C26.7655 25.4115 26.8737 25.4246 26.975 25.3966L27.5722 25.2319V25.2254L27.9298 25.1261L27.702 25.53L27.4297 26.0304L26.7371 27.278L25.8422 28.8898L24.9554 30.486L24.2901 31.682C24.1004 32.0233 23.927 32.4419 23.4605 32.418C23.1047 32.3978 22.9395 32.1153 22.7833 31.8357L22.4484 31.2377L21.5117 29.5724L20.6603 28.0535L20.388 27.5714L18.5726 24.4867L17.0904 22.1407C17.0155 22.0217 16.8985 21.9364 16.7635 21.9022C16.6284 21.868 16.4856 21.8875 16.3643 21.9567C16.2869 22.0004 16.2224 22.0641 16.1773 22.1414C16.1322 22.2187 16.1081 22.3067 16.1074 22.3964C16.1074 22.4839 16.1309 22.5699 16.1755 22.6448L19.1327 27.6671L19.4957 28.2752L20.3381 29.7031L21.312 31.3527L22.0654 32.6287C22.1207 32.7207 22.1734 32.8182 22.2306 32.9102C22.4675 33.2865 22.9758 33.614 23.4242 33.614C24.0323 33.614 24.438 33.1779 24.7757 32.6333C25.0607 32.1733 27.5813 27.6717 28.3709 26.2595L28.606 25.8382L28.7295 25.5925V25.5714L28.7386 25.6017V25.5925L29 26.519C29.0301 26.621 29.0984 26.707 29.1904 26.7586C29.2823 26.8102 29.3905 26.8232 29.4919 26.795L29.5064 26.7904C29.5563 26.7769 29.6029 26.7537 29.6438 26.7218C29.6846 26.6899 29.7188 26.6502 29.7444 26.6048C29.77 26.5594 29.7865 26.5094 29.7928 26.4575C29.7992 26.4057 29.7954 26.3531 29.7815 26.3028Z" fill="#0A7DEB" stroke="#0A7DEB" stroke-width="0.5" stroke-linecap="round" stroke-linejoin="round"/>
<path d="M39.8008 20.8898C39.6798 20.886 39.5605 20.9193 39.4585 20.9851C39.3584 21.057 39.282 21.1576 39.2389 21.274L37.4716 25.5584L35.7416 21.3693L36.0654 21.5716C36.0972 21.5915 36.1328 21.6048 36.1698 21.6109C36.2068 21.6169 36.2446 21.6155 36.2811 21.6067C36.3176 21.5979 36.3521 21.5819 36.3824 21.5597C36.4128 21.5374 36.4386 21.5093 36.4583 21.4769C36.4779 21.4446 36.4912 21.4087 36.4971 21.3712C36.5031 21.3337 36.5016 21.2953 36.493 21.2584C36.4843 21.2214 36.4685 21.1866 36.4465 21.1558C36.4245 21.125 36.3968 21.0989 36.3649 21.079L34.9571 20.2036C34.9202 20.1807 34.8787 20.1667 34.8356 20.1625C34.7926 20.1583 34.7491 20.164 34.7086 20.1793C34.668 20.1946 34.6314 20.2191 34.6016 20.2508C34.5718 20.2826 34.5495 20.3208 34.5363 20.3625L34.0386 21.9659C34.0273 22.0022 34.0232 22.0403 34.0265 22.0781C34.0297 22.116 34.0404 22.1528 34.0578 22.1865C34.0751 22.2201 34.0988 22.25 34.1276 22.2744C34.1564 22.2988 34.1896 22.3171 34.2254 22.3285C34.2532 22.3371 34.282 22.3414 34.311 22.3415C34.3718 22.3416 34.4309 22.322 34.48 22.2856C34.529 22.2492 34.5652 22.198 34.5834 22.1393L34.6776 21.8345L36.9339 27.1791C36.9753 27.2894 37.049 27.3843 37.1451 27.4509C37.2413 27.5175 37.3552 27.5527 37.4716 27.5518C37.5874 27.554 37.7008 27.5196 37.7962 27.4533C37.8916 27.387 37.9641 27.2922 38.0037 27.1821L40.2957 21.7319C40.3332 21.6474 40.3527 21.5559 40.3527 21.4632C40.3527 21.3706 40.3332 21.279 40.2957 21.1945C40.2525 21.0997 40.1823 21.02 40.0942 20.9658C40.006 20.9115 39.9038 20.885 39.8008 20.8898ZM34.9799 20.9071C34.9656 20.9071 34.9799 20.9071 34.9686 20.9071H34.9799Z" fill="#0A7DEB"/>
<path d="M63.8239 26.3862H60.8045V24.7972H62.7171L62.6986 24.8175C62.6785 24.838 62.6628 24.8624 62.6523 24.8891C62.6417 24.9159 62.6365 24.9446 62.6371 24.9734C62.6375 25.0022 62.6437 25.0306 62.6552 25.057C62.6667 25.0834 62.6833 25.1073 62.7041 25.127C62.7247 25.1468 62.7491 25.1623 62.7758 25.1724C62.8024 25.1825 62.8308 25.1872 62.8593 25.1861C62.8877 25.1849 62.9156 25.1781 62.9415 25.1659C62.9673 25.1537 62.9904 25.1364 63.0095 25.115L63.6927 24.374C63.7307 24.3334 63.752 24.2796 63.752 24.2238C63.752 24.1678 63.7307 24.114 63.6927 24.0735L62.9795 23.3353C62.9413 23.2977 62.8906 23.276 62.8372 23.2744C62.7839 23.273 62.732 23.2918 62.6918 23.3272C62.6516 23.3628 62.626 23.4123 62.6201 23.4659C62.6142 23.5196 62.6284 23.5735 62.66 23.617H60.8059V22.0512H63.8254C63.9778 22.0526 64.1247 21.9935 64.2347 21.8865C64.291 21.8325 64.3359 21.7675 64.3665 21.6953C64.3972 21.6232 64.413 21.5455 64.413 21.4669C64.413 21.3884 64.3972 21.3106 64.3665 21.2385C64.3359 21.1663 64.291 21.1013 64.2347 21.0473C64.1248 20.9447 63.9805 20.8884 63.831 20.8898H60.2197C60.1423 20.8879 60.0655 20.9018 59.9936 20.9309C59.9218 20.9599 59.8565 21.0035 59.8019 21.0589C59.7471 21.1143 59.7041 21.1804 59.6754 21.2531C59.6468 21.3259 59.633 21.4038 59.635 21.4821V26.9553C59.633 27.0336 59.6468 27.1116 59.6754 27.1843C59.7041 27.257 59.7471 27.3231 59.8019 27.3785C59.8565 27.4339 59.9218 27.4775 59.9936 27.5065C60.0655 27.5356 60.1423 27.5496 60.2197 27.5476H63.8239C63.9739 27.5496 64.1189 27.4933 64.229 27.3901C64.2851 27.3361 64.3298 27.2712 64.3603 27.1992C64.3909 27.1271 64.4066 27.0496 64.4066 26.9712C64.4066 26.8928 64.3909 26.8152 64.3603 26.7433C64.3298 26.6713 64.2851 26.6063 64.229 26.5523C64.1202 26.446 63.9751 26.3864 63.8239 26.3862Z" fill="#0A7DEB"/>
<path d="M46.6391 20.7209C46.6337 20.6883 46.621 20.6574 46.6018 20.6305C46.5828 20.6037 46.5579 20.5817 46.529 20.5662C46.5003 20.5506 46.4682 20.5421 46.4356 20.5411C46.403 20.5401 46.3706 20.5468 46.3409 20.5605L45.3525 21.004C45.3084 21.0238 45.2722 21.0581 45.2498 21.1013C45.2274 21.1445 45.22 21.1942 45.2289 21.2422C45.2378 21.2902 45.2625 21.3337 45.2989 21.3658C45.3353 21.3978 45.3814 21.4164 45.4295 21.4186L43.9048 23.9031L42.2275 21.1672C42.1795 21.0927 42.1174 21.0284 42.045 20.978C41.9532 20.9181 41.8459 20.8875 41.7368 20.8899C41.5958 20.8883 41.459 20.9398 41.3532 21.0343C41.2559 21.1246 41.1907 21.245 41.1678 21.3767C41.1433 21.5284 41.1782 21.6838 41.2648 21.81L43.243 24.988L43.2302 25.0081H43.2559L43.3115 25.0992V26.9554C43.3189 27.1076 43.3838 27.2511 43.4928 27.3562C43.6018 27.4612 43.7465 27.5197 43.897 27.5197C44.0475 27.5197 44.1922 27.4612 44.3012 27.3562C44.4101 27.2511 44.4751 27.1076 44.4824 26.9554V25.0963L44.5381 25.0053H44.5795L44.5595 24.9735L46.4422 21.9631C46.4613 21.9903 46.4867 22.0124 46.5159 22.0277C46.5451 22.0431 46.5775 22.0511 46.6105 22.0513C46.6228 22.0527 46.6352 22.0527 46.6476 22.0513C46.7033 22.0414 46.7529 22.0096 46.7856 21.9628C46.8181 21.9158 46.8311 21.8579 46.8216 21.8014L46.6391 20.7209Z" fill="#0A7DEB"/>
<path d="M51.5923 22.6405C51.6021 22.6896 51.6283 22.7338 51.6665 22.7656C51.7047 22.7974 51.7525 22.8149 51.802 22.8153C51.8157 22.8167 51.8296 22.8167 51.8433 22.8153L52.9173 22.6015C52.9474 22.5954 52.9758 22.5827 53.0004 22.5642C53.0251 22.5457 53.0454 22.522 53.0599 22.4946C53.0752 22.4674 53.0844 22.4372 53.0869 22.406C53.0893 22.3747 53.085 22.3433 53.0742 22.3141L52.672 21.2133C52.6626 21.1864 52.6481 21.1616 52.6292 21.1403C52.6104 21.1191 52.5877 21.1018 52.5622 21.0894C52.5368 21.0771 52.5092 21.07 52.4811 21.0684C52.4529 21.0669 52.4247 21.0709 52.3981 21.0804C52.3715 21.0899 52.347 21.1046 52.3261 21.1237C52.3051 21.1428 52.2879 21.1658 52.2758 21.1916C52.2636 21.2173 52.2565 21.2453 52.255 21.2738C52.2535 21.3023 52.2575 21.3308 52.2669 21.3578C52.0539 21.2078 51.8229 21.0859 51.5794 20.9952C51.2248 20.8716 50.8519 20.8106 50.4769 20.8146C50.035 20.8121 49.5976 20.9042 49.1933 21.0848C48.8034 21.2616 48.4501 21.5116 48.1521 21.8215C47.8534 22.1333 47.617 22.5006 47.4561 22.9034C47.2046 23.5258 47.1374 24.2088 47.2625 24.8693C47.3875 25.5296 47.6996 26.1391 48.1606 26.623C48.4579 26.9352 48.8125 27.1855 49.2047 27.3597C49.6094 27.5384 50.0468 27.6289 50.4883 27.6255C50.8581 27.6265 51.226 27.5709 51.5794 27.4608C51.8008 27.3895 52.0115 27.2879 52.2056 27.1589C52.2131 27.19 52.2271 27.2189 52.2469 27.2439C52.2666 27.2688 52.2914 27.2891 52.3197 27.3033C52.3481 27.3173 52.3793 27.3247 52.4109 27.325C52.4516 27.3249 52.4914 27.3132 52.5257 27.2913C52.56 27.2693 52.5875 27.2379 52.6049 27.2008L53.0756 26.2012C53.0887 26.1726 53.0954 26.1416 53.0954 26.1102C53.0954 26.0788 53.0887 26.0477 53.0756 26.0192C53.0619 25.9899 53.042 25.964 53.0174 25.9433C52.9927 25.9226 52.964 25.9076 52.933 25.8993L51.8219 25.5699C51.7674 25.5537 51.7088 25.56 51.6589 25.5874C51.609 25.6149 51.572 25.6614 51.5559 25.7166C51.5398 25.7717 51.546 25.8311 51.5732 25.8816C51.6004 25.9321 51.6462 25.9697 51.7007 25.986L51.7905 26.012C51.6047 26.157 51.3985 26.2729 51.1787 26.3558C50.954 26.4376 50.717 26.4786 50.4783 26.4771C50.197 26.4792 49.9184 26.4206 49.6611 26.3052C49.4081 26.1878 49.1796 26.0226 48.9878 25.8184C48.7917 25.6085 48.6355 25.3636 48.5272 25.0961C48.4145 24.8176 48.3577 24.5189 48.3603 24.2179C48.3581 23.9206 48.4149 23.6259 48.5272 23.3512C48.6355 23.0837 48.7917 22.8389 48.9878 22.629C49.1814 22.4234 49.4117 22.2572 49.6668 22.1393C49.9223 22.0209 50.2003 21.9608 50.4812 21.963C50.7277 21.9581 50.9732 21.9957 51.2072 22.0742C51.4032 22.1486 51.585 22.2567 51.7449 22.3935C51.6939 22.4084 51.65 22.4418 51.6219 22.4874C51.5937 22.533 51.5831 22.5875 51.5923 22.6405Z" fill="#0A7DEB"/>
<path d="M58.4381 26.047C58.4187 26.0256 58.3954 26.0083 58.3694 25.9961C58.3433 25.984 58.3151 25.9773 58.2864 25.9765C58.2577 25.9755 58.2292 25.9805 58.2025 25.991C58.1758 26.0016 58.1513 26.0174 58.1308 26.0376C58.1102 26.0579 58.0939 26.0821 58.0827 26.1088C58.0717 26.1356 58.0659 26.1644 58.066 26.1934C58.066 26.2225 58.0718 26.2512 58.0831 26.2779C58.0943 26.3046 58.1108 26.3288 58.1315 26.349L58.1757 26.3951H55.5227V21.4853C55.5153 21.3331 55.4504 21.1896 55.3414 21.0846C55.2324 20.9795 55.0877 20.9209 54.9373 20.9209C54.7868 20.9209 54.6421 20.9795 54.5331 21.0846C54.4241 21.1896 54.3592 21.3331 54.3518 21.4853V26.9557C54.3497 27.0364 54.3644 27.1167 54.3949 27.1913C54.4253 27.2659 54.4708 27.3333 54.5287 27.389C54.5828 27.4423 54.6468 27.4842 54.7171 27.5122C54.7874 27.5402 54.8625 27.5538 54.9379 27.5522H58.1428C58.1142 27.594 58.1012 27.6447 58.1062 27.6952C58.1112 27.7458 58.1337 27.7929 58.17 27.8281C58.2086 27.865 58.2595 27.8861 58.3126 27.8874C58.3417 27.8875 58.3706 27.8814 58.3972 27.8698C58.424 27.8581 58.4481 27.8409 58.468 27.8195L59.1512 27.0842C59.1894 27.0441 59.2109 26.9905 59.2109 26.9347C59.2109 26.879 59.1894 26.8253 59.1512 26.7852L58.4381 26.047Z" fill="#0A7DEB"/>
<g clip-path="url(#clip1_3328_51622)">
<path d="M55.6656 199.082L40.4759 172.709L36.5941 171.665L23.9551 178.945L22.9106 182.826L38.1003 209.199C39.2181 211.14 41.6883 211.804 43.6289 210.687L54.178 204.611C56.1081 203.532 56.7833 201.023 55.6656 199.082ZM43.0711 201.664L30.9193 180.566L34.4523 178.531L46.604 199.63L43.0711 201.664Z" fill="black" fill-opacity="0.08"/>
<path d="M47.1067 163.225L54.1229 159.184L60.1987 169.733C66.0207 166.379 68.0252 158.93 64.672 153.108L54.5264 135.493L47.5103 139.534L50.4854 128.476L48.4898 124.954L30.8747 135.1L32.9096 138.633L44.006 141.618L36.9898 145.659L40.0277 150.934L25.6471 159.217L13.8106 138.666L15.3087 133.098L6.65348 118.07L-7.42859 126.181L1.25532 141.258L6.78391 142.746L18.6204 163.297L14.3908 165.733L6.0783 163.496L-20.2945 178.686C-22.2351 179.804 -22.8998 182.274 -21.7821 184.215L-15.7062 194.764C-14.5885 196.704 -12.1182 197.369 -10.1776 196.251L16.1952 181.062L18.4318 172.749L44.0582 157.989L47.1067 163.225ZM10.3839 174.999L-10.7143 187.15L-12.7492 183.617L8.34907 171.466L10.3839 174.999Z" fill="black" fill-opacity="0.08"/>
</g>
<path opacity="0.2" d="M120.463 101.15C118.567 119.931 128.847 117.596 128.847 117.596C136.271 138.434 161.786 127.923 161.786 127.923C172.746 144.173 185.238 127.59 185.238 127.59C212.811 148.006 220.116 113.758 220.116 113.758C238.851 118.119 235.315 95.8382 235.315 95.8382C244.069 78.1618 227.647 72.9748 227.647 72.9748C233.15 58.0435 217.832 58.8099 217.832 58.8099C210.336 30.3792 191.482 49.9985 191.482 49.9985C161.768 18.8406 150.021 53.302 150.021 53.302C135.639 45.2036 134.643 61.1628 134.643 61.1628C110.267 54.7874 119.593 88.9162 119.593 88.9162C110.082 93.111 120.463 101.15 120.463 101.15ZM140.034 71.7211C140.034 71.7211 148.769 73.7828 151.214 63.3493C151.214 63.3493 173.617 79.9859 196.932 58.1029C196.932 58.1029 199.52 72.6004 212.191 74.2879C212.191 74.2879 211.147 86.5039 221.511 91.5958C221.511 91.5958 205.22 98.601 209.406 115.154C209.406 115.154 196.675 106.872 192.996 121.262C192.996 121.262 180.2 101.477 164.064 119.224C164.064 119.224 164.249 93.7408 137.905 101.887C137.905 101.887 141.256 94.02 131.799 92.2197C131.799 92.19 146.509 89.5044 140.034 71.7211Z" fill="#A4BBE2"/>
<path d="M211.958 104.199C211.958 104.199 223.285 100.296 216.872 85.4677C216.872 85.4677 221.435 82.6886 218.951 79.4602C218.951 79.4602 222.668 74.807 227.013 82.3549C231.358 89.9028 224.031 90.7313 224.031 90.7313C224.031 90.7313 235.634 106.087 215.326 108.854C204.425 110.333 211.958 104.199 211.958 104.199Z" fill="#80BFFA"/>
<path d="M135.889 90.0392C135.889 90.0392 130.486 98.4941 142.83 105.273C142.83 105.273 141.315 109.498 144.732 110.413C144.732 110.413 144.797 115.475 137.797 112.582C130.796 109.688 135.209 105.375 135.209 105.375C135.209 105.375 119.109 100.906 131.118 88.6072C137.54 82.018 135.889 90.0392 135.889 90.0392Z" fill="#80BFFA"/>
<path d="M151.191 42.326C151.194 42.3198 151.197 42.3129 151.197 42.3058C151.198 42.2986 151.197 42.2914 151.195 42.2846C150.833 40.7568 150.095 39.3428 149.046 38.1711L149.005 38.1669C148.794 37.9468 148.566 37.7443 148.322 37.5614L148.22 37.4438C148.142 37.3823 148.057 37.332 147.973 37.2758L147.861 37.1989L147.77 37.1481C147.718 37.1088 147.661 37.077 147.6 37.0535L147.552 37.0487L147.307 36.9287L147.198 36.876C147.114 36.8363 147.027 36.8017 146.939 36.7725L146.772 36.7022C146.703 36.671 146.631 36.6459 146.558 36.627L146.442 36.5856L146.056 36.4934L145.925 36.4803L145.729 36.4608L145.652 36.4531C145.498 36.4377 145.332 36.4211 145.172 36.4051C145.011 36.3892 144.94 36.3821 144.822 36.3702C144.703 36.3584 144.412 36.3891 144.219 36.4056C144.025 36.4221 143.978 36.4115 143.845 36.428C142.561 36.5999 141.331 37.0476 140.238 37.7401C139.494 38.2008 138.795 38.7309 138.151 39.3231C138.151 39.3231 138.151 39.3231 138.118 39.3497C137.124 40.297 136.229 41.342 135.446 42.4687L135.349 42.5964C135.25 42.7537 135.151 42.8991 135.054 43.0327C134.692 43.5785 134.36 44.1433 134.058 44.7247L133.833 44.7022C132.454 44.4684 131.038 44.5795 129.714 45.0257C129.6 45.08 129.476 45.1214 129.363 45.1758C129.142 45.291 128.928 45.4214 128.725 45.5659L128.42 45.8042C128.23 45.6599 124.865 43.4074 121.618 47.4244C118.891 50.6693 119.038 53.6397 119.262 54.7667C119.9 57.4397 121.624 60.2211 122.66 61.7277L122.86 62.0044L123.299 62.5916C123.309 62.6212 123.327 62.6477 123.351 62.6685L123.466 62.8352C123.466 62.8352 126.435 66.2961 129.195 64.8816C129.752 65.3979 130.422 65.7793 131.151 65.9964C131.249 66.0342 131.351 66.0604 131.455 66.0745C131.547 66.0898 131.64 66.0991 131.734 66.1023C132.204 66.1668 132.681 66.1436 133.143 66.0339C133.974 65.8089 134.725 65.3564 135.311 64.7275C135.474 64.5714 135.597 64.3792 135.672 64.1665C135.839 63.8478 135.876 63.4772 135.775 63.1319L135.727 63.0136C135.727 63.0136 135.73 62.984 135.731 62.9722C135.714 62.9181 135.691 62.8658 135.663 62.8161C135.524 62.4558 135.25 62.1631 134.9 61.9995C134.508 61.8241 134.087 61.7253 133.658 61.7085L133.32 61.6747C133.288 61.295 133.2 60.922 133.059 60.5679C133.008 60.4407 132.948 60.317 132.88 60.1978C132.806 60.0745 132.722 59.9582 132.627 59.8501C132.414 59.6202 132.14 59.4539 131.837 59.3699C131.535 59.2859 131.215 59.2875 130.913 59.3745C130.913 59.3745 134.53 57.0544 133.45 53.346C133.409 53.2106 133.368 53.0811 133.316 52.9505C133.268 52.8101 133.212 52.6728 133.147 52.5395C133.013 52.2545 132.865 51.9766 132.703 51.707C132.51 51.4059 132.301 51.1159 132.076 50.8384L133.887 49.7472L134.045 50.802C134.55 51.1671 135.123 51.4273 135.731 51.5673C135.847 51.6056 135.966 51.6354 136.087 51.6566L136.129 51.6608C136.782 51.7681 137.448 51.7761 138.104 51.6847L138.24 51.6983L138.294 51.7036L138.441 51.6705L138.931 51.5642L139.054 51.5346L139.307 51.4584L139.499 51.3999C139.73 51.3254 139.956 51.2384 140.178 51.1392L140.353 51.0612C140.542 50.9785 140.73 50.8898 140.921 50.7834L141.041 50.7178L141.244 50.6067L141.291 50.6114C141.546 50.4617 141.809 50.2889 142.08 50.093L142.132 50.1758C142.427 50.5726 142.815 50.892 143.261 51.1065L143.347 51.1509L143.513 51.2272L143.709 51.3005L143.838 51.3372C143.964 51.3765 144.093 51.4092 144.223 51.4354L144.294 51.4425C144.426 51.4647 144.559 51.4779 144.692 51.4822L144.781 51.491C145.156 51.5045 145.531 51.4737 145.899 51.3996L145.952 51.4049C146.142 51.3641 146.345 51.3127 146.567 51.2512L146.632 51.2578C147.061 51.1183 147.479 50.9464 147.882 50.7435L148.007 50.6904L148.431 50.464C148.766 50.6005 149.112 50.7051 149.467 50.7763C149.674 50.797 149.9 50.8195 150.128 50.8781C150.851 50.9669 151.584 50.876 152.263 50.6135C152.364 50.5732 152.463 50.5272 152.559 50.4757C152.738 50.3846 152.909 50.2778 153.07 50.1565C153.209 50.0531 153.338 49.9382 153.458 49.8131C153.52 49.7525 153.578 49.6885 153.633 49.6216C153.7 49.5446 153.763 49.463 153.819 49.3774C153.891 49.2926 153.954 49.2009 154.008 49.1037C154.028 49.0756 154.046 49.0452 154.059 49.0132C154.122 48.921 154.18 48.825 154.231 48.7259L154.236 48.6845C154.431 48.2968 154.586 47.8901 154.698 47.4708C156.155 42.2959 151.191 42.326 151.191 42.326Z" fill="#80BFFA"/>
<path d="M176.069 46.8293C179.593 43.5377 189.045 36.4077 195.33 47.3284C195.33 47.3284 198.442 45.2786 200.011 49.4615C200.126 49.7695 200.319 50.0427 200.571 50.2541C200.824 50.4656 201.127 50.6082 201.451 50.6681C201.776 50.7279 202.11 50.703 202.422 50.5956C202.734 50.4883 203.012 50.3022 203.231 50.0556C204.703 48.3801 205.425 45.6707 200.744 42.2127C200.744 42.2127 198.251 22.7657 182.259 37.5426C182.259 37.5426 169.79 36.2176 173.792 46.3362C173.878 46.5479 174.015 46.7355 174.191 46.8826C174.367 47.0297 174.576 47.132 174.8 47.1806C175.024 47.2291 175.257 47.2225 175.478 47.1613C175.7 47.1001 175.902 46.9862 176.069 46.8293Z" fill="#80BFFA"/>
<path d="M115.18 72.5176C119.244 71.9578 123.382 72.2595 127.321 73.403C133.48 75.2864 132.008 75.6905 131.936 76.2787C131.864 76.8669 120.374 78.1444 115.091 75.8806C109.808 73.6169 115.18 72.5176 115.18 72.5176Z" fill="#80BFFA"/>
<path d="M132.043 76.1006C132.043 76.1006 120.028 77.3246 115.609 76.0293C115.609 76.0293 129.103 79.1784 132.043 76.1006Z" fill="#5BACF8"/>
<path d="M124.852 83.0103C126.982 81.4382 129.42 80.3289 132.007 79.7542C136.11 78.9462 135.394 79.6116 135.531 79.9741C135.669 80.3365 129.521 84.5907 125.806 84.9294C122.091 85.2681 124.852 83.0103 124.852 83.0103Z" fill="#80BFFA"/>
<path d="M135.448 79.7246L128.566 84.1987C128.566 84.1987 136.414 80.8832 135.448 79.7246Z" fill="#5BACF8"/>
<path d="M228.051 53.28C225.48 57.4232 222.058 60.977 218.01 63.7075C211.576 67.8667 212.339 66.2505 211.856 65.7336C211.373 65.2167 218.94 53.7434 225.04 50.6359C231.14 47.5285 228.051 53.28 228.051 53.28Z" fill="#80BFFA"/>
<path d="M211.945 65.9362C211.945 65.9362 219.954 54.0529 224.503 51.0049C224.503 51.0049 211.349 60.9155 211.945 65.9362Z" fill="#5BACF8"/>
<path d="M216.609 51.1953C215.854 54.2563 214.458 57.1236 212.512 59.6087C209.382 63.4648 209.531 62.3121 209.125 62.0863C208.72 61.8605 211.081 53.2986 214.224 50.1674C217.366 47.0362 216.609 51.1953 216.609 51.1953Z" fill="#80BFFA"/>
<path d="M209.399 62.2344L212.267 52.918C212.267 52.918 207.64 61.9255 209.399 62.2344Z" fill="#5BACF8"/>
<path d="M214.116 131.417L166.323 131.447C162.548 131.447 158.661 128.322 157.641 124.46L140.533 59.9157C139.514 56.0537 141.726 52.9224 145.512 52.9165L193.305 52.8809C197.074 52.8809 200.962 56.0121 201.981 59.8682L219.065 124.418C220.114 128.28 217.872 131.411 214.116 131.417Z" fill="#5BACF8"/>
<path d="M218.721 128.832C218.271 129.649 217.601 130.324 216.787 130.781C215.972 131.238 215.045 131.458 214.111 131.417L166.324 131.447C162.556 131.447 158.668 128.321 157.642 124.459L140.535 59.9154C139.658 56.594 141.608 53.6291 143.451 53.332C146.432 65.2153 161.578 120.288 161.578 120.288C161.578 120.288 162.109 128.761 169.574 127.983L218.721 128.832Z" fill="#086CC9"/>
<path d="M188.768 52.8684C188.768 52.8684 189.429 51.8702 192.661 51.4424L193.126 53.926L188.768 52.8684Z" fill="#0975DA"/>
<path d="M190.527 52.5895L195.721 67.0217L196.914 61.1157L201.905 67.7585L197.987 54.8235C197.629 53.8311 196.972 52.9736 196.104 52.3692C195.237 51.7648 194.203 51.4432 193.145 51.4487C192.09 51.4249 191.088 51.6923 190.527 52.5895Z" fill="#1388F5"/>
<path d="M202.578 86.3317H160.11L156.115 71.4717H198.583L202.578 86.3317Z" fill="#1388F5"/>
<path d="M193.02 130.175L195.9 129.83C195.9 129.83 196.198 124.174 196.061 120.419C196.083 119.384 195.946 118.352 195.655 117.359C195.548 117.145 195.298 116.764 194.958 116.224C193.169 113.514 188.858 107.448 187.498 105.529H187.528L186.687 104.424C185.924 103.592 183.92 101.988 179.418 101.453C174.779 100.974 170.117 100.756 165.453 100.799L154.625 100.871C152.305 100.841 150.038 101.553 148.155 102.903C147.908 103.086 147.673 103.284 147.451 103.497L147.296 103.645L147.219 103.675C147.219 103.675 146.658 104.139 145.859 104.911L134.279 115.867C134.224 115.89 134.173 115.922 134.13 115.962C134.162 115.957 134.194 115.957 134.225 115.962L126.33 120.234H126.295L126.253 120.264H126.217L126.163 120.3L126.044 120.442L125.979 120.496C125.963 120.508 125.949 120.522 125.937 120.537L125.853 120.609L125.812 120.65L125.698 120.763V120.793C125.515 120.993 125.344 121.203 125.186 121.423C125.12 121.506 125.06 121.601 124.989 121.702L124.786 122.017C124.685 122.177 124.583 122.356 124.476 122.546C124.357 122.766 124.232 122.997 124.106 123.259C122.836 125.867 122.663 130.733 124.065 131.44L126.378 131.702C126.974 134.162 128.62 135.98 130.713 136.146C132.705 136.301 134.547 134.898 135.549 132.73L152.585 134.643H152.71L155.889 134.239C155.89 134.257 155.89 134.274 155.889 134.292H155.984C156.246 137.418 158.322 139.925 161.029 140.139C164.117 140.377 166.854 137.56 167.153 133.841C167.153 133.603 167.153 133.371 167.153 133.146L168.16 133.074C168.16 133.074 168.16 133.033 168.16 132.973L176.908 132.124L180.855 131.743C180.855 131.862 180.855 131.928 180.855 131.928H182.096C182.096 131.928 182.096 131.88 182.096 131.797C181.994 135.32 183.944 137.857 186.633 137.81C189.889 137.75 191.893 135.778 191.815 131.951C191.815 131.399 191.815 131.149 191.762 130.632L193.014 130.466C193.014 130.466 193.044 130.365 193.02 130.175Z" fill="#92C8FA"/>
<path d="M188.058 135.814C187.934 135.851 187.809 135.881 187.682 135.903C187.508 135.931 187.329 135.889 187.185 135.788C187.04 135.686 186.941 135.532 186.908 135.359C186.876 135.186 186.912 135.007 187.01 134.86C187.108 134.713 187.259 134.61 187.432 134.572C188.541 134.364 189.179 133.628 189.471 132.297C189.52 132.131 189.629 131.99 189.778 131.903C189.927 131.815 190.104 131.788 190.273 131.825C190.442 131.863 190.59 131.964 190.687 132.107C190.784 132.249 190.822 132.424 190.795 132.594C190.443 134.293 189.471 135.41 188.058 135.814ZM184.218 134.519C184.071 134.56 183.915 134.55 183.775 134.492C183.634 134.434 183.517 134.33 183.443 134.198C183.272 133.893 183.136 133.57 183.037 133.235C182.746 132.106 182.722 130.924 182.966 129.783C182.983 129.696 183.017 129.613 183.067 129.539C183.116 129.465 183.18 129.402 183.254 129.353C183.329 129.303 183.412 129.269 183.5 129.253C183.587 129.236 183.677 129.236 183.765 129.255C183.941 129.29 184.096 129.394 184.195 129.543C184.294 129.693 184.331 129.875 184.295 130.051C184.091 130.976 184.108 131.937 184.343 132.855C184.409 133.093 184.503 133.323 184.623 133.538C184.711 133.695 184.733 133.88 184.683 134.053C184.634 134.226 184.518 134.372 184.361 134.459C184.316 134.485 184.268 134.505 184.218 134.519ZM162.018 138.007C161.962 138.013 161.906 138.013 161.851 138.007C161.738 138.013 161.624 138.013 161.511 138.007H161.046C159.615 137.953 158.583 137.912 157.754 136.224C157.699 136.145 157.661 136.055 157.644 135.96C157.627 135.865 157.63 135.768 157.654 135.674C157.678 135.581 157.721 135.494 157.782 135.419C157.843 135.344 157.919 135.282 158.006 135.239C158.092 135.196 158.187 135.172 158.284 135.169C158.38 135.166 158.477 135.183 158.566 135.22C158.655 135.257 158.736 135.313 158.801 135.384C158.867 135.454 158.917 135.538 158.947 135.63C159.424 136.604 159.74 136.616 161.07 136.664H161.547H161.821C161.985 136.66 162.145 136.715 162.272 136.82C162.398 136.925 162.482 137.071 162.508 137.233C162.535 137.395 162.501 137.56 162.414 137.699C162.327 137.838 162.193 137.941 162.036 137.989L162.018 138.007ZM193.538 128.803C193.492 128.809 193.446 128.809 193.401 128.803L190.24 129.041H190.199C190.022 129.072 189.839 129.032 189.692 128.929C189.544 128.827 189.443 128.67 189.412 128.494C189.384 128.402 189.38 128.305 189.398 128.211C189.417 128.116 189.458 128.028 189.519 127.953C189.578 127.874 189.656 127.809 189.745 127.765C189.834 127.721 189.932 127.698 190.032 127.698L192.685 127.496V127.335C192.685 127.156 192.757 126.984 192.884 126.856C193.012 126.729 193.185 126.658 193.365 126.658C193.545 126.658 193.718 126.729 193.846 126.856C193.973 126.984 194.045 127.156 194.045 127.335V128.114C194.051 128.269 194.005 128.422 193.913 128.547C193.821 128.672 193.688 128.763 193.538 128.803ZM164.648 135.374C164.538 135.401 164.423 135.401 164.314 135.374C164.138 135.335 163.985 135.228 163.888 135.076C163.791 134.925 163.757 134.742 163.795 134.566C164.006 133.312 164.006 132.031 163.795 130.776C163.781 130.688 163.784 130.599 163.805 130.513C163.825 130.427 163.862 130.345 163.915 130.274C163.967 130.202 164.032 130.141 164.108 130.095C164.184 130.048 164.268 130.017 164.355 130.003C164.443 129.989 164.533 129.992 164.619 130.013C164.706 130.033 164.787 130.071 164.859 130.123C164.931 130.174 164.992 130.24 165.039 130.315C165.085 130.391 165.116 130.474 165.131 130.562C165.361 131.986 165.349 133.438 165.095 134.858C165.072 134.975 165.019 135.085 164.941 135.176C164.862 135.266 164.761 135.335 164.648 135.374ZM180.861 129.985C180.817 129.991 180.773 129.991 180.73 129.985L176.675 130.318C176.584 130.33 176.491 130.323 176.403 130.298C176.315 130.273 176.233 130.23 176.162 130.173C176.09 130.115 176.031 130.044 175.988 129.963C175.946 129.882 175.92 129.794 175.912 129.703C175.904 129.612 175.915 129.52 175.944 129.433C175.973 129.346 176.019 129.266 176.08 129.198C176.14 129.129 176.214 129.074 176.297 129.035C176.38 128.995 176.47 128.973 176.561 128.969L180.616 128.643C180.788 128.619 180.962 128.663 181.102 128.764C181.243 128.865 181.339 129.016 181.37 129.186C181.402 129.356 181.366 129.531 181.271 129.675C181.177 129.82 181.029 129.922 180.861 129.962V129.985ZM172.751 130.645H172.62L168.565 130.972C168.386 130.986 168.209 130.929 168.073 130.813C167.937 130.697 167.852 130.532 167.838 130.354C167.823 130.176 167.881 129.999 167.997 129.863C168.113 129.727 168.279 129.643 168.458 129.629L172.507 129.296C172.674 129.283 172.84 129.333 172.973 129.435C173.106 129.537 173.197 129.684 173.227 129.849C173.258 130.014 173.226 130.184 173.138 130.326C173.05 130.469 172.912 130.574 172.751 130.621V130.645ZM193.621 123.972C193.557 123.991 193.491 124.001 193.425 124.002C193.245 123.998 193.074 123.923 192.949 123.794C192.824 123.665 192.755 123.492 192.757 123.313L192.828 119.255C192.828 119.075 192.9 118.903 193.027 118.776C193.155 118.649 193.328 118.577 193.508 118.577C193.688 118.577 193.861 118.649 193.989 118.776C194.116 118.903 194.188 119.075 194.188 119.255L194.116 123.307C194.119 123.457 194.072 123.603 193.983 123.724C193.893 123.844 193.766 123.932 193.621 123.972ZM157.337 132.707C157.169 132.751 156.99 132.728 156.838 132.642C156.687 132.557 156.575 132.416 156.526 132.249L153.723 132.736C153.546 132.766 153.364 132.724 153.216 132.621C153.069 132.517 152.968 132.36 152.936 132.184C152.921 132.096 152.923 132.007 152.943 131.92C152.962 131.834 152.999 131.752 153.051 131.679C153.102 131.607 153.168 131.545 153.243 131.498C153.319 131.451 153.403 131.42 153.491 131.405L156.914 130.811C157.083 130.782 157.257 130.818 157.401 130.912C157.545 131.006 157.648 131.15 157.689 131.316L157.826 131.91C157.862 132.08 157.832 132.258 157.741 132.406C157.65 132.554 157.505 132.662 157.337 132.707ZM149.752 132.635C149.658 132.656 149.56 132.656 149.466 132.635L145.441 132.041C145.351 132.031 145.264 132.003 145.185 131.959C145.106 131.914 145.036 131.855 144.981 131.783C144.925 131.712 144.884 131.63 144.861 131.543C144.838 131.455 144.832 131.364 144.845 131.275C144.853 131.184 144.88 131.097 144.924 131.017C144.968 130.937 145.028 130.868 145.1 130.812C145.172 130.756 145.255 130.716 145.343 130.693C145.432 130.671 145.524 130.666 145.614 130.681L149.639 131.275C149.792 131.298 149.932 131.373 150.036 131.486C150.141 131.599 150.203 131.745 150.214 131.899C150.224 132.052 150.182 132.205 150.094 132.331C150.005 132.457 149.876 132.55 149.728 132.594L149.752 132.635ZM132.531 135.101C132.368 135.146 132.195 135.129 132.044 135.052C131.893 134.976 131.776 134.847 131.716 134.69C131.655 134.533 131.656 134.359 131.718 134.202C131.779 134.045 131.897 133.916 132.048 133.842C133.139 133.319 133.694 132.059 133.962 131.055C134.011 130.882 134.126 130.734 134.283 130.646C134.44 130.557 134.626 130.534 134.8 130.583C134.974 130.631 135.122 130.746 135.211 130.902C135.3 131.059 135.322 131.244 135.274 131.417C134.922 132.665 134.183 134.317 132.639 135.06L132.531 135.101ZM141.702 131.453C141.608 131.474 141.51 131.474 141.416 131.453L137.397 130.859C137.306 130.85 137.218 130.823 137.138 130.779C137.058 130.736 136.988 130.676 136.933 130.604C136.877 130.532 136.836 130.45 136.813 130.362C136.791 130.274 136.786 130.182 136.801 130.092C136.811 130.003 136.839 129.916 136.884 129.837C136.928 129.758 136.988 129.689 137.06 129.634C137.131 129.578 137.213 129.538 137.301 129.515C137.389 129.491 137.48 129.486 137.57 129.498L141.589 130.092C141.679 130.102 141.767 130.129 141.846 130.173C141.926 130.218 141.996 130.277 142.051 130.349C142.107 130.42 142.148 130.502 142.171 130.59C142.194 130.678 142.199 130.769 142.185 130.859C142.176 130.995 142.124 131.126 142.038 131.232C141.951 131.338 141.834 131.415 141.702 131.453ZM191.743 116.48C191.607 116.518 191.462 116.514 191.329 116.467C191.195 116.42 191.08 116.334 190.998 116.219L188.678 112.891C188.627 112.819 188.59 112.737 188.571 112.651C188.552 112.564 188.55 112.475 188.565 112.387C188.581 112.3 188.614 112.217 188.662 112.142C188.71 112.067 188.772 112.003 188.845 111.953C188.993 111.851 189.176 111.811 189.353 111.842C189.531 111.873 189.689 111.973 189.793 112.119L192.113 115.446C192.215 115.593 192.254 115.774 192.223 115.95C192.192 116.126 192.092 116.282 191.946 116.385C191.885 116.429 191.816 116.461 191.743 116.48ZM128.816 134.436C128.685 134.473 128.545 134.469 128.415 134.426C128.285 134.382 128.171 134.301 128.089 134.192C127.817 133.824 127.615 133.409 127.493 132.968C127.247 131.966 127.211 130.925 127.385 129.908C126.33 129.635 125.256 129.106 124.893 127.852C124.812 127.558 124.772 127.254 124.773 126.949C124.789 126.781 124.867 126.625 124.993 126.512C125.118 126.398 125.281 126.335 125.45 126.335C125.62 126.335 125.783 126.398 125.908 126.512C126.033 126.625 126.111 126.781 126.127 126.949C126.124 127.13 126.148 127.31 126.199 127.484C126.324 127.936 126.676 128.435 128.298 128.732C128.475 128.764 128.632 128.864 128.734 129.011C128.837 129.158 128.877 129.34 128.846 129.516C128.828 129.602 128.796 129.684 128.751 129.76C128.763 129.836 128.763 129.915 128.751 129.991C128.58 130.854 128.596 131.744 128.798 132.6C128.874 132.882 129.002 133.148 129.174 133.384C129.228 133.454 129.268 133.535 129.29 133.621C129.313 133.706 129.318 133.796 129.306 133.884C129.294 133.971 129.264 134.056 129.219 134.132C129.174 134.209 129.114 134.276 129.043 134.329C128.975 134.379 128.898 134.415 128.816 134.436ZM187.098 109.825C186.967 109.864 186.827 109.862 186.697 109.82C186.567 109.777 186.453 109.696 186.37 109.588C185.591 108.542 184.697 107.585 183.705 106.736C183.57 106.618 183.486 106.452 183.472 106.273C183.457 106.095 183.513 105.917 183.628 105.779C183.686 105.712 183.757 105.656 183.837 105.616C183.916 105.576 184.003 105.552 184.093 105.545C184.182 105.538 184.271 105.549 184.356 105.577C184.441 105.605 184.52 105.65 184.588 105.708C185.654 106.62 186.614 107.648 187.45 108.774C187.504 108.844 187.543 108.925 187.566 109.01C187.589 109.096 187.594 109.186 187.582 109.273C187.57 109.361 187.54 109.446 187.495 109.522C187.45 109.599 187.39 109.665 187.319 109.719C187.254 109.77 187.179 109.807 187.098 109.825ZM126.837 123.765C126.75 123.789 126.66 123.796 126.571 123.785C126.481 123.773 126.395 123.744 126.318 123.699C126.24 123.656 126.171 123.598 126.116 123.528C126.061 123.458 126.02 123.378 125.996 123.292C125.973 123.206 125.966 123.117 125.977 123.029C125.988 122.94 126.017 122.855 126.061 122.778C126.806 121.529 127.825 120.464 129.043 119.665C129.192 119.565 129.376 119.528 129.552 119.563C129.729 119.597 129.885 119.7 129.985 119.849C130.035 119.922 130.07 120.004 130.088 120.09C130.106 120.177 130.106 120.266 130.09 120.352C130.073 120.439 130.039 120.521 129.991 120.595C129.942 120.669 129.879 120.732 129.806 120.782C128.756 121.464 127.877 122.377 127.236 123.45C127.147 123.6 127.004 123.712 126.837 123.765ZM136.377 118.215H136.306C135.745 118.321 135.189 118.456 134.642 118.619C134.195 118.744 133.748 118.892 133.318 119.047C133.149 119.103 132.964 119.091 132.803 119.015C132.642 118.939 132.517 118.803 132.454 118.637C132.423 118.554 132.408 118.465 132.412 118.377C132.415 118.288 132.437 118.201 132.475 118.121C132.512 118.041 132.566 117.969 132.632 117.91C132.698 117.85 132.775 117.805 132.859 117.775C133.312 117.609 133.783 117.455 134.26 117.318C135.006 117.104 135.578 116.979 135.87 116.926L136.348 116.48C136.412 116.416 136.489 116.365 136.574 116.331C136.659 116.297 136.749 116.28 136.841 116.282C136.932 116.284 137.022 116.304 137.106 116.341C137.189 116.378 137.264 116.432 137.326 116.499C137.388 116.565 137.436 116.644 137.467 116.729C137.498 116.815 137.512 116.906 137.507 116.997C137.502 117.088 137.478 117.177 137.438 117.258C137.397 117.34 137.341 117.413 137.272 117.472L136.675 118.066C136.59 118.139 136.487 118.19 136.377 118.215ZM180.902 104.763C180.765 104.81 180.616 104.81 180.479 104.763C180.257 104.68 180.03 104.611 179.799 104.555L176.645 104.407C176.556 104.404 176.469 104.383 176.388 104.346C176.308 104.309 176.235 104.256 176.175 104.191C176.115 104.126 176.069 104.049 176.039 103.966C176.009 103.882 175.996 103.794 176.001 103.706C176.009 103.527 176.087 103.359 176.219 103.237C176.351 103.116 176.525 103.052 176.705 103.058C178.541 103.141 179.483 103.183 179.978 103.272V103.212C180.31 103.275 180.636 103.369 180.95 103.492C181.117 103.556 181.252 103.682 181.327 103.844C181.402 104.006 181.41 104.191 181.35 104.359C181.312 104.457 181.252 104.544 181.174 104.614C181.096 104.684 181.003 104.735 180.902 104.763ZM139.997 114.864C139.876 114.899 139.748 114.899 139.627 114.865C139.506 114.832 139.397 114.766 139.311 114.674C139.251 114.609 139.204 114.533 139.173 114.45C139.142 114.368 139.128 114.279 139.131 114.191C139.134 114.103 139.155 114.016 139.192 113.936C139.229 113.855 139.282 113.783 139.347 113.723L142.328 110.954C142.462 110.85 142.63 110.8 142.8 110.813C142.969 110.826 143.128 110.902 143.244 111.026C143.36 111.15 143.425 111.312 143.426 111.482C143.428 111.651 143.366 111.815 143.253 111.941L140.271 114.709C140.186 114.787 140.084 114.844 139.973 114.876L139.997 114.864ZM172.793 104.169C172.722 104.182 172.649 104.182 172.578 104.169L168.512 104.02C168.417 104.025 168.323 104.011 168.235 103.977C168.147 103.944 168.067 103.893 168 103.827C167.933 103.761 167.88 103.682 167.845 103.595C167.81 103.508 167.794 103.414 167.797 103.32C167.8 103.226 167.823 103.134 167.864 103.05C167.905 102.965 167.963 102.89 168.035 102.829C168.107 102.768 168.19 102.722 168.281 102.695C168.371 102.668 168.466 102.66 168.559 102.672C169.955 102.719 171.338 102.767 172.632 102.82C172.792 102.829 172.944 102.893 173.061 103.002C173.178 103.11 173.252 103.257 173.272 103.415C173.291 103.574 173.253 103.734 173.166 103.867C173.078 104.001 172.946 104.099 172.793 104.145V104.169ZM145.96 109.32C145.814 109.362 145.658 109.353 145.517 109.296C145.377 109.239 145.26 109.137 145.184 109.006C145.109 108.874 145.079 108.722 145.101 108.572C145.123 108.422 145.194 108.284 145.304 108.18L148.285 105.417C148.348 105.347 148.425 105.291 148.511 105.252C148.597 105.213 148.69 105.193 148.784 105.192C148.879 105.191 148.972 105.21 149.059 105.247C149.146 105.284 149.224 105.338 149.288 105.407C149.352 105.476 149.402 105.557 149.433 105.646C149.464 105.734 149.476 105.829 149.469 105.922C149.461 106.016 149.435 106.107 149.39 106.19C149.345 106.273 149.284 106.345 149.21 106.403L146.228 109.166C146.145 109.252 146.04 109.314 145.924 109.344L145.96 109.32ZM164.653 103.896C164.586 103.908 164.518 103.908 164.451 103.896C163.002 103.86 161.612 103.836 160.39 103.824C160.215 103.836 160.042 103.778 159.909 103.664C159.776 103.549 159.694 103.387 159.68 103.212C159.682 103.034 159.754 102.863 159.882 102.737C160.009 102.612 160.181 102.541 160.36 102.541C161.595 102.541 162.99 102.577 164.451 102.612C164.611 102.619 164.764 102.683 164.882 102.791C165 102.899 165.075 103.046 165.095 103.205C165.115 103.363 165.078 103.524 164.991 103.658C164.903 103.792 164.771 103.891 164.618 103.937L164.653 103.896ZM156.508 103.896C156.465 103.902 156.42 103.902 156.377 103.896C155.078 104.008 153.795 104.267 152.555 104.668C152.468 104.704 152.375 104.721 152.282 104.719C152.188 104.718 152.096 104.697 152.011 104.658C151.926 104.619 151.85 104.563 151.788 104.493C151.726 104.424 151.678 104.342 151.649 104.254C151.62 104.165 151.61 104.072 151.618 103.979C151.627 103.886 151.655 103.796 151.7 103.714C151.745 103.633 151.807 103.562 151.881 103.505C151.955 103.448 152.041 103.407 152.131 103.385L152.763 103.189C153.897 102.887 155.057 102.696 156.228 102.618C156.404 102.603 156.578 102.657 156.715 102.768C156.852 102.878 156.94 103.038 156.961 103.212C156.977 103.373 156.934 103.535 156.841 103.667C156.748 103.8 156.611 103.896 156.454 103.937L156.508 103.896Z" fill="#0A7DEB"/>
</g>
<defs>
<clipPath id="clip0_3328_51622">
<rect width="361" height="200" rx="24" fill="white"/>
</clipPath>
<clipPath id="clip1_3328_51622">
<rect width="97.4506" height="97.4506" fill="white" transform="translate(-9.67969 103) rotate(15.0598)"/>
</clipPath>
</defs>
</svg>
