<svg width="248" height="211" viewBox="0 0 248 211" fill="none" xmlns="http://www.w3.org/2000/svg">
<path opacity="0.2" d="M25.5101 134.19C26.1301 171.84 60.2601 166.19 60.2601 166.19C76.6701 208.23 112 187.07 112 187.07C133.34 220.07 150.65 187.15 150.65 187.15C200.26 229.04 205.48 160.49 205.48 160.49C237.31 169.86 227 125 227 125C237.92 89.78 209.77 78.83 209.77 78.83C215.88 49.02 190.77 50.07 190.77 50.07C172.7 -7.28003 145.49 31.53 145.49 31.53C90.2001 -32 71.0001 44.27 71.0001 44.27C55.5701 19.7 47.7401 44.65 47.7401 44.65C6.23006 31.06 24.1501 97.35 24.1501 97.35C4.10006 108.61 25.5101 134.19 25.5101 134.19ZM59.7601 75.3C59.7601 75.3 79.7101 77.85 81.6501 57C81.6501 57 118.21 105.16 152.35 62C152.35 62 157.59 76.61 178.85 80.41C178.85 80.41 175.85 100.96 193.98 111.52C193.98 111.52 169.11 111.59 179.32 144.97C179.32 144.97 165.19 132.24 161.99 160.97C161.99 160.97 136.91 120.83 113.81 155.97C113.81 155.97 105.35 122.65 63.4801 138.16C63.7401 127.69 61.3401 117.41 44.2401 111.08C57.5301 107 71.5301 100.42 59.7601 75.3Z" fill="#F1F1F1"/>
<path d="M166.45 175L100.53 175.06C95.3301 175.06 89.9701 168.92 88.5301 161.34L65.0001 34.54C63.5601 27 66.6301 20.8 71.8301 20.8L137.75 20.73C142.95 20.73 148.31 26.87 149.75 34.46L173.35 161.25C174.73 168.84 171.66 175 166.45 175Z" fill="#CBCBCB"/>
<path d="M170.06 175L104.14 175.06C98.9401 175.06 93.5801 168.91 92.1401 161.32L68.5401 34.32C67.1301 26.72 70.2001 20.56 75.4101 20.55L141.33 20.48C146.53 20.48 151.89 26.63 153.33 34.23L176.92 161.23C178.33 168.83 175.26 175 170.06 175Z" fill="#DBDBDB"/>
<path d="M165.26 164.65L106.03 164.71C101.35 164.71 96.54 159.19 95.27 152.36L74.07 38.26C72.8 31.44 75.57 25.9 80.24 25.89L139.47 25.83C144.14 25.83 148.96 31.36 150.23 38.19L171.42 152.28C172.69 159.11 169.93 164.65 165.26 164.65Z" fill="#A3A1A1"/>
<path d="M124.871 35.7389C126.136 34.898 126.319 32.9487 125.279 31.385C124.239 29.8214 122.371 29.2354 121.106 30.0764C119.842 30.9173 119.659 32.8666 120.699 34.4303C121.739 35.9939 123.607 36.5798 124.871 35.7389Z" fill="#DBDBDB"/>
<path d="M102.52 36.3H116.33C117.85 36.3 118.83 34.82 118.51 33.01C118.391 32.1682 117.995 31.39 117.385 30.798C116.775 30.2059 115.985 29.8337 115.14 29.74H101.34C99.81 29.74 98.83 31.22 99.16 33.03C99.277 33.8709 99.6709 34.6489 100.279 35.2411C100.888 35.8333 101.676 36.2058 102.52 36.3Z" fill="#DBDBDB"/>
<path d="M61.34 129.55C61.34 129.55 45.65 146.55 70.88 167.02C70.88 167.02 65.72 176.02 73.1 179.49C73.1 179.49 71.2 191.05 56.49 181.62C41.78 172.19 53.55 164.17 53.55 164.17C53.55 164.17 18.92 147.48 51.1 124.36C68.35 112 61.34 129.55 61.34 129.55Z" fill="#CBCBCB"/>
<path d="M70.8801 167C70.8801 167 55.4001 153.9 61.3401 129.53C61.3401 129.55 44.7701 147.76 70.8801 167Z" fill="#A3A1A1"/>
<path d="M73.1 179.49C73.1 179.49 61.45 182.87 70.88 167C70.88 167 65.78 176.39 73.1 179.49Z" fill="#A3A1A1"/>
<path d="M73.1201 179.45C73.1201 179.45 77.0401 190.52 88.9201 184.16C88.9201 184.16 99.5201 198 114.5 187.24C114.5 187.24 124.76 189.02 114.34 197.5C103.92 205.98 93.1701 210.5 86.3401 198.5C86.3401 198.5 57.6701 199.83 62.7101 179.79L73.1201 179.45Z" fill="#CBCBCB"/>
<path d="M88.92 184.16C88.92 184.16 104 195 114.5 187.24C114.5 187.24 97.14 201.34 88.92 184.16Z" fill="#A3A1A1"/>
<path d="M88.9201 184.16C88.9201 184.16 79.8501 188.3 73.9201 181.16C73.9101 181.13 77.8601 191.18 88.9201 184.16Z" fill="#A3A1A1"/>
<path d="M165.43 38.41C165.43 38.41 171 26.47 153.77 19.8C153.77 19.8 155 14.04 150.41 13.45C150.41 13.45 149.41 6.87003 159.02 9.45003C168.63 12.03 163.64 18.37 163.64 18.37C163.64 18.37 185.25 21.37 171.87 39.46C164.69 49.13 165.43 38.41 165.43 38.41Z" fill="#CBCBCB"/>
<path d="M153.77 19.7999C153.77 19.7999 164.42 24.1999 165.43 38.4099C165.43 38.4099 171.23 25.6799 153.77 19.7999Z" fill="#A3A1A1"/>
<path d="M150.41 13.45C150.41 13.45 156.12 9.59997 153.77 19.8C153.77 19.8 154.9 13.85 150.41 13.45Z" fill="#A3A1A1"/>
<path d="M151.7 9.73994C151.7 9.73994 146.23 5.90994 142.45 10.0799C137.39 15.6699 146.03 11.7399 148.06 12.6899C150.09 13.6399 150.5 13.3799 150.5 13.3799C150.5 13.3799 152 9.89994 151.7 9.73994Z" fill="#CBCBCB"/>
<path d="M142.83 13.0699C145.229 12.6375 147.692 12.7331 150.05 13.3499C150.05 13.3499 143.22 10.1099 142.83 13.0699Z" fill="#A3A1A1"/>
<path d="M135.642 100.652C133.794 100.037 132.17 98.8873 130.975 97.3489C129.78 95.8106 129.068 93.9525 128.929 92.0097C128.79 90.0668 129.231 88.1263 130.194 86.4336C131.158 84.7409 132.602 83.3719 134.344 82.4996C136.085 81.6274 138.046 81.2912 139.979 81.5334C141.912 81.7756 143.729 82.5854 145.202 83.8604C146.674 85.1354 147.736 86.8183 148.252 88.6965C148.768 90.5747 148.716 92.5638 148.102 94.4123C147.276 96.891 145.499 98.9405 143.163 100.11C140.827 101.28 138.122 101.475 135.642 100.652ZM141.122 84.1623C139.708 83.6916 138.187 83.6509 136.75 84.0452C135.313 84.4396 134.026 85.2513 133.051 86.3776C132.075 87.5039 131.456 88.8942 131.271 90.3726C131.087 91.851 131.344 93.3509 132.012 94.6827C132.68 96.0144 133.728 97.1181 135.024 97.854C136.319 98.5899 137.804 98.925 139.29 98.8168C140.776 98.7086 142.196 98.1621 143.372 97.2463C144.547 96.3306 145.424 95.0867 145.892 93.6723C146.516 91.7785 146.364 89.7148 145.47 87.9325C144.576 86.1503 143.013 84.7947 141.122 84.1623Z" fill="#F1F1F1"/>
<path d="M136.002 101.442C135.752 101.382 135.502 101.322 135.252 101.242C134.436 100.965 133.657 100.589 132.932 100.122C131.292 106.702 131.522 107.992 133.412 111.752C133.784 112.457 134.053 113.211 134.212 113.992L102.362 103.432C102.732 103.172 103.192 102.912 103.772 102.582C104.71 102.074 105.616 101.506 106.482 100.882C109.702 98.5222 110.482 96.4322 111.882 92.9522C112.432 91.5722 113.042 89.9522 113.952 87.9522C114.609 86.2975 115.745 84.8766 117.215 83.8718C118.685 82.867 120.421 82.3239 122.202 82.3122C122.529 82.3302 122.854 82.2516 123.137 82.0863C123.419 81.9209 123.647 81.6761 123.792 81.3822C123.945 80.9813 124.175 80.6146 124.471 80.3036C124.766 79.9925 125.121 79.7432 125.513 79.5702C125.906 79.3972 126.329 79.3038 126.758 79.2956C127.187 79.2874 127.613 79.3644 128.012 79.5222C130.342 80.2922 129.902 83.1922 129.842 83.5222C129.799 83.7629 129.811 84.0101 129.877 84.2455C129.943 84.4809 130.061 84.6985 130.222 84.8822C131.041 83.8133 132.06 82.9134 133.222 82.2322C133.237 80.9597 132.852 79.7145 132.122 78.6721C131.392 77.6298 130.353 76.8429 129.152 76.4222C127.748 75.8892 126.203 75.86 124.781 76.3397C123.358 76.8193 122.146 77.7781 121.352 79.0522C119.096 79.2307 116.934 80.0293 115.104 81.36C113.274 82.6907 111.847 84.5015 110.982 86.5922C109.982 88.6622 109.372 90.3522 108.842 91.7122C107.552 95.0222 107.012 96.3922 104.562 98.1822C103.795 98.7249 102.997 99.2224 102.172 99.6722C100.432 100.672 98.7819 101.592 98.0819 103.672C97.946 104.087 97.9802 104.539 98.177 104.929C98.3739 105.319 98.7172 105.615 99.1319 105.752L109.812 109.302C109.202 112.572 109.662 117.462 114.812 119.152C119.962 120.842 123.292 117.252 124.872 114.282L135.162 117.692C135.501 117.805 135.868 117.805 136.207 117.691C136.546 117.577 136.839 117.357 137.042 117.062C137.312 116.662 138.562 114.452 136.432 110.202C134.942 107.452 134.672 106.912 136.002 101.442ZM115.782 116.092C112.862 115.092 112.692 112.372 112.932 110.562L121.562 113.352C120.592 114.912 118.672 117.052 115.782 116.092Z" fill="#F1F1F1"/>
<path d="M137.492 94.9123C136.964 94.7445 136.503 94.4158 136.172 93.9723C135.851 93.5108 135.673 92.9645 135.662 92.4023C135.651 91.6959 135.773 90.9938 136.022 90.3323C136.234 89.6607 136.574 89.0361 137.022 88.4923C137.378 88.0558 137.854 87.7326 138.392 87.5623C138.926 87.4256 139.488 87.4473 140.011 87.6249C140.533 87.8025 140.992 88.1282 141.332 88.5623C141.645 89.0271 141.819 89.572 141.832 90.1323C141.846 90.8382 141.727 91.5404 141.482 92.2023C141.265 92.8722 140.926 93.496 140.482 94.0423C140.125 94.4789 139.649 94.8021 139.112 94.9723C138.579 95.1262 138.011 95.1052 137.492 94.9123ZM137.862 93.8523C138.004 93.9118 138.157 93.9423 138.312 93.9423C138.466 93.9423 138.619 93.9118 138.762 93.8523C139.09 93.6969 139.37 93.4549 139.572 93.1523C139.851 92.7426 140.07 92.2947 140.222 91.8223C140.398 91.3539 140.502 90.8618 140.532 90.3623C140.561 89.9985 140.495 89.6334 140.342 89.3023C140.271 89.1648 140.173 89.0428 140.055 88.9432C139.936 88.8437 139.799 88.7686 139.652 88.7223C139.36 88.6018 139.033 88.6018 138.742 88.7223C138.412 88.8805 138.132 89.126 137.932 89.4323C137.65 89.8446 137.431 90.2961 137.282 90.7723C137.105 91.2369 137 91.726 136.972 92.2223C136.948 92.5665 137.013 92.911 137.162 93.2223C137.223 93.3802 137.317 93.5234 137.438 93.6423C137.559 93.7612 137.703 93.8533 137.862 93.9123V93.8523Z" fill="#DBDBDB"/>
</svg>
