<svg width="80" height="80" viewBox="0 0 80 80" fill="none" xmlns="http://www.w3.org/2000/svg">
<path d="M0 52H80V80H0V52Z" fill="url(#paint0_linear_2478_12542)"/>
<path d="M0 0H80V58H0V0Z" fill="url(#paint1_linear_2478_12542)"/>
<g clip-path="url(#clip0_2478_12542)">
<path d="M72.6192 44.9846C70.3403 51.0487 60.9979 54.7083 51.7509 53.1539C42.5039 51.5995 36.8585 45.4251 39.1367 39.3627C41.001 34.3994 47.5844 31.0533 54.9786 30.8451C55.1314 30.84 55.285 30.8373 55.4354 30.8371L55.8462 30.8277C55.9827 30.827 56.1175 30.8296 56.2508 30.8315C56.5222 30.8376 56.7937 30.8478 57.0644 30.8596C57.1145 30.8609 57.1624 30.8672 57.211 30.8718C57.4109 30.8787 57.616 30.8962 57.8161 30.9113C58.0532 30.9297 58.2889 30.9554 58.5254 30.9795C58.5978 30.9853 58.6687 30.9943 58.7437 31.0032C58.9358 31.0267 59.1287 31.0486 59.3207 31.0721C59.5426 31.1055 59.7662 31.1398 59.9874 31.1831C60.014 31.1956 60.0444 31.1917 60.0733 31.1992C60.5824 31.2827 61.0804 31.3853 61.5713 31.4988L61.9516 31.5926C62.0789 31.6242 62.2037 31.6566 62.3311 31.6922C62.4585 31.7279 62.5785 31.762 62.7026 31.7961C70.3205 34.0032 74.6689 39.5387 72.6192 44.9846ZM59.7407 32.1824C51.6647 30.8284 43.506 34.0211 41.5153 39.3163C39.5246 44.6115 44.46 50.0055 52.5344 51.3628C60.6089 52.7201 68.7666 49.525 70.7564 44.2273C72.7463 38.9297 67.8076 33.5341 59.7407 32.1824Z" fill="url(#paint2_linear_2478_12542)"/>
<g filter="url(#filter0_d_2478_12542)">
<path d="M65.9854 40.4724L65.9587 40.4578" stroke="#E02126" stroke-miterlimit="10"/>
<path d="M62.7151 31.8108C70.3192 34.0087 74.6696 39.5446 72.6206 44.9907C70.3435 51.0532 61.0016 54.7095 51.7535 53.1525C42.5054 51.5956 36.8577 45.4205 39.1341 39.3597C40.997 34.3977 47.5799 31.0541 54.9745 30.8482C47.2613 31.0359 40.3835 34.565 38.4391 39.8028C37.3654 42.7075 37.9931 45.6368 39.9002 48.1163C42.1822 51.0927 46.3014 53.4277 51.5281 54.3177C59.7533 55.7173 68.0469 53.0881 71.737 48.2931C72.3416 47.5136 72.8258 46.6482 73.1737 45.7256C75.312 39.9526 70.7204 34.0801 62.7151 31.8108Z" fill="url(#paint3_linear_2478_12542)"/>
<path d="M70.7581 44.2315C68.7698 49.5277 60.6108 52.7191 52.5371 51.3604C44.4633 50.0017 39.5252 44.6087 41.5135 39.3124C43.5018 34.0162 51.6609 30.8289 59.7378 32.1851C67.8148 33.5413 72.7473 38.9376 70.7581 44.2315ZM59.1038 33.6302C52.2532 32.4784 45.3185 35.1859 43.6354 39.6771C41.9524 44.1682 46.1329 48.7604 52.9925 49.9062C59.852 51.052 66.7794 48.3512 68.4697 43.8534C70.1601 39.3555 65.9643 34.7826 59.1038 33.6302Z" fill="url(#paint4_linear_2478_12542)"/>
<path d="M57.8359 45.9358C57.1479 45.8694 56.552 46.2274 56.5061 46.7289C56.4601 47.2304 56.9796 47.6879 57.6683 47.7527C58.3571 47.8175 58.9571 47.4593 59.0031 46.962C59.0491 46.4646 58.5287 46.0006 57.8359 45.9358Z" fill="url(#paint5_linear_2478_12542)"/>
<path d="M51.1416 45.0112C50.4521 44.9481 49.8561 45.302 49.8101 45.8035C49.7642 46.305 50.2861 46.7616 50.9757 46.8247C51.6652 46.8879 52.2629 46.5347 52.3088 46.0332C52.3547 45.5318 51.8345 45.0759 51.1416 45.0112Z" fill="url(#paint6_linear_2478_12542)"/>
<path d="M47.8451 41.1701C47.1572 41.1036 46.5579 41.4601 46.5104 41.9608C46.4628 42.4615 46.9889 42.9221 47.6776 42.9869C48.3664 43.0517 48.9664 42.6936 49.0108 42.1954C49.0551 41.6973 48.5347 41.2332 47.8451 41.1701Z" fill="url(#paint7_linear_2478_12542)"/>
<path d="M49.4284 37.4453C48.7668 37.3832 48.2026 37.6527 48.1657 38.049C48.1289 38.4453 48.6363 38.812 49.2987 38.8724C49.961 38.9329 50.5253 38.6634 50.5614 38.2688C50.5974 37.8742 50.0824 37.5019 49.4284 37.4453Z" fill="url(#paint8_linear_2478_12542)"/>
<path d="M54.7878 35.4442C54.1172 35.3839 53.5489 35.6535 53.5102 36.0449C53.4716 36.4363 53.9875 36.811 54.6564 36.8705C55.3253 36.93 55.8938 36.6645 55.9307 36.2682C55.9675 35.872 55.4536 35.5103 54.7878 35.4442Z" fill="url(#paint9_linear_2478_12542)"/>
<path d="M60.6489 36.2522C59.9816 36.1894 59.4116 36.4582 59.373 36.8537C59.3345 37.2492 59.8495 37.6174 60.5184 37.6769C61.1872 37.7364 61.7557 37.4709 61.7926 37.0746C61.8294 36.6783 61.317 36.3134 60.6489 36.2522Z" fill="url(#paint10_linear_2478_12542)"/>
<path d="M64.1939 39.507C63.5234 39.4467 62.9542 39.718 62.9164 40.1077C62.8786 40.4974 63.3929 40.8755 64.0618 40.935C64.7307 40.9945 65.2992 40.7289 65.336 40.3327C65.3729 39.9364 64.8579 39.5682 64.1939 39.507Z" fill="url(#paint11_linear_2478_12542)"/>
<path d="M63.3107 43.7033C62.6425 43.6421 62.0717 43.9126 62.0389 44.3047C62.006 44.6968 62.5104 45.0701 63.181 45.1304C63.8515 45.1907 64.4183 44.9244 64.4535 44.5273C64.4887 44.1303 63.9797 43.7669 63.3107 43.7033Z" fill="url(#paint12_linear_2478_12542)"/>
<path d="M51.5298 54.3153C46.3031 53.4254 42.1838 51.0903 39.9019 48.1139L41.7007 58.2287L44.2916 60.9856L44.9618 61.3864L49.3927 64.0811L49.6657 64.1184L55.4548 64.9751L55.4886 64.9809L61.7267 64.2121L61.9399 64.0834L66.8251 61.0555L66.8543 61.0368L70.088 57.582L71.7372 48.2981C68.0486 53.0857 59.7549 55.7149 51.5298 54.3153Z" fill="url(#paint13_linear_2478_12542)"/>
<path d="M70.09 57.5757L66.8565 61.0303L66.8274 61.049L66.3874 66.113C66.5577 65.9418 66.6555 65.8338 66.6555 65.8338C67.9803 64.5823 69.3144 61.9566 69.3144 61.9566L70.09 57.5757Z" fill="url(#paint14_linear_2478_12542)"/>
<path d="M66.8276 61.0487L61.9427 64.0764L61.878 68.8064C63.7481 68.5942 65.6919 66.807 66.3877 66.1128L66.8276 61.0487Z" fill="url(#paint15_linear_2478_12542)"/>
<path d="M61.944 64.0765L61.7277 64.2118L55.4881 64.984L55.4543 64.9782L55.6899 69.7523C57.3647 70.5085 61.7976 68.8248 61.7976 68.8248C61.8232 68.8228 61.8487 68.8192 61.8738 68.8141L61.944 64.0765Z" fill="url(#paint16_linear_2478_12542)"/>
<path d="M55.4575 64.9709L49.6684 64.1142L49.483 68.528C49.6326 68.5984 49.7228 68.6267 49.7228 68.6267C51.0578 70.0806 55.6739 69.7341 55.6739 69.7341L55.6939 69.7435L55.4575 64.9709Z" fill="url(#paint17_linear_2478_12542)"/>
<path d="M44.8601 65.8257C45.6633 66.8568 48.6167 68.1584 49.4777 68.5253L49.6631 64.1115L49.3936 64.0799L44.9627 61.3851L44.8601 65.8257Z" fill="url(#paint18_linear_2478_12542)"/>
<path d="M41.7013 58.2273L42.3855 62.1036C42.5938 63.2155 44.7731 65.6994 44.7731 65.6994C44.8004 65.7406 44.8276 65.7819 44.8599 65.8254L44.9625 61.3849L44.2938 60.9808L41.7013 58.2273Z" fill="url(#paint19_linear_2478_12542)"/>
<path d="M71.7425 48.2622L71.7383 48.2926" stroke="#E02126" stroke-miterlimit="10"/>
<path d="M56.7588 40.3824C54.901 40.1382 53.0257 40.6966 52.569 41.6373C52.3261 42.1514 52.5485 42.6657 53.1111 43.0705C53.6896 43.4359 54.3399 43.6729 55.018 43.7657C55.018 43.7657 55.0263 43.7696 55.0329 43.7728L55.0609 43.7738C55.1096 43.7825 55.1582 43.7872 55.2094 43.795C55.2605 43.8029 55.3017 43.8061 55.347 43.8091C55.3636 43.8124 55.3804 43.8142 55.3973 43.8146C55.4591 43.8214 55.5183 43.8249 55.5776 43.8285C55.6369 43.8321 55.7101 43.8362 55.776 43.8388C55.8418 43.8414 55.9043 43.8425 55.9659 43.8411C56.0275 43.8397 56.1148 43.8443 56.1903 43.8393L56.339 43.8343C56.3588 43.834 56.3785 43.8324 56.3981 43.8296C57.2562 43.7925 58.0905 43.5369 58.8216 43.0873L58.8271 43.0757C59.0275 42.9345 59.1907 42.747 59.3027 42.5292C59.7561 41.5911 58.6167 40.6308 56.7588 40.3824Z" fill="#010101"/>
<path d="M68.4677 43.8584C66.7774 48.3562 59.8461 51.0654 52.9905 49.9112C46.1348 48.7571 41.9439 44.1783 43.6334 39.6821C45.323 35.1859 52.2485 32.4761 59.1041 33.6302C65.9598 34.7844 70.154 39.3647 68.4677 43.8584ZM64.0619 40.9342C64.7276 40.9963 65.2993 40.7282 65.3361 40.3319C65.373 39.9357 64.8581 39.5675 64.1941 39.5062C63.5301 39.445 62.9544 39.7172 62.9165 40.107C62.8787 40.4967 63.3946 40.8714 64.0619 40.9342ZM63.1809 45.1299C63.8482 45.1927 64.4183 44.9239 64.4535 44.5268C64.4887 44.1298 63.9796 43.7664 63.3106 43.7028C62.6416 43.6392 62.0717 43.9121 62.0388 44.3042C62.006 44.6963 62.5104 45.0696 63.1809 45.1299ZM51.1415 45.0119C50.452 44.9488 49.856 45.3027 49.8101 45.8042C49.7642 46.3057 50.2861 46.7623 50.9756 46.8255C51.6651 46.8886 52.2628 46.5354 52.3087 46.034C52.3546 45.5325 51.8344 45.0767 51.1415 45.0119ZM57.6689 47.7511C58.3584 47.8142 58.9577 47.4578 59.0037 46.9604C59.0497 46.463 58.5277 46.0023 57.8349 45.9376C57.142 45.8729 56.551 46.2292 56.5051 46.7306C56.4591 47.2321 56.9802 47.6863 57.6689 47.7511ZM47.8456 41.1709C47.1577 41.1044 46.5584 41.4609 46.5109 41.9616C46.4633 42.4623 46.9894 42.9229 47.6781 42.9877C48.3669 43.0525 48.9669 42.6944 49.0113 42.1962C49.0556 41.6981 48.5352 41.234 47.8456 41.1709ZM49.4289 37.4458C48.7674 37.3837 48.2031 37.6532 48.1663 38.0495C48.1294 38.4457 48.6369 38.8124 49.2992 38.8729C49.9616 38.9334 50.5258 38.6638 50.5619 38.2692C50.598 37.8746 50.083 37.5024 49.4289 37.4458ZM51.4671 40.4006C50.8542 41.8739 52.3827 43.3743 54.8815 43.7541C54.9238 43.761 54.9665 43.7655 55.0093 43.7676C55.0093 43.7676 55.0176 43.7716 55.0242 43.7747C55.0309 43.7778 55.0442 43.7841 55.0605 43.7796C55.0778 43.7805 55.0949 43.7831 55.1117 43.7875C55.143 43.7901 55.1702 43.7927 55.2007 43.797C55.2312 43.8012 55.293 43.808 55.3383 43.8111C55.3549 43.8143 55.3717 43.8161 55.3886 43.8165C55.4323 43.8229 55.4742 43.8244 55.5163 43.83C55.5583 43.8356 55.6389 43.8371 55.6982 43.8407C55.7182 43.85 55.7467 43.8412 55.7689 43.8415C55.8331 43.8433 55.8973 43.8452 55.9589 43.8438C56.0205 43.8424 56.1077 43.847 56.1833 43.842L56.3319 43.837C56.3517 43.8367 56.3714 43.8351 56.391 43.8324C58.3243 43.7533 60.033 42.9541 60.5187 41.7798C61.1332 40.3073 59.6022 38.8037 57.1034 38.4239C54.6045 38.044 52.0831 38.9247 51.4671 40.4006ZM54.7884 35.4442C54.1179 35.3839 53.5495 35.6535 53.5109 36.0449C53.4723 36.4363 53.9882 36.811 54.6571 36.8705C55.326 36.93 55.8944 36.6645 55.9313 36.2682C55.9681 35.8719 55.4542 35.5103 54.7884 35.4442ZM60.6495 36.2516C59.9822 36.1888 59.4122 36.4577 59.3737 36.8531C59.3351 37.2486 59.8501 37.6168 60.519 37.6763C61.1879 37.7358 61.7563 37.4703 61.7932 37.074C61.83 36.6778 61.3176 36.3128 60.6495 36.2516Z" fill="url(#paint20_linear_2478_12542)"/>
<path d="M56.8671 39.1643C54.7847 38.8406 52.6724 39.5997 52.1618 40.8738C51.8336 41.6803 52.2323 42.4966 53.1021 43.0684C52.5478 42.6674 52.3171 42.1493 52.5601 41.6351C53.0167 40.6945 54.8937 40.1368 56.7498 40.3803C58.6059 40.6237 59.7471 41.5889 59.2929 42.5287C59.1809 42.7465 59.0177 42.934 58.8173 43.0752C59.2093 42.8313 59.519 42.4757 59.7061 42.0542C60.2284 40.7896 58.9529 39.4936 56.8671 39.1643Z" fill="#53524F"/>
<path d="M57.1036 38.4222C54.6047 38.0382 52.0826 38.9247 51.4665 40.4006C50.8505 41.8764 52.3872 43.3766 54.8802 43.7558C54.9225 43.7626 54.9652 43.7671 55.008 43.7693C54.3253 43.6956 53.6708 43.457 53.1011 43.0741C52.2313 42.5023 51.8326 41.686 52.1608 40.8796C52.6713 39.6054 54.7804 38.8448 56.8661 39.17C58.9518 39.4953 60.2274 40.7954 59.7134 42.0639C59.5262 42.4853 59.2166 42.841 58.8246 43.0848L58.8191 43.0965C58.2639 43.5102 57.3758 43.7813 56.3956 43.8388C58.3289 43.7598 60.0375 42.9606 60.5233 41.7863C61.1335 40.3056 59.6025 38.8021 57.1036 38.4222Z" fill="url(#paint21_linear_2478_12542)"/>
</g>
<g filter="url(#filter1_d_2478_12542)">
<path d="M39.111 39.9571C32.6483 39.4267 25.3517 46.3027 22.8173 55.3184C20.2829 64.334 23.4674 72.0688 29.9284 72.5991C35.2176 73.034 41.0541 68.5161 44.3947 61.9264C44.4645 61.7906 44.5325 61.653 44.5967 61.5172L44.7804 61.1502C44.8392 61.0272 44.8943 60.9043 44.9494 60.7832C45.0595 60.5355 45.1661 60.2859 45.2707 60.0363C45.2909 59.9904 45.3056 59.9446 45.3222 59.8987C45.4011 59.7152 45.4728 59.5225 45.5444 59.3353C45.6289 59.1133 45.706 58.8894 45.785 58.6655C45.8107 58.5976 45.8327 58.5297 45.8566 58.4582C45.9172 58.2747 45.9796 58.0911 46.0403 57.9076C46.1045 57.6929 46.1688 57.4764 46.2239 57.258C46.2239 57.2287 46.2404 57.203 46.2459 57.1736C46.3874 56.6781 46.5067 56.1845 46.6132 55.6927L46.6904 55.3092C46.7161 55.1807 46.74 55.0541 46.762 54.9238C46.784 54.7935 46.8042 54.6706 46.8263 54.544C48.0751 46.7211 44.9163 40.4305 39.111 39.9571ZM45.2138 57.0543C42.9971 64.9268 36.628 70.9329 30.9844 70.4705C25.3407 70.008 22.5602 63.2477 24.7732 55.3753C26.9862 47.5028 33.3572 41.4985 39.0027 41.9628C44.6482 42.4271 47.4287 49.1911 45.2138 57.0543Z" fill="url(#paint22_linear_2478_12542)"/>
<path d="M40.373 47.8772L40.3749 47.9066" stroke="#E02126" stroke-miterlimit="10"/>
<path d="M46.8229 54.5256C48.0754 46.7211 44.9166 40.4305 39.1095 39.957C32.6467 39.4267 25.3502 46.3027 22.8157 55.3183C20.2813 64.334 23.4659 72.0688 29.9268 72.5991C35.216 73.034 41.0525 68.5161 44.3932 61.9264C40.9331 68.8115 34.8028 73.5166 29.2289 73.0377C26.1399 72.7679 23.7542 70.9512 22.3217 68.1711C20.5991 64.8405 20.2409 60.1244 21.6642 55.0247C23.9048 47 29.8239 40.6324 35.7413 39.346C36.7052 39.1326 37.6956 39.0646 38.6797 39.1441C44.8211 39.6763 48.1819 46.3284 46.8229 54.5256Z" fill="url(#paint23_linear_2478_12542)"/>
<path d="M39.0029 41.9627C33.3574 41.4984 26.9865 47.5046 24.7735 55.3752C22.5605 63.2457 25.3391 70.0061 30.9846 70.4704C36.6301 70.9346 42.9974 64.9267 45.2141 57.0542C47.4308 49.1818 44.6466 42.4251 39.0029 41.9627ZM43.6347 57.0102C41.7559 63.688 36.3455 68.795 31.5595 68.3986C26.7735 68.0022 24.397 62.2676 26.285 55.5844C28.1729 48.9011 33.5742 43.7978 38.3693 44.1905C43.1645 44.5832 45.5171 50.3232 43.6347 57.0102Z" fill="url(#paint24_linear_2478_12542)"/>
<path d="M31.9467 52.9052C31.7135 53.5548 31.1349 53.9402 30.6611 53.7677C30.1873 53.5952 29.9945 52.9309 30.2295 52.2813C30.4646 51.6317 31.045 51.2427 31.5151 51.4133C31.9853 51.584 32.1836 52.252 31.9467 52.9052Z" fill="url(#paint25_linear_2478_12542)"/>
<path d="M29.9285 59.3445C29.6915 59.9941 29.1167 60.3813 28.6429 60.2088C28.1691 60.0363 27.9781 59.3701 28.215 58.7205C28.4519 58.0709 29.0267 57.6819 29.5005 57.8544C29.9744 58.0269 30.1654 58.6912 29.9285 59.3445Z" fill="url(#paint26_linear_2478_12542)"/>
<path d="M32.0019 63.9597C31.7686 64.6093 31.1901 64.9983 30.7163 64.8277C30.2425 64.657 30.0496 63.9854 30.2847 63.3358C30.5198 62.6862 31.1001 62.2971 31.5703 62.4696C32.0404 62.6421 32.2388 63.3101 32.0019 63.9597Z" fill="url(#paint27_linear_2478_12542)"/>
<path d="M36.0515 64.1192C35.8256 64.7431 35.3407 65.1377 34.9661 65.0019C34.5914 64.8661 34.4757 64.2514 34.7035 63.6274C34.9312 63.0035 35.416 62.609 35.7888 62.7448C36.1617 62.8806 36.2792 63.5045 36.0515 64.1192Z" fill="url(#paint28_linear_2478_12542)"/>
<path d="M40.1509 60.1335C39.9195 60.7648 39.4328 61.163 39.0618 61.0308C38.6909 60.8987 38.5715 60.273 38.8029 59.6435C39.0343 59.0141 39.5173 58.6141 39.892 58.7499C40.2666 58.8857 40.375 59.5041 40.1509 60.1335Z" fill="url(#paint29_linear_2478_12542)"/>
<path d="M41.9195 54.4963C41.6918 55.1257 41.2051 55.5258 40.8304 55.3918C40.4558 55.2578 40.3419 54.6358 40.5733 54.0063C40.8047 53.3769 41.2877 52.9769 41.6624 53.1127C42.037 53.2484 42.1491 53.8669 41.9195 54.4963Z" fill="url(#paint30_linear_2478_12542)"/>
<path d="M40.4833 49.9068C40.2519 50.5381 39.7634 50.9363 39.3943 50.8042C39.0251 50.672 38.9021 50.0463 39.1335 49.4168C39.3649 48.7874 39.8479 48.3874 40.2226 48.5232C40.5972 48.659 40.7111 49.2811 40.4833 49.9068Z" fill="url(#paint31_linear_2478_12542)"/>
<path d="M36.3052 48.914C36.0757 49.5434 35.5872 49.9435 35.218 49.8058C34.8489 49.6682 34.7258 49.0535 34.9572 48.4222C35.1886 47.7909 35.6716 47.3927 36.0463 47.5304C36.4209 47.668 36.533 48.2827 36.3052 48.914Z" fill="url(#paint32_linear_2478_12542)"/>
<path d="M21.6662 55.0247C20.2429 60.1244 20.601 64.8405 22.3237 68.1711L13.9289 62.231L12.5368 58.715L12.4597 57.9388L11.9087 52.7878L11.9913 52.5254L13.6846 46.9321L13.6938 46.8991L17.051 41.5939L17.2585 41.4563L22.0849 38.3367L22.1143 38.3183L26.623 36.8723L35.7359 39.3441C29.8259 40.6324 23.9068 47 21.6662 55.0247Z" fill="url(#paint33_linear_2478_12542)"/>
<path d="M26.6299 36.8741L22.1213 38.3202L22.0919 38.3385L17.3169 36.575C17.5446 36.4943 17.6842 36.4521 17.6842 36.4521C19.383 35.7896 22.3306 35.7052 22.3306 35.7052L26.6299 36.8741Z" fill="url(#paint34_linear_2478_12542)"/>
<path d="M22.0922 38.3386L17.2658 41.4582L12.9536 39.4983C13.9435 37.9 16.3916 36.9072 17.3172 36.5751L22.0922 38.3386Z" fill="url(#paint35_linear_2478_12542)"/>
<path d="M17.2655 41.4563L17.0506 41.5939L13.6897 46.8991L13.6806 46.9321L9.45654 44.6823C9.48593 42.8473 12.9019 39.5625 12.9019 39.5625C12.9147 39.5403 12.9288 39.5188 12.9441 39.4983L17.2655 41.4563Z" fill="url(#paint36_linear_2478_12542)"/>
<path d="M13.6881 46.932L11.9949 52.5253L7.91776 50.8095C7.91776 50.6444 7.93061 50.5508 7.93061 50.5508C7.18314 48.7249 9.46595 44.7043 9.46595 44.7043V44.6823L13.6881 46.932Z" fill="url(#paint37_linear_2478_12542)"/>
<path d="M8.39365 56.1367C7.80229 54.9715 7.88309 51.7491 7.91799 50.8151L11.9951 52.5308L11.9088 52.7878L12.4597 57.9388L8.39365 56.1367Z" fill="url(#paint38_linear_2478_12542)"/>
<path d="M13.9289 62.231L10.7094 59.9591C9.79116 59.2967 8.47069 56.2688 8.47069 56.2688C8.44498 56.2266 8.41927 56.1844 8.39355 56.1367L12.4596 57.9387L12.5404 58.715L13.9289 62.231Z" fill="url(#paint39_linear_2478_12542)"/>
<path d="M35.7734 39.3555L35.7432 39.3459" stroke="#E02126" stroke-miterlimit="10"/>
<path d="M36.5183 56.2469C35.9471 58.0288 34.6414 59.484 33.5945 59.495C33.0252 59.495 32.6542 59.0748 32.5275 58.3939C32.4433 57.7157 32.506 57.0273 32.7112 56.3754C32.7112 56.3754 32.7112 56.3662 32.7112 56.3589L32.7222 56.3332C32.735 56.2855 32.7516 56.2396 32.7663 56.19C32.781 56.1405 32.7956 56.102 32.8122 56.0597C32.8163 56.0434 32.8218 56.0274 32.8287 56.012C32.8489 55.9533 32.8709 55.8983 32.893 55.8432C32.915 55.7882 32.9426 55.7203 32.9683 55.6597C32.994 55.5992 33.0197 55.5423 33.0472 55.4872C33.0748 55.4322 33.1079 55.3514 33.1446 55.2854L33.2125 55.1532C33.2212 55.1355 33.231 55.1183 33.2419 55.1018C33.6416 54.3428 34.2289 53.6984 34.9481 53.2301H34.9609C35.1743 53.1093 35.4137 53.0419 35.6588 53.0337C36.7019 53.0246 37.0858 54.4632 36.5183 56.2469Z" fill="#010101"/>
<path d="M38.3639 44.1905C33.5687 43.7978 28.1583 48.9011 26.2795 55.5844C24.4008 62.2677 26.7607 68.006 31.5541 68.3987C36.3474 68.7914 41.756 63.6936 43.6348 57.0103C45.5135 50.327 43.1536 44.5851 38.3639 44.1905ZM39.1334 49.4168C39.3612 48.7892 39.8478 48.3873 40.2225 48.5231C40.5971 48.6589 40.711 49.281 40.4833 49.9068C40.2555 50.5325 39.7634 50.9362 39.3942 50.8041C39.0251 50.672 38.9057 50.0462 39.1334 49.4168ZM34.9572 48.4222C35.1849 47.7928 35.6716 47.3927 36.0462 47.5303C36.4209 47.668 36.5329 48.2827 36.3052 48.914C36.0774 49.5452 35.5871 49.9435 35.2179 49.8058C34.8488 49.6682 34.7257 49.0534 34.9572 48.4222ZM29.9287 59.3445C29.6918 59.9941 29.117 60.3813 28.6432 60.2088C28.1693 60.0363 27.9783 59.3702 28.2152 58.7206C28.4522 58.0709 29.027 57.6819 29.5008 57.8544C29.9746 58.0269 30.1656 58.6912 29.9287 59.3445ZM30.2318 52.2813C30.4687 51.6317 31.0472 51.2427 31.5173 51.4133C31.9875 51.584 32.1822 52.252 31.9452 52.9052C31.7083 53.5585 31.1335 53.9402 30.6597 53.7677C30.1858 53.5952 29.9967 52.9309 30.2318 52.2813ZM32.0022 63.9597C31.7689 64.6093 31.1904 64.9983 30.7166 64.8276C30.2428 64.657 30.0499 63.9853 30.285 63.3357C30.5201 62.6861 31.1004 62.2971 31.5706 62.4696C32.0407 62.6421 32.2391 63.31 32.0022 63.9597ZM36.0517 64.1193C35.8258 64.7432 35.341 65.1378 34.9663 65.002C34.5917 64.8662 34.476 64.2514 34.7037 63.6275C34.9314 63.0036 35.4163 62.609 35.7891 62.7448C36.1619 62.8806 36.2795 63.5046 36.0517 64.1193ZM34.2446 61.0181C32.6486 60.9428 31.9416 58.9224 32.6633 56.5038C32.6752 56.4627 32.6893 56.4223 32.7056 56.3827C32.7056 56.3827 32.7056 56.3735 32.7056 56.3662C32.7056 56.3588 32.7056 56.3441 32.7166 56.3313C32.7232 56.3153 32.7281 56.2987 32.7313 56.2818C32.7423 56.2524 32.7515 56.2267 32.7607 56.1973C32.7698 56.168 32.79 56.1093 32.8066 56.0671C32.8107 56.0507 32.8162 56.0347 32.8231 56.0193C32.836 55.9771 32.8525 55.9386 32.8653 55.8982C32.8782 55.8579 32.9113 55.7845 32.9333 55.7294C32.9333 55.7074 32.9535 55.6854 32.9627 55.6652C32.9884 55.6065 33.0141 55.5477 33.0417 55.4927C33.0692 55.4376 33.1023 55.3569 33.139 55.2908L33.2069 55.1587C33.2156 55.141 33.2254 55.1238 33.2363 55.1073C34.1325 53.3952 35.5852 52.1932 36.8561 52.2556C38.4521 52.329 39.161 54.3531 38.4392 56.7717C37.7175 59.1903 35.8442 61.0915 34.2446 61.0181ZM40.1509 60.1335C39.9195 60.7648 39.4328 61.163 39.0618 61.0309C38.6908 60.8988 38.5714 60.273 38.8028 59.6436C39.0343 59.0142 39.5173 58.6141 39.8919 58.7499C40.2666 58.8857 40.3749 59.5041 40.1509 60.1335ZM41.9194 54.4962C41.6917 55.1257 41.205 55.5257 40.8304 55.3917C40.4557 55.2578 40.3419 54.6357 40.5733 54.0063C40.8047 53.3769 41.2877 52.9768 41.6623 53.1126C42.037 53.2484 42.149 53.8668 41.9194 54.4962Z" fill="url(#paint40_linear_2478_12542)"/>
<path d="M37.6677 56.669C37.0726 58.6875 35.484 60.2712 34.1122 60.1886C33.2416 60.1409 32.6723 59.4326 32.5254 58.4031C32.6521 59.0747 33.0231 59.5041 33.5924 59.5041C34.6392 59.4931 35.945 58.0361 36.5162 56.2561C37.0873 54.4761 36.6998 53.0337 35.6548 53.0429C35.4098 53.0511 35.1703 53.1184 34.957 53.2392C35.345 52.9892 35.7993 52.8614 36.2609 52.8722C37.6291 52.9401 38.259 54.6449 37.6677 56.669Z" fill="#53524F"/>
<path d="M38.4408 56.7717C37.7227 59.1922 35.8439 61.0915 34.2443 61.0181C32.6447 60.9446 31.9413 58.9169 32.6612 56.5038C32.6731 56.4627 32.6872 56.4223 32.7034 56.3827C32.479 57.0306 32.416 57.7235 32.5198 58.4013C32.6667 59.4307 33.236 60.1391 34.1065 60.1868C35.4784 60.2693 37.067 58.6894 37.6621 56.6671C38.2571 54.6449 37.6235 52.9383 36.2553 52.8612C35.7937 52.8504 35.3394 52.9782 34.9514 53.2282H34.9385C34.3269 53.553 33.7025 54.2393 33.2324 55.1C34.1286 53.3879 35.5813 52.1859 36.8522 52.2483C38.4536 52.329 39.1625 54.3531 38.4408 56.7717Z" fill="url(#paint41_linear_2478_12542)"/>
</g>
</g>
<defs>
<filter id="filter0_d_2478_12542" x="33.917" y="27.8481" width="43.7803" height="47.0995" filterUnits="userSpaceOnUse" color-interpolation-filters="sRGB">
<feFlood flood-opacity="0" result="BackgroundImageFix"/>
<feColorMatrix in="SourceAlpha" type="matrix" values="0 0 0 0 0 0 0 0 0 0 0 0 0 0 0 0 0 0 127 0" result="hardAlpha"/>
<feOffset dy="1"/>
<feGaussianBlur stdDeviation="2"/>
<feComposite in2="hardAlpha" operator="out"/>
<feColorMatrix type="matrix" values="0 0 0 0 0 0 0 0 0 0 0 0 0 0 0 0 0 0 0.25 0"/>
<feBlend mode="normal" in2="BackgroundImageFix" result="effect1_dropShadow_2478_12542"/>
<feBlend mode="normal" in="SourceGraphic" in2="effect1_dropShadow_2478_12542" result="shape"/>
</filter>
<filter id="filter1_d_2478_12542" x="3.78027" y="32.7052" width="47.3423" height="45.366" filterUnits="userSpaceOnUse" color-interpolation-filters="sRGB">
<feFlood flood-opacity="0" result="BackgroundImageFix"/>
<feColorMatrix in="SourceAlpha" type="matrix" values="0 0 0 0 0 0 0 0 0 0 0 0 0 0 0 0 0 0 127 0" result="hardAlpha"/>
<feOffset dy="1"/>
<feGaussianBlur stdDeviation="2"/>
<feComposite in2="hardAlpha" operator="out"/>
<feColorMatrix type="matrix" values="0 0 0 0 0 0 0 0 0 0 0 0 0 0 0 0 0 0 0.25 0"/>
<feBlend mode="normal" in2="BackgroundImageFix" result="effect1_dropShadow_2478_12542"/>
<feBlend mode="normal" in="SourceGraphic" in2="effect1_dropShadow_2478_12542" result="shape"/>
</filter>
<linearGradient id="paint0_linear_2478_12542" x1="47.1795" y1="72.5" x2="40.3445" y2="32.4412" gradientUnits="userSpaceOnUse">
<stop stop-color="#C5C5C5"/>
<stop offset="1" stop-color="#5F5F5F"/>
</linearGradient>
<linearGradient id="paint1_linear_2478_12542" x1="26" y1="34.5" x2="-13" y2="-37" gradientUnits="userSpaceOnUse">
<stop stop-color="#D9D9D9"/>
<stop offset="1" stop-color="#737373"/>
</linearGradient>
<linearGradient id="paint2_linear_2478_12542" x1="71.8164" y1="39.9862" x2="32.7741" y2="44.4853" gradientUnits="userSpaceOnUse">
<stop stop-color="#B7B7B7"/>
<stop offset="1" stop-color="#515151"/>
</linearGradient>
<linearGradient id="paint3_linear_2478_12542" x1="58.9083" y1="50.4745" x2="71.496" y2="39.927" gradientUnits="userSpaceOnUse">
<stop stop-color="#4E4E52"/>
<stop offset="0.840915" stop-color="#C2C2C8"/>
<stop offset="1" stop-color="#68686C"/>
</linearGradient>
<linearGradient id="paint4_linear_2478_12542" x1="48.0353" y1="48.1395" x2="69.8076" y2="37.0768" gradientUnits="userSpaceOnUse">
<stop stop-color="#22252C"/>
<stop offset="1" stop-color="#353945"/>
</linearGradient>
<linearGradient id="paint5_linear_2478_12542" x1="58.8573" y1="47.3646" x2="56.6524" y2="46.3228" gradientUnits="userSpaceOnUse">
<stop stop-color="#020100"/>
<stop offset="1" stop-color="#464444"/>
</linearGradient>
<linearGradient id="paint6_linear_2478_12542" x1="52.1629" y1="46.4379" x2="49.9573" y2="45.3958" gradientUnits="userSpaceOnUse">
<stop stop-color="#020100"/>
<stop offset="1" stop-color="#464444"/>
</linearGradient>
<linearGradient id="paint7_linear_2478_12542" x1="48.8656" y1="42.5984" x2="46.6576" y2="41.5551" gradientUnits="userSpaceOnUse">
<stop stop-color="#020100"/>
<stop offset="1" stop-color="#464444"/>
</linearGradient>
<linearGradient id="paint8_linear_2478_12542" x1="50.41" y1="38.6519" x2="48.3182" y2="37.6635" gradientUnits="userSpaceOnUse">
<stop stop-color="#020100"/>
<stop offset="1" stop-color="#464444"/>
</linearGradient>
<linearGradient id="paint9_linear_2478_12542" x1="55.777" y1="36.6554" x2="53.6652" y2="35.6576" gradientUnits="userSpaceOnUse">
<stop stop-color="#020100"/>
<stop offset="1" stop-color="#464444"/>
</linearGradient>
<linearGradient id="paint10_linear_2478_12542" x1="61.6389" y1="37.4619" x2="59.5283" y2="36.4647" gradientUnits="userSpaceOnUse">
<stop stop-color="#020100"/>
<stop offset="1" stop-color="#464444"/>
</linearGradient>
<linearGradient id="paint11_linear_2478_12542" x1="65.1832" y1="40.7181" x2="63.0714" y2="39.7203" gradientUnits="userSpaceOnUse">
<stop stop-color="#020100"/>
<stop offset="1" stop-color="#464444"/>
</linearGradient>
<linearGradient id="paint12_linear_2478_12542" x1="64.3011" y1="44.9137" x2="62.192" y2="43.9171" gradientUnits="userSpaceOnUse">
<stop stop-color="#020100"/>
<stop offset="1" stop-color="#464444"/>
</linearGradient>
<linearGradient id="paint13_linear_2478_12542" x1="58.4808" y1="56.4151" x2="57.598" y2="38.1437" gradientUnits="userSpaceOnUse">
<stop stop-color="#21242B"/>
<stop offset="1" stop-color="#5D6578"/>
</linearGradient>
<linearGradient id="paint14_linear_2478_12542" x1="65.9827" y1="65.9224" x2="74.1465" y2="51.5053" gradientUnits="userSpaceOnUse">
<stop stop-color="#5F5F62"/>
<stop offset="1" stop-color="#C2C2C8"/>
</linearGradient>
<linearGradient id="paint15_linear_2478_12542" x1="66.4754" y1="65.9271" x2="62.3363" y2="57.6484" gradientUnits="userSpaceOnUse">
<stop stop-color="#5F5F62"/>
<stop offset="1" stop-color="#C2C2C8"/>
</linearGradient>
<linearGradient id="paint16_linear_2478_12542" x1="59.6638" y1="69.5078" x2="57.6641" y2="58.6652" gradientUnits="userSpaceOnUse">
<stop stop-color="#5F5F62"/>
<stop offset="1" stop-color="#C2C2C8"/>
</linearGradient>
<linearGradient id="paint17_linear_2478_12542" x1="50.9501" y1="69.3706" x2="56.6877" y2="59.8269" gradientUnits="userSpaceOnUse">
<stop stop-color="#5F5F62"/>
<stop offset="1" stop-color="#C2C2C8"/>
</linearGradient>
<linearGradient id="paint18_linear_2478_12542" x1="48.97" y1="67.17" x2="49.4995" y2="59.9667" gradientUnits="userSpaceOnUse">
<stop stop-color="#5F5F62"/>
<stop offset="1" stop-color="#C2C2C8"/>
</linearGradient>
<linearGradient id="paint19_linear_2478_12542" x1="41.6664" y1="61.2733" x2="45.8033" y2="58.0574" gradientUnits="userSpaceOnUse">
<stop stop-color="#5F5F62"/>
<stop offset="1" stop-color="#C2C2C8"/>
</linearGradient>
<linearGradient id="paint20_linear_2478_12542" x1="69.5038" y1="41.7153" x2="42.5958" y2="41.8239" gradientUnits="userSpaceOnUse">
<stop stop-color="#DEDBD5"/>
<stop offset="1" stop-color="#787673"/>
</linearGradient>
<linearGradient id="paint21_linear_2478_12542" x1="59.9702" y1="42.9623" x2="52.0271" y2="39.2093" gradientUnits="userSpaceOnUse">
<stop stop-color="#C9C4BE"/>
<stop offset="1" stop-color="#63615E"/>
</linearGradient>
<linearGradient id="paint22_linear_2478_12542" x1="43.295" y1="42.8159" x2="22.6099" y2="76.1793" gradientUnits="userSpaceOnUse">
<stop stop-color="#B7B7B7"/>
<stop offset="1" stop-color="#515151"/>
</linearGradient>
<linearGradient id="paint23_linear_2478_12542" x1="28.2934" y1="50" x2="43.1978" y2="43.0928" gradientUnits="userSpaceOnUse">
<stop stop-color="#4E4E52"/>
<stop offset="0.840915" stop-color="#C2C2C8"/>
<stop offset="1" stop-color="#68686C"/>
</linearGradient>
<linearGradient id="paint24_linear_2478_12542" x1="25.7708" y1="60.8147" x2="45.0377" y2="45.8217" gradientUnits="userSpaceOnUse">
<stop stop-color="#22252C"/>
<stop offset="1" stop-color="#353945"/>
</linearGradient>
<linearGradient id="paint25_linear_2478_12542" x1="31.0882" y1="51.3732" x2="31.0882" y2="53.8089" gradientUnits="userSpaceOnUse">
<stop stop-color="#020100"/>
<stop offset="1" stop-color="#464444"/>
</linearGradient>
<linearGradient id="paint26_linear_2478_12542" x1="29.0717" y1="57.8135" x2="29.0717" y2="60.2498" gradientUnits="userSpaceOnUse">
<stop stop-color="#020100"/>
<stop offset="1" stop-color="#464444"/>
</linearGradient>
<linearGradient id="paint27_linear_2478_12542" x1="31.1434" y1="62.4287" x2="31.1434" y2="64.8678" gradientUnits="userSpaceOnUse">
<stop stop-color="#020100"/>
<stop offset="1" stop-color="#464444"/>
</linearGradient>
<linearGradient id="paint28_linear_2478_12542" x1="35.3772" y1="62.718" x2="35.3772" y2="65.0286" gradientUnits="userSpaceOnUse">
<stop stop-color="#020100"/>
<stop offset="1" stop-color="#464444"/>
</linearGradient>
<linearGradient id="paint29_linear_2478_12542" x1="39.4757" y1="58.7234" x2="39.4757" y2="61.0561" gradientUnits="userSpaceOnUse">
<stop stop-color="#020100"/>
<stop offset="1" stop-color="#464444"/>
</linearGradient>
<linearGradient id="paint30_linear_2478_12542" x1="41.246" y1="53.0862" x2="41.246" y2="55.4176" gradientUnits="userSpaceOnUse">
<stop stop-color="#020100"/>
<stop offset="1" stop-color="#464444"/>
</linearGradient>
<linearGradient id="paint31_linear_2478_12542" x1="39.8083" y1="48.4967" x2="39.8083" y2="50.8294" gradientUnits="userSpaceOnUse">
<stop stop-color="#020100"/>
<stop offset="1" stop-color="#464444"/>
</linearGradient>
<linearGradient id="paint32_linear_2478_12542" x1="35.6313" y1="47.5032" x2="35.6313" y2="49.8329" gradientUnits="userSpaceOnUse">
<stop stop-color="#020100"/>
<stop offset="1" stop-color="#464444"/>
</linearGradient>
<linearGradient id="paint33_linear_2478_12542" x1="22.729" y1="47.8518" x2="38.8917" y2="56.466" gradientUnits="userSpaceOnUse">
<stop stop-color="#21242B"/>
<stop offset="1" stop-color="#5D6578"/>
</linearGradient>
<linearGradient id="paint34_linear_2478_12542" x1="17.3169" y1="37.0219" x2="33.8573" y2="35.7737" gradientUnits="userSpaceOnUse">
<stop stop-color="#5F5F62"/>
<stop offset="1" stop-color="#C2C2C8"/>
</linearGradient>
<linearGradient id="paint35_linear_2478_12542" x1="17.5229" y1="36.5751" x2="23.2369" y2="43.8608" gradientUnits="userSpaceOnUse">
<stop stop-color="#5F5F62"/>
<stop offset="1" stop-color="#C2C2C8"/>
</linearGradient>
<linearGradient id="paint36_linear_2478_12542" x1="11.373" y1="41.198" x2="20.3293" y2="47.6473" gradientUnits="userSpaceOnUse">
<stop stop-color="#5F5F62"/>
<stop offset="1" stop-color="#C2C2C8"/>
</linearGradient>
<linearGradient id="paint37_linear_2478_12542" x1="7.78027" y1="49.1251" x2="18.8704" y2="47.9963" gradientUnits="userSpaceOnUse">
<stop stop-color="#5F5F62"/>
<stop offset="1" stop-color="#C2C2C8"/>
</linearGradient>
<linearGradient id="paint38_linear_2478_12542" x1="8.92908" y1="51.8518" x2="15.6779" y2="54.4517" gradientUnits="userSpaceOnUse">
<stop stop-color="#5F5F62"/>
<stop offset="1" stop-color="#C2C2C8"/>
</linearGradient>
<linearGradient id="paint39_linear_2478_12542" x1="11.1548" y1="60.9629" x2="15.8259" y2="58.5864" gradientUnits="userSpaceOnUse">
<stop stop-color="#5F5F62"/>
<stop offset="1" stop-color="#C2C2C8"/>
</linearGradient>
<linearGradient id="paint40_linear_2478_12542" x1="40.7471" y1="44.1693" x2="29.1977" y2="68.4344" gradientUnits="userSpaceOnUse">
<stop stop-color="#DEDBD5"/>
<stop offset="1" stop-color="#787673"/>
</linearGradient>
<linearGradient id="paint41_linear_2478_12542" x1="35.551" y1="52.246" x2="35.551" y2="61.0201" gradientUnits="userSpaceOnUse">
<stop stop-color="#C9C4BE"/>
<stop offset="1" stop-color="#63615E"/>
</linearGradient>
<clipPath id="clip0_2478_12542">
<rect width="69" height="44" fill="white" transform="translate(7 30)"/>
</clipPath>
</defs>
</svg>
