<svg width="1024" height="1024" viewBox="0 0 1024 1024" fill="none" xmlns="http://www.w3.org/2000/svg">
<rect width="1024" height="1024" fill="#0A7DEB"/>
<path d="M0 0H1024V1024H0V0Z" fill="url(#paint0_linear_2187_35528)" fill-opacity="0.45"/>
<path d="M867.281 200.82L720.822 152.566C716.263 151.07 711.298 151.378 706.961 153.426C702.625 155.475 699.251 159.106 697.541 163.563C652.691 258.637 608.646 354.111 561.381 447.952L559.569 451.584C534.947 499.704 524.716 493.873 516.665 493.773C509.956 493.773 504.286 485.208 498.081 478.543L457.088 426.724L496.303 427.658C500.12 427.649 503.778 426.141 506.481 423.463C509.183 420.784 510.709 417.153 510.727 413.361V412.828C510.709 409.036 509.183 405.405 506.481 402.727C503.778 400.049 500.12 398.541 496.303 398.532L423.341 397.432C419.527 397.441 415.872 398.95 413.175 401.629C410.478 404.309 408.959 407.94 408.95 411.729V412.262C408.95 412.595 408.95 412.928 408.95 413.261L411.232 486.575C411.24 490.367 412.758 494.001 415.454 496.686C418.15 499.37 421.805 500.886 425.623 500.904H426.159C429.979 500.887 433.638 499.371 436.339 496.688C439.041 494.004 440.566 490.37 440.584 486.575L437.934 455.916L478.188 509.235C478.188 509.235 497.644 534.495 516.698 534.495C549.304 534.495 562.756 523.431 589.425 476.211C620.89 420.459 644.338 360.476 671.577 302.592C679.528 285.097 688.048 267.868 696.267 250.506C700.493 241.542 704.754 232.544 708.645 223.414C711.832 215.916 714.448 207.851 720.319 201.92C723.589 198.723 727.944 196.857 732.529 196.688C740.815 196.221 750.04 201.02 757.923 203.619L783.518 212.117L816.762 223.114C821.443 224.653 825.321 227.971 827.546 232.342C829.772 236.714 830.164 241.783 828.637 246.441L724.478 480.243C722.971 484.932 723.4 490.023 725.671 494.397C727.942 498.772 731.869 502.071 736.588 503.57C738.425 504.134 740.335 504.426 742.257 504.436C746.156 504.436 749.956 503.22 753.122 500.96C756.287 498.7 758.659 495.51 759.902 491.84L879.056 224.147C880.605 219.502 880.236 214.437 878.028 210.063C875.82 205.689 871.955 202.364 867.281 200.82Z" fill="white" stroke="white" stroke-width="2" stroke-miterlimit="10"/>
<path d="M254.205 410.762L254.406 410.262C254.406 409.962 254.574 409.629 254.675 409.329L282.92 342.68C284.332 339.203 284.319 335.314 282.884 331.846C281.448 328.377 278.704 325.604 275.238 324.119L274.735 323.886C271.214 322.44 267.261 322.431 263.733 323.859C260.204 325.287 257.384 328.038 255.882 331.517L242.9 362.208L191.911 258.204C189.767 253.819 189.449 248.772 191.025 244.157C192.601 239.541 195.945 235.728 200.331 233.544L273.259 197.487C277.646 195.304 282.722 194.927 287.388 196.436C292.053 197.946 295.932 201.221 298.183 205.551L377.652 367.907C380.003 372.066 383.879 375.165 388.472 376.557C393.065 377.949 398.021 377.527 402.309 375.38C406.598 373.233 409.887 369.526 411.492 365.03C413.098 360.534 412.896 355.596 410.929 351.245L318.143 154.332C317.054 152.14 315.54 150.184 313.688 148.576C311.836 146.968 309.681 145.74 307.349 144.963C305.017 144.185 302.553 143.874 300.099 144.046C297.645 144.219 295.249 144.872 293.051 145.968L155.28 214.849C150.99 216.983 147.695 220.681 146.083 225.169C144.471 229.658 144.665 234.592 146.625 238.942L208.147 375.571L178.56 363.208C175.05 361.732 171.094 361.699 167.559 363.117C164.025 364.535 161.201 367.289 159.708 370.773L159.506 371.239C158.772 372.97 158.389 374.827 158.378 376.705C158.367 378.583 158.728 380.445 159.441 382.184C160.155 383.924 161.206 385.506 162.535 386.842C163.865 388.177 165.446 389.239 167.188 389.967L235.319 418.493C238.856 419.952 242.831 419.957 246.372 418.508C249.912 417.058 252.73 414.272 254.205 410.762Z" fill="white" stroke="white" stroke-width="2" stroke-miterlimit="10"/>
<path d="M753.429 614.24L733.066 543.492C731.96 539.791 729.434 536.67 726.034 534.8C722.633 532.93 718.63 532.462 714.885 533.495H714.348L713.409 533.862L641.588 553.256C639.762 553.757 638.053 554.611 636.559 555.768C635.065 556.925 633.815 558.363 632.881 560C631.946 561.637 631.346 563.441 631.113 565.308C630.88 567.176 631.02 569.071 631.525 570.885V571.385C632.631 575.086 635.157 578.207 638.557 580.077C641.958 581.947 645.961 582.415 649.706 581.382L671.779 575.417V575.184L684.996 571.618L676.811 586.081L666.512 604.242L640.917 649.43L607.841 707.814L575.068 765.631L550.479 808.953C543.468 821.316 537.061 836.512 519.818 835.612C506.669 834.846 500.563 824.615 494.794 814.484L482.415 792.824L447.897 732.44L416.432 677.456L406.368 659.96L339.277 548.224L284.565 463.448C281.796 459.14 277.473 456.049 272.482 454.81C267.491 453.57 262.211 454.276 257.728 456.783C254.842 458.352 252.43 460.659 250.743 463.466C249.056 466.273 248.155 469.476 248.134 472.745C248.137 475.915 249.006 479.025 250.65 481.743L359.941 663.626L373.359 685.687L404.288 737.339L440.282 797.089L468.125 843.343C470.171 846.676 472.117 850.208 474.23 853.507C482.986 867.137 501.771 879 518.342 879C540.818 879 555.813 863.204 568.292 843.51C578.825 826.848 671.98 663.793 701.165 612.607L709.853 597.344L714.415 588.447V587.714L714.751 588.813V588.447L724.479 622.071C725.593 625.767 728.12 628.883 731.518 630.751C734.916 632.62 738.916 633.092 742.66 632.068H743.197C745.063 631.591 746.813 630.746 748.344 629.584C749.875 628.422 751.156 626.967 752.11 625.304C753.064 623.641 753.672 621.805 753.899 619.905C754.125 618.004 753.965 616.078 753.429 614.24Z" fill="white" stroke="white" stroke-width="2" stroke-linecap="round" stroke-linejoin="round"/>
<defs>
<linearGradient id="paint0_linear_2187_35528" x1="512" y1="-98.5" x2="512" y2="1082" gradientUnits="userSpaceOnUse">
<stop stop-color="#88E2FF" stop-opacity="0.5"/>
<stop offset="0.441129" stop-color="#0A7DEB"/>
<stop offset="0.895447" stop-color="#064785"/>
</linearGradient>
</defs>
</svg>
