<svg width="40" height="40" viewBox="0 0 40 40" fill="none" xmlns="http://www.w3.org/2000/svg">
<rect width="40" height="40" rx="8" fill="url(#paint0_linear_2170_15969)"/>
<path fill-rule="evenodd" clip-rule="evenodd" d="M35.1278 26.4708C35.6257 23.8225 35.888 21.152 35.9146 18.4594C35.993 16.2055 35.8738 13.9642 35.5569 11.7356C35.0413 9.64638 33.7299 8.38267 31.6228 7.94454C27.8194 7.23642 23.9807 6.92646 20.1065 7.01465C16.2424 6.9507 12.4036 7.21298 8.59018 7.80148C6.05413 8.33472 4.5997 9.88454 4.22686 12.4509C4.04045 14.5446 3.96892 16.6429 4.01227 18.7455C4.01969 21.6974 4.37734 24.6063 5.08522 27.4722C5.45257 29.0424 6.23939 30.3538 7.4457 31.4063C8.84601 32.0873 10.3243 32.5165 11.8806 32.6939C17.1736 32.9788 22.4668 32.9788 27.7602 32.6939C29.4041 32.5095 30.9777 32.0803 32.4812 31.4063C33.9043 30.0627 34.7866 28.4175 35.1278 26.4708ZM14.4556 8.01604C18.7501 7.96363 23.0419 8.03516 27.331 8.23063C27.454 8.24041 27.5771 8.25038 27.7002 8.26084L27.4966 9.33706C26.5817 12.6363 25.7396 15.9632 24.9705 19.3178C24.9042 19.7366 24.7962 20.1324 24.6465 20.505V20.4202C24.6365 20.4379 24.6265 20.4557 24.6164 20.4736C24.0372 21.505 23.1972 23.001 20.001 23.001C17.0392 23.001 16.1756 21.882 15.6265 20.9123C15.1554 19.6842 14.7413 18.4374 14.3841 17.1719C13.724 14.6261 13.1081 12.0692 12.5365 9.50134L12.301 8.25662C13.0238 8.15936 13.742 8.07916 14.4556 8.01604ZM10.1952 8.5679L11.695 31.565C10.6153 31.3818 9.58032 31.0428 8.59017 30.5479C7.46108 29.4111 6.72194 28.052 6.37274 26.4707C6.0606 25.1008 5.82216 23.7178 5.65744 22.322C5.56207 19.3654 5.56207 16.4089 5.65744 13.4523C5.94769 10.6126 7.46028 8.98451 10.1952 8.5679ZM14.9394 31.7917C18.2578 31.917 21.5776 31.9317 24.899 31.8355C24.9561 31.834 25.0133 31.8324 25.0703 31.8305L24.9139 31.0484L24.899 31.0487C24.5674 29.5625 24.1311 28.1066 23.59 26.6812C23.0225 25.8543 22.0638 25.0656 20.001 25.0656C17.7584 25.0656 16.8691 25.8776 16.3531 26.7176C15.986 27.8293 15.6299 28.9448 15.2849 30.0641L14.9394 31.7917ZM32.3889 9.58079C31.5405 9.01517 30.6281 8.70574 29.689 8.51872L29.8081 8.54848L28.3132 31.4695C28.9929 31.3394 29.6669 31.1753 30.3352 30.9771C31.8103 30.4062 32.7402 29.3332 33.1249 27.7583C33.6897 25.8878 34.0712 23.9804 34.2694 22.0359C34.3648 19.2223 34.3648 16.4089 34.2694 13.5954C34.1714 11.961 33.9374 10.6131 32.3889 9.58079Z" fill="#A3A1A1"/>
<defs>
<linearGradient id="paint0_linear_2170_15969" x1="20" y1="-52" x2="20.3175" y2="106.999" gradientUnits="userSpaceOnUse">
<stop stop-color="#A7A7A7"/>
<stop offset="0.448245" stop-color="#F1F1F1"/>
<stop offset="1" stop-color="#8B8B8B"/>
</linearGradient>
</defs>
</svg>
