<svg width="149" height="86" viewBox="0 0 149 86" fill="none" xmlns="http://www.w3.org/2000/svg">
<g clip-path="url(#clip0_1377_18633)">
<path fill-rule="evenodd" clip-rule="evenodd" d="M73.8011 59.522C72.7897 61.9248 70.5206 66.6635 69.535 66.3953C68.303 66.06 67.6508 63.8786 65.7666 60.4849C65.2652 61.1439 64.7957 61.9596 64.3896 62.9636C65.5492 64.1075 67.8392 66.9652 67.7233 69.2452L67.7197 69.3156C67.5778 72.1092 67.2179 72.5395 63.9922 76.6958C64.4644 77.4552 65.222 78.481 65.7666 79.0775C66.3946 76.9456 67.9842 72.883 69.3176 72.6818C70.9845 72.4304 71.8345 73.5185 73.8011 77.4168C74.3475 76.7278 74.827 75.949 75.2117 75.0288C73.5853 73.7155 70.9845 71.7504 70.9845 69.2452C70.9845 68.1461 73.6899 63.4615 75.5259 62.7072C75.1436 61.4306 74.5848 60.3402 73.8011 59.522ZM69.3176 68.5652C68.7379 68.364 68.5578 70.2416 69.3176 70.2416C69.7525 70.2416 69.8974 68.7664 69.3176 68.5652Z" fill="#C9C9C9"/>
<path fill-rule="evenodd" clip-rule="evenodd" d="M73.8011 59.522C72.7897 61.9248 70.5206 66.6635 69.535 66.3953C68.303 66.06 67.6508 63.8786 65.7666 60.4849C65.2652 61.1439 64.7957 61.9596 64.3896 62.9636C65.5492 64.1075 67.8392 66.9652 67.7233 69.2452L67.7197 69.3156C67.5778 72.1092 67.2179 72.5395 63.9922 76.6958C64.4644 77.4552 65.222 78.481 65.7666 79.0775C66.3946 76.9456 67.9842 72.883 69.3176 72.6818C70.9845 72.4304 71.8345 73.5185 73.8011 77.4168C74.3475 76.7278 74.827 75.949 75.2117 75.0288C73.5853 73.7155 70.9845 71.7504 70.9845 69.2452C70.9845 68.1461 73.6899 63.4615 75.5259 62.7072C75.1436 61.4306 74.5848 60.3402 73.8011 59.522ZM69.3176 68.5652C68.7379 68.364 68.5578 70.2416 69.3176 70.2416C69.7525 70.2416 69.8974 68.7664 69.3176 68.5652Z" fill="url(#paint0_linear_1377_18633)" fill-opacity="0.2"/>
<path fill-rule="evenodd" clip-rule="evenodd" d="M139.542 60.025C138.73 60.4944 137.124 57.0353 136.604 55.0796C136.239 55.8033 135.921 56.6257 135.656 57.5104C136.178 58.2648 137.281 59.8741 137.513 60.2765C137.802 60.7794 137.947 62.372 137.947 63.6293C137.947 64.6351 136.373 67.6805 135.586 69.0776C135.863 69.8203 136.213 70.486 136.643 71.0441C136.933 69.9093 138.455 64.8866 139.542 64.719C140.411 64.5848 142.078 68.3092 142.803 70.1881C143.086 69.6308 143.335 69.0025 143.549 68.3232C142.919 67.485 141.136 64.039 140.919 62.5302C140.745 61.3232 142.717 57.8735 143.906 56.2531C143.689 55.4336 143.413 54.6948 143.076 54.0737C142.115 55.9736 140.353 59.5556 139.542 60.025ZM139.542 61.6082C139.034 61.5244 139.034 63.2008 139.542 63.2008C140.295 63.2008 139.977 61.692 139.542 61.6082Z" fill="#C9C9C9"/>
<path fill-rule="evenodd" clip-rule="evenodd" d="M139.542 60.025C138.73 60.4944 137.124 57.0353 136.604 55.0796C136.239 55.8033 135.921 56.6257 135.656 57.5104C136.178 58.2648 137.281 59.8741 137.513 60.2765C137.802 60.7794 137.947 62.372 137.947 63.6293C137.947 64.6351 136.373 67.6805 135.586 69.0776C135.863 69.8203 136.213 70.486 136.643 71.0441C136.933 69.9093 138.455 64.8866 139.542 64.719C140.411 64.5848 142.078 68.3092 142.803 70.1881C143.086 69.6308 143.335 69.0025 143.549 68.3232C142.919 67.485 141.136 64.039 140.919 62.5302C140.745 61.3232 142.717 57.8735 143.906 56.2531C143.689 55.4336 143.413 54.6948 143.076 54.0737C142.115 55.9736 140.353 59.5556 139.542 60.025ZM139.542 61.6082C139.034 61.5244 139.034 63.2008 139.542 63.2008C140.295 63.2008 139.977 61.692 139.542 61.6082Z" fill="url(#paint1_linear_1377_18633)" fill-opacity="0.2"/>
<path fill-rule="evenodd" clip-rule="evenodd" d="M76.2022 57.2496C73.6468 53.9669 70.9843 53.1424 68.3028 53.4871C65.0417 54.6606 59.244 60.6956 59.0266 68.8262C58.8092 76.9568 60.1193 80.0401 61.7805 82.2375C62.9774 83.8208 66.3557 85.4901 67.7195 85.9163C68.3402 85.9163 67.688 85.9163 68.5577 85.9163C69.7897 85.9163 71.384 85.1619 72.4711 84.3237C77.8339 80.1885 78.1589 75.7834 78.6662 73.8555C79.1735 71.9276 79.7906 61.8597 76.2022 57.2496ZM63.5198 75.6995C62.2153 73.0173 62.8675 67.5689 64.0271 63.9646C64.141 63.6118 64.262 63.2785 64.3894 62.9638C64.7955 61.9598 65.265 61.1441 65.7664 60.4851C67.5881 58.0905 69.831 57.7671 70.9843 58.0134C72.1447 58.2333 73.0706 58.7596 73.8009 59.5222C74.5846 60.3404 75.1434 61.4307 75.5257 62.7073C76.1443 64.7727 76.3013 67.3252 76.2022 69.9997C76.1252 72.0751 75.7672 73.6996 75.2115 75.029C74.8268 75.9492 74.3473 76.728 73.8009 77.417C72.905 78.5466 71.8188 79.8812 70.6944 80.3097C68.7458 81.052 67.2009 80.6488 65.7664 79.0777C65.2218 78.4812 64.4642 77.4554 63.992 76.696C63.7021 76.1093 63.7373 76.1468 63.5198 75.6995Z" fill="#353533"/>
<path d="M57.4324 70.5865C56.9976 74.2746 55.7656 75.6995 55.0409 75.951C54.9668 75.9766 54.8684 75.9963 54.751 76.0105C55.4274 79.5811 60.6175 85.9163 67.7196 85.9163C66.3559 85.4901 62.9776 83.8207 61.7806 82.2375C60.1195 80.0401 58.8093 76.9568 59.0268 68.8262C59.2442 60.6956 65.0418 54.6605 68.303 53.4871C64.3896 53.99 62.9644 54.8339 62.2879 55.5073C59.0971 59.4707 57.8546 67.0048 57.4324 70.5865Z" fill="#262624"/>
<path fill-rule="evenodd" clip-rule="evenodd" d="M146.715 61.2824C146.71 61.2541 146.708 61.1723 146.71 61.0457C146.553 55.8235 145.483 53.3939 144.614 51.8945C142.512 48.2708 140.193 47.9549 138.309 48.1226C132.656 51.5592 131.424 58.0972 130.99 64.3838C130.555 70.6703 134.251 75.4481 135.048 76.2863C135.4 76.6568 136.022 76.8964 136.787 76.9903C137.753 77.109 138.948 76.9956 140.121 76.6216C144.411 75.2134 146.305 65.8087 146.715 61.2824ZM136.603 55.0797C137.504 53.2915 138.688 52.1041 140.048 52.0622C141.348 51.9465 142.352 52.7389 143.075 54.0739C143.412 54.695 143.688 55.4338 143.905 56.2532C144.833 59.7621 144.675 64.7499 143.549 68.3234C143.335 69.0027 143.085 69.631 142.802 70.1882C141.877 72.0081 140.587 73.0703 138.961 72.682C138.018 72.4093 137.251 71.8345 136.642 71.0442C136.213 70.4861 135.862 69.8204 135.585 69.0778C134.38 65.844 134.566 61.1498 135.655 57.5105C135.92 56.6259 136.239 55.8034 136.603 55.0797Z" fill="#C9C9C9"/>
<path fill-rule="evenodd" clip-rule="evenodd" d="M146.715 61.2824C146.71 61.2541 146.708 61.1723 146.71 61.0457C146.553 55.8235 145.483 53.3939 144.614 51.8945C142.512 48.2708 140.193 47.9549 138.309 48.1226C132.656 51.5592 131.424 58.0972 130.99 64.3838C130.555 70.6703 134.251 75.4481 135.048 76.2863C135.4 76.6568 136.022 76.8964 136.787 76.9903C137.753 77.109 138.948 76.9956 140.121 76.6216C144.411 75.2134 146.305 65.8087 146.715 61.2824ZM136.603 55.0797C137.504 53.2915 138.688 52.1041 140.048 52.0622C141.348 51.9465 142.352 52.7389 143.075 54.0739C143.412 54.695 143.688 55.4338 143.905 56.2532C144.833 59.7621 144.675 64.7499 143.549 68.3234C143.335 69.0027 143.085 69.631 142.802 70.1882C141.877 72.0081 140.587 73.0703 138.961 72.682C138.018 72.4093 137.251 71.8345 136.642 71.0442C136.213 70.4861 135.862 69.8204 135.585 69.0778C134.38 65.844 134.566 61.1498 135.655 57.5105C135.92 56.6259 136.239 55.8034 136.603 55.0797Z" fill="#353533"/>
<path d="M130.772 59.5222C129.033 66.0602 129.178 66.6469 128.525 66.7308C128.428 66.7432 127.902 66.8059 127.076 66.9036L126.786 66.938C126.931 70.5793 129.134 77.6876 136.787 76.9902C136.022 76.8964 135.4 76.6568 135.048 76.2863C134.251 75.4481 130.555 70.6703 130.989 64.3838C131.424 58.0972 132.656 51.5592 138.309 48.1226C136.802 48.2567 135.161 49.1284 134.53 49.5475C133.152 52.0611 131.808 55.6282 130.772 59.5222Z" fill="#C9C9C9"/>
<path d="M130.772 59.5222C129.033 66.0602 129.178 66.6469 128.525 66.7308C128.428 66.7432 127.902 66.8059 127.076 66.9036L126.786 66.938C126.931 70.5793 129.134 77.6876 136.787 76.9902C136.022 76.8964 135.4 76.6568 135.048 76.2863C134.251 75.4481 130.555 70.6703 130.989 64.3838C131.424 58.0972 132.656 51.5592 138.309 48.1226C136.802 48.2567 135.161 49.1284 134.53 49.5475C133.152 52.0611 131.808 55.6282 130.772 59.5222Z" fill="#262624"/>
<path d="M15.5437 70.9217C13.2234 70.6576 10.0046 70.1859 7.35449 69.7607C7.45112 72.4388 9.38367 78.0464 16.3409 79.0523C22.9357 79.8905 27.4553 74.2745 27.5871 72.5981C21.9656 71.79 17.1304 71.102 15.5437 70.9217Z" fill="#C9C9C9"/>
<path d="M15.5437 70.9217C13.2234 70.6576 10.0046 70.1859 7.35449 69.7607C7.45112 72.4388 9.38367 78.0464 16.3409 79.0523C22.9357 79.8905 27.4553 74.2745 27.5871 72.5981C21.9656 71.79 17.1304 71.102 15.5437 70.9217Z" fill="#262624"/>
<path d="M45.2571 36.8904C40.445 37.4268 36.9712 40.2432 35.8359 41.5843C34.6764 43.6798 36.8505 43.7637 37.3578 43.9313C37.8651 44.0989 41.4162 44.6857 45.1846 44.7695C48.9531 44.8533 49.1705 44.2666 49.9677 44.0989C50.1272 44.0654 50.4054 43.9782 50.7742 43.8475C52.2491 43.3244 55.1711 42.104 57.7221 40.8299C60.9108 39.2373 62.7951 37.8124 63.5922 36.6389C64.23 35.7001 61.249 34.7948 59.6788 34.4596C55.403 33.4537 49.9677 35.3816 45.2571 36.8904Z" fill="#FCEE76"/>
<path d="M45.2571 36.8904C40.445 37.4268 36.9712 40.2432 35.8359 41.5843C34.6764 43.6798 36.8505 43.7637 37.3578 43.9313C37.8651 44.0989 41.4162 44.6857 45.1846 44.7695C48.9531 44.8533 49.1705 44.2666 49.9677 44.0989C50.1272 44.0654 50.4054 43.9782 50.7742 43.8475C52.2491 43.3244 55.1711 42.104 57.7221 40.8299C60.9108 39.2373 62.7951 37.8124 63.5922 36.6389C64.23 35.7001 61.249 34.7948 59.6788 34.4596C55.403 33.4537 49.9677 35.3816 45.2571 36.8904Z" fill="url(#paint2_radial_1377_18633)" fill-opacity="0.2"/>
<path d="M4.67295 39.7403C4.5351 39.9907 4.26881 40.7488 3.94824 41.7488C5.22856 41.9174 8.0211 41.9867 8.94873 40.9138C9.44656 40.3379 9.99783 39.6075 10.4706 38.9284C11.099 38.0256 11.5888 37.2133 11.6301 36.9742C11.7026 36.5551 11.6301 32.1086 11.6301 31.2305C6.24458 35.9707 5.15917 38.8565 4.67295 39.7403Z" fill="#FCEE76"/>
<path d="M4.67295 39.7403C4.5351 39.9907 4.26881 40.7488 3.94824 41.7488C5.22856 41.9174 8.0211 41.9867 8.94873 40.9138C9.44656 40.3379 9.99783 39.6075 10.4706 38.9284C11.099 38.0256 11.5888 37.2133 11.6301 36.9742C11.7026 36.5551 11.6301 32.1086 11.6301 31.2305C6.24458 35.9707 5.15917 38.8565 4.67295 39.7403Z" fill="url(#paint3_radial_1377_18633)" fill-opacity="0.2"/>
<path d="M1.78776 49.2122C1.71513 49.4992 1.66076 49.7283 1.62935 49.8827C1.56394 50.2043 1.43212 50.9654 1.27051 51.9782C3.00863 53.1796 6.74579 55.7166 7.78937 56.2531C9.09385 56.9237 10.6157 56.6722 18.1527 57.9295C25.6897 59.1868 39.749 56.4207 40.981 55.6663C42.213 54.912 41.2709 53.9061 40.3288 53.5708C39.5751 53.3026 14.3207 50.5533 1.78776 49.2122Z" fill="#C0C0C0"/>
<path d="M1.78776 49.2122C1.71513 49.4992 1.66076 49.7283 1.62935 49.8827C1.56394 50.2043 1.43212 50.9654 1.27051 51.9782C3.00863 53.1796 6.74579 55.7166 7.78937 56.2531C9.09385 56.9237 10.6157 56.6722 18.1527 57.9295C25.6897 59.1868 39.749 56.4207 40.981 55.6663C42.213 54.912 41.2709 53.9061 40.3288 53.5708C39.5751 53.3026 14.3207 50.5533 1.78776 49.2122Z" fill="url(#paint4_linear_1377_18633)" fill-opacity="0.1"/>
<path d="M1.78776 49.2122C1.71513 49.4992 1.66076 49.7283 1.62935 49.8827C1.56394 50.2043 1.43212 50.9654 1.27051 51.9782C3.00863 53.1796 6.74579 55.7166 7.78937 56.2531C9.09385 56.9237 10.6157 56.6722 18.1527 57.9295C25.6897 59.1868 39.749 56.4207 40.981 55.6663C42.213 54.912 41.2709 53.9061 40.3288 53.5708C39.5751 53.3026 14.3207 50.5533 1.78776 49.2122Z" fill="url(#paint5_linear_1377_18633)" fill-opacity="0.1"/>
<path d="M53.7032 5.28875C53.6277 5.28952 53.5581 5.31187 53.4929 5.35589C51.258 6.86316 46.7504 9.96308 45.8364 10.8221C44.6768 11.9117 39.4589 15.9351 36.9225 18.8689C34.386 21.8027 29.3855 25.8261 29.5304 26.2452C29.6536 26.6016 60.8139 28.5953 70.8388 29.338C72.6003 29.4684 73.7092 29.5603 73.8826 29.598C74.1724 29.0951 88.0144 8.64273 91.6379 6.29576C91.7217 6.2369 91.7311 6.18107 91.6715 6.12811C90.5819 5.15848 66.4031 5.15742 53.7032 5.28875Z" fill="#393939"/>
<path d="M53.7032 5.28875C53.6277 5.28952 53.5581 5.31187 53.4929 5.35589C51.258 6.86316 46.7504 9.96308 45.8364 10.8221C44.6768 11.9117 39.4589 15.9351 36.9225 18.8689C34.386 21.8027 29.3855 25.8261 29.5304 26.2452C29.6536 26.6016 60.8139 28.5953 70.8388 29.338C72.6003 29.4684 73.7092 29.5603 73.8826 29.598C74.1724 29.0951 88.0144 8.64273 91.6379 6.29576C91.7217 6.2369 91.7311 6.18107 91.6715 6.12811C90.5819 5.15848 66.4031 5.15742 53.7032 5.28875Z" fill="url(#paint6_linear_1377_18633)" fill-opacity="0.2"/>
<path d="M85.1983 23.1438C85.5815 22.5291 87.0724 21.2495 89.9712 21.0483C93.5947 20.7968 94.5368 20.6292 94.9717 20.713C95.4065 20.7968 96.566 20.8807 96.711 22.6409C96.8559 24.4011 97.0009 26.2452 96.711 26.6643C96.7049 26.6732 96.6976 26.6826 96.6895 26.6925C100.344 26.4874 107.698 26.0273 107.871 25.8261C108.089 25.5746 106.06 5.62523 105.77 5.54141C105.48 5.45759 102.001 5.79287 98.5227 7.05018C95.0441 8.30749 92.5801 11.6603 91.8554 12.1632C91.2757 12.5656 87.1705 18.1984 85.1904 20.9645C85.192 21.6691 85.1946 22.4189 85.1983 23.1438Z" fill="#444444"/>
<path d="M85.1983 23.1438C85.5815 22.5291 87.0724 21.2495 89.9712 21.0483C93.5947 20.7968 94.5368 20.6292 94.9717 20.713C95.4065 20.7968 96.566 20.8807 96.711 22.6409C96.8559 24.4011 97.0009 26.2452 96.711 26.6643C96.7049 26.6732 96.6976 26.6826 96.6895 26.6925C100.344 26.4874 107.698 26.0273 107.871 25.8261C108.089 25.5746 106.06 5.62523 105.77 5.54141C105.48 5.45759 102.001 5.79287 98.5227 7.05018C95.0441 8.30749 92.5801 11.6603 91.8554 12.1632C91.2757 12.5656 87.1705 18.1984 85.1904 20.9645C85.192 21.6691 85.1946 22.4189 85.1983 23.1438Z" fill="url(#paint7_linear_1377_18633)" fill-opacity="0.2"/>
<path d="M131.208 24.228C129.951 19.7593 126.932 10.2689 124.903 8.05601C122.656 6.46342 109.684 5.28993 109.321 5.79285C109.032 6.19519 111.375 19.1647 112.583 25.5991C118.261 25.1974 126.262 24.6191 131.208 24.228Z" fill="#393939"/>
<path d="M131.208 24.228C129.951 19.7593 126.932 10.2689 124.903 8.05601C122.656 6.46342 109.684 5.28993 109.321 5.79285C109.032 6.19519 111.375 19.1647 112.583 25.5991C118.261 25.1974 126.262 24.6191 131.208 24.228Z" fill="url(#paint8_linear_1377_18633)" fill-opacity="0.2"/>
<path d="M1.02441 53.5708C2.38568 54.8281 6.00686 57.4601 9.60141 57.9295C14.0946 58.5162 17.9356 59.6059 24.0956 59.4383C30.2556 59.2706 36.8505 58.9353 39.242 57.9295C41.6335 56.9236 42.7931 55.6663 42.7931 54.7443C42.7931 53.8223 42.0684 52.6488 37.1403 52.1459C32.2123 51.6429 22.7186 50.5533 19.8923 50.218C17.0659 49.8827 2.82988 48.2901 2.12105 47.9548C1.98909 48.4381 1.87536 48.867 1.78803 49.2121C14.321 50.5533 39.5754 53.3026 40.3291 53.5708C41.2712 53.9061 42.2133 54.9119 40.9813 55.6663C39.7493 56.4207 25.6899 59.1868 18.153 57.9295C10.616 56.6722 9.09412 56.9236 7.78964 56.2531C6.74606 55.7166 3.0089 53.1795 1.27078 51.9782C1.19406 52.459 1.11063 52.9965 1.02441 53.5708Z" fill="#C2C2C2"/>
<path d="M0.035063 63.7131C0.159644 62.9205 0.723254 61.4963 2.02041 61.2823C2.05548 61.2823 2.5957 62.0608 2.86142 62.4501C3.04599 62.3916 3.2394 62.3632 3.44119 62.3719C5.3061 62.4517 34.0956 65.958 37.3575 66.5771C37.5267 66.2929 37.9373 65.7415 38.2272 65.8086C38.5896 65.8924 42.503 67.0659 43.4451 67.4012C44.3872 67.7365 47.1411 69.3291 48.7355 69.4967C49.4602 69.5805 51.1995 69.6643 51.4169 69.4967C51.6343 69.3291 52.7214 69.1614 52.7938 67.0659C52.8663 64.9704 57.2146 51.8105 59.896 49.6312C58.7944 48.7595 53.3556 45.4122 50.7739 43.8476C50.4052 43.9783 50.1269 44.0655 49.9675 44.099C49.1703 44.2667 48.9529 44.8534 45.1844 44.7696C41.4159 44.6858 37.8648 44.099 37.3575 43.9314C36.8503 43.7637 34.6761 43.6799 35.8357 41.5844L10.4709 38.9285C9.99807 39.6076 9.4468 40.338 8.94897 40.9138C8.02135 41.9867 5.2288 41.9175 3.94849 41.7489C3.37083 43.5507 2.61696 46.1375 2.12084 47.9548C2.82968 48.2901 17.0657 49.8827 19.8921 50.2179C22.7184 50.5532 32.2121 51.6429 37.1401 52.1458C42.0681 52.6487 42.7929 53.8222 42.7929 54.7443C42.7929 55.6663 41.6333 56.9236 39.2418 57.9294C36.8503 58.9353 30.2554 59.2706 24.0954 59.4382C17.9354 59.6059 14.0944 58.5162 9.60121 57.9294C6.00666 57.46 2.38548 54.8281 1.02421 53.5708C0.487113 57.1477 -0.15836 62.147 0.035063 63.7131Z" fill="#FFFFE3"/>
<path d="M0.035063 63.7131C0.159644 62.9205 0.723254 61.4963 2.02041 61.2823C2.05548 61.2823 2.5957 62.0608 2.86142 62.4501C3.04599 62.3916 3.2394 62.3632 3.44119 62.3719C5.3061 62.4517 34.0956 65.958 37.3575 66.5771C37.5267 66.2929 37.9373 65.7415 38.2272 65.8086C38.5896 65.8924 42.503 67.0659 43.4451 67.4012C44.3872 67.7365 47.1411 69.3291 48.7355 69.4967C49.4602 69.5805 51.1995 69.6643 51.4169 69.4967C51.6343 69.3291 52.7214 69.1614 52.7938 67.0659C52.8663 64.9704 57.2146 51.8105 59.896 49.6312C58.7944 48.7595 53.3556 45.4122 50.7739 43.8476C50.4052 43.9783 50.1269 44.0655 49.9675 44.099C49.1703 44.2667 48.9529 44.8534 45.1844 44.7696C41.4159 44.6858 37.8648 44.099 37.3575 43.9314C36.8503 43.7637 34.6761 43.6799 35.8357 41.5844L10.4709 38.9285C9.99807 39.6076 9.4468 40.338 8.94897 40.9138C8.02135 41.9867 5.2288 41.9175 3.94849 41.7489C3.37083 43.5507 2.61696 46.1375 2.12084 47.9548C2.82968 48.2901 17.0657 49.8827 19.8921 50.2179C22.7184 50.5532 32.2121 51.6429 37.1401 52.1458C42.0681 52.6487 42.7929 53.8222 42.7929 54.7443C42.7929 55.6663 41.6333 56.9236 39.2418 57.9294C36.8503 58.9353 30.2554 59.2706 24.0954 59.4382C17.9354 59.6059 14.0944 58.5162 9.60121 57.9294C6.00666 57.46 2.38548 54.8281 1.02421 53.5708C0.487113 57.1477 -0.15836 62.147 0.035063 63.7131Z" fill="url(#paint9_linear_1377_18633)" fill-opacity="0.4"/>
<path d="M0.035063 63.7131C0.159644 62.9205 0.723254 61.4963 2.02041 61.2823C2.05548 61.2823 2.5957 62.0608 2.86142 62.4501C3.04599 62.3916 3.2394 62.3632 3.44119 62.3719C5.3061 62.4517 34.0956 65.958 37.3575 66.5771C37.5267 66.2929 37.9373 65.7415 38.2272 65.8086C38.5896 65.8924 42.503 67.0659 43.4451 67.4012C44.3872 67.7365 47.1411 69.3291 48.7355 69.4967C49.4602 69.5805 51.1995 69.6643 51.4169 69.4967C51.6343 69.3291 52.7214 69.1614 52.7938 67.0659C52.8663 64.9704 57.2146 51.8105 59.896 49.6312C58.7944 48.7595 53.3556 45.4122 50.7739 43.8476C50.4052 43.9783 50.1269 44.0655 49.9675 44.099C49.1703 44.2667 48.9529 44.8534 45.1844 44.7696C41.4159 44.6858 37.8648 44.099 37.3575 43.9314C36.8503 43.7637 34.6761 43.6799 35.8357 41.5844L10.4709 38.9285C9.99807 39.6076 9.4468 40.338 8.94897 40.9138C8.02135 41.9867 5.2288 41.9175 3.94849 41.7489C3.37083 43.5507 2.61696 46.1375 2.12084 47.9548C2.82968 48.2901 17.0657 49.8827 19.8921 50.2179C22.7184 50.5532 32.2121 51.6429 37.1401 52.1458C42.0681 52.6487 42.7929 53.8222 42.7929 54.7443C42.7929 55.6663 41.6333 56.9236 39.2418 57.9294C36.8503 58.9353 30.2554 59.2706 24.0954 59.4382C17.9354 59.6059 14.0944 58.5162 9.60121 57.9294C6.00666 57.46 2.38548 54.8281 1.02421 53.5708C0.487113 57.1477 -0.15836 62.147 0.035063 63.7131Z" fill="url(#paint10_linear_1377_18633)" fill-opacity="0.2"/>
<path d="M54.8954 73.7717C55.2577 71.8438 57.3839 59.9096 59.2436 56.0855C59.8958 54.7444 60.3681 53.4871 61.89 51.8013C61.6411 51.3542 60.9974 50.5031 59.8958 49.6313C57.2144 51.8107 52.8662 64.9705 52.7937 67.066C52.7212 69.1616 51.6342 69.3292 51.4168 69.4968C51.1993 69.6645 49.46 69.5807 48.7353 69.4968C47.141 69.3292 44.3871 67.7366 43.445 67.4013C42.5029 67.066 38.5894 65.8926 38.2271 65.8087C37.9372 65.7417 37.5266 66.293 37.3574 66.5772C37.518 66.6077 37.6167 66.6312 37.6473 66.6469C38.2995 66.9822 43.445 68.9785 46.0539 75.2308C48.8706 75.6179 50.8216 75.8672 51.1993 75.8672C51.2715 75.8672 51.3441 75.8667 51.4168 75.8659C52.9485 75.8483 54.5494 75.6122 54.8954 73.7717Z" fill="#C9C9C9"/>
<path d="M54.8954 73.7717C55.2577 71.8438 57.3839 59.9096 59.2436 56.0855C59.8958 54.7444 60.3681 53.4871 61.89 51.8013C61.6411 51.3542 60.9974 50.5031 59.8958 49.6313C57.2144 51.8107 52.8662 64.9705 52.7937 67.066C52.7212 69.1616 51.6342 69.3292 51.4168 69.4968C51.1993 69.6645 49.46 69.5807 48.7353 69.4968C47.141 69.3292 44.3871 67.7366 43.445 67.4013C42.5029 67.066 38.5894 65.8926 38.2271 65.8087C37.9372 65.7417 37.5266 66.293 37.3574 66.5772C37.518 66.6077 37.6167 66.6312 37.6473 66.6469C38.2995 66.9822 43.445 68.9785 46.0539 75.2308C48.8706 75.6179 50.8216 75.8672 51.1993 75.8672C51.2715 75.8672 51.3441 75.8667 51.4168 75.8659C52.9485 75.8483 54.5494 75.6122 54.8954 73.7717Z" fill="url(#paint11_linear_1377_18633)" fill-opacity="0.2"/>
<path d="M0.0351562 63.713C0.110865 64.3259 0.270609 64.9561 0.479531 65.5571C0.77136 64.6077 1.61435 62.8445 2.86152 62.45C2.59579 62.0608 2.05557 61.2822 2.02051 61.2822C0.723348 61.4963 0.159738 62.9204 0.0351562 63.713Z" fill="#C9C9C9"/>
<path d="M0.0351562 63.713C0.110865 64.3259 0.270609 64.9561 0.479531 65.5571C0.77136 64.6077 1.61435 62.8445 2.86152 62.45C2.59579 62.0608 2.05557 61.2822 2.02051 61.2822C0.723348 61.4963 0.159738 62.9204 0.0351562 63.713Z" fill="url(#paint12_linear_1377_18633)" fill-opacity="0.2"/>
<path d="M0.479492 65.5571C1.07051 67.2571 2.05509 68.724 2.64407 68.9099C3.02283 69.0293 4.95577 69.3758 7.35467 69.7607C10.0048 70.1858 13.2235 70.6576 15.5439 70.9216C17.1306 71.102 21.9658 71.79 27.5872 72.598C33.9186 73.508 41.247 74.57 46.0541 75.2307C43.4452 68.9783 38.2997 66.982 37.6475 66.6468C37.6169 66.631 37.5182 66.6075 37.3576 66.577C34.0957 65.9579 5.30615 62.4517 3.44124 62.3719C3.23946 62.3632 3.04605 62.3915 2.86148 62.45C1.61431 62.8445 0.771321 64.6077 0.479492 65.5571Z" fill="#353533"/>
<path d="M0.479492 65.5571C1.07051 67.2571 2.05509 68.724 2.64407 68.9099C3.02283 69.0293 4.95577 69.3758 7.35467 69.7607C10.0048 70.1858 13.2235 70.6576 15.5439 70.9216C17.1306 71.102 21.9658 71.79 27.5872 72.598C33.9186 73.508 41.247 74.57 46.0541 75.2307C43.4452 68.9783 38.2997 66.982 37.6475 66.6468C37.6169 66.631 37.5182 66.6075 37.3576 66.577C34.0957 65.9579 5.30615 62.4517 3.44124 62.3719C3.23946 62.3632 3.04605 62.3915 2.86148 62.45C1.61431 62.8445 0.771321 64.6077 0.479492 65.5571Z" fill="url(#paint13_linear_1377_18633)" fill-opacity="0.2"/>
<path d="M147.15 35.4656C147.078 34.6274 146.788 30.4363 145.991 29.5143C145.588 29.0488 144.262 27.9422 143.02 26.8958C142.343 27.0981 141.048 27.7205 141.28 28.5923C141.57 29.6819 143.382 32.951 144.252 34.0406C145.121 35.1303 145.946 36.5552 147.273 36.8067C147.215 36.2136 147.173 35.7239 147.15 35.4656Z" fill="url(#paint14_linear_1377_18633)"/>
<path d="M147.15 35.4656C147.078 34.6274 146.788 30.4363 145.991 29.5143C145.588 29.0488 144.262 27.9422 143.02 26.8958C142.343 27.0981 141.048 27.7205 141.28 28.5923C141.57 29.6819 143.382 32.951 144.252 34.0406C145.121 35.1303 145.946 36.5552 147.273 36.8067C147.215 36.2136 147.173 35.7239 147.15 35.4656Z" fill="black" fill-opacity="0.2"/>
<path d="M28.6609 26.4477C24.7314 26.2122 16.8993 26.7411 12.3549 30.604C12.1051 30.8163 11.8636 31.0253 11.6302 31.2307C11.6302 32.1088 11.7027 36.5553 11.6302 36.9744C11.5889 37.2135 11.0991 38.0258 10.4707 38.9286L35.8355 41.5845C36.9708 40.2434 40.4447 37.427 45.2567 36.8906C49.9673 35.3818 55.4026 33.4539 59.6784 34.4598C61.0554 33.6216 62.9396 32.2804 65.9834 31.2746C69.0271 30.2688 70.1142 29.4973 70.8389 29.3382C60.814 28.5955 29.6537 26.6018 29.5305 26.2454C29.1331 26.4477 28.7092 26.548 28.6609 26.4477Z" fill="#FFFFE3"/>
<path d="M28.6609 26.4477C24.7314 26.2122 16.8993 26.7411 12.3549 30.604C12.1051 30.8163 11.8636 31.0253 11.6302 31.2307C11.6302 32.1088 11.7027 36.5553 11.6302 36.9744C11.5889 37.2135 11.0991 38.0258 10.4707 38.9286L35.8355 41.5845C36.9708 40.2434 40.4447 37.427 45.2567 36.8906C49.9673 35.3818 55.4026 33.4539 59.6784 34.4598C61.0554 33.6216 62.9396 32.2804 65.9834 31.2746C69.0271 30.2688 70.1142 29.4973 70.8389 29.3382C60.814 28.5955 29.6537 26.6018 29.5305 26.2454C29.1331 26.4477 28.7092 26.548 28.6609 26.4477Z" fill="url(#paint15_linear_1377_18633)" fill-opacity="0.2"/>
<path d="M28.6609 26.4477C24.7314 26.2122 16.8993 26.7411 12.3549 30.604C12.1051 30.8163 11.8636 31.0253 11.6302 31.2307C11.6302 32.1088 11.7027 36.5553 11.6302 36.9744C11.5889 37.2135 11.0991 38.0258 10.4707 38.9286L35.8355 41.5845C36.9708 40.2434 40.4447 37.427 45.2567 36.8906C49.9673 35.3818 55.4026 33.4539 59.6784 34.4598C61.0554 33.6216 62.9396 32.2804 65.9834 31.2746C69.0271 30.2688 70.1142 29.4973 70.8389 29.3382C60.814 28.5955 29.6537 26.6018 29.5305 26.2454C29.1331 26.4477 28.7092 26.548 28.6609 26.4477Z" fill="url(#paint16_linear_1377_18633)" fill-opacity="0.2"/>
<path d="M91.6377 6.29596C88.0142 8.64294 74.1722 29.0953 73.8824 29.5982C73.709 29.5605 72.6001 29.4686 70.8386 29.3382C70.1139 29.4973 69.0268 30.2688 65.983 31.2746C62.9393 32.2805 61.055 33.6216 59.6781 34.4598C61.2482 34.7951 64.2292 35.7003 63.5915 36.6391C62.7943 37.8126 60.9101 39.2376 57.7214 40.8302C55.1704 42.1042 52.2484 43.3247 50.7734 43.8477C53.3551 45.4123 58.7939 48.7596 59.8955 49.6313C60.7651 47.7593 63.8669 43.7639 69.3167 42.758C73.2266 42.1554 79.6958 45.4217 82.1762 54.3253C82.2139 49.9944 82.1295 40.3272 81.4918 36.3038C80.901 32.5767 80.3102 30.5068 79.9554 29.5144C79.8315 29.1675 79.7363 28.9523 79.68 28.8438C79.4626 28.4247 79.68 27.6703 80.8396 25.8263C81.3502 25.014 83.0554 22.2027 85.1878 19.0167C87.8976 14.9681 91.2972 10.3147 93.8118 8.39148C98.305 4.95483 100.262 4.11663 107.654 4.11663C107.726 4.11663 107.799 4.11659 107.871 4.11649C115.153 4.10724 120.552 3.65902 127.728 8.22384C129.395 9.48115 131.931 13.0854 132.729 14.3427C133.526 15.6001 135.99 21.3838 135.99 22.1382C136.57 22.1382 138.169 21.9705 138.896 21.8867C138.291 20.882 137.672 19.8252 137.334 19.1206C135.92 16.55 132.685 10.8893 131.062 8.81058C128.525 6.21214 127.366 5.79304 124.757 4.70337C122.148 3.6137 113.669 2.69168 112.582 2.52403C111.495 2.35639 109.031 2.44021 102.146 2.52403C96.6382 2.59109 92.868 4.95483 91.6713 6.12832C91.7309 6.18128 91.7215 6.2371 91.6377 6.29596Z" fill="#F3F2D8"/>
<path d="M91.6377 6.29596C88.0142 8.64294 74.1722 29.0953 73.8824 29.5982C73.709 29.5605 72.6001 29.4686 70.8386 29.3382C70.1139 29.4973 69.0268 30.2688 65.983 31.2746C62.9393 32.2805 61.055 33.6216 59.6781 34.4598C61.2482 34.7951 64.2292 35.7003 63.5915 36.6391C62.7943 37.8126 60.9101 39.2376 57.7214 40.8302C55.1704 42.1042 52.2484 43.3247 50.7734 43.8477C53.3551 45.4123 58.7939 48.7596 59.8955 49.6313C60.7651 47.7593 63.8669 43.7639 69.3167 42.758C73.2266 42.1554 79.6958 45.4217 82.1762 54.3253C82.2139 49.9944 82.1295 40.3272 81.4918 36.3038C80.901 32.5767 80.3102 30.5068 79.9554 29.5144C79.8315 29.1675 79.7363 28.9523 79.68 28.8438C79.4626 28.4247 79.68 27.6703 80.8396 25.8263C81.3502 25.014 83.0554 22.2027 85.1878 19.0167C87.8976 14.9681 91.2972 10.3147 93.8118 8.39148C98.305 4.95483 100.262 4.11663 107.654 4.11663C107.726 4.11663 107.799 4.11659 107.871 4.11649C115.153 4.10724 120.552 3.65902 127.728 8.22384C129.395 9.48115 131.931 13.0854 132.729 14.3427C133.526 15.6001 135.99 21.3838 135.99 22.1382C136.57 22.1382 138.169 21.9705 138.896 21.8867C138.291 20.882 137.672 19.8252 137.334 19.1206C135.92 16.55 132.685 10.8893 131.062 8.81058C128.525 6.21214 127.366 5.79304 124.757 4.70337C122.148 3.6137 113.669 2.69168 112.582 2.52403C111.495 2.35639 109.031 2.44021 102.146 2.52403C96.6382 2.59109 92.868 4.95483 91.6713 6.12832C91.7309 6.18128 91.7215 6.2371 91.6377 6.29596Z" fill="url(#paint17_linear_1377_18633)" fill-opacity="0.2"/>
<path d="M91.6377 6.29596C88.0142 8.64294 74.1722 29.0953 73.8824 29.5982C73.709 29.5605 72.6001 29.4686 70.8386 29.3382C70.1139 29.4973 69.0268 30.2688 65.983 31.2746C62.9393 32.2805 61.055 33.6216 59.6781 34.4598C61.2482 34.7951 64.2292 35.7003 63.5915 36.6391C62.7943 37.8126 60.9101 39.2376 57.7214 40.8302C55.1704 42.1042 52.2484 43.3247 50.7734 43.8477C53.3551 45.4123 58.7939 48.7596 59.8955 49.6313C60.7651 47.7593 63.8669 43.7639 69.3167 42.758C73.2266 42.1554 79.6958 45.4217 82.1762 54.3253C82.2139 49.9944 82.1295 40.3272 81.4918 36.3038C80.901 32.5767 80.3102 30.5068 79.9554 29.5144C79.8315 29.1675 79.7363 28.9523 79.68 28.8438C79.4626 28.4247 79.68 27.6703 80.8396 25.8263C81.3502 25.014 83.0554 22.2027 85.1878 19.0167C87.8976 14.9681 91.2972 10.3147 93.8118 8.39148C98.305 4.95483 100.262 4.11663 107.654 4.11663C107.726 4.11663 107.799 4.11659 107.871 4.11649C115.153 4.10724 120.552 3.65902 127.728 8.22384C129.395 9.48115 131.931 13.0854 132.729 14.3427C133.526 15.6001 135.99 21.3838 135.99 22.1382C136.57 22.1382 138.169 21.9705 138.896 21.8867C138.291 20.882 137.672 19.8252 137.334 19.1206C135.92 16.55 132.685 10.8893 131.062 8.81058C128.525 6.21214 127.366 5.79304 124.757 4.70337C122.148 3.6137 113.669 2.69168 112.582 2.52403C111.495 2.35639 109.031 2.44021 102.146 2.52403C96.6382 2.59109 92.868 4.95483 91.6713 6.12832C91.7309 6.18128 91.7215 6.2371 91.6377 6.29596Z" fill="url(#paint18_linear_1377_18633)" fill-opacity="0.2"/>
<path d="M137.077 18.4499C136.933 17.5279 132.367 7.55318 129.178 5.29002C126.002 3.03597 113.84 1.69655 112.239 1.52017L112.22 1.51809C110.698 1.35044 96.8562 0.00931336 92.8703 0.00931336C88.8844 0.00931336 74.1003 -0.0745072 71.4914 0.260776C68.8824 0.596059 66.1285 0.176952 61.6354 1.6019C57.1422 3.02685 54.1709 3.86505 47.5035 8.64283C44.4212 10.8516 39.9643 15.0033 35.9675 18.9529C34.3888 20.5128 32.882 22.0413 31.56 23.4059C30.4372 24.565 29.4479 25.6059 28.6611 26.4476C28.7094 26.5478 29.1334 26.4476 29.5308 26.2453C29.3858 25.8261 34.3863 21.8028 36.9228 18.869C39.4593 15.9352 44.6772 11.9118 45.8367 10.8222C46.7507 9.96317 51.2584 6.86325 53.4933 5.35599C53.5585 5.31197 53.6281 5.28962 53.7036 5.28885C66.4035 5.15752 90.5822 5.15857 91.6719 6.12821C92.8685 4.95472 96.6388 2.59098 102.147 2.52392C109.031 2.4401 111.495 2.35628 112.582 2.52392C113.669 2.69157 122.148 3.61359 124.757 4.70326C127.366 5.79293 128.526 6.21203 131.062 8.81047C132.686 10.8892 135.92 16.5499 137.334 19.1205C137.193 18.8253 137.1 18.5919 137.077 18.4499Z" fill="#FFFFE3"/>
<path d="M137.077 18.4499C136.933 17.5279 132.367 7.55318 129.178 5.29002C126.002 3.03597 113.84 1.69655 112.239 1.52017L112.22 1.51809C110.698 1.35044 96.8562 0.00931336 92.8703 0.00931336C88.8844 0.00931336 74.1003 -0.0745072 71.4914 0.260776C68.8824 0.596059 66.1285 0.176952 61.6354 1.6019C57.1422 3.02685 54.1709 3.86505 47.5035 8.64283C44.4212 10.8516 39.9643 15.0033 35.9675 18.9529C34.3888 20.5128 32.882 22.0413 31.56 23.4059C30.4372 24.565 29.4479 25.6059 28.6611 26.4476C28.7094 26.5478 29.1334 26.4476 29.5308 26.2453C29.3858 25.8261 34.3863 21.8028 36.9228 18.869C39.4593 15.9352 44.6772 11.9118 45.8367 10.8222C46.7507 9.96317 51.2584 6.86325 53.4933 5.35599C53.5585 5.31197 53.6281 5.28962 53.7036 5.28885C66.4035 5.15752 90.5822 5.15857 91.6719 6.12821C92.8685 4.95472 96.6388 2.59098 102.147 2.52392C109.031 2.4401 111.495 2.35628 112.582 2.52392C113.669 2.69157 122.148 3.61359 124.757 4.70326C127.366 5.79293 128.526 6.21203 131.062 8.81047C132.686 10.8892 135.92 16.5499 137.334 19.1205C137.193 18.8253 137.1 18.5919 137.077 18.4499Z" fill="url(#paint19_linear_1377_18633)" fill-opacity="0.3"/>
<path d="M30.8355 22.5572C30.8355 23.0937 31.3186 23.3467 31.5602 23.406C32.8822 22.0414 34.389 20.5129 35.9677 18.953C35.6647 18.45 35.4736 18.3662 35.2562 18.1986C35.0388 18.0309 33.372 18.2824 32.2124 18.5339C31.0529 18.7853 31.0529 19.2044 30.908 19.3721C30.763 19.5397 30.8355 21.8867 30.8355 22.5572Z" fill="#D5D5D5"/>
<path d="M30.8355 22.5572C30.8355 23.0937 31.3186 23.3467 31.5602 23.406C32.8822 22.0414 34.389 20.5129 35.9677 18.953C35.6647 18.45 35.4736 18.3662 35.2562 18.1986C35.0388 18.0309 33.372 18.2824 32.2124 18.5339C31.0529 18.7853 31.0529 19.2044 30.908 19.3721C30.763 19.5397 30.8355 21.8867 30.8355 22.5572Z" fill="url(#paint20_linear_1377_18633)" fill-opacity="0.3"/>
<path d="M85.2606 27.0833C85.2606 27.4186 85.333 27.8377 86.3476 28.7598V28.9274C87.797 28.9832 91.0147 29.0615 92.2902 28.9274C93.0381 28.8486 93.9933 28.438 94.8267 27.9809C95.7323 27.4842 96.494 26.9326 96.6895 26.6924C96.6976 26.6825 96.7049 26.6731 96.711 26.6642C97.0008 26.2451 96.8559 24.4011 96.711 22.6408C96.566 20.8806 95.4065 20.7968 94.9717 20.713C94.5368 20.6291 93.5947 20.7968 89.9712 21.0482C87.0723 21.2494 85.5815 22.529 85.1982 23.1438C85.2084 25.1085 85.2274 26.889 85.2606 27.0833Z" fill="#D5D5D5"/>
<path d="M85.2606 27.0833C85.2606 27.4186 85.333 27.8377 86.3476 28.7598V28.9274C87.797 28.9832 91.0147 29.0615 92.2902 28.9274C93.0381 28.8486 93.9933 28.438 94.8267 27.9809C95.7323 27.4842 96.494 26.9326 96.6895 26.6924C96.6976 26.6825 96.7049 26.6731 96.711 26.6642C97.0008 26.2451 96.8559 24.4011 96.711 22.6408C96.566 20.8806 95.4065 20.7968 94.9717 20.713C94.5368 20.6291 93.5947 20.7968 89.9712 21.0482C87.0723 21.2494 85.5815 22.529 85.1982 23.1438C85.2084 25.1085 85.2274 26.889 85.2606 27.0833Z" fill="url(#paint21_linear_1377_18633)" fill-opacity="0.2"/>
<path d="M85.2606 27.0833C85.2606 27.4186 85.333 27.8377 86.3476 28.7598V28.9274C87.797 28.9832 91.0147 29.0615 92.2902 28.9274C93.0381 28.8486 93.9933 28.438 94.8267 27.9809C95.7323 27.4842 96.494 26.9326 96.6895 26.6924C96.6976 26.6825 96.7049 26.6731 96.711 26.6642C97.0008 26.2451 96.8559 24.4011 96.711 22.6408C96.566 20.8806 95.4065 20.7968 94.9717 20.713C94.5368 20.6291 93.5947 20.7968 89.9712 21.0482C87.0723 21.2494 85.5815 22.529 85.1982 23.1438C85.2084 25.1085 85.2274 26.889 85.2606 27.0833Z" fill="url(#paint22_radial_1377_18633)" fill-opacity="0.15"/>
<path d="M83.5211 27.8379C83.4051 28.1061 83.3761 29.0114 83.3761 29.4305C84.3183 30.5202 85.8402 29.3467 85.8402 29.0114H86.3475V28.9276V28.7599C85.3329 27.8379 85.2604 27.4188 85.2604 27.0835C84.4632 26.6644 83.1587 26.9159 83.0138 27.1674C82.8689 27.4188 83.666 27.5026 83.5211 27.8379Z" fill="#C9C9C9"/>
<path d="M83.5211 27.8379C83.4051 28.1061 83.3761 29.0114 83.3761 29.4305C84.3183 30.5202 85.8402 29.3467 85.8402 29.0114H86.3475V28.9276V28.7599C85.3329 27.8379 85.2604 27.4188 85.2604 27.0835C84.4632 26.6644 83.1587 26.9159 83.0138 27.1674C82.8689 27.4188 83.666 27.5026 83.5211 27.8379Z" fill="#D5D5D5"/>
<path fill-rule="evenodd" clip-rule="evenodd" d="M82.2896 54.7443C82.4346 58.0133 82.5795 68.4071 82.507 69.4967C82.465 70.1284 98.4313 68.1568 113.017 66.2046C112.776 64.4801 112.307 60.9303 112.365 60.5279C112.437 60.025 112.365 59.103 112.365 58.1809C112.365 57.2589 113.959 32.7618 110.843 26.947C109.54 27.1284 99.8283 27.7007 94.8271 27.981C93.9936 28.4382 93.0385 28.8487 92.2906 28.9275C91.0151 29.0616 87.7974 28.9834 86.348 28.9275V29.0114H85.8407C85.8407 29.3466 84.3188 30.5201 83.3767 29.4305L79.9561 29.5143C80.3109 30.5067 80.9017 32.5766 81.4924 36.3038C82.1302 40.3271 82.2145 49.9943 82.1768 54.3252C82.2154 54.4635 82.2529 54.6031 82.2896 54.7443ZM104.031 34.795C104.321 34.4597 105.215 34.2082 105.625 34.1244C105.649 33.5655 105.901 32.448 106.712 32.448C107.524 32.448 107.899 33.5295 107.985 34.0701C108.751 34.0535 109.415 34.0406 109.611 34.0406C110.118 34.0406 110.336 34.3759 110.263 34.795C110.191 35.2141 109.104 35.717 108.814 35.8846C108.73 35.9333 108.396 35.9748 107.944 36.0094C107.944 36.2179 107.509 37.0581 106.93 37.142C106.466 37.209 105.963 36.4828 105.77 36.1115C105.205 36.1279 104.715 36.1361 104.466 36.1361C103.669 36.1361 103.669 35.2141 104.031 34.795Z" fill="#FFFFE3"/>
<path fill-rule="evenodd" clip-rule="evenodd" d="M82.2896 54.7443C82.4346 58.0133 82.5795 68.4071 82.507 69.4967C82.465 70.1284 98.4313 68.1568 113.017 66.2046C112.776 64.4801 112.307 60.9303 112.365 60.5279C112.437 60.025 112.365 59.103 112.365 58.1809C112.365 57.2589 113.959 32.7618 110.843 26.947C109.54 27.1284 99.8283 27.7007 94.8271 27.981C93.9936 28.4382 93.0385 28.8487 92.2906 28.9275C91.0151 29.0616 87.7974 28.9834 86.348 28.9275V29.0114H85.8407C85.8407 29.3466 84.3188 30.5201 83.3767 29.4305L79.9561 29.5143C80.3109 30.5067 80.9017 32.5766 81.4924 36.3038C82.1302 40.3271 82.2145 49.9943 82.1768 54.3252C82.2154 54.4635 82.2529 54.6031 82.2896 54.7443ZM104.031 34.795C104.321 34.4597 105.215 34.2082 105.625 34.1244C105.649 33.5655 105.901 32.448 106.712 32.448C107.524 32.448 107.899 33.5295 107.985 34.0701C108.751 34.0535 109.415 34.0406 109.611 34.0406C110.118 34.0406 110.336 34.3759 110.263 34.795C110.191 35.2141 109.104 35.717 108.814 35.8846C108.73 35.9333 108.396 35.9748 107.944 36.0094C107.944 36.2179 107.509 37.0581 106.93 37.142C106.466 37.209 105.963 36.4828 105.77 36.1115C105.205 36.1279 104.715 36.1361 104.466 36.1361C103.669 36.1361 103.669 35.2141 104.031 34.795Z" fill="url(#paint23_radial_1377_18633)" fill-opacity="0.15"/>
<path fill-rule="evenodd" clip-rule="evenodd" d="M127.004 64.2849C127.801 56.69 131.004 41.182 137.44 39.908C137.762 39.8439 138.074 39.7883 138.374 39.7403C137.956 28.6089 135.016 25.2427 133.599 24.9512L111.01 26.8319C111.01 26.8688 111.004 26.8975 110.988 26.9158C110.98 26.9241 110.931 26.9347 110.843 26.9469C113.959 32.7617 112.365 57.2588 112.365 58.1809C112.365 59.1029 112.437 60.0249 112.365 60.5278C112.307 60.9302 112.775 64.48 113.017 66.2045C118.09 65.5256 122.996 64.8488 127.004 64.2849ZM130.845 33.37C129.758 32.5317 131.062 31.6935 131.569 31.6097C131.623 31.6008 131.866 31.5889 132.222 31.5769C132.197 30.973 132.367 29.7824 133.236 29.8495C134.106 29.9165 134.42 30.9958 134.468 31.5272C135.133 31.5189 135.788 31.5167 136.28 31.5259C136.611 31.5301 136.787 31.6097 136.86 31.945C136.932 32.2803 135.628 33.1185 135.265 33.2861C135.186 33.323 134.917 33.3482 134.541 33.3644C134.468 33.7015 134.164 34.3926 133.526 34.4596C132.888 34.5267 132.504 33.7743 132.391 33.3897C131.817 33.3865 131.263 33.3785 130.845 33.37Z" fill="#FFFFE3"/>
<path fill-rule="evenodd" clip-rule="evenodd" d="M127.004 64.2849C127.801 56.69 131.004 41.182 137.44 39.908C137.762 39.8439 138.074 39.7883 138.374 39.7403C137.956 28.6089 135.016 25.2427 133.599 24.9512L111.01 26.8319C111.01 26.8688 111.004 26.8975 110.988 26.9158C110.98 26.9241 110.931 26.9347 110.843 26.9469C113.959 32.7617 112.365 57.2588 112.365 58.1809C112.365 59.1029 112.437 60.0249 112.365 60.5278C112.307 60.9302 112.775 64.48 113.017 66.2045C118.09 65.5256 122.996 64.8488 127.004 64.2849ZM130.845 33.37C129.758 32.5317 131.062 31.6935 131.569 31.6097C131.623 31.6008 131.866 31.5889 132.222 31.5769C132.197 30.973 132.367 29.7824 133.236 29.8495C134.106 29.9165 134.42 30.9958 134.468 31.5272C135.133 31.5189 135.788 31.5167 136.28 31.5259C136.611 31.5301 136.787 31.6097 136.86 31.945C136.932 32.2803 135.628 33.1185 135.265 33.2861C135.186 33.323 134.917 33.3482 134.541 33.3644C134.468 33.7015 134.164 34.3926 133.526 34.4596C132.888 34.5267 132.504 33.7743 132.391 33.3897C131.817 33.3865 131.263 33.3785 130.845 33.37Z" fill="url(#paint24_radial_1377_18633)" fill-opacity="0.1"/>
<path d="M80.84 25.8262C79.6804 27.6702 79.463 28.4246 79.6804 28.8437C79.7367 28.9522 79.8319 29.1674 79.9558 29.5143L83.3764 29.4305C83.3764 29.0114 83.4054 28.1061 83.5214 27.8379C83.6663 27.5026 82.8691 27.4188 83.0141 27.1673C83.159 26.9159 84.4635 26.6644 85.2607 27.0835C85.2275 26.8892 85.2085 25.1087 85.1984 23.1439C85.1947 22.419 85.1921 21.6692 85.1905 20.9646C85.1889 20.2424 85.1882 19.568 85.1882 19.0166C83.0558 22.2026 81.3506 25.014 80.84 25.8262Z" fill="#7F7F7F"/>
<path d="M80.84 25.8262C79.6804 27.6702 79.463 28.4246 79.6804 28.8437C79.7367 28.9522 79.8319 29.1674 79.9558 29.5143L83.3764 29.4305C83.3764 29.0114 83.4054 28.1061 83.5214 27.8379C83.6663 27.5026 82.8691 27.4188 83.0141 27.1673C83.159 26.9159 84.4635 26.6644 85.2607 27.0835C85.2275 26.8892 85.2085 25.1087 85.1984 23.1439C85.1947 22.419 85.1921 21.6692 85.1905 20.9646C85.1889 20.2424 85.1882 19.568 85.1882 19.0166C83.0558 22.2026 81.3506 25.014 80.84 25.8262Z" fill="url(#paint25_linear_1377_18633)" fill-opacity="0.2"/>
<path d="M107.654 4.11659C100.262 4.11659 98.3057 4.9548 93.8125 8.39144C91.2979 10.3147 87.8983 14.968 85.1885 19.0166C85.1885 19.568 85.1892 20.2424 85.1908 20.9646C87.1708 18.1985 91.276 12.5657 91.8558 12.1634C92.5805 11.6604 95.0445 8.30762 98.5231 7.05031C102.002 5.793 105.48 5.45772 105.77 5.54154C106.06 5.62536 108.089 25.5748 107.872 25.8262C108.717 25.8262 110.437 25.8095 110.553 25.7424C110.669 25.6753 108.814 11.2971 107.872 4.11646C107.8 4.11656 107.727 4.11659 107.654 4.11659Z" fill="#7F7F7F"/>
<path d="M107.654 4.11659C100.262 4.11659 98.3057 4.9548 93.8125 8.39144C91.2979 10.3147 87.8983 14.968 85.1885 19.0166C85.1885 19.568 85.1892 20.2424 85.1908 20.9646C87.1708 18.1985 91.276 12.5657 91.8558 12.1634C92.5805 11.6604 95.0445 8.30762 98.5231 7.05031C102.002 5.793 105.48 5.45772 105.77 5.54154C106.06 5.62536 108.089 25.5748 107.872 25.8262C108.717 25.8262 110.437 25.8095 110.553 25.7424C110.669 25.6753 108.814 11.2971 107.872 4.11646C107.8 4.11656 107.727 4.11659 107.654 4.11659Z" fill="url(#paint26_linear_1377_18633)" fill-opacity="0.2"/>
<path d="M132.73 14.3426C131.932 13.0853 129.396 9.48099 127.729 8.22368C120.553 3.65886 115.154 4.10708 107.872 4.11634C108.814 11.297 110.669 25.6752 110.553 25.7423C111.186 25.6979 111.866 25.6499 112.583 25.5991C111.375 19.1647 109.032 6.19522 109.321 5.79288C109.684 5.28996 122.656 6.46345 124.903 8.05604C126.932 10.2689 129.951 19.7593 131.208 24.228C133.896 24.0154 135.682 23.858 135.701 23.8144C135.727 23.7549 135.772 23.5174 135.821 23.2277C135.883 22.8639 135.95 22.4178 135.991 22.138C135.991 21.3836 133.527 15.5999 132.73 14.3426Z" fill="#7F7F7F"/>
<path d="M132.73 14.3426C131.932 13.0853 129.396 9.48099 127.729 8.22368C120.553 3.65886 115.154 4.10708 107.872 4.11634C108.814 11.297 110.669 25.6752 110.553 25.7423C111.186 25.6979 111.866 25.6499 112.583 25.5991C111.375 19.1647 109.032 6.19522 109.321 5.79288C109.684 5.28996 122.656 6.46345 124.903 8.05604C126.932 10.2689 129.951 19.7593 131.208 24.228C133.896 24.0154 135.682 23.858 135.701 23.8144C135.727 23.7549 135.772 23.5174 135.821 23.2277C135.883 22.8639 135.95 22.4178 135.991 22.138C135.991 21.3836 133.527 15.5999 132.73 14.3426Z" fill="url(#paint27_linear_1377_18633)" fill-opacity="0.2"/>
<path d="M138.896 21.8865C138.169 21.9703 136.57 22.1379 135.99 22.1379C135.95 22.4177 135.882 22.8638 135.821 23.2276C135.771 23.5173 135.726 23.7548 135.7 23.8143C135.681 23.8579 133.895 24.0154 131.207 24.2279C126.261 24.619 118.26 25.1974 112.582 25.5991C111.865 25.6499 111.185 25.6978 110.553 25.7422C110.72 26.0319 111.009 26.597 111.01 26.8319L133.598 24.9511L140.411 24.3838C140.132 23.9017 139.521 22.9218 138.896 21.8865Z" fill="#7F7F7F"/>
<path d="M138.896 21.8865C138.169 21.9703 136.57 22.1379 135.99 22.1379C135.95 22.4177 135.882 22.8638 135.821 23.2276C135.771 23.5173 135.726 23.7548 135.7 23.8143C135.681 23.8579 133.895 24.0154 131.207 24.2279C126.261 24.619 118.26 25.1974 112.582 25.5991C111.865 25.6499 111.185 25.6978 110.553 25.7422C110.72 26.0319 111.009 26.597 111.01 26.8319L133.598 24.9511L140.411 24.3838C140.132 23.9017 139.521 22.9218 138.896 21.8865Z" fill="url(#paint28_linear_1377_18633)" fill-opacity="0.2"/>
<path d="M107.872 25.8263C107.698 26.0274 100.345 26.4876 96.6899 26.6926C96.4944 26.9329 95.7327 27.4844 94.8271 27.9811C99.8284 27.7008 109.54 27.1285 110.843 26.9471C110.931 26.9349 110.981 26.9243 110.988 26.9159C111.004 26.8976 111.011 26.869 111.011 26.8321C111.01 26.5972 110.72 26.0321 110.553 25.7424C110.437 25.8095 108.717 25.8263 107.872 25.8263Z" fill="#7F7F7F"/>
<path d="M107.872 25.8263C107.698 26.0274 100.345 26.4876 96.6899 26.6926C96.4944 26.9329 95.7327 27.4844 94.8271 27.9811C99.8284 27.7008 109.54 27.1285 110.843 26.9471C110.931 26.9349 110.981 26.9243 110.988 26.9159C111.004 26.8976 111.011 26.869 111.011 26.8321C111.01 26.5972 110.72 26.0321 110.553 25.7424C110.437 25.8095 108.717 25.8263 107.872 25.8263Z" fill="url(#paint29_linear_1377_18633)" fill-opacity="0.2"/>
<path d="M147.948 59.8574C148.31 59.0192 149.035 54.4929 148.962 52.0621C148.89 49.6313 148.093 42.2551 147.803 40.914C147.603 39.9864 147.403 38.1367 147.274 36.8068C145.946 36.5553 145.121 35.1303 144.252 34.0407C143.382 32.951 141.57 29.682 141.281 28.5923C141.049 27.7206 142.343 27.0981 143.02 26.8958C141.801 25.8698 140.663 24.9017 140.556 24.6528C140.534 24.6026 140.484 24.5104 140.411 24.384L133.599 24.9513C135.016 25.2429 137.956 28.6091 138.374 39.7405C144.252 39.0605 146.147 41.9646 146.426 42.2551C146.898 42.7486 147.295 44.3598 147.368 44.6859C147.44 45.0118 148.348 48.4484 147.756 52.2298C147.787 52.4576 147.803 52.6314 147.803 52.7327C147.803 53.4032 147.658 60.2965 147.368 60.8313C147.581 60.5528 147.801 60.1982 147.948 59.8574Z" fill="#FFFFE3"/>
<path d="M147.948 59.8574C148.31 59.0192 149.035 54.4929 148.962 52.0621C148.89 49.6313 148.093 42.2551 147.803 40.914C147.603 39.9864 147.403 38.1367 147.274 36.8068C145.946 36.5553 145.121 35.1303 144.252 34.0407C143.382 32.951 141.57 29.682 141.281 28.5923C141.049 27.7206 142.343 27.0981 143.02 26.8958C141.801 25.8698 140.663 24.9017 140.556 24.6528C140.534 24.6026 140.484 24.5104 140.411 24.384L133.599 24.9513C135.016 25.2429 137.956 28.6091 138.374 39.7405C144.252 39.0605 146.147 41.9646 146.426 42.2551C146.898 42.7486 147.295 44.3598 147.368 44.6859C147.44 45.0118 148.348 48.4484 147.756 52.2298C147.787 52.4576 147.803 52.6314 147.803 52.7327C147.803 53.4032 147.658 60.2965 147.368 60.8313C147.581 60.5528 147.801 60.1982 147.948 59.8574Z" fill="url(#paint30_linear_1377_18633)" fill-opacity="0.2"/>
<path d="M69.7515 47.1165C76.188 46.28 78.6552 51.0361 79.3136 52.3053L79.3177 52.3134C79.9699 53.5707 81.1669 56.9327 81.1669 62.7071C81.1669 69.9995 80.0424 72.4303 80.2598 72.4303C80.4772 72.4303 107.002 69.329 107.436 69.2452C107.799 69.1751 121.785 67.5295 126.786 66.9377L127.076 66.9034C127.414 66.3988 127.693 65.2962 127.946 64.3836C127.986 64.3366 128.034 64.2503 128.087 64.1321C127.734 64.1819 127.372 64.2328 127.003 64.2848C122.996 64.8488 118.09 65.5255 113.017 66.2045C98.4307 68.1567 82.4644 70.1283 82.5064 69.4966C82.5789 68.4069 82.4339 58.0132 82.289 54.7442C82.2523 54.603 82.2148 54.4634 82.1762 54.3251C79.6958 45.4215 73.2267 42.1552 69.3167 42.7578C63.8669 43.7637 60.7652 47.7591 59.8955 49.6311C60.9971 50.5029 61.6407 51.354 61.8896 51.8011C63.5173 49.5035 65.7243 47.6397 69.7515 47.1165Z" fill="#C9C9C9"/>
<path d="M69.7515 47.1165C76.188 46.28 78.6552 51.0361 79.3136 52.3053L79.3177 52.3134C79.9699 53.5707 81.1669 56.9327 81.1669 62.7071C81.1669 69.9995 80.0424 72.4303 80.2598 72.4303C80.4772 72.4303 107.002 69.329 107.436 69.2452C107.799 69.1751 121.785 67.5295 126.786 66.9377L127.076 66.9034C127.414 66.3988 127.693 65.2962 127.946 64.3836C127.986 64.3366 128.034 64.2503 128.087 64.1321C127.734 64.1819 127.372 64.2328 127.003 64.2848C122.996 64.8488 118.09 65.5255 113.017 66.2045C98.4307 68.1567 82.4644 70.1283 82.5064 69.4966C82.5789 68.4069 82.4339 58.0132 82.289 54.7442C82.2523 54.603 82.2148 54.4634 82.1762 54.3251C79.6958 45.4215 73.2267 42.1552 69.3167 42.7578C63.8669 43.7637 60.7652 47.7591 59.8955 49.6311C60.9971 50.5029 61.6407 51.354 61.8896 51.8011C63.5173 49.5035 65.7243 47.6397 69.7515 47.1165Z" fill="url(#paint31_linear_1377_18633)" fill-opacity="0.2"/>
<path d="M129.251 60.0249C129.613 58.3485 131.352 52.7325 131.787 51.7266C132.222 50.7208 134.541 45.3563 136.86 43.8475C138.129 43.0215 140.556 41.5369 142.513 42.4225C144.614 43.3736 145.774 44.8533 146.426 46.5297C146.979 47.953 147.585 50.9474 147.756 52.2296C148.348 48.4482 147.44 45.0116 147.368 44.6857C147.295 44.3596 146.898 42.7484 146.426 42.2549C146.148 41.9644 144.252 39.0603 138.374 39.7403C138.074 39.7882 137.763 39.8439 137.44 39.9079C131.004 41.182 127.801 56.69 127.004 64.2848C127.373 64.2328 127.734 64.1819 128.087 64.1321C128.413 63.4047 128.939 61.4668 129.251 60.0249Z" fill="#C9C9C9"/>
<path d="M129.251 60.0249C129.613 58.3485 131.352 52.7325 131.787 51.7266C132.222 50.7208 134.541 45.3563 136.86 43.8475C138.129 43.0215 140.556 41.5369 142.513 42.4225C144.614 43.3736 145.774 44.8533 146.426 46.5297C146.979 47.953 147.585 50.9474 147.756 52.2296C148.348 48.4482 147.44 45.0116 147.368 44.6857C147.295 44.3596 146.898 42.7484 146.426 42.2549C146.148 41.9644 144.252 39.0603 138.374 39.7403C138.074 39.7882 137.763 39.8439 137.44 39.9079C131.004 41.182 127.801 56.69 127.004 64.2848C127.373 64.2328 127.734 64.1819 128.087 64.1321C128.413 63.4047 128.939 61.4668 129.251 60.0249Z" fill="url(#paint32_linear_1377_18633)" fill-opacity="0.2"/>
<path d="M128.526 66.7306C129.178 66.6467 129.033 66.06 130.772 59.522C131.808 55.628 133.152 52.0609 134.53 49.5473C135.439 47.887 136.479 46.8914 137.232 46.1707L137.295 46.1107C138.781 44.6857 140.411 44.6857 140.918 44.6857C141.425 44.6857 143.985 45.1253 145.483 47.6194C146.536 49.3703 146.926 50.46 147.078 52.2296C147.201 53.6451 146.724 59.6692 146.71 61.0455C146.711 61.1233 146.714 61.2021 146.715 61.2822C146.759 61.481 147.058 61.2373 147.368 60.8311C147.658 60.2963 147.803 53.4031 147.803 52.7325C147.803 52.6313 147.787 52.4574 147.756 52.2296C147.585 50.9475 146.979 47.9531 146.426 46.5298C145.773 44.8534 144.614 43.3736 142.512 42.4226C140.556 41.5369 138.129 43.0216 136.86 43.8475C134.541 45.3563 132.222 50.7208 131.787 51.7267C131.352 52.7325 129.613 58.3485 129.25 60.0249C128.939 61.4668 128.413 63.4047 128.087 64.1321C128.034 64.2503 127.986 64.3366 127.946 64.3836C127.693 65.2962 127.414 66.3988 127.076 66.9034C127.902 66.8057 128.428 66.743 128.526 66.7306Z" fill="#C9C9C9"/>
<path d="M128.526 66.7306C129.178 66.6467 129.033 66.06 130.772 59.522C131.808 55.628 133.152 52.0609 134.53 49.5473C135.439 47.887 136.479 46.8914 137.232 46.1707L137.295 46.1107C138.781 44.6857 140.411 44.6857 140.918 44.6857C141.425 44.6857 143.985 45.1253 145.483 47.6194C146.536 49.3703 146.926 50.46 147.078 52.2296C147.201 53.6451 146.724 59.6692 146.71 61.0455C146.711 61.1233 146.714 61.2021 146.715 61.2822C146.759 61.481 147.058 61.2373 147.368 60.8311C147.658 60.2963 147.803 53.4031 147.803 52.7325C147.803 52.6313 147.787 52.4574 147.756 52.2296C147.585 50.9475 146.979 47.9531 146.426 46.5298C145.773 44.8534 144.614 43.3736 142.512 42.4226C140.556 41.5369 138.129 43.0216 136.86 43.8475C134.541 45.3563 132.222 50.7208 131.787 51.7267C131.352 52.7325 129.613 58.3485 129.25 60.0249C128.939 61.4668 128.413 63.4047 128.087 64.1321C128.034 64.2503 127.986 64.3366 127.946 64.3836C127.693 65.2962 127.414 66.3988 127.076 66.9034C127.902 66.8057 128.428 66.743 128.526 66.7306Z" fill="#BFBFBF"/>
<path d="M59.2438 56.0854C57.3841 59.9095 55.2579 71.8437 54.8956 73.7716C54.5496 75.6121 52.9487 75.8481 51.417 75.8657C52.2598 75.9636 53.9484 76.1085 54.7506 76.0104C54.8681 75.9962 54.9665 75.9765 55.0405 75.9509C55.7652 75.6994 56.9972 74.2745 57.4321 70.5864C57.8543 67.0047 59.0967 59.4706 62.2876 55.5072C62.3826 55.3894 62.4791 55.2747 62.5775 55.1634C65.9836 51.3076 66.1286 51.3914 69.1723 50.218C71.3465 49.5474 74.0279 50.3018 75.1149 51.14C76.202 51.9782 78.9559 54.9863 79.3183 59.9318C79.6806 64.8772 79.8629 67.7271 79.0284 72.4304H80.2604C80.043 72.4304 81.1674 69.9996 81.1674 62.7072C81.1674 56.9328 79.9705 53.5708 79.3183 52.3135L79.3142 52.3054C78.6557 51.0362 76.1885 46.2801 69.7521 47.1166C65.7249 47.6398 63.5179 49.5036 61.8902 51.8012C60.3683 53.487 59.8961 54.7443 59.2438 56.0854Z" fill="#C9C9C9"/>
<path d="M59.2438 56.0854C57.3841 59.9095 55.2579 71.8437 54.8956 73.7716C54.5496 75.6121 52.9487 75.8481 51.417 75.8657C52.2598 75.9636 53.9484 76.1085 54.7506 76.0104C54.8681 75.9962 54.9665 75.9765 55.0405 75.9509C55.7652 75.6994 56.9972 74.2745 57.4321 70.5864C57.8543 67.0047 59.0967 59.4706 62.2876 55.5072C62.3826 55.3894 62.4791 55.2747 62.5775 55.1634C65.9836 51.3076 66.1286 51.3914 69.1723 50.218C71.3465 49.5474 74.0279 50.3018 75.1149 51.14C76.202 51.9782 78.9559 54.9863 79.3183 59.9318C79.6806 64.8772 79.8629 67.7271 79.0284 72.4304H80.2604C80.043 72.4304 81.1674 69.9996 81.1674 62.7072C81.1674 56.9328 79.9705 53.5708 79.3183 52.3135L79.3142 52.3054C78.6557 51.0362 76.1885 46.2801 69.7521 47.1166C65.7249 47.6398 63.5179 49.5036 61.8902 51.8012C60.3683 53.487 59.8961 54.7443 59.2438 56.0854Z" fill="#B4B4B4"/>
<path d="M133.236 29.8496C132.367 29.7826 132.198 30.9732 132.222 31.577C132.786 31.5577 133.635 31.5378 134.468 31.5274C134.42 30.996 134.106 29.9167 133.236 29.8496Z" fill="#C9C9C9"/>
<path d="M133.236 29.8496C132.367 29.7826 132.198 30.9732 132.222 31.577C132.786 31.5577 133.635 31.5378 134.468 31.5274C134.42 30.996 134.106 29.9167 133.236 29.8496Z" fill="#494949"/>
<path d="M132.392 33.3898C132.504 33.7744 132.889 34.5268 133.526 34.4597C134.164 34.3926 134.469 33.7016 134.541 33.3645C133.974 33.3891 133.164 33.394 132.392 33.3898Z" fill="#C9C9C9"/>
<path d="M132.392 33.3898C132.504 33.7744 132.889 34.5268 133.526 34.4597C134.164 34.3926 134.469 33.7016 134.541 33.3645C133.974 33.3891 133.164 33.394 132.392 33.3898Z" fill="#494949"/>
<path d="M105.77 36.1114C105.963 36.4827 106.465 37.2089 106.929 37.1419C107.509 37.058 107.944 36.2178 107.944 36.0093C107.325 36.0566 106.487 36.0906 105.77 36.1114Z" fill="#C9C9C9"/>
<path d="M105.77 36.1114C105.963 36.4827 106.465 37.2089 106.929 37.1419C107.509 37.058 107.944 36.2178 107.944 36.0093C107.325 36.0566 106.487 36.0906 105.77 36.1114Z" fill="#494949"/>
<path d="M106.712 32.448C105.9 32.448 105.649 33.5655 105.625 34.1244C106.225 34.1098 107.163 34.0879 107.985 34.0701C107.899 33.5295 107.524 32.448 106.712 32.448Z" fill="#C9C9C9"/>
<path d="M106.712 32.448C105.9 32.448 105.649 33.5655 105.625 34.1244C106.225 34.1098 107.163 34.0879 107.985 34.0701C107.899 33.5295 107.524 32.448 106.712 32.448Z" fill="#494949"/>
<path d="M131.569 31.6098C131.062 31.6937 129.757 32.5319 130.844 33.3701C131.262 33.3786 131.816 33.3867 132.391 33.3899C133.164 33.394 133.974 33.3892 134.54 33.3645C134.916 33.3483 135.185 33.3231 135.265 33.2862C135.628 33.1186 136.932 32.2804 136.86 31.9451C136.787 31.6098 136.61 31.5302 136.28 31.526C135.788 31.5168 135.133 31.519 134.468 31.5274C133.635 31.5377 132.786 31.5577 132.221 31.577C131.865 31.589 131.623 31.601 131.569 31.6098Z" fill="#EBE7D0"/>
<path d="M131.569 31.6098C131.062 31.6937 129.757 32.5319 130.844 33.3701C131.262 33.3786 131.816 33.3867 132.391 33.3899C133.164 33.394 133.974 33.3892 134.54 33.3645C134.916 33.3483 135.185 33.3231 135.265 33.2862C135.628 33.1186 136.932 32.2804 136.86 31.9451C136.787 31.6098 136.61 31.5302 136.28 31.526C135.788 31.5168 135.133 31.519 134.468 31.5274C133.635 31.5377 132.786 31.5577 132.221 31.577C131.865 31.589 131.623 31.601 131.569 31.6098Z" fill="url(#paint33_linear_1377_18633)" fill-opacity="0.2"/>
<path d="M105.625 34.1243C105.215 34.2082 104.321 34.4596 104.031 34.7949C103.669 35.214 103.669 36.136 104.466 36.136C104.715 36.136 105.205 36.1278 105.77 36.1114C106.488 36.0906 107.326 36.0566 107.944 36.0093C108.396 35.9748 108.73 35.9332 108.814 35.8846C109.104 35.7169 110.191 35.214 110.263 34.7949C110.336 34.3758 110.118 34.0405 109.611 34.0405C109.415 34.0405 108.751 34.0534 107.985 34.07C107.163 34.0878 106.225 34.1098 105.625 34.1243Z" fill="#E6E2CC"/>
<path d="M105.625 34.1243C105.215 34.2082 104.321 34.4596 104.031 34.7949C103.669 35.214 103.669 36.136 104.466 36.136C104.715 36.136 105.205 36.1278 105.77 36.1114C106.488 36.0906 107.326 36.0566 107.944 36.0093C108.396 35.9748 108.73 35.9332 108.814 35.8846C109.104 35.7169 110.191 35.214 110.263 34.7949C110.336 34.3758 110.118 34.0405 109.611 34.0405C109.415 34.0405 108.751 34.0534 107.985 34.07C107.163 34.0878 106.225 34.1098 105.625 34.1243Z" fill="url(#paint34_linear_1377_18633)" fill-opacity="0.2"/>
</g>
<defs>
<linearGradient id="paint0_linear_1377_18633" x1="68.268" y1="61.6919" x2="77.4005" y2="67.2046" gradientUnits="userSpaceOnUse">
<stop offset="0.289687" stop-opacity="0.85"/>
<stop offset="0.5" stop-color="#989898" stop-opacity="0.3"/>
<stop offset="0.728914" stop-opacity="0.95"/>
</linearGradient>
<linearGradient id="paint1_linear_1377_18633" x1="142.985" y1="56.7476" x2="143.272" y2="68.742" gradientUnits="userSpaceOnUse">
<stop offset="0.289687" stop-opacity="0.85"/>
<stop offset="0.5" stop-color="#989898" stop-opacity="0.3"/>
<stop offset="0.728914" stop-opacity="0.95"/>
</linearGradient>
<radialGradient id="paint2_radial_1377_18633" cx="0" cy="0" r="1" gradientUnits="userSpaceOnUse" gradientTransform="translate(48.8456 39.4367) rotate(121.834) scale(16.6252 17.4396)">
<stop stop-opacity="0"/>
<stop offset="0.421719" stop-color="#D6D6D6" stop-opacity="0.9"/>
<stop offset="0.715835" stop-opacity="0.05"/>
<stop offset="1" stop-opacity="0.8"/>
</radialGradient>
<radialGradient id="paint3_radial_1377_18633" cx="0" cy="0" r="1" gradientUnits="userSpaceOnUse" gradientTransform="translate(8.91367 37.4272) rotate(64.5929) scale(7.601 7.73956)">
<stop stop-opacity="0"/>
<stop offset="0.421719" stop-color="#D6D6D6" stop-opacity="0.9"/>
<stop offset="0.715835" stop-opacity="0.05"/>
<stop offset="1" stop-opacity="0.8"/>
</radialGradient>
<linearGradient id="paint4_linear_1377_18633" x1="25.0748" y1="50.9915" x2="39.9062" y2="46.8866" gradientUnits="userSpaceOnUse">
<stop offset="0.289687" stop-opacity="0.85"/>
<stop offset="0.5" stop-color="#989898" stop-opacity="0.3"/>
<stop offset="0.728914" stop-opacity="0.95"/>
</linearGradient>
<linearGradient id="paint5_linear_1377_18633" x1="4.49312" y1="49.4844" x2="19.2413" y2="43.4566" gradientUnits="userSpaceOnUse">
<stop offset="0.289687" stop-opacity="0.85"/>
<stop offset="0.5" stop-color="#989898" stop-opacity="0.3"/>
<stop offset="0.728914" stop-opacity="0.95"/>
</linearGradient>
<linearGradient id="paint6_linear_1377_18633" x1="54.2804" y1="11.3872" x2="69.8948" y2="35.9987" gradientUnits="userSpaceOnUse">
<stop offset="0.338558" stop-opacity="0.85"/>
<stop offset="0.5" stop-color="#989898" stop-opacity="0.5"/>
<stop offset="0.693055" stop-opacity="0.9"/>
</linearGradient>
<linearGradient id="paint7_linear_1377_18633" x1="68.2673" y1="61.625" x2="77.3946" y2="67.1407" gradientUnits="userSpaceOnUse">
<stop offset="0.289687" stop-opacity="0.85"/>
<stop offset="0.5" stop-color="#989898" stop-opacity="0.3"/>
<stop offset="0.728914" stop-opacity="0.95"/>
</linearGradient>
<linearGradient id="paint8_linear_1377_18633" x1="116.968" y1="1.25587" x2="133.375" y2="14.4569" gradientUnits="userSpaceOnUse">
<stop offset="0.289687" stop-opacity="0.85"/>
<stop offset="0.5" stop-color="#989898" stop-opacity="0.3"/>
<stop offset="0.728914" stop-opacity="0.95"/>
</linearGradient>
<linearGradient id="paint9_linear_1377_18633" x1="55.5126" y1="32.5224" x2="-5.34058" y2="57.8939" gradientUnits="userSpaceOnUse">
<stop stop-opacity="0.5"/>
<stop offset="0.447244" stop-color="#F1EFE5" stop-opacity="0.2"/>
<stop offset="0.675452" stop-color="#F4EFDC" stop-opacity="0.8"/>
<stop offset="1" stop-opacity="0.6"/>
</linearGradient>
<linearGradient id="paint10_linear_1377_18633" x1="50.3672" y1="42.9162" x2="57.1499" y2="39.6508" gradientUnits="userSpaceOnUse">
<stop stop-opacity="0"/>
<stop offset="1" stop-opacity="0.3"/>
</linearGradient>
<linearGradient id="paint11_linear_1377_18633" x1="68.2674" y1="61.6921" x2="77.3999" y2="67.2049" gradientUnits="userSpaceOnUse">
<stop offset="0.289687" stop-opacity="0.85"/>
<stop offset="0.5" stop-color="#989898" stop-opacity="0.3"/>
<stop offset="0.728914" stop-opacity="0.95"/>
</linearGradient>
<linearGradient id="paint12_linear_1377_18633" x1="68.2676" y1="61.6919" x2="77.4001" y2="67.2047" gradientUnits="userSpaceOnUse">
<stop offset="0.289687" stop-opacity="0.85"/>
<stop offset="0.5" stop-color="#989898" stop-opacity="0.3"/>
<stop offset="0.728914" stop-opacity="0.95"/>
</linearGradient>
<linearGradient id="paint13_linear_1377_18633" x1="20.1469" y1="58.2553" x2="44.4246" y2="65.941" gradientUnits="userSpaceOnUse">
<stop stop-color="#3F3E3E" stop-opacity="0"/>
<stop offset="1" stop-color="#3F3E3E"/>
</linearGradient>
<linearGradient id="paint14_linear_1377_18633" x1="145.231" y1="25.9563" x2="152.952" y2="27.6112" gradientUnits="userSpaceOnUse">
<stop stop-color="#EE7870"/>
<stop offset="1" stop-color="#884440"/>
</linearGradient>
<linearGradient id="paint15_linear_1377_18633" x1="59.4259" y1="45.5147" x2="14.4462" y2="9.81172" gradientUnits="userSpaceOnUse">
<stop offset="0.058091" stop-opacity="0.7"/>
<stop offset="0.259673" stop-color="#C0BDB2" stop-opacity="0.6"/>
<stop offset="0.709553" stop-color="#EEEAD9" stop-opacity="0.9"/>
<stop offset="0.86749" stop-opacity="0.6"/>
</linearGradient>
<linearGradient id="paint16_linear_1377_18633" x1="41.5981" y1="42.9163" x2="36.2346" y2="66.8479" gradientUnits="userSpaceOnUse">
<stop stop-opacity="0"/>
<stop offset="1"/>
</linearGradient>
<linearGradient id="paint17_linear_1377_18633" x1="42.25" y1="44.7603" x2="104.756" y2="36.058" gradientUnits="userSpaceOnUse">
<stop offset="0.0753159" stop-opacity="0.6"/>
<stop offset="0.369256" stop-color="#E7E3D0" stop-opacity="0.724211"/>
<stop offset="0.600258" stop-color="#FFF9DD"/>
<stop offset="0.757696" stop-opacity="0.4"/>
</linearGradient>
<linearGradient id="paint18_linear_1377_18633" x1="107.111" y1="27.9124" x2="123.756" y2="21.0785" gradientUnits="userSpaceOnUse">
<stop stop-opacity="0"/>
<stop offset="1" stop-opacity="0.7"/>
</linearGradient>
<linearGradient id="paint19_linear_1377_18633" x1="59.0638" y1="3.68811" x2="108.703" y2="9.3593" gradientUnits="userSpaceOnUse">
<stop stop-color="#BEB9A3" stop-opacity="0"/>
<stop offset="0.630266" stop-color="#BEB9A3" stop-opacity="0.6"/>
<stop offset="1" stop-opacity="0.4"/>
</linearGradient>
<linearGradient id="paint20_linear_1377_18633" x1="33.7717" y1="16.3274" x2="36.1768" y2="19.004" gradientUnits="userSpaceOnUse">
<stop stop-opacity="0"/>
<stop offset="0.78" stop-opacity="0.5"/>
<stop offset="1"/>
</linearGradient>
<linearGradient id="paint21_linear_1377_18633" x1="74.6527" y1="18.9804" x2="72.0397" y2="33.6551" gradientUnits="userSpaceOnUse">
<stop stop-opacity="0"/>
<stop offset="0.425994"/>
</linearGradient>
<radialGradient id="paint22_radial_1377_18633" cx="0" cy="0" r="1" gradientUnits="userSpaceOnUse" gradientTransform="translate(91.7479 26.1519) rotate(118.705) scale(2.86693 8.68294)">
<stop stop-opacity="0"/>
<stop offset="1"/>
</radialGradient>
<radialGradient id="paint23_radial_1377_18633" cx="0" cy="0" r="1" gradientUnits="userSpaceOnUse" gradientTransform="translate(109.141 38.3483) rotate(162.143) scale(55.4291 119.64)">
<stop stop-color="#BEB9A3" stop-opacity="0"/>
<stop offset="0.151813" stop-color="#BEB9A3" stop-opacity="0.9"/>
<stop offset="0.218065" stop-color="#EEEAD9" stop-opacity="0.5"/>
<stop offset="0.264798" stop-color="#BEB9A3" stop-opacity="0.9"/>
</radialGradient>
<radialGradient id="paint24_radial_1377_18633" cx="0" cy="0" r="1" gradientUnits="userSpaceOnUse" gradientTransform="translate(128.78 38.306) rotate(150.169) scale(49.3721 102.338)">
<stop stop-color="#BEB9A3" stop-opacity="0"/>
<stop offset="0.151813" stop-color="#BEB9A3" stop-opacity="0.9"/>
<stop offset="0.218065" stop-color="#EEEAD9" stop-opacity="0.5"/>
<stop offset="0.264798" stop-color="#BEB9A3" stop-opacity="0.9"/>
</radialGradient>
<linearGradient id="paint25_linear_1377_18633" x1="68.2674" y1="61.6251" x2="77.3947" y2="67.1408" gradientUnits="userSpaceOnUse">
<stop offset="0.289687" stop-opacity="0.85"/>
<stop offset="0.5" stop-color="#989898" stop-opacity="0.3"/>
<stop offset="0.728914" stop-opacity="0.95"/>
</linearGradient>
<linearGradient id="paint26_linear_1377_18633" x1="80.5877" y1="26.8773" x2="103.511" y2="-1.77943" gradientUnits="userSpaceOnUse">
<stop offset="0.289687" stop-opacity="0.85"/>
<stop offset="0.5" stop-color="#989898" stop-opacity="0.3"/>
<stop offset="0.728914" stop-opacity="0.95"/>
</linearGradient>
<linearGradient id="paint27_linear_1377_18633" x1="138.565" y1="8.03802" x2="123.7" y2="35.1004" gradientUnits="userSpaceOnUse">
<stop offset="0.260778" stop-opacity="0.85"/>
<stop offset="0.5" stop-color="#989898" stop-opacity="0.3"/>
<stop offset="0.728914" stop-opacity="0.95"/>
</linearGradient>
<linearGradient id="paint28_linear_1377_18633" x1="68.2672" y1="61.625" x2="77.3944" y2="67.1407" gradientUnits="userSpaceOnUse">
<stop offset="0.289687" stop-opacity="0.85"/>
<stop offset="0.5" stop-color="#989898" stop-opacity="0.3"/>
<stop offset="0.728914" stop-opacity="0.95"/>
</linearGradient>
<linearGradient id="paint29_linear_1377_18633" x1="68.2678" y1="61.6252" x2="77.395" y2="67.1409" gradientUnits="userSpaceOnUse">
<stop offset="0.289687" stop-opacity="0.85"/>
<stop offset="0.5" stop-color="#989898" stop-opacity="0.3"/>
<stop offset="0.728914" stop-opacity="0.95"/>
</linearGradient>
<linearGradient id="paint30_linear_1377_18633" x1="134.643" y1="41.1428" x2="149.026" y2="32.0902" gradientUnits="userSpaceOnUse">
<stop offset="0.581409" stop-opacity="0"/>
<stop offset="1"/>
</linearGradient>
<linearGradient id="paint31_linear_1377_18633" x1="68.267" y1="61.6919" x2="77.3996" y2="67.2046" gradientUnits="userSpaceOnUse">
<stop offset="0.289687" stop-opacity="0.85"/>
<stop offset="0.5" stop-color="#989898" stop-opacity="0.3"/>
<stop offset="0.728914" stop-opacity="0.95"/>
</linearGradient>
<linearGradient id="paint32_linear_1377_18633" x1="68.2675" y1="61.6919" x2="77.4" y2="67.2046" gradientUnits="userSpaceOnUse">
<stop offset="0.289687" stop-opacity="0.85"/>
<stop offset="0.5" stop-color="#989898" stop-opacity="0.3"/>
<stop offset="0.728914" stop-opacity="0.95"/>
</linearGradient>
<linearGradient id="paint33_linear_1377_18633" x1="129.143" y1="31.3988" x2="140.165" y2="33.0415" gradientUnits="userSpaceOnUse">
<stop offset="0.247188" stop-color="#A9A487"/>
<stop offset="0.732455" stop-color="white" stop-opacity="0"/>
<stop offset="0.845766" stop-color="#FCEED3" stop-opacity="0.406934"/>
</linearGradient>
<linearGradient id="paint34_linear_1377_18633" x1="105.59" y1="40.1903" x2="111.348" y2="39.4333" gradientUnits="userSpaceOnUse">
<stop offset="0.247188" stop-color="#A9A487"/>
<stop offset="0.732455" stop-color="white" stop-opacity="0"/>
<stop offset="0.845766" stop-color="#FCEED3" stop-opacity="0.406934"/>
</linearGradient>
<clipPath id="clip0_1377_18633">
<rect width="149" height="86" fill="white"/>
</clipPath>
</defs>
</svg>
