<svg width="42" height="59" viewBox="0 0 42 59" fill="none" xmlns="http://www.w3.org/2000/svg">
<path d="M35.7492 15.1945C35.0591 16.3136 33.7893 18.172 32.0597 19.8715C29.3533 22.5289 24.1672 24.1397 16.0486 24.0244C10.9842 23.9544 8.57409 23.3048 7.47898 22.8242C7.46073 22.3334 7.45117 21.9945 7.45117 21.8366C7.45117 19.5932 9.82129 18.2676 9.82129 18.2676L25.5526 6.96894C25.7054 6.82493 25.888 6.71489 26.0879 6.64627C26.4247 6.52258 26.7745 6.43667 27.1309 6.39018H33.333C33.51 6.38864 33.6846 6.42979 33.8416 6.51001C33.9986 6.59023 34.1332 6.70707 34.2334 6.85028C34.3178 6.96328 34.3849 7.08781 34.4325 7.2199L34.6784 8.79229C34.6784 8.79229 35.12 11.2277 35.7492 15.1945Z" fill="#D7F3FF"/>
<path d="M37.1324 24.4923C36.637 20.919 36.1555 17.7392 35.7487 15.1946C35.0587 16.3137 33.7889 18.172 32.0593 19.8716C29.3528 22.529 24.1667 24.1397 16.0481 24.0245C10.9837 23.9545 8.57362 23.3049 7.47852 22.8243C7.71666 29.2675 9.39669 62.0349 9.39669 62.0349C9.39669 62.0349 9.90774 64.8561 12.9497 64.8561H31.4665C31.4665 64.8561 33.5811 65.1071 34.2564 62.0331C34.9318 58.9592 36.8777 44.8411 36.8777 44.8411C36.8777 44.8411 38.4013 33.6329 37.1324 24.4923ZM33.9349 45.9858L33.5359 47.2321C33.501 47.3318 33.4349 47.418 33.347 47.4784C33.2591 47.5388 33.1539 47.5704 33.0466 47.5684H32.0037L31.8394 48.9129H32.8267C32.906 48.913 32.9841 48.9313 33.0549 48.9662C33.1257 49.0012 33.1873 49.0519 33.2347 49.1143C33.2821 49.1766 33.314 49.249 33.328 49.3256C33.342 49.4022 33.3376 49.481 33.3152 49.5557L32.9154 50.8762C32.8842 50.9795 32.8199 51.0702 32.732 51.1348C32.6442 51.1994 32.5375 51.2344 32.4278 51.2348H31.5587L31.4318 52.2864H32.008C32.0845 52.2831 32.1607 52.2977 32.2304 52.3289C32.3 52.3601 32.3612 52.407 32.4089 52.4659C32.4565 52.5248 32.4893 52.5939 32.5045 52.6676C32.5197 52.7413 32.517 52.8175 32.4965 52.8899L32.0967 54.1362C32.0622 54.2359 31.9965 54.3223 31.9088 54.3829C31.8212 54.4435 31.7162 54.4752 31.6091 54.4734H31.1684L31.0276 55.6565H31.1632C31.2397 55.6533 31.3159 55.6678 31.3856 55.699C31.4553 55.7302 31.5164 55.7771 31.5641 55.836C31.6117 55.8949 31.6445 55.964 31.6597 56.0377C31.6749 56.1114 31.6722 56.1876 31.6517 56.2601L31.2519 57.5064C31.2183 57.6069 31.1529 57.6943 31.0652 57.7557C30.9774 57.8172 30.872 57.8494 30.7643 57.8478C30.6947 59.0087 29.8595 59.0087 29.8595 59.0087H12.7376C10.9282 59.0087 11.1425 56.752 11.1425 56.752L9.78175 25.9149C9.78175 25.9149 9.69484 25.5 10.4997 25.5H30.1142C30.1142 25.5 32.732 25.219 33.243 30.1408C33.243 35.913 32.2696 45.3353 32.2696 45.3353L32.2635 45.378H33.4473C33.5242 45.3745 33.601 45.389 33.6711 45.4204C33.7412 45.4518 33.8026 45.4992 33.8503 45.5587C33.898 45.6181 33.9305 45.6879 33.9452 45.7622C33.9599 45.8365 33.9564 45.9131 33.9349 45.9858Z" fill="#D7F3FF" fill-opacity="0.8"/>
<path d="M33.9354 45.9858L33.5365 47.2321C33.5016 47.3317 33.4355 47.418 33.3475 47.4784C33.2596 47.5388 33.1545 47.5703 33.0472 47.5684H32.0042L31.84 48.9129H32.8273C32.9066 48.913 32.9847 48.9313 33.0555 48.9662C33.1263 49.0012 33.1879 49.0519 33.2353 49.1142C33.2827 49.1766 33.3146 49.249 33.3286 49.3256C33.3426 49.4022 33.3382 49.481 33.3158 49.5557L32.916 50.8762C32.8847 50.9795 32.8204 51.0702 32.7326 51.1348C32.6448 51.1994 32.5381 51.2344 32.4284 51.2347H31.5592L31.4323 52.2864H32.0086C32.0851 52.2831 32.1613 52.2977 32.231 52.3289C32.3006 52.3601 32.3618 52.407 32.4094 52.4659C32.4571 52.5247 32.4899 52.5939 32.5051 52.6676C32.5203 52.7413 32.5176 52.8175 32.497 52.8899L32.0972 54.1362C32.0628 54.2359 31.997 54.3223 31.9094 54.3829C31.8218 54.4435 31.7168 54.4752 31.6096 54.4734H31.169L31.0282 55.6565H31.1638C31.2403 55.6532 31.3165 55.6678 31.3862 55.699C31.4558 55.7302 31.517 55.7771 31.5646 55.836C31.6123 55.8949 31.6451 55.964 31.6603 56.0377C31.6755 56.1114 31.6728 56.1876 31.6522 56.26L31.2524 57.5063C31.2189 57.6069 31.1535 57.6943 31.0657 57.7557C30.978 57.8171 30.8726 57.8494 30.7649 57.8478C30.6953 59.0087 29.8601 59.0087 29.8601 59.0087H12.7382C11.077 59.0087 11.077 56.6425 11.077 56.6425L9.63946 25.9215C9.63946 25.9215 9.55255 25.5066 10.3574 25.5066L30.1147 25.5066C30.1147 25.5066 33.2436 25.2155 33.2436 30.9877C33.2436 36.76 32.2702 45.3353 32.2702 45.3353L32.2641 45.378H33.4479C33.5248 45.3744 33.6016 45.389 33.6716 45.4204C33.7417 45.4518 33.8032 45.4992 33.8509 45.5587C33.8986 45.6181 33.9311 45.6879 33.9458 45.7622C33.9605 45.8365 33.957 45.9131 33.9354 45.9858Z" fill="#D7F3FF"/>
<path d="M34.2295 3.23106V6.84788C34.1292 6.70467 33.9947 6.58782 33.8377 6.5076C33.6807 6.42738 33.506 6.38623 33.3291 6.38777H27.1269C26.7706 6.43427 26.4207 6.52018 26.084 6.64386V3.31471C26.084 3.31471 26.3369 2.48584 27.1834 2.48584H33.2161C33.2161 2.48584 34.2295 2.53962 34.2295 3.23106Z" fill="#D7F3FF" fill-opacity="0.6"/>
<path d="M36.3445 14.1702C36.3445 14.1702 36.1394 14.5662 35.75 15.1945L36.3445 14.1702Z" fill="black"/>
<path d="M33.5461 49.5531L33.0652 50.9126C33.0277 51.0188 32.9503 51.1119 32.8447 51.1783C32.739 51.2447 32.6107 51.2807 32.4787 51.281H29.7544C29.6591 51.2809 29.5652 51.2622 29.48 51.2262C29.3949 51.1903 29.3209 51.1382 29.2639 51.0741C29.207 51.01 29.1687 50.9356 29.152 50.8568C29.1353 50.7781 29.1408 50.6972 29.168 50.6205L29.6447 49.261C29.6823 49.1547 29.7598 49.0614 29.8656 48.995C29.9715 48.9287 30.1 48.8927 30.2322 48.8926H32.9586C33.0539 48.8927 33.1479 48.9115 33.2331 48.9474C33.3182 48.9833 33.3923 49.0354 33.4493 49.0995C33.5063 49.1636 33.5447 49.238 33.5615 49.3167C33.5783 49.3954 33.5731 49.4763 33.5461 49.5531Z" fill="#D7F3FF" fill-opacity="0.4"/>
<path d="M32.5497 52.8851L32.068 54.1655C32.0265 54.2679 31.9473 54.3567 31.8417 54.4189C31.7361 54.4812 31.6096 54.5138 31.4805 54.5119H28.7514C28.6593 54.515 28.5675 54.4999 28.4837 54.4676C28.3999 54.4354 28.3264 54.3871 28.2692 54.3266C28.2119 54.266 28.1725 54.195 28.1542 54.1194C28.1359 54.0437 28.1392 53.9654 28.1639 53.891L28.6456 52.6106C28.6873 52.5082 28.7668 52.4195 28.8726 52.3574C28.9784 52.2953 29.105 52.263 29.2342 52.265H31.957C32.0495 52.2611 32.1418 52.2756 32.2263 52.3074C32.3108 52.3392 32.3851 52.3874 32.443 52.4479C32.5009 52.5085 32.5407 52.5797 32.5593 52.6557C32.5779 52.7317 32.5746 52.8104 32.5497 52.8851Z" fill="#D7F3FF" fill-opacity="0.4"/>
<path d="M31.6935 56.2534L31.2116 57.5333C31.1712 57.6366 31.0924 57.7263 30.9866 57.7894C30.8809 57.8525 30.7539 57.8857 30.624 57.884H27.8944C27.8021 57.8871 27.7103 57.872 27.6263 57.8397C27.5424 57.8074 27.4688 57.759 27.4115 57.6984C27.3542 57.6378 27.3149 57.5667 27.2966 57.491C27.2784 57.4152 27.2819 57.3369 27.3068 57.2624L27.7886 55.9825C27.8306 55.8803 27.9102 55.7918 28.0159 55.7298C28.1216 55.6677 28.2481 55.6353 28.3773 55.6371H31.1006C31.1927 55.6333 31.2845 55.6478 31.3686 55.6794C31.4527 55.711 31.5267 55.7588 31.5845 55.8189C31.6423 55.879 31.6823 55.9497 31.7013 56.0252C31.7202 56.1007 31.7175 56.1789 31.6935 56.2534Z" fill="#D7F3FF" fill-opacity="0.4"/>
<path d="M34.4062 46.0015L33.9096 47.2821C33.8661 47.3845 33.7838 47.4731 33.6743 47.5352C33.5649 47.5972 33.434 47.6296 33.3005 47.6276H30.4875C30.3922 47.6309 30.2973 47.6158 30.2106 47.5836C30.1239 47.5515 30.0478 47.5031 29.9885 47.4426C29.9292 47.382 29.8884 47.311 29.8695 47.2352C29.8505 47.1595 29.8539 47.0811 29.8794 47.0066L30.3771 45.7261C30.4203 45.6239 30.5023 45.5354 30.6113 45.4733C30.7204 45.4112 30.8509 45.3787 30.9841 45.3805H33.8035C33.8985 45.3776 33.993 45.3929 34.0792 45.4253C34.1655 45.4576 34.2411 45.506 34.2998 45.5666C34.3586 45.6272 34.3989 45.6981 34.4174 45.7737C34.4358 45.8493 34.432 45.9273 34.4062 46.0015Z" fill="#D7F3FF" fill-opacity="0.4"/>
</svg>
