<svg width="69" height="69" viewBox="0 0 69 69" fill="none" xmlns="http://www.w3.org/2000/svg">
<circle cx="34.5" cy="34.5" r="30" fill="#666666" fill-opacity="0.2"/>
<circle cx="34.5" cy="34.5" r="34" fill="#666666" fill-opacity="0.1"/>
<path d="M34.5013 11.1665C21.6213 11.1665 11.168 21.6198 11.168 34.4998C11.168 47.3798 21.6213 57.8332 34.5013 57.8332C47.3813 57.8332 57.8346 47.3798 57.8346 34.4998C57.8346 21.6198 47.3813 11.1665 34.5013 11.1665ZM36.8346 50.8332H32.168V46.1665H36.8346V50.8332ZM41.6646 32.7498L39.5646 34.8965C37.8846 36.5998 36.8346 37.9998 36.8346 41.4998H32.168V40.3332C32.168 37.7665 33.218 35.4332 34.898 33.7298L37.7913 30.7898C38.6546 29.9498 39.168 28.7832 39.168 27.4998C39.168 24.9332 37.068 22.8332 34.5013 22.8332C31.9346 22.8332 29.8346 24.9332 29.8346 27.4998H25.168C25.168 22.3432 29.3446 18.1665 34.5013 18.1665C39.658 18.1665 43.8346 22.3432 43.8346 27.4998C43.8346 29.5532 42.9946 31.4198 41.6646 32.7498Z" fill="#666666"/>
</svg>
