<svg width="80" height="80" viewBox="0 0 80 80" fill="none" xmlns="http://www.w3.org/2000/svg">
<path d="M0 0H80V57.284H0V0Z" fill="url(#paint0_linear_2478_12876)"/>
<path d="M1 0H80V57.284H1V0Z" fill="url(#paint1_linear_2478_12876)"/>
<path d="M0 0H21V79.0123H0V0Z" fill="url(#paint2_linear_2478_12876)"/>
<path d="M21 57.2839L8 79.0123L80 80V57.2839H21Z" fill="url(#paint3_linear_2478_12876)"/>
<path d="M52.0745 21.1833L51.9533 24.7548C51.9439 25.0274 51.8288 25.2856 51.6325 25.4752C51.4361 25.6647 51.1737 25.7706 50.9006 25.7707H30.512C30.2675 25.7714 30.0305 25.686 29.8428 25.5295C29.6353 25.3605 29.5005 25.1185 29.4662 24.8534L29.0178 21.383C28.973 21.0305 29.0132 20.6725 29.1352 20.3388C29.2572 20.005 29.4574 19.7053 29.719 19.4645L34.7982 14.7907C34.9504 14.6492 35.1225 14.5307 35.309 14.4388C35.6202 14.2822 35.9638 14.2007 36.3123 14.201H44.9695C45.034 14.2003 45.0985 14.2035 45.1626 14.2105C45.6277 14.2502 46.0685 14.4354 46.4222 14.7397L51.3049 19.4187C51.557 19.6367 51.7571 19.9084 51.8902 20.2137C52.0234 20.5191 52.0864 20.8504 52.0745 21.1833Z" fill="url(#paint4_linear_2478_12876)"/>
<path d="M45.4293 12.6708V14.3783C45.6995 14.3688 45.4293 14.207 44.9661 14.1975H36.3124C35.9651 14.1978 35.6227 14.2792 35.3125 14.4353V12.9966C37.2916 12.2424 39.3766 12.5126 41.492 12.4018V7H42.1993V12.4018C43.2238 12.4018 44.5611 12.3483 45.4293 12.6708Z" fill="url(#paint5_linear_2478_12876)"/>
<path d="M41.4886 7V12.5285C39.3733 12.6387 37.2883 12.243 35.3091 12.9966V8.60723C35.3091 8.18097 35.4786 7.77216 35.7805 7.47075C36.0823 7.16933 36.4916 7 36.9185 7H41.4886Z" fill="url(#paint6_linear_2478_12876)"/>
<path d="M45.4292 8.60723V12.7243C44.3475 12.4018 43.2236 12.4018 42.1992 12.4018V7H43.5497C43.9766 7 44.656 7.16933 44.9579 7.47075C45.2597 7.77216 45.4292 8.18097 45.4292 8.60723Z" fill="url(#paint7_linear_2478_12876)"/>
<path d="M51.5957 25.5095V27.1029C51.4574 26.9282 51.2813 26.7872 51.0804 26.6904C50.8796 26.5937 50.6594 26.5437 50.4365 26.5444H30.9309C30.7255 26.5444 30.5222 26.587 30.3341 26.6696C30.1461 26.7522 29.9772 26.873 29.8384 27.0242V25.5329C30.0261 25.6894 30.263 25.7748 30.5076 25.7741H50.9005C51.1567 25.7732 51.4039 25.6792 51.5957 25.5095Z" fill="#40489B"/>
<g filter="url(#filter0_d_2478_12876)">
<path d="M32.6226 61.1227L33.2272 61.9765C33.2272 61.9765 36.0942 62.6387 38.7979 62.688L38.9476 63.8799C38.9476 63.8799 34.7515 63.8878 32.9603 63.1149L33.5475 64.1109C33.5475 64.1109 35.5679 64.609 38.7979 64.8448L39.184 66.05C39.184 66.05 37.8092 66.5947 34.1879 65.6791L34.8164 66.8895C34.8164 66.8895 39.5951 67.4549 46.1374 67.1618C48.7753 66.7347 50.634 66.1849 51.9144 65.6791V65.8926C51.9144 67.5124 51.2701 69.0658 50.1232 70.2112C48.9764 71.3565 47.4209 71.9999 45.7989 71.9999H35.5679C34.7647 72.0001 33.9693 71.8422 33.2272 71.5353C32.4851 71.2285 31.8108 70.7786 31.2427 70.2115C30.6747 69.6444 30.2241 68.9711 29.9166 68.2301C29.6091 67.489 29.4508 66.6948 29.4507 65.8926V58.5524C30.2394 59.4455 32.7802 60.9395 40.9743 60.9395C47.9355 60.9395 50.7665 59.57 51.9179 58.4617V59.8286C49.9319 60.9603 44.2241 63.7787 32.6226 61.1227Z" fill="url(#paint8_linear_2478_12876)"/>
</g>
<path d="M51.9179 28.0228V58.4617C50.7665 59.5701 47.9355 60.9396 40.9743 60.9396C32.7802 60.9396 30.2394 59.4456 29.4507 58.5525V28.0228C29.4505 27.8286 29.4886 27.6363 29.5629 27.4568C29.6372 27.2773 29.7463 27.1143 29.8838 26.9769C30.0213 26.8396 30.1846 26.7307 30.3643 26.6565C30.544 26.5823 30.7366 26.5442 30.9311 26.5444H50.4366C50.8293 26.5444 51.2059 26.7002 51.4837 26.9774C51.7615 27.2546 51.9176 27.6307 51.9179 28.0228Z" fill="url(#paint9_linear_2478_12876)"/>
<path d="M51.9179 59.8286V65.6757C50.6375 66.1815 48.7787 66.9567 46.1409 67.3838C40.0933 68.363 34.1672 66.7261 34.1672 66.7261L33.5387 65.5157C36.6782 66.1426 39.0972 65.9609 39.0972 65.9609L38.7394 64.9374C35.2644 65.0333 33.2496 64.1177 33.2496 64.1177L32.718 62.9601C34.4726 63.613 38.7394 63.8264 38.7394 63.8264L38.5992 62.9601C35.8955 62.9108 32.9639 61.9952 32.9639 61.9952L32.2393 60.8393C43.8373 63.4987 49.932 60.9603 51.9179 59.8286Z" fill="#444DA6"/>
<defs>
<filter id="filter0_d_2478_12876" x="25.4507" y="55.4617" width="30.4673" height="21.5383" filterUnits="userSpaceOnUse" color-interpolation-filters="sRGB">
<feFlood flood-opacity="0" result="BackgroundImageFix"/>
<feColorMatrix in="SourceAlpha" type="matrix" values="0 0 0 0 0 0 0 0 0 0 0 0 0 0 0 0 0 0 127 0" result="hardAlpha"/>
<feOffset dy="1"/>
<feGaussianBlur stdDeviation="2"/>
<feComposite in2="hardAlpha" operator="out"/>
<feColorMatrix type="matrix" values="0 0 0 0 0 0 0 0 0 0 0 0 0 0 0 0 0 0 0.25 0"/>
<feBlend mode="normal" in2="BackgroundImageFix" result="effect1_dropShadow_2478_12876"/>
<feBlend mode="normal" in="SourceGraphic" in2="effect1_dropShadow_2478_12876" result="shape"/>
</filter>
<linearGradient id="paint0_linear_2478_12876" x1="26" y1="34.0741" x2="-12.2583" y2="-36.9428" gradientUnits="userSpaceOnUse">
<stop stop-color="#D9D9D9"/>
<stop offset="1" stop-color="#737373"/>
</linearGradient>
<linearGradient id="paint1_linear_2478_12876" x1="26.675" y1="34.0741" x2="-11.8468" y2="-36.5381" gradientUnits="userSpaceOnUse">
<stop stop-color="#D9D9D9"/>
<stop offset="1" stop-color="#737373"/>
</linearGradient>
<linearGradient id="paint2_linear_2478_12876" x1="4.5374e-07" y1="29.6296" x2="9.35996" y2="67.4427" gradientUnits="userSpaceOnUse">
<stop stop-color="#A09E9E"/>
<stop offset="1" stop-color="#7B7B7B"/>
</linearGradient>
<linearGradient id="paint3_linear_2478_12876" x1="49.641" y1="73.9153" x2="44.7456" y2="41.2026" gradientUnits="userSpaceOnUse">
<stop stop-color="#C5C5C5"/>
<stop offset="1" stop-color="#5F5F5F"/>
</linearGradient>
<linearGradient id="paint4_linear_2478_12876" x1="53.0115" y1="22.5296" x2="27.1705" y2="23.0266" gradientUnits="userSpaceOnUse">
<stop offset="0.208949" stop-color="#363C7A"/>
<stop offset="0.658663" stop-color="#5862CE"/>
<stop offset="0.851265" stop-color="#4D55AD"/>
</linearGradient>
<linearGradient id="paint5_linear_2478_12876" x1="40.3067" y1="6.97891" x2="40.3067" y2="19.3587" gradientUnits="userSpaceOnUse">
<stop stop-color="#B68123"/>
<stop offset="0.436966" stop-color="#D79829"/>
<stop offset="1" stop-color="#715016"/>
</linearGradient>
<linearGradient id="paint6_linear_2478_12876" x1="36.4647" y1="6.97891" x2="41.4451" y2="15.4456" gradientUnits="userSpaceOnUse">
<stop offset="0.179909" stop-color="#FCC555"/>
<stop offset="0.44006" stop-color="#EAAF35"/>
<stop offset="1" stop-color="#DB9E28"/>
</linearGradient>
<linearGradient id="paint7_linear_2478_12876" x1="42.7527" y1="6.97987" x2="48.1241" y2="11.5617" gradientUnits="userSpaceOnUse">
<stop offset="0.179909" stop-color="#FCC555"/>
<stop offset="0.44006" stop-color="#EAAF35"/>
<stop offset="1" stop-color="#DB9E28"/>
</linearGradient>
<linearGradient id="paint8_linear_2478_12876" x1="40.7335" y1="57.0673" x2="40.7335" y2="80.4039" gradientUnits="userSpaceOnUse">
<stop stop-color="#5059B6"/>
<stop offset="1" stop-color="#373D7B"/>
</linearGradient>
<linearGradient id="paint9_linear_2478_12876" x1="52.8287" y1="51.3043" x2="27.6612" y2="51.4628" gradientUnits="userSpaceOnUse">
<stop offset="0.208949" stop-color="#363C7A"/>
<stop offset="0.658663" stop-color="#5862CE"/>
<stop offset="0.851265" stop-color="#4D55AD"/>
</linearGradient>
</defs>
</svg>
