<svg width="32" height="32" viewBox="0 0 32 32" fill="none" xmlns="http://www.w3.org/2000/svg">
<path d="M17.6667 22.32C17.6667 23.24 16.96 24 16 24C15.0667 24 14.32 23.2533 14.32 22.32C14.32 21.3733 15.0667 20.6533 16 20.6533C16.9467 20.6533 17.6667 21.3867 17.6667 22.32ZM15.9867 8C13.6267 8 12.0133 9.53333 11.4133 11.32L13.6 12.24C13.8933 11.3467 14.5867 10.2667 16 10.2667C18.16 10.2667 18.5867 12.2933 17.8267 13.3733C17.1067 14.4 15.8667 15.0933 15.2133 16.2533C14.6933 17.1733 14.8 18.24 14.8 18.8933H17.2267C17.2267 17.6533 17.32 17.4 17.52 17.0133C18.04 16.0533 19 15.6 20.0133 14.12C20.92 12.7867 20.5733 10.9733 19.9867 10.0133C19.3067 8.89333 17.96 8 15.9867 8ZM25.3333 6.66667H6.66667V25.3333H25.3333V6.66667ZM25.3333 4C26.8 4 28 5.2 28 6.66667V25.3333C28 26.8 26.8 28 25.3333 28H6.66667C5.2 28 4 26.8 4 25.3333V6.66667C4 5.2 5.2 4 6.66667 4H25.3333Z" fill="#0A7DEB"/>
</svg>
