<svg width="38" height="48" viewBox="0 0 38 48" fill="none" xmlns="http://www.w3.org/2000/svg">
<g clip-path="url(#clip0_3305_60838)">
<path d="M8.38567 1.13509C8.36301 1.52668 8.28691 1.91347 8.15943 2.28503C8.15862 2.29762 8.15862 2.31026 8.15943 2.32286H1.08007C0.971558 1.90535 0.91266 1.47682 0.904559 1.04591C0.902518 0.987898 0.912425 0.930081 0.933682 0.875947C0.954938 0.821813 0.987104 0.772485 1.02824 0.730939C1.06937 0.689392 1.11862 0.656489 1.17301 0.634215C1.2274 0.611941 1.28581 0.600758 1.3447 0.60134L7.95512 0.674309C8.01449 0.675471 8.07301 0.68846 8.12715 0.712494C8.1813 0.736529 8.22995 0.771111 8.27017 0.814161C8.31039 0.85721 8.34136 0.907836 8.36121 0.96299C8.38106 1.01814 8.38938 1.07669 8.38567 1.13509Z" fill="#D7F3FF" fill-opacity="0.6"/>
<path d="M8.30256 3.45459L1.26758 10.7637V11.0364L3.42793 10.3819L6.69615 8.09095L10.2967 3.72732C9.41044 3.9455 8.598 3.63641 8.30256 3.45459Z" fill="#D7F3FF" fill-opacity="0.6"/>
<path d="M32.1813 6.25091C30.4454 5.2307 25.682 2.60248 21.1448 2.3025C21.1448 2.3025 19.269 1.61335 17.2534 3.21461C15.2378 4.81586 11.0351 7.9373 11.0351 7.9373C11.0351 7.9373 8.29278 9.78584 11.8469 11.1371C15.4009 12.4884 24.9827 17.0719 24.9827 17.0719C24.9827 17.0719 27.3137 18.6745 28.4847 16.2165C29.6556 13.7586 32.7682 8.76563 32.7682 8.76563C32.7682 8.76563 33.9186 7.27112 32.1813 6.25091ZM30.865 7.80218C30.865 7.80218 30.3878 8.93319 29.912 10.3128C29.4362 11.6925 28.7644 11.6371 28.7644 11.6371L16.2154 6.88466C15.7684 6.36037 16.2154 5.75365 16.2154 5.75365C16.2154 5.75365 17.4001 4.50777 18.6835 3.7943C20.0369 3.04029 23.7788 4.01456 23.7788 4.01456C23.7788 4.01456 28.4942 5.35772 30.2233 6.38874C31.0309 6.87115 30.865 7.80218 30.865 7.80218Z" fill="#D7F3FF" fill-opacity="0.6"/>
<path d="M30.8658 7.80214C30.8658 7.80214 30.3887 8.93315 29.9129 10.3128C29.4371 11.6924 28.7652 11.637 28.7652 11.637L16.2162 6.88462C15.7692 6.36033 16.2162 5.75361 16.2162 5.75361C16.2162 5.75361 17.4009 4.50773 18.6844 3.79426C20.0377 3.04025 23.7796 4.01452 23.7796 4.01452C23.7796 4.01452 28.4951 5.35769 30.2241 6.38871C31.0318 6.87111 30.8658 7.80214 30.8658 7.80214Z" stroke="#D7F3FF" stroke-opacity="0.6" stroke-miterlimit="10"/>
<path d="M37.9425 31.5846C37.7917 29.1523 37.8685 17.2314 37.8685 17.2314C38.4649 12.6695 36.5974 6.85228 36.5974 6.85228L36.4493 6.73877C36.141 7.73833 35.6745 8.68368 35.0672 9.53996C33.8907 11.1399 28.513 20.3055 27.6738 22.954C26.8347 25.6025 24.9315 32.8345 28.9079 39.2382C28.9079 39.2382 31.2622 43.4353 36.2464 44.3731C36.2464 44.3731 37.2693 41.0597 37.9754 38.2383C38.0015 35.4803 38.0111 32.6737 37.9425 31.5846ZM32.9391 37.0856C32.3769 37.5829 31.3705 38.3018 31.3705 38.3018C31.3705 38.3018 30.3065 38.9099 29.6606 37.5559C29.0148 36.2019 27.6162 34.548 28.2045 27.5105C28.2045 27.5105 29.13 22.9838 29.6606 21.796C30.1913 20.6082 31.6228 21.1068 31.6228 21.1068L33.0214 21.8244C33.0214 21.8244 33.4149 22.1271 33.3861 23.6729V35.9019C33.4101 36.1191 33.3821 36.3387 33.3045 36.5434C33.2269 36.748 33.1017 36.9318 32.9391 37.0802V37.0856Z" fill="#D7F3FF" fill-opacity="0.6"/>
<path d="M33.3854 35.8951C33.4104 36.1134 33.383 36.3344 33.3054 36.5402C33.2277 36.7461 33.102 36.9311 32.9384 37.0802C32.3762 37.5775 31.3698 38.2964 31.3698 38.2964C31.3698 38.2964 30.3057 38.9044 29.6599 37.5505C29.0141 36.1965 27.6155 34.5425 28.2037 27.5051C28.2037 27.5051 29.1293 22.9783 29.6599 21.7906C30.1906 20.6028 31.6221 21.1014 31.6221 21.1014L33.0207 21.8189C33.0207 21.8189 33.4142 22.1216 33.3854 23.6675V35.8951Z" stroke="#D7F3FF" stroke-opacity="0.6" stroke-miterlimit="10"/>
<path fill-rule="evenodd" clip-rule="evenodd" d="M37.8676 44.8555C37.8676 44.8555 37.9348 41.584 37.9705 38.2329C37.2643 41.0544 36.2414 44.3677 36.2414 44.3677C31.2572 43.4299 28.9029 39.2328 28.9029 39.2328C24.9265 32.8292 26.853 25.6875 27.6894 23.0363C28.5258 20.3851 33.8858 11.1345 35.0622 9.53458C35.6696 8.6783 36.1887 7.7813 36.497 6.78174C33.9106 4.87618 31.0795 3.18957 28.1529 1.84449C23.2976 -0.364845 17.1753 -0.071619 16.5761 0.151341C15.9769 0.374301 12.2487 2.65255 11.426 3.16738C11.0468 3.4115 10.6346 3.60165 10.2015 3.73221C9.01271 5.23077 5.36539 9.48998 1.42602 10.7872C1.42602 10.7872 7.0204 5.72264 8.30519 3.47952C8.07346 3.08225 8.13927 2.47823 8.16121 2.32554H1.08048C1.1063 2.43364 1.12009 2.5442 1.12162 2.65525C1.12162 3.09711 0.745917 4.2011 0.745917 4.2011V11.7088C0.30435 13.0186 0.0532176 14.3834 0 15.7626V37.0168C0.0884629 37.0431 0.166033 37.0966 0.221317 37.1696C0.2766 37.2426 0.306681 37.3311 0.307142 37.4221V38.0289C0.306466 38.1199 0.276302 38.2083 0.221051 38.2812C0.165799 38.3541 0.0883498 38.4077 0 38.4342V39.4193C0.0683131 39.439 0.130535 39.4752 0.180996 39.5247C0.261655 39.6054 0.306951 39.7141 0.307143 39.8274V40.4355L0.307142 40.4365V40.4382C0.306681 40.5292 0.2766 40.6177 0.221317 40.6907C0.205197 40.712 0.187183 40.7316 0.167556 40.7494C0.119294 40.7933 0.0619176 40.8254 0 40.844V41.7192C0.068577 41.7383 0.130945 41.7746 0.180995 41.8246C0.261654 41.9053 0.30695 42.014 0.307142 42.1273V42.1284C0.30715 42.1298 0.30715 42.1313 0.307143 42.1327V42.738C0.3069 42.8291 0.276902 42.9178 0.221586 42.9908C0.166271 43.0638 0.0885781 43.1173 0 43.1434V45.9878C0.0836415 48.2242 2.76977 47.9877 2.76977 47.9877C2.76977 47.9877 34.5192 48.1093 35.331 47.9877C35.6108 47.9469 35.81 47.9439 35.9827 47.9414C36.3812 47.9355 36.6382 47.9317 37.4179 47.4688C38.0061 47.1189 37.8676 44.8555 37.8676 44.8555ZM11.8469 11.1345C8.29147 9.78321 11.0352 7.93467 11.0352 7.93467C11.0352 7.93467 15.2378 4.81458 17.2535 3.21467C19.2691 1.61477 21.1448 2.30257 21.1448 2.30257C25.682 2.60795 30.4455 5.23483 32.1814 6.25098C33.9173 7.26714 32.7683 8.763 32.7683 8.763C32.7683 8.763 29.6598 13.7627 28.4847 16.2139C27.3096 18.6651 24.9827 17.0693 24.9827 17.0693C24.9827 17.0693 15.4037 12.4885 11.8469 11.1345Z" fill="#D7F3FF" fill-opacity="0.92"/>
</g>
<defs>
<clipPath id="clip0_3305_60838">
<rect width="38" height="48" fill="white"/>
</clipPath>
</defs>
</svg>
