<svg width="237" height="200" viewBox="0 0 237 200" fill="none" xmlns="http://www.w3.org/2000/svg">
<path opacity="0.2" d="M24.7646 119.346C21.6803 149.292 38.3622 145.575 38.3622 145.575C50.4128 178.848 91.8358 162.04 91.8358 162.04C109.616 187.955 129.878 161.499 129.878 161.499C174.615 194.059 186.465 139.443 186.465 139.443C216.868 146.402 211.13 110.876 211.13 110.876C225.329 82.6793 198.716 74.4181 198.716 74.4181C207.644 50.604 182.798 51.8304 182.798 51.8304C170.633 6.48384 140.038 37.7796 140.038 37.7796C91.8358 -11.8924 72.7667 42.9987 72.7667 42.9987C49.3815 30.1268 47.7678 55.5855 47.7678 55.5855C8.21642 45.4134 23.3418 99.8197 23.3418 99.8197C7.91085 106.474 24.7646 119.346 24.7646 119.346ZM56.5145 72.3646C56.5145 72.3646 70.685 75.6539 74.6574 59.0554C74.6574 59.0554 111 85.5978 148.842 50.6896C148.842 50.6896 153.034 73.8001 173.593 76.5C173.593 76.5 171.893 95.979 188.709 104.069C188.709 104.069 162.287 115.239 169.076 141.63C169.076 141.63 148.422 128.435 142.445 151.374C142.445 151.374 121.685 119.831 95.5025 148.123C95.5025 148.123 95.8081 107.492 53.0674 120.478C53.0674 120.478 58.5007 107.938 43.1557 105.067C43.1461 105.058 67.0183 100.77 56.5145 72.3646Z" fill="#FAFAFA"/>
<path d="M145.742 25.2863L55.5587 30.2746C53.4736 30.3899 51.8771 32.1663 51.993 34.2422L58.6201 152.996C58.7359 155.072 60.5202 156.662 62.6054 156.546L152.789 151.558C154.874 151.443 156.471 149.666 156.355 147.59L149.728 28.8363C149.612 26.7603 147.827 25.1709 145.742 25.2863Z" fill="#CBCBCB"/>
<path d="M153.344 32.8497L63.1603 37.838C61.0751 37.9534 59.4787 39.7298 59.5945 41.8057L66.2216 160.56C66.3375 162.636 68.1218 164.225 70.2069 164.11L160.39 159.121C162.476 159.006 164.072 157.23 163.956 155.154L157.329 36.3997C157.213 34.3238 155.429 32.7344 153.344 32.8497Z" fill="#E4E4E4"/>
<path d="M167.28 45.0234H76.9571C74.8687 45.0234 73.1758 46.7089 73.1758 48.7881V167.725C73.1758 169.804 74.8687 171.49 76.9571 171.49H167.28C169.368 171.49 171.061 169.804 171.061 167.725V48.7881C171.061 46.7089 169.368 45.0234 167.28 45.0234Z" fill="#A3A1A1"/>
<path d="M91.873 70.2061H116.07" stroke="#E4E4E4" stroke-width="2" stroke-linecap="round" stroke-linejoin="round"/>
<path d="M91.873 122.769H126.841" stroke="#E4E4E4" stroke-width="2" stroke-linecap="round" stroke-linejoin="round"/>
<path d="M92.8375 103.175L90.6699 102.814C90.6699 102.814 90.6699 98.5263 90.8895 95.7028C90.9 94.9189 91.0386 94.1418 91.3001 93.4023C91.472 93.1131 91.6601 92.8338 91.8635 92.5657C93.2959 90.5788 96.7907 86.1487 97.8793 84.7703L98.5573 83.9717C99.1589 83.3633 100.734 82.2225 104.153 81.9658C107.677 81.7679 111.209 81.7679 114.733 81.9658L122.916 82.3936C124.328 82.4582 125.701 82.8662 126.917 83.5819C127.201 83.7611 127.475 83.9547 127.739 84.1618C127.922 84.3077 128.094 84.4665 128.254 84.6372L128.359 84.7512H128.426C128.426 84.7512 128.827 85.122 129.381 85.7019L137.765 94.3719C137.806 94.3883 137.842 94.4144 137.87 94.448H137.803L143.618 97.9559L143.676 98.013L143.762 98.0985C143.867 98.2316 143.991 98.3932 144.124 98.5929L144.258 98.802L144.392 99.0492C144.459 99.1728 144.535 99.3059 144.602 99.458C144.688 99.6291 144.774 99.8097 144.86 100.009C145.729 102.025 145.681 105.713 144.602 106.189L142.845 106.303C142.31 108.147 140.992 109.459 139.407 109.516C138.606 109.472 137.837 109.186 137.204 108.695C136.57 108.204 136.103 107.532 135.865 106.769L122.926 107.615H122.83L120.443 107.196V107.244H120.376C120.061 109.592 118.409 111.417 116.356 111.484C114.007 111.56 112.04 109.326 111.945 106.512C111.945 106.331 111.945 106.16 111.945 105.979L111.181 105.894C111.185 105.869 111.185 105.843 111.181 105.818L104.602 104.867L101.632 104.439C101.632 104.525 101.632 104.573 101.632 104.573H100.677C100.675 104.541 100.675 104.509 100.677 104.477C100.629 107.139 99.0634 108.993 97.039 108.86C94.5754 108.698 93.124 107.139 93.3245 104.249C93.3245 103.841 93.3245 103.65 93.4104 103.299L92.4556 103.128C92.4556 103.128 92.8089 103.318 92.8375 103.175Z" fill="#DBDBDB"/>
<path d="M94.4322 105.076C94.4136 105.007 94.4096 104.935 94.4206 104.864C94.4316 104.794 94.4573 104.726 94.496 104.666C94.5348 104.606 94.5857 104.554 94.6456 104.515C94.7055 104.475 94.773 104.449 94.8438 104.437C94.9146 104.425 94.9872 104.428 95.0568 104.445C95.1264 104.463 95.1916 104.495 95.2481 104.539C95.3047 104.583 95.3513 104.638 95.3851 104.701C95.4189 104.764 95.4391 104.834 95.4444 104.905C95.4578 105.321 95.608 105.721 95.8719 106.044C96.1359 106.367 96.4989 106.595 96.9054 106.692C96.9991 106.749 97.0722 106.835 97.1138 106.936C97.1555 107.037 97.1636 107.149 97.1369 107.255C97.1103 107.361 97.0503 107.456 96.9657 107.526C96.8811 107.596 96.7763 107.637 96.6666 107.643L96.3897 107.557C95.8632 107.367 95.4008 107.034 95.0548 106.595C94.7088 106.157 94.4931 105.63 94.4322 105.076ZM99.2066 106.711C99.0904 106.64 99.0071 106.527 98.9749 106.395C98.9427 106.263 98.9642 106.124 99.0348 106.008C99.135 105.85 99.2152 105.681 99.2735 105.504C99.4842 104.817 99.53 104.091 99.4072 103.384C99.3869 103.249 99.4213 103.112 99.5028 103.002C99.5843 102.892 99.7062 102.819 99.8416 102.799C99.9771 102.779 100.115 102.813 100.225 102.894C100.335 102.976 100.409 103.097 100.429 103.232C100.569 104.102 100.507 104.994 100.247 105.837C100.161 106.085 100.049 106.324 99.9133 106.55C99.8512 106.647 99.7586 106.721 99.6498 106.761C99.541 106.8 99.4221 106.803 99.3117 106.768L99.2066 106.711ZM115.631 109.649C115.635 109.582 115.654 109.516 115.684 109.456C115.715 109.396 115.757 109.343 115.809 109.3C115.861 109.256 115.92 109.223 115.985 109.203C116.049 109.183 116.117 109.176 116.185 109.183H116.719C117.722 109.183 117.961 109.183 118.362 108.47C118.394 108.412 118.437 108.361 118.489 108.319C118.54 108.278 118.6 108.247 118.664 108.228C118.728 108.21 118.795 108.204 118.861 108.211C118.927 108.218 118.991 108.238 119.049 108.27C119.11 108.301 119.163 108.344 119.207 108.396C119.25 108.448 119.283 108.508 119.302 108.573C119.322 108.638 119.328 108.706 119.321 108.773C119.313 108.84 119.292 108.905 119.259 108.964C118.572 110.219 117.789 110.21 116.71 110.2H116.099C116.058 110.21 116.015 110.21 115.974 110.2C115.864 110.161 115.772 110.084 115.714 109.983C115.656 109.882 115.637 109.763 115.659 109.649H115.631ZM92.1691 101.625V101.036C92.1716 100.968 92.1874 100.902 92.2156 100.841C92.2438 100.779 92.2839 100.724 92.3336 100.678C92.3832 100.632 92.4415 100.597 92.505 100.573C92.5686 100.55 92.6361 100.539 92.7039 100.541C92.7716 100.541 92.8386 100.555 92.9007 100.582C92.9629 100.608 93.019 100.647 93.0655 100.696C93.112 100.745 93.148 100.803 93.1712 100.866C93.1944 100.93 93.2043 100.997 93.2004 101.064V101.188L95.2057 101.426C95.2805 101.432 95.3532 101.454 95.419 101.49C95.4848 101.526 95.5423 101.575 95.5876 101.635C95.627 101.696 95.6525 101.765 95.6624 101.838C95.6723 101.91 95.6663 101.983 95.6449 102.053C95.6152 102.185 95.5343 102.3 95.4199 102.373C95.3055 102.446 95.1667 102.471 95.0338 102.443L92.6561 102.148H92.5511C92.4359 102.119 92.3346 102.051 92.2648 101.956C92.1949 101.86 92.1611 101.743 92.1691 101.625ZM113.778 107.7C113.639 106.617 113.681 105.518 113.902 104.449C113.932 104.317 114.013 104.202 114.127 104.129C114.242 104.056 114.381 104.031 114.513 104.059C114.579 104.071 114.642 104.097 114.698 104.134C114.754 104.171 114.801 104.219 114.838 104.275C114.874 104.331 114.899 104.394 114.911 104.46C114.922 104.525 114.92 104.593 114.905 104.658C114.716 105.597 114.677 106.559 114.79 107.51C114.803 107.576 114.801 107.644 114.787 107.71C114.772 107.776 114.745 107.838 114.705 107.893C114.666 107.948 114.616 107.994 114.559 108.03C114.501 108.065 114.437 108.089 114.37 108.099C114.288 108.114 114.204 108.114 114.122 108.099C114.032 108.07 113.951 108.018 113.887 107.948C113.824 107.878 113.779 107.792 113.759 107.7H113.778ZM101.708 102.947C101.718 102.88 101.74 102.816 101.775 102.757C101.809 102.699 101.855 102.648 101.909 102.608C101.963 102.567 102.024 102.538 102.09 102.521C102.156 102.504 102.224 102.5 102.291 102.509L105.337 102.899C105.405 102.906 105.47 102.927 105.529 102.959C105.589 102.992 105.641 103.036 105.683 103.09C105.725 103.143 105.755 103.204 105.773 103.269C105.791 103.334 105.795 103.403 105.786 103.47C105.767 103.603 105.696 103.723 105.589 103.805C105.482 103.886 105.347 103.923 105.213 103.907L102.157 103.517H102.052C101.931 103.474 101.831 103.388 101.769 103.276C101.708 103.164 101.689 103.033 101.718 102.909L101.708 102.947ZM107.82 103.726C107.839 103.593 107.909 103.473 108.016 103.391C108.124 103.309 108.259 103.273 108.393 103.289L111.448 103.679C111.582 103.696 111.704 103.766 111.787 103.873C111.869 103.98 111.905 104.115 111.888 104.249C111.87 104.383 111.799 104.504 111.692 104.586C111.585 104.668 111.449 104.704 111.315 104.686L108.259 104.297H108.163C108.036 104.261 107.927 104.178 107.86 104.065C107.792 103.951 107.771 103.817 107.801 103.688L107.82 103.726ZM92.2742 98.0222L92.3601 94.9611C92.3651 94.8266 92.4229 94.6995 92.5211 94.607C92.6194 94.5145 92.7501 94.4642 92.8853 94.4668C93.0204 94.4717 93.1481 94.5293 93.241 94.6271C93.3338 94.7249 93.3844 94.8551 93.3818 94.9896L93.2959 98.0603C93.2909 98.1947 93.2331 98.3219 93.1349 98.4144C93.0366 98.5068 92.9059 98.5572 92.7707 98.5546C92.7203 98.5646 92.6684 98.5646 92.6179 98.5546C92.4934 98.521 92.3864 98.4412 92.319 98.3316C92.2515 98.2221 92.2286 98.091 92.2551 97.9652L92.2742 98.0222ZM119.422 105.761L119.546 105.342C119.582 105.218 119.664 105.111 119.775 105.044C119.887 104.977 120.02 104.954 120.147 104.981L122.716 105.551C122.782 105.565 122.845 105.592 122.901 105.63C122.957 105.668 123.004 105.717 123.041 105.773C123.077 105.83 123.102 105.893 123.113 105.96C123.125 106.026 123.123 106.094 123.107 106.16C123.078 106.292 122.997 106.407 122.882 106.48C122.768 106.553 122.629 106.578 122.496 106.55L120.396 106.084C120.352 106.207 120.262 106.309 120.144 106.368C120.027 106.426 119.891 106.437 119.765 106.398C119.692 106.381 119.624 106.349 119.565 106.303C119.506 106.258 119.457 106.2 119.423 106.134C119.388 106.068 119.368 105.995 119.365 105.921C119.362 105.847 119.374 105.773 119.402 105.704L119.422 105.761ZM125.151 106.169C125.131 106.098 125.127 106.023 125.139 105.95C125.151 105.877 125.179 105.807 125.221 105.745C125.263 105.684 125.317 105.632 125.381 105.594C125.445 105.555 125.516 105.531 125.59 105.523L128.646 105.209C128.714 105.203 128.782 105.21 128.847 105.229C128.912 105.249 128.973 105.282 129.025 105.325C129.077 105.369 129.121 105.422 129.152 105.482C129.184 105.542 129.203 105.608 129.209 105.675C129.216 105.741 129.209 105.808 129.19 105.872C129.17 105.935 129.138 105.995 129.095 106.046C129.053 106.097 129 106.139 128.941 106.17C128.882 106.201 128.817 106.22 128.751 106.226L125.686 106.531C125.616 106.545 125.545 106.545 125.476 106.531C125.382 106.501 125.299 106.446 125.235 106.372C125.171 106.298 125.129 106.208 125.113 106.112L125.151 106.169ZM138.357 109.021C137.855 108.707 137.425 108.29 137.096 107.799C136.767 107.307 136.546 106.752 136.447 106.169C136.416 106.037 136.438 105.898 136.51 105.782C136.581 105.666 136.696 105.583 136.829 105.551C136.963 105.523 137.103 105.548 137.219 105.621C137.335 105.693 137.418 105.808 137.45 105.941C137.512 106.376 137.663 106.792 137.895 107.165C138.127 107.538 138.434 107.86 138.796 108.109C138.923 108.163 139.023 108.265 139.074 108.392C139.125 108.52 139.123 108.662 139.068 108.788C139.014 108.915 138.911 109.014 138.783 109.065C138.655 109.116 138.512 109.114 138.386 109.059L138.357 109.021ZM131.243 105.523C131.23 105.388 131.27 105.254 131.356 105.149C131.442 105.043 131.566 104.976 131.701 104.962L134.767 104.658C134.902 104.645 135.037 104.685 135.143 104.771C135.248 104.856 135.316 104.979 135.33 105.114C135.343 105.249 135.303 105.384 135.217 105.489C135.131 105.594 135.007 105.661 134.872 105.675L131.806 105.979C131.734 105.994 131.659 105.994 131.587 105.979C131.491 105.946 131.407 105.884 131.345 105.803C131.284 105.722 131.249 105.624 131.243 105.523ZM94.1362 92.7936C94.0296 92.7109 93.9599 92.5899 93.942 92.4565C93.9242 92.3232 93.9596 92.1882 94.0407 92.0806L95.9505 89.6469C96.0352 89.5402 96.1585 89.4705 96.294 89.4528C96.4295 89.435 96.5666 89.4706 96.6762 89.5518C96.7828 89.6345 96.8525 89.7556 96.8703 89.8889C96.8882 90.0222 96.8528 90.1572 96.7717 90.2648L94.8619 92.6985C94.7971 92.784 94.7066 92.8466 94.6036 92.8774C94.5005 92.9081 94.3903 92.9054 94.289 92.8697C94.2323 92.8579 94.1796 92.8317 94.1362 92.7936ZM141.069 108.546C141.017 108.504 140.974 108.452 140.943 108.393C140.912 108.334 140.892 108.27 140.886 108.203C140.88 108.137 140.887 108.07 140.907 108.007C140.927 107.943 140.959 107.884 141.002 107.833C141.137 107.658 141.244 107.462 141.317 107.253C141.494 106.613 141.536 105.943 141.441 105.285C141.431 105.229 141.431 105.171 141.441 105.114C141.405 105.057 141.382 104.992 141.374 104.924C141.365 104.857 141.369 104.789 141.386 104.724C141.403 104.659 141.433 104.597 141.473 104.543C141.514 104.49 141.565 104.444 141.624 104.41C141.682 104.376 141.747 104.353 141.814 104.344C143.055 104.183 143.332 103.821 143.446 103.479C143.494 103.351 143.52 103.216 143.523 103.08C143.524 103.012 143.539 102.946 143.567 102.884C143.595 102.823 143.635 102.768 143.685 102.722C143.735 102.677 143.794 102.642 143.858 102.62C143.922 102.598 143.99 102.59 144.058 102.595C144.125 102.597 144.191 102.613 144.252 102.641C144.313 102.67 144.368 102.71 144.414 102.759C144.459 102.809 144.494 102.867 144.516 102.93C144.539 102.993 144.548 103.06 144.545 103.127C144.535 103.36 144.493 103.59 144.42 103.812C144.263 104.204 144.003 104.546 143.667 104.804C143.331 105.061 142.932 105.224 142.511 105.276C142.609 106.048 142.543 106.831 142.32 107.576C142.216 107.922 142.048 108.244 141.823 108.527C141.757 108.605 141.669 108.662 141.57 108.689C141.471 108.716 141.366 108.713 141.269 108.679C141.19 108.656 141.12 108.61 141.069 108.546ZM97.8984 87.9167C97.8467 87.8745 97.804 87.8224 97.7726 87.7636C97.7412 87.7048 97.7219 87.6404 97.7157 87.5741C97.7094 87.5078 97.7165 87.4409 97.7364 87.3773C97.7563 87.3138 97.7887 87.2548 97.8316 87.2037C98.5036 86.3831 99.2659 85.6401 100.104 84.9887C100.157 84.9405 100.219 84.9037 100.286 84.8806C100.354 84.8575 100.425 84.8487 100.496 84.8546C100.568 84.8604 100.637 84.881 100.699 84.9148C100.762 84.9487 100.817 84.9952 100.861 85.0513C100.905 85.1074 100.936 85.172 100.954 85.2409C100.971 85.3098 100.974 85.3816 100.962 85.4517C100.95 85.5218 100.924 85.5886 100.885 85.648C100.845 85.7074 100.794 85.758 100.734 85.7967C99.9571 86.4016 99.2493 87.0903 98.6242 87.8502C98.5579 87.9309 98.4684 87.9896 98.3678 88.0184C98.2671 88.0473 98.1601 88.045 98.0608 88.0118C97.9999 87.9934 97.9442 87.9608 97.8984 87.9167ZM142.778 100.399C142.314 99.5605 141.66 98.8413 140.868 98.2979C140.762 98.2152 140.692 98.0942 140.674 97.9609C140.656 97.8275 140.692 97.6925 140.773 97.5849C140.812 97.5306 140.863 97.4847 140.92 97.45C140.978 97.4152 141.042 97.3923 141.109 97.3826C141.176 97.3729 141.244 97.3765 141.309 97.3933C141.374 97.4101 141.435 97.4397 141.489 97.4804C142.39 98.1222 143.132 98.9613 143.657 99.9331C143.688 99.9928 143.706 100.058 143.711 100.125C143.717 100.192 143.708 100.26 143.687 100.323C143.666 100.387 143.632 100.446 143.587 100.497C143.542 100.547 143.488 100.588 143.427 100.618C143.366 100.646 143.299 100.66 143.232 100.66C143.164 100.66 143.097 100.646 143.036 100.618C142.927 100.576 142.836 100.499 142.778 100.399ZM135.884 96.0163L135.435 95.56C135.38 95.5138 135.335 95.4567 135.304 95.3923C135.273 95.3278 135.255 95.2576 135.252 95.186C135.25 95.1144 135.262 95.0431 135.289 94.9767C135.316 94.9102 135.356 94.85 135.408 94.8001C135.459 94.7501 135.521 94.7114 135.588 94.6865C135.656 94.6616 135.728 94.651 135.8 94.6554C135.871 94.6599 135.941 94.6792 136.005 94.7122C136.069 94.7452 136.125 94.7911 136.17 94.847L136.514 95.1988C136.734 95.2558 137.163 95.3699 137.717 95.5505C138.07 95.6741 138.424 95.8072 138.758 95.9498C138.821 95.9737 138.879 96.0102 138.928 96.0572C138.977 96.1042 139.015 96.1606 139.041 96.2229C139.067 96.2853 139.08 96.3522 139.079 96.4197C139.078 96.4872 139.063 96.5537 139.035 96.6153C138.982 96.7394 138.882 96.8378 138.757 96.8894C138.632 96.941 138.492 96.9415 138.367 96.8909C138.051 96.7579 137.717 96.6343 137.412 96.5202C136.676 96.273 136.17 96.1589 136.17 96.1589H136.094C136.014 96.1277 135.942 96.0789 135.884 96.0163ZM102.587 84.076C102.548 83.9462 102.56 83.8061 102.623 83.6855C102.685 83.5649 102.792 83.4731 102.921 83.4296C103.162 83.3448 103.412 83.2874 103.666 83.2585C104.048 83.2109 104.755 83.2109 106.149 83.2109C106.285 83.2109 106.417 83.265 106.513 83.3613C106.61 83.4576 106.664 83.5881 106.664 83.7243C106.664 83.8604 106.61 83.991 106.513 84.0873C106.417 84.1836 106.285 84.2377 106.149 84.2377C104.84 84.2377 103.943 84.2377 103.761 84.2377C103.583 84.2654 103.407 84.31 103.236 84.3707C103.131 84.4042 103.017 84.4042 102.912 84.3707C102.839 84.3479 102.773 84.3097 102.717 84.2588C102.661 84.2079 102.616 84.1456 102.587 84.076ZM133.287 93.345L131.128 91.1585C131.035 91.0612 130.983 90.9318 130.983 90.7972C130.983 90.6626 131.035 90.5332 131.128 90.436C131.225 90.3407 131.355 90.2873 131.491 90.2873C131.627 90.2873 131.758 90.3407 131.854 90.436L134.003 92.6225C134.098 92.7186 134.152 92.8484 134.152 92.9837C134.152 93.119 134.098 93.2489 134.003 93.345C133.935 93.4119 133.85 93.4588 133.758 93.4806C133.665 93.5025 133.568 93.4983 133.477 93.4686C133.405 93.4437 133.339 93.4012 133.287 93.345ZM108.717 83.7718C108.72 83.6364 108.775 83.5073 108.871 83.4115C108.967 83.3158 109.097 83.2609 109.233 83.2585H112.327C112.394 83.2597 112.461 83.2742 112.523 83.3012C112.585 83.3281 112.642 83.367 112.689 83.4155C112.736 83.4641 112.773 83.5214 112.797 83.5841C112.822 83.6469 112.834 83.7139 112.833 83.7813C112.828 83.9167 112.77 84.0448 112.672 84.1388C112.574 84.2328 112.444 84.2853 112.308 84.2852H109.233C109.179 84.295 109.124 84.295 109.071 84.2852C108.963 84.2499 108.871 84.1806 108.807 84.0879C108.743 83.9951 108.712 83.8841 108.717 83.7718ZM128.98 88.9624L126.831 86.7664C126.784 86.7196 126.747 86.664 126.722 86.6029C126.696 86.5417 126.683 86.4761 126.683 86.4099C126.683 86.3437 126.696 86.2781 126.722 86.217C126.747 86.1558 126.784 86.1002 126.831 86.0534C126.928 85.9582 127.058 85.9048 127.194 85.9048C127.33 85.9048 127.461 85.9582 127.557 86.0534L129.706 88.2494C129.801 88.3456 129.855 88.4754 129.855 88.6107C129.855 88.746 129.801 88.8758 129.706 88.9719C129.639 89.0402 129.554 89.0874 129.46 89.1077C129.367 89.1279 129.27 89.1204 129.18 89.086C129.104 89.0638 129.034 89.0211 128.98 88.9624ZM114.886 83.8384C114.891 83.7039 114.949 83.5767 115.047 83.4843C115.145 83.3918 115.276 83.3414 115.411 83.344C116.519 83.344 117.569 83.344 118.505 83.4296C118.573 83.432 118.639 83.4478 118.701 83.4759C118.762 83.5039 118.818 83.5438 118.864 83.5933C118.91 83.6427 118.946 83.7008 118.97 83.764C118.993 83.8273 119.004 83.8945 119.001 83.962C118.994 84.0973 118.934 84.2245 118.834 84.3167C118.735 84.4089 118.603 84.459 118.467 84.4563L115.392 84.3612C115.342 84.3712 115.29 84.3712 115.239 84.3612C115.13 84.3256 115.036 84.2548 114.972 84.1601C114.908 84.0654 114.878 83.9522 114.886 83.8384ZM121.054 84.0855C121.073 83.9525 121.144 83.8322 121.251 83.7504C121.358 83.6687 121.493 83.632 121.627 83.6482C122.52 83.7624 123.4 83.963 124.253 84.2472L124.721 84.4183C124.83 84.4778 124.914 84.5746 124.957 84.6909C125 84.8072 125 84.9351 124.956 85.0509C124.911 85.1668 124.827 85.2628 124.717 85.3212C124.607 85.3797 124.48 85.3966 124.358 85.3689C123.434 85.0225 122.473 84.7801 121.494 84.6464H121.398C121.283 84.6094 121.185 84.5324 121.122 84.4295C121.059 84.3265 121.035 84.2045 121.054 84.0855Z" fill="#CBCBCB"/>
<path d="M200.587 62.3538L159.097 183.677L158.992 183.772L143.112 178.401L143.074 178.249L184.507 56.916L200.587 62.3538Z" fill="#CBCBCB"/>
<path d="M158.991 183.773L152.097 190.018L145.088 187.642L143.111 178.401L158.991 183.773Z" fill="#DBDBDB"/>
<path d="M186.357 54.315L200.669 59.1573C200.909 59.2384 201.106 59.4111 201.218 59.6373C201.33 59.8634 201.347 60.1246 201.266 60.3633L198.636 68.0682L182.561 62.6294L185.203 54.8885C185.289 54.6666 185.455 54.4847 185.668 54.3785C185.882 54.2724 186.127 54.2497 186.357 54.315Z" fill="#A3A1A1"/>
<path d="M198.758 67.6014L182.719 62.1748L181.158 66.7473L197.197 72.1739L198.758 67.6014Z" fill="#DBDBDB"/>
<path d="M152.097 190.018L146.654 194.943L145.088 187.642L152.097 190.018Z" fill="#A3A1A1"/>
<path d="M191.849 70.2417L186.217 68.3359L148.123 179.931L153.756 181.836L191.849 70.2417Z" fill="#A3A1A1"/>
</svg>
