<svg width="22" height="22" viewBox="0 0 22 22" fill="none" xmlns="http://www.w3.org/2000/svg">
<path d="M1.35742 15.4432V3.07959H5.99378C6.94359 3.07959 7.74047 3.2446 8.38441 3.57462C9.03237 3.90464 9.52136 4.36747 9.85138 4.96312C10.1854 5.55474 10.3525 6.24496 10.3525 7.03378C10.3525 7.82663 10.1834 8.51484 9.84535 9.09841C9.5113 9.67796 9.01829 10.1267 8.3663 10.4446C7.71431 10.7586 6.91341 10.9155 5.9636 10.9155H2.6614V9.05616H5.66175C6.21715 9.05616 6.67193 8.97969 7.0261 8.82675C7.38027 8.66979 7.64187 8.4424 7.8109 8.14458C7.98396 7.84273 8.07049 7.47247 8.07049 7.03378C8.07049 6.5951 7.98396 6.22081 7.8109 5.91091C7.63784 5.59699 7.37423 5.35954 7.02006 5.19856C6.6659 5.03355 6.2091 4.95104 5.64968 4.95104H3.59712V15.4432H1.35742ZM7.74449 9.84096L10.8052 15.4432H8.30593L5.29954 9.84096H7.74449ZM11.8875 18.9205V6.1705H14.0367V7.70388H14.1634C14.2761 7.4785 14.4351 7.23904 14.6404 6.98549C14.8456 6.72791 15.1233 6.50857 15.4734 6.32746C15.8236 6.14233 16.2703 6.04976 16.8136 6.04976C17.53 6.04976 18.176 6.23288 18.7515 6.59912C19.331 6.96134 19.7899 7.49863 20.1279 8.21099C20.47 8.91932 20.6411 9.78864 20.6411 10.8189C20.6411 11.8372 20.474 12.7024 20.14 13.4148C19.806 14.1271 19.3512 14.6705 18.7756 15.0448C18.2001 15.4191 17.5481 15.6062 16.8197 15.6062C16.2884 15.6062 15.8477 15.5177 15.4976 15.3406C15.1475 15.1635 14.8657 14.9502 14.6524 14.7007C14.4431 14.4471 14.2801 14.2076 14.1634 13.9823H14.0729V18.9205H11.8875ZM14.0306 10.8069C14.0306 11.4065 14.1151 11.9317 14.2842 12.3825C14.4572 12.8332 14.7047 13.1854 15.0267 13.4389C15.3527 13.6885 15.7471 13.8132 16.21 13.8132C16.6929 13.8132 17.0974 13.6844 17.4234 13.4269C17.7494 13.1653 17.9949 12.8091 18.1599 12.3584C18.3289 11.9036 18.4134 11.3864 18.4134 10.8069C18.4134 10.2313 18.3309 9.72022 18.1659 9.27349C18.0009 8.82675 17.7554 8.47661 17.4294 8.22306C17.1034 7.96951 16.6969 7.84273 16.21 7.84273C15.7431 7.84273 15.3467 7.96548 15.0207 8.21099C14.6947 8.45649 14.4472 8.80059 14.2781 9.2433C14.1131 9.68601 14.0306 10.2072 14.0306 10.8069Z" fill="#808080"/>
</svg>
