<svg width="235" height="173" viewBox="0 0 235 173" fill="none" xmlns="http://www.w3.org/2000/svg">
<path opacity="0.2" d="M62.9796 101.559C53.4415 118.829 71.493 123.914 71.493 123.914C71.493 146.539 104.009 145.777 104.009 145.777C109.754 165.308 130.2 153.999 130.2 153.999C152.754 183.559 174.432 153.465 174.432 153.465C193.527 164.458 198.415 141.858 198.415 141.858C215.166 128.139 198.947 117.199 198.947 117.199C210.978 104.926 193.646 100.078 193.646 100.078C196.602 70.1586 167.849 82.0632 167.849 82.0632C147.187 41.449 114.001 72.0697 114.001 72.0697C110.059 57.6228 98.1267 67.3183 98.1267 67.3183C73.5622 52.3806 65.305 87.2354 65.305 87.2354C52.6335 91.0136 62.9796 101.559 62.9796 101.559ZM92.2147 78.7671C92.2147 78.7671 110.936 89.2165 117.834 80.1347C117.834 80.1347 142.694 106.188 177.269 93.7487C177.269 93.7487 174.402 108.546 187.812 114.788C187.812 114.788 177.831 125.912 187.33 134.556C187.33 134.556 163.888 133.521 161.987 150.87C161.987 150.87 151.148 138.317 141.295 150.738C141.295 150.738 134.909 127.157 109.951 138.255C109.951 138.255 114.878 115.279 82.4302 113.482C82.4302 113.482 84.6965 100.551 74.9022 95.388C74.9614 95.388 92.3723 98.1757 92.2344 78.7759L92.2147 78.7671Z" fill="#DBDBDB"/>
<path d="M162.314 141.054C166.439 134.449 170.904 139.866 170.904 139.866C174.853 147.184 181.896 139.215 181.896 139.215C188.083 146.388 191.094 137.457 191.094 137.457C194.053 138.315 194.445 134.356 194.445 134.356C201.426 135.39 201.251 126.914 201.251 126.914C202.674 127.948 204.963 124.681 204.963 124.681C206.713 125.453 208.682 125.564 210.507 124.994C212.332 124.424 213.89 123.212 214.893 121.58C217.306 119.782 220.564 123.948 220.564 123.948C221.594 123.551 222.714 123.457 223.795 123.675C224.876 123.892 225.872 124.414 226.669 125.178C227.346 125.781 228.176 126.188 229.067 126.354C229.958 126.52 230.878 126.44 231.726 126.121C232.575 125.802 233.321 125.256 233.883 124.544C234.446 123.831 234.804 122.978 234.918 122.077C235.171 119.798 234.837 117.492 233.949 115.379C233.65 108.929 227.319 111.068 227.319 111.068C222.833 107.481 216.646 108.381 215.574 110.458C213.81 106.706 210.212 103.657 201.395 108.494C201.395 108.494 185.247 103.977 181.545 119.296C181.545 119.296 173.585 119.989 175.606 127.906C174.635 128.023 173.704 128.364 172.886 128.902C172.069 129.44 171.387 130.161 170.894 131.007C168.14 128.651 164.294 131.669 162.005 135.039C159.912 138.14 158.685 146.853 162.314 141.054Z" fill="#CBCBCB"/>
<path d="M200.933 109.31C200.933 109.31 193.716 106.067 189.637 116.047C189.637 116.047 186.154 115.314 185.788 117.985C185.788 117.985 181.803 118.537 183.361 112.965C184.92 107.392 188.779 110.304 188.779 110.304C188.779 110.304 190.662 97.7437 201.571 105.565C207.386 109.762 200.933 109.31 200.933 109.31Z" fill="#DBDBDB"/>
<path d="M174.525 142.914C174.778 143.239 175.03 143.553 175.241 143.868C175.893 145.034 176.868 145.99 178.049 146.622C182.865 148.612 184.474 142.098 188.565 142.035H192.057C192.659 142.053 193.261 141.986 193.844 141.836C196.642 140.945 197.483 137.164 196.747 134.693C196.264 133.251 195.459 131.937 194.394 130.848C193.329 129.76 192.03 128.926 190.595 128.408C190.04 128.166 189.444 128.027 188.839 128C187.051 128 185.526 130.43 187.955 130.807H188.186C188.179 131.062 188.211 131.316 188.281 131.561C188.308 131.65 188.34 131.737 188.376 131.823C188.419 131.906 188.469 131.987 188.523 132.064C188.741 132.291 189.007 132.466 189.301 132.577C187.86 131.907 187.629 136.714 187.976 137.458C188.081 137.657 188.197 137.856 188.334 138.076L187.051 138.683V137.971C186.741 137.707 186.384 137.505 185.999 137.374C185.925 137.34 185.848 137.315 185.768 137.301C185.343 137.187 184.903 137.137 184.464 137.154H184.369H184.264H183.938H183.854H183.675H183.549C182.919 137.424 182.246 137.58 181.561 137.615C180.573 137.458 180.215 136.4 178.816 136.777C178.444 136.918 178.055 137.013 177.659 137.06C177.174 137.004 176.695 136.902 176.229 136.756C175.572 136.678 174.909 136.836 174.358 137.2C173.807 137.565 173.404 138.113 173.221 138.746C172.538 140.39 173.568 141.71 174.525 142.914Z" fill="#E4E4E4"/>
<path d="M37 72.2182V106H42V72.6802C42 72.6802 37 71.5331 37 72.2182Z" fill="#CBCBCB"/>
<path d="M50.2099 0H26.7901C24.1446 0 22 2.07976 22 4.64528V69.3547C22 71.9202 24.1446 74 26.7901 74H50.2099C52.8554 74 55 71.9202 55 69.3547V4.64528C55 2.07976 52.8554 0 50.2099 0Z" fill="#E4E4E4"/>
<path d="M39.5 24C44.7467 24 49 19.7467 49 14.5C49 9.25329 44.7467 5 39.5 5C34.2533 5 30 9.25329 30 14.5C30 19.7467 34.2533 24 39.5 24Z" fill="#E4E4E4"/>
<path d="M39.5 47C44.7467 47 49 42.7467 49 37.5C49 32.2533 44.7467 28 39.5 28C34.2533 28 30 32.2533 30 37.5C30 42.7467 34.2533 47 39.5 47Z" fill="#E4E4E4"/>
<path d="M39.5 70C44.7467 70 49 65.7467 49 60.5C49 55.2533 44.7467 51 39.5 51C34.2533 51 30 55.2533 30 60.5C30 65.7467 34.2533 70 39.5 70Z" fill="#A3A1A1"/>
<path d="M39.5 24C44.7467 24 49 19.7467 49 14.5C49 9.25329 44.7467 5 39.5 5C34.2533 5 30 9.25329 30 14.5C30 19.7467 34.2533 24 39.5 24Z" stroke="#CBCBCB" stroke-linecap="round" stroke-linejoin="round"/>
<path d="M39.5 47C44.7467 47 49 42.7467 49 37.5C49 32.2533 44.7467 28 39.5 28C34.2533 28 30 32.2533 30 37.5C30 42.7467 34.2533 47 39.5 47Z" stroke="#CBCBCB" stroke-linecap="round" stroke-linejoin="round"/>
<path d="M39.5 70C44.7467 70 49 65.7467 49 60.5C49 55.2533 44.7467 51 39.5 51C34.2533 51 30 55.2533 30 60.5C30 65.7467 34.2533 70 39.5 70Z" stroke="#CBCBCB" stroke-linecap="round" stroke-linejoin="round"/>
<path d="M149.692 148.188L155.996 148.455C155.996 148.455 158.6 136.504 159.613 128.462C159.995 125.376 160.15 122.816 159.819 121.797C159.664 121.293 159.272 120.368 158.724 119.134C155.862 112.737 148.69 98.2969 146.437 93.7922H146.499L145.073 91.1491C143.73 89.0921 139.989 84.9783 130.524 82.2425C120.735 79.6051 110.807 77.5107 100.784 75.9689L77.5237 72.3384C73.5284 71.6718 69.4297 71.9932 65.5886 73.2743C64.6797 73.5985 63.7897 73.9728 62.9225 74.3953C62.3274 74.692 61.7572 75.036 61.2175 75.4238L60.8352 75.6706L60.6492 75.7221C60.6492 75.7221 59.2852 76.514 57.3011 77.8818L28.6155 97.1142C28.4848 97.1377 28.3611 97.1904 28.2538 97.2684C28.3222 97.2569 28.3921 97.2569 28.4605 97.2684L10.0256 103.614H9.99464H9.94297H9.87064H9.80864H9.7053H9.62263L9.49863 103.676L9.3953 103.727L9.2403 103.82L9.12663 103.892L8.91996 104.015L8.81662 104.087L8.53762 104.293H8.46529C7.9983 104.65 7.55637 105.038 7.14261 105.455L6.63627 105.98L6.0886 106.576C5.81993 106.885 5.53059 107.224 5.24125 107.605C4.91058 108.026 4.55925 108.479 4.20791 108.993C0.580872 114.135 -1.48582 124.42 1.27321 126.415L6.14026 127.773C6.54327 133.224 9.46763 137.677 13.8903 138.757C18.1167 139.785 22.5601 137.451 25.4741 133.183L61.3519 143.231H61.6309L68.5853 143.488C68.5882 143.525 68.5882 143.563 68.5853 143.601H68.7816C68.2649 150.358 71.8816 156.426 77.5754 157.825C84.1164 159.419 91.0088 154.369 92.9102 146.511C93.0342 146.018 93.1272 145.483 93.2099 145.041L95.4006 145.236C95.4006 145.236 95.4006 145.154 95.4006 145.02L114.466 146.285L123.063 146.851L122.939 147.231L125.771 147.694L125.884 147.427C124.438 154.893 127.724 160.982 133.521 161.825C140.516 162.854 145.518 159.347 146.685 151.16C146.851 149.977 146.964 149.443 147.026 148.322L149.775 148.414C149.775 148.414 149.672 148.599 149.692 148.188Z" fill="#DBDBDB"/>
<path d="M51.5538 65.1845L57.2999 67.842C57.5585 67.9974 57.8646 68.0402 58.1527 67.9613C58.4409 67.8823 58.6884 67.6879 58.8424 67.4194C58.9947 67.1488 59.0388 66.8257 58.9651 66.5209C58.8913 66.2161 58.7057 65.9547 58.4491 65.794L52.703 63.1609C52.4448 63.0033 52.1381 62.9593 51.8494 63.0384C51.5606 63.1176 51.3131 63.3134 51.1604 63.5835C51.084 63.7172 51.0335 63.8655 51.0119 64.0199C50.9904 64.1743 50.9981 64.3316 51.0347 64.4828C51.0713 64.6341 51.136 64.7761 51.2251 64.9007C51.3142 65.0254 51.426 65.1301 51.5538 65.2089V65.1845Z" fill="#CBCBCB"/>
<path d="M49.2617 68.4219L52.6416 71.7705C52.7942 71.9178 52.9968 72 53.2074 72C53.418 72 53.6206 71.9178 53.7732 71.7705C53.9188 71.6143 54 71.4074 54 71.1924C54 70.9773 53.9188 70.7704 53.7732 70.6143L50.4007 67.2657C50.3272 67.1842 50.2382 67.1187 50.1391 67.073C50.0399 67.0274 49.9327 67.0026 49.8239 67.0002C49.7151 66.9978 49.6069 67.0177 49.5059 67.0589C49.4048 67.1001 49.3131 67.1616 49.2361 67.2397C49.1591 67.3178 49.0986 67.411 49.058 67.5135C49.0175 67.6161 48.9978 67.7259 49.0002 67.8364C49.0026 67.9468 49.027 68.0557 49.072 68.1563C49.1169 68.257 49.1815 68.3473 49.2617 68.4219Z" fill="#CBCBCB"/>
<path d="M51.807 61L57.0222 60.716C57.146 60.7274 57.271 60.7138 57.389 60.676C57.5071 60.6382 57.6156 60.5771 57.7077 60.4965C57.7997 60.4159 57.8733 60.3176 57.9237 60.208C57.974 60.0984 58 59.9798 58 59.86C58 59.7401 57.974 59.6215 57.9237 59.5119C57.8733 59.4023 57.7997 59.3041 57.7077 59.2235C57.6156 59.1429 57.5071 59.0817 57.389 59.0439C57.271 59.0061 57.146 58.9925 57.0222 59.0039L51.807 59.288C51.5861 59.3084 51.3811 59.4075 51.2319 59.5657C51.0827 59.724 51 59.9302 51 60.144C51 60.3578 51.0827 60.564 51.2319 60.7223C51.3811 60.8805 51.5861 60.9795 51.807 61Z" fill="#CBCBCB"/>
<path d="M29.3816 52.2182L22.8819 50.1278C22.7398 50.0657 22.5828 50.0251 22.4199 50.0085C22.257 49.9919 22.0914 49.9996 21.9324 50.0312C21.6114 50.0949 21.3371 50.2518 21.1701 50.4675C21.003 50.6832 20.9567 50.94 21.0415 51.1813C21.1262 51.4227 21.335 51.6288 21.6219 51.7544L28.0869 53.8774C28.3792 53.9991 28.7226 54.0317 29.046 53.9685C29.3694 53.9053 29.6482 53.7511 29.8247 53.5378C29.9093 53.4297 29.9647 53.3102 29.9878 53.186C30.0109 53.0618 30.0011 52.9354 29.9592 52.8141C29.9172 52.6927 29.8438 52.5788 29.7432 52.4788C29.6426 52.3788 29.5168 52.2947 29.3729 52.2313L29.3816 52.2182Z" fill="#CBCBCB"/>
<path d="M31.7139 50.2492L28.3641 46.2771C28.2886 46.1876 28.1993 46.1171 28.1013 46.0696C28.0033 46.022 27.8986 45.9984 27.7931 46.0001C27.6876 46.0017 27.5834 46.0286 27.4864 46.0792C27.3895 46.1298 27.3017 46.2031 27.228 46.2949C27.1544 46.3867 27.0964 46.4952 27.0573 46.6143C27.0181 46.7334 26.9987 46.8606 27.0001 46.9888C27.0014 47.117 27.0236 47.2436 27.0652 47.3614C27.1068 47.4792 27.1671 47.5859 27.2427 47.6753L30.5851 51.6474C30.6558 51.7515 30.7436 51.8365 30.843 51.897C30.9423 51.9575 31.0509 51.9922 31.1618 51.9988C31.2728 52.0055 31.3836 51.9839 31.4874 51.9355C31.5911 51.8872 31.6853 51.813 31.7642 51.7179C31.843 51.6228 31.9046 51.5087 31.9451 51.383C31.9855 51.2573 32.004 51.1227 31.9993 50.9879C31.9945 50.853 31.9667 50.7208 31.9176 50.5998C31.8684 50.4787 31.799 50.3715 31.7139 50.2848V50.2492Z" fill="#CBCBCB"/>
<path d="M27.1619 56.0039L22.6917 56.288C22.5024 56.3084 22.3267 56.4074 22.1988 56.5657C22.0709 56.724 22 56.9302 22 57.144C22 57.3578 22.0709 57.564 22.1988 57.7222C22.3267 57.8805 22.5024 57.9795 22.6917 58L27.1619 57.716C27.268 57.7274 27.3751 57.7138 27.4763 57.676C27.5775 57.6382 27.6705 57.5771 27.7494 57.4965C27.8284 57.4159 27.8914 57.3176 27.9346 57.208C27.9777 57.0984 28 56.9798 28 56.86C28 56.7401 27.9777 56.6215 27.9346 56.5119C27.8914 56.4023 27.8284 56.3041 27.7494 56.2234C27.6705 56.1428 27.5775 56.0817 27.4763 56.0439C27.3751 56.0061 27.268 55.9925 27.1619 56.0039Z" fill="#CBCBCB"/>
<path d="M12.1755 123.516C7.08511 121.687 4.8474 118.922 10.4831 110.806C16.9019 101.531 33.7029 101.566 33.7029 101.566L65.121 81.3954C65.121 81.3954 72.113 77.649 83.3673 79.077C94.6216 80.5051 131.878 88.6962 131.878 88.6962C131.878 88.6962 140.409 91.5676 146.542 105.767L155.507 124.673L151.579 144.604L144.517 143.932C144.517 143.932 145.166 157.884 136.005 157.377C126.845 156.869 128.665 147.094 131.012 143.096L89.1924 139.363C89.1924 139.363 89.2026 154.29 80.4197 152.382C74.8098 151.143 73.8898 151.834 72.9314 138.393L61.9877 138.392L26.3252 126.886C26.3252 126.886 23.547 137.561 15.5033 135.776C7.45964 133.991 12.1755 123.516 12.1755 123.516Z" stroke="#CBCBCB" stroke-width="2" stroke-linecap="round" stroke-linejoin="round" stroke-dasharray="6 6"/>
</svg>
