<svg width="109" height="62" viewBox="0 0 109 62" fill="none" xmlns="http://www.w3.org/2000/svg">
<path d="M119 6.17325C119 6.17325 57.9365 10.6231 74.8331 16.462C91.7297 22.3009 110.239 29.1274 109.029 37.0035C107.82 44.8795 84.4883 62 84.4883 62H11.609H0L67.1937 37.0035C67.1937 37.0035 73.2308 33.9169 53.5172 29.1274C33.8036 24.338 10.8699 18.1751 27.3633 9.61484C43.8568 1.0546 119 0 119 0V6.17325Z" fill="#D7F3FF" fill-opacity="0.8"/>
<path d="M93.9166 55.1599V46.9653C93.9166 46.9653 94.1836 45.3741 90.7334 42.0167C90.7334 42.0167 89.7469 33 85.3428 33C80.9388 33 77.0253 33.0743 77.0035 33.0743C76.9817 33.0743 73.0464 33 68.6586 33C64.2709 33 63.2735 42.0167 63.2735 42.0167C59.8178 45.3794 60.0849 46.9653 60.0849 46.9653V55.1599C60.0849 55.1599 59.251 59 62.8102 59C66.3694 59 65.3175 55.1599 65.3175 55.1599H88.6786C88.6786 55.1599 87.6157 59 91.1804 59C94.7451 59 93.9166 55.1599 93.9166 55.1599ZM67.4159 37.5985C67.6233 37.0576 67.9953 36.5911 68.4822 36.2613C68.9692 35.9315 69.5479 35.7541 70.1412 35.7528H83.9747C84.5755 35.7522 85.162 35.9316 85.6544 36.2665C86.1468 36.6015 86.5214 37.0758 86.7273 37.6251L87.8174 41.4386H66.2331L67.4159 37.5985ZM66.3803 51.776C65.8844 51.776 65.3997 51.6329 64.9874 51.3648C64.575 51.0967 64.2537 50.7157 64.0639 50.2699C63.8741 49.824 63.8245 49.3335 63.9212 48.8602C64.018 48.3869 64.2568 47.9522 64.6074 47.611C64.9581 47.2698 65.4048 47.0374 65.8912 46.9432C66.3775 46.8491 66.8817 46.8974 67.3398 47.0821C67.7979 47.2668 68.1895 47.5795 68.465 47.9807C68.7405 48.3819 68.8876 48.8536 68.8876 49.3362C68.8847 49.9814 68.6193 50.5993 68.1494 51.0545C67.6795 51.5098 67.0434 51.7654 66.3803 51.7654V51.776ZM81.1404 50.8584H72.9646C72.7525 50.8706 72.5401 50.8405 72.3404 50.77C72.1406 50.6994 71.9579 50.5898 71.8032 50.448C71.6486 50.3062 71.5254 50.1351 71.4412 49.9453C71.357 49.7555 71.3136 49.5509 71.3136 49.3441C71.3136 49.1374 71.357 48.9328 71.4412 48.743C71.5254 48.5532 71.6486 48.3821 71.8032 48.2403C71.9579 48.0985 72.1406 47.9889 72.3404 47.9183C72.5401 47.8477 72.7525 47.8176 72.9646 47.8299H81.1404C81.3525 47.8176 81.565 47.8477 81.7647 47.9183C81.9644 47.9889 82.1472 48.0985 82.3018 48.2403C82.4564 48.3821 82.5796 48.5532 82.6638 48.743C82.748 48.9328 82.7914 49.1374 82.7914 49.3441C82.7914 49.5509 82.748 49.7555 82.6638 49.9453C82.5796 50.1351 82.4564 50.3062 82.3018 50.448C82.1472 50.5898 81.9644 50.6994 81.7647 50.77C81.565 50.8405 81.3525 50.8706 81.1404 50.8584ZM87.5558 51.7442C87.0596 51.7452 86.5744 51.603 86.1613 51.3356C85.7483 51.0681 85.4261 50.6874 85.2355 50.2417C85.0449 49.796 84.9944 49.3053 85.0906 48.8316C85.1867 48.358 85.4251 47.9228 85.7755 47.581C86.1259 47.2393 86.5727 47.0064 87.0592 46.9118C87.5457 46.8172 88.0501 46.8652 88.5085 47.0498C88.967 47.2343 89.3589 47.547 89.6346 47.9483C89.9104 48.3497 90.0576 48.8216 90.0576 49.3044C90.0604 49.6261 89.9979 49.9452 89.8735 50.2433C89.7492 50.5415 89.5654 50.8127 89.3329 51.0414C89.1004 51.2702 88.8236 51.4519 88.5186 51.5761C88.2136 51.7004 87.8864 51.7647 87.5558 51.7654V51.7442Z" fill="#096FD1"/>
</svg>
