<svg width="37" height="57" viewBox="0 0 37 57" fill="none" xmlns="http://www.w3.org/2000/svg">
<path d="M30.7447 55.2651C30.6935 55.6948 30.6375 55.9859 30.577 56.1174C29.5059 58.422 27.9891 58.4274 27.019 59.2571H14.1457C14.0463 59.2571 13.95 59.2571 13.8552 59.2493C13.2572 58.8438 12.3019 57.9853 11.7186 56.3952C11.6143 56.0655 11.5405 55.7268 11.498 55.3834C13.1345 55.701 20.9781 57.0078 30.7447 55.2651Z" fill="#D7F3FF" fill-opacity="0.68"/>
<path d="M31.4212 19.007C31.2821 27.5365 31.3249 50.365 30.7447 55.2629C20.9781 57.0056 13.1345 55.6988 11.498 55.3836C11.498 55.3626 11.4918 55.3408 11.4879 55.319C10.8146 50.7137 10.7563 35.6924 10.6483 31.5339C10.5889 29.4135 10.2494 27.3104 9.63867 25.2794V20.011C9.63867 11.81 10.3128 9.76463 10.4837 9.37859C10.4947 9.3517 10.5076 9.32568 10.5225 9.30076C16.1231 8.4345 21.1124 9.34045 21.1124 9.34045C21.1084 9.39226 21.1084 9.4443 21.1124 9.49611C21.1342 9.85802 21.3213 10.7648 22.6347 11.1531C24.4467 11.6909 25.729 12.8374 29.3529 16.469C30.3532 17.4722 31.0049 18.3143 31.4212 19.007Z" fill="#D7F3FF" fill-opacity="0.68"/>
<path d="M21.1112 8.35278V9.33967C21.1112 9.33967 16.1218 8.4345 10.5213 9.30076C10.5064 9.32569 10.4934 9.3517 10.4824 9.37859V8.31698C11.6746 8.04535 15.5176 7.37211 21.1112 8.35278Z" fill="#D7F3FF" fill-opacity="0.92"/>
<path d="M21.1112 4.46821V8.35274C20.9558 8.32628 20.8083 8.30138 20.6584 8.27491C20.5085 8.24845 20.3438 8.2251 20.1877 8.20331C20.0091 8.17581 19.832 8.14987 19.6565 8.12548C19.3831 8.08968 19.1146 8.05725 18.851 8.02819C18.6724 8.00873 18.4953 7.99005 18.3214 7.97371C18.0953 7.95347 17.8709 7.93479 17.6534 7.92001C17.4738 7.906 17.2972 7.89432 17.1237 7.88498C16.9223 7.87357 16.7256 7.86423 16.5335 7.85696L16.1801 7.84684C15.931 7.83906 15.6887 7.83517 15.4531 7.83517H15.099C14.8799 7.83517 14.6663 7.8414 14.4605 7.84762C14.2783 7.85385 14.1017 7.86163 13.9308 7.87097C13.6978 7.88239 13.4752 7.89666 13.2629 7.91378C13.0781 7.92779 12.9018 7.94413 12.7317 7.96048C12.4396 7.99005 12.1709 8.02274 11.9263 8.05465C11.7347 8.08163 11.5581 8.10758 11.3966 8.13248C11.2218 8.16128 11.0649 8.1893 10.9243 8.21654C10.7504 8.25079 10.602 8.28192 10.4824 8.30916V4.46821C10.4819 4.1737 10.546 3.88269 10.6703 3.61582C10.7946 3.34895 10.976 3.11277 11.2016 2.92405C11.4364 2.72553 11.714 2.58432 12.0125 2.51155C12.077 2.49525 12.1423 2.48252 12.2082 2.47341C12.3031 2.45932 12.3989 2.4523 12.4948 2.45239H19.0965C19.1859 2.45231 19.2751 2.45855 19.3636 2.47107C19.4422 2.4802 19.5201 2.49477 19.5967 2.51466C19.8976 2.59101 20.1769 2.73614 20.4125 2.93868C20.6482 3.14122 20.8339 3.39567 20.955 3.68212C20.955 3.68679 20.955 3.69302 20.9597 3.69846C21.0601 3.94259 21.1116 4.20415 21.1112 4.46821Z" fill="#D7F3FF" fill-opacity="0.92"/>
<path d="M21.1105 9.3396V9.49526C21.1064 9.44345 21.1064 9.39141 21.1105 9.3396Z" fill="#D7F3FF"/>
<path d="M20.1866 5.11573V8.20483C20.0079 8.17733 19.8308 8.15139 19.6553 8.127V5.13674C19.6553 4.18565 19.434 2.86642 19.3633 2.46948C19.4419 2.47861 19.5197 2.49318 19.5963 2.51307C20.1555 3.12326 20.1866 5.11573 20.1866 5.11573Z" fill="#D7F3FF" fill-opacity="0.92"/>
<path d="M18.8508 3.80674V8.03139C18.6722 8.01194 18.4951 7.99326 18.3212 7.97691V3.82853C18.325 3.36646 18.2842 2.9051 18.1992 2.45093H18.5798C18.8734 2.98874 18.8508 3.80674 18.8508 3.80674Z" fill="#D7F3FF" fill-opacity="0.92"/>
<path d="M17.6536 4.91583V7.92321L17.1239 7.88819V4.93529C17.1239 4.09783 17.0392 2.92881 17.002 2.45093H17.2792C17.7538 3.10237 17.6536 4.91583 17.6536 4.91583Z" fill="#D7F3FF" fill-opacity="0.92"/>
<path d="M16.5327 4.91583V7.86095L16.1793 7.85083V4.93529C16.1793 4.09783 16.1311 2.92881 16.1094 2.45093H16.3323C16.6127 3.08914 16.5327 4.91583 16.5327 4.91583Z" fill="#D7F3FF" fill-opacity="0.92"/>
<path d="M20.3652 2.90063C20.4344 3.28278 20.6596 4.5919 20.6596 5.5033V8.27641C20.8095 8.30131 20.9602 8.32622 21.1124 8.35424V4.4876C21.0776 4.22198 21.0257 3.95888 20.9571 3.69996C20.9571 3.69451 20.9571 3.68828 20.9524 3.68361L20.3652 2.90063Z" fill="#D7F3FF" fill-opacity="0.92"/>
<path d="M15.5072 2.45082C15.4855 2.70533 15.4528 3.18087 15.4528 3.8689V7.83827H15.0987V3.84944C15.0987 3.84944 15.028 2.89057 15.2486 2.44849L15.5072 2.45082Z" fill="#D7F3FF" fill-opacity="0.92"/>
<path d="M12.2097 2.47192C12.132 2.65483 11.9262 3.21209 11.9262 4.12194V8.06017C11.7346 8.08715 11.558 8.1131 11.3965 8.138V4.1017C11.3965 4.1017 11.4276 2.90933 12.0124 2.51006C12.0774 2.49371 12.1432 2.48098 12.2097 2.47192Z" fill="#D7F3FF" fill-opacity="0.92"/>
<path d="M13.4484 2.45093C13.3793 3.01676 13.262 4.10483 13.262 4.94696V7.91932C13.0772 7.93333 12.9009 7.94967 12.7308 7.96602V4.92517C12.7308 4.92517 12.7052 3.23858 13.1098 2.45093H13.4484Z" fill="#D7F3FF" fill-opacity="0.92"/>
<path d="M14.5647 2.45093C14.49 2.93603 14.4552 3.42645 14.4606 3.91726V7.85316C14.2784 7.85939 14.1018 7.86717 13.9309 7.87651V3.8978C13.9309 3.8978 13.8315 2.87978 14.2913 2.45093H14.5647Z" fill="#D7F3FF" fill-opacity="0.92"/>
<path d="M11.2016 2.92407C11.117 3.11476 10.9243 3.64323 10.9243 4.48925V8.22513C10.7504 8.25937 10.602 8.29051 10.4824 8.31775V4.46824C10.4819 4.17373 10.546 3.88271 10.6703 3.61584C10.7946 3.34897 10.976 3.11279 11.2016 2.92407Z" fill="#D7F3FF" fill-opacity="0.92"/>
<path d="M32.0034 21.6065V35.9274C31.3968 40.1403 31.351 53.8074 31.351 55.6824C31.351 57.3277 29.5647 58.6921 28.736 59.24C28.6777 59.254 28.6451 59.2595 28.6451 59.2595H27.0195C27.9896 58.4298 29.3084 58.6236 30.4586 55.9602C31.1708 54.3125 31.2702 28.289 31.4217 19.0093C32.2434 20.2289 32.0034 21.6065 32.0034 21.6065Z" fill="#D7F3FF" fill-opacity="0.68"/>
<path d="M13.8556 59.2494C12.4778 59.1778 11.5497 58.5933 10.9252 57.8485C10.6534 56.9215 10.2076 54.8325 10.2915 51.271C10.3947 46.8658 10.2285 37.8218 9.63672 30.912V25.2817C10.2475 27.3127 10.587 29.4159 10.6464 31.5362C10.7652 36.1282 10.8242 53.9515 11.7166 56.3954C12.2991 57.9839 13.2576 58.8439 13.8556 59.2494Z" fill="#D7F3FF" fill-opacity="0.68"/>
<path d="M10.9252 57.8461C9.674 56.3525 9.63672 54.2075 9.63672 54.2075V30.9097C10.2285 37.8195 10.3947 46.865 10.2915 51.2686C10.2076 54.8302 10.6534 56.9192 10.9252 57.8461Z" fill="#D7F3FF" fill-opacity="0.68"/>
<path d="M32.0038 35.925V55.2699C32.0038 58.3279 29.273 59.1132 28.7363 59.2393C29.5689 58.6944 31.3514 57.327 31.3514 55.6816C31.3514 53.8051 31.3972 40.138 32.0038 35.925Z" fill="#D7F3FF" fill-opacity="0.68"/>
<path d="M13.1155 53.2627L12.526 28.2791C12.526 28.2791 11.8184 25.3262 16.5336 18.7113C21.2488 12.0965 24.5488 16.9391 26.2583 18.7705C27.9677 20.6018 28.6745 20.4244 28.6155 23.259C28.5565 26.0936 28.144 52.3801 28.144 52.3801C28.144 52.3801 28.4384 54.8606 26.6684 54.8606H14.1174C14.1174 54.8606 13.1155 54.8178 13.1155 53.2627Z" fill="#D7F3FF" fill-opacity="0.92"/>
</svg>
