<svg width="33" height="32" viewBox="0 0 33 32" fill="none" xmlns="http://www.w3.org/2000/svg">
<path d="M29.4181 24.8916L22.3514 17.825H21.0314L17.6447 21.2116V22.5316L24.7114 29.5983C25.2314 30.1183 26.0714 30.1183 26.5914 29.5983L29.4181 26.7716C29.9381 26.265 29.9381 25.4116 29.4181 24.8916Z" fill="#0862B8"/>
<path d="M23.6447 14.2516L25.5247 12.3716L28.3514 15.1983C29.9114 13.6383 29.9114 11.105 28.3514 9.54496L23.6314 4.82496L21.7514 6.70496V2.94496L20.8181 1.99829L16.0981 6.71829L17.0447 7.66496H20.8181L18.9381 9.54496L20.3514 10.9583L16.4981 14.8116L10.9914 9.30496V7.41162L6.96474 3.38496L3.19141 7.15829L7.23141 11.1983H9.11141L14.6181 16.705L13.4847 17.8383H10.6581L3.59141 24.905C3.07141 25.425 3.07141 26.265 3.59141 26.785L6.41807 29.6116C6.93807 30.1316 7.77807 30.1316 8.29807 29.6116L15.3647 22.545V19.7183L22.2314 12.8516L23.6447 14.2516Z" fill="#0862B8"/>
</svg>
