<svg width="24" height="24" viewBox="0 0 24 24" fill="none" xmlns="http://www.w3.org/2000/svg">
<path d="M17.65 6.99615L13.36 2.70615C12.73 2.07615 11.65 2.51615 11.65 3.40615V9.58615L7.76 5.69614C7.37 5.30614 6.74 5.30614 6.35 5.69614C5.96 6.08614 5.96 6.71615 6.35 7.10615L11.24 11.9961L6.35 16.8861C5.96 17.2761 5.96 17.9061 6.35 18.2961C6.74 18.6861 7.37 18.6861 7.76 18.2961L11.65 14.4061V20.5861C11.65 21.4761 12.73 21.9261 13.36 21.2961L17.65 16.9961C18.04 16.6061 18.04 15.9761 17.65 15.5861L14.06 11.9961L17.65 8.41615C18.04 8.02615 18.04 7.38615 17.65 6.99615ZM13.65 5.82614L15.53 7.70615L13.65 9.58615V5.82614ZM15.53 16.2861L13.65 18.1661V14.4061L15.53 16.2861Z" fill="#60C427"/>
</svg>
