<svg width="33" height="32" viewBox="0 0 33 32" fill="none" xmlns="http://www.w3.org/2000/svg">
<path d="M26.5003 24.5867L6.86033 4.32L5.16699 6.01333L8.90033 9.74667V9.76C8.20699 11.08 7.83366 12.64 7.83366 14.32V20.9867L5.16699 23.6533V24.9867H23.4737L26.1403 27.6533L27.8337 25.96L26.5003 24.5867ZM15.8337 29C17.3137 29 18.5003 27.8133 18.5003 26.3333H13.167C13.167 27.8133 14.3537 29 15.8337 29ZM23.8337 19.24V14.3333C23.8337 10.2267 21.647 6.81333 17.8337 5.90667V5C17.8337 3.89333 16.9403 3 15.8337 3C14.727 3 13.8337 3.89333 13.8337 5V5.90667C13.6337 5.94667 13.447 6.01333 13.2737 6.06667C13.1403 6.10667 13.007 6.16 12.8737 6.21333H12.8603C12.847 6.21333 12.847 6.21333 12.8337 6.22667C12.527 6.34667 12.2203 6.49333 11.927 6.64C11.927 6.64 11.9137 6.64 11.9137 6.65333L23.8337 19.24Z" fill="#0862B8"/>
</svg>
