<svg width="82" height="80" viewBox="0 0 82 80" fill="none" xmlns="http://www.w3.org/2000/svg">
<path d="M0 52H80V80H0V52Z" fill="url(#paint0_linear_2478_12719)"/>
<path d="M0 0H80V58H0V0Z" fill="url(#paint1_linear_2478_12719)"/>
<g filter="url(#filter0_d_2478_12719)">
<path d="M74.8828 50.5132L68.9569 50.2176L68.4469 50.1914L64.3002 49.9787L63.8261 49.9552L58.603 49.7024L58.6127 49.1582L63.8344 49.4206L64.3084 49.4441L68.4704 49.6527L68.9803 49.6789L74.8773 49.9732C74.8887 50.153 74.8905 50.3332 74.8828 50.5132Z" fill="#898989"/>
<path d="M64.3 49.9788L64.1622 59.5096L63.6909 59.754L63.8287 49.947L64.3 49.9788Z" fill="#898989"/>
<path d="M68.9609 50.2177L68.7128 56.9955C68.5364 57.1033 68.3573 57.2083 68.1768 57.3132L68.4524 50.1914L68.9609 50.2177Z" fill="#898989"/>
<path d="M58.9517 32.4366L58.6127 49.15L58.603 49.6942L58.3453 62.4019V62.4889C58.3274 62.8378 58.1957 63.1712 57.9704 63.4377C57.745 63.7043 57.4386 63.8892 57.0981 63.9641C56.9451 63.9807 56.788 63.9918 56.6295 64L8.82802 62.5083C8.62713 62.5093 8.42809 62.4698 8.24272 62.3922C8.05734 62.3146 7.88942 62.2004 7.74891 62.0565C7.60841 61.9126 7.4982 61.7419 7.42481 61.5544C7.35143 61.367 7.31638 61.1667 7.32174 60.9654L7.29004 32.1245C7.3117 31.7113 7.49187 31.3225 7.79287 31.0393C8.09387 30.7562 8.49241 30.6006 8.9052 30.6051L57.4426 30.8896C57.8156 30.8877 58.1759 31.0252 58.4531 31.2753C58.7304 31.5253 58.9047 31.8699 58.942 32.2419C58.951 32.3064 58.9542 32.3716 58.9517 32.4366Z" fill="url(#paint2_linear_2478_12719)"/>
<path d="M73.2688 56.1447L66.6332 60.2001C66.6332 60.2001 60.761 63.8619 57.0952 63.9668C57.4356 63.8919 57.7421 63.707 57.9674 63.4404C58.1928 63.1739 58.3245 62.8405 58.3424 62.4917V62.4046C59.1954 62.0041 61.2902 61.0109 63.6909 59.765L64.1622 59.5205C65.4755 58.8299 66.8633 58.0799 68.1739 57.3105C68.3544 57.2055 68.5336 57.1006 68.71 56.9928C70.6738 55.8243 72.4116 54.6447 73.3956 53.6543C74.4292 52.6183 74.8247 51.5271 74.8743 50.5105C74.884 50.3297 74.884 50.1485 74.8743 49.9677C74.7365 47.9082 73.3336 46.2769 73.3336 46.2769L69.2488 42.2933L68.772 41.8292L64.4819 37.6385L64.0078 37.1771L58.9501 32.246C58.9128 31.874 58.7384 31.5294 58.4612 31.2794C58.184 31.0293 57.8237 30.8918 57.4507 30.8937L8.9064 30.6092C8.49406 30.6043 8.09575 30.7591 7.79456 31.0414C7.49337 31.3238 7.31257 31.7117 7.28987 32.1244L7.32018 60.9653C7.31483 61.1666 7.34988 61.3669 7.42326 61.5544C7.49665 61.7418 7.60686 61.9126 7.74736 62.0565C7.88787 62.2004 8.05579 62.3145 8.24116 62.3921C8.42654 62.4697 8.62558 62.5092 8.82647 62.5082C6.24938 62.5082 6.00132 60.6311 6.00132 60.6311V33.5582C6.00132 33.5582 5.89934 31.9007 7.48694 30.3094C9.07453 28.7182 12.2814 29.0235 12.2814 29.0235L57.1255 29.5635C57.1255 29.5635 59.7784 29.3094 62.0578 31.594C65.2054 34.7502 70.4809 40.1579 70.4809 40.1579C70.4809 40.1579 75.3594 45.5918 75.5482 45.8446C78.3844 49.6472 77.1703 53.5037 73.2688 56.1447Z" fill="url(#paint3_linear_2478_12719)"/>
<path d="M64.0008 37.1772L63.834 49.418L58.6123 49.1501L58.9513 32.4367C58.9541 32.3731 58.9513 32.3093 58.9431 32.2461L64.0008 37.1772Z" fill="url(#paint4_linear_2478_12719)"/>
<path d="M63.8261 49.9608L63.6883 59.7678C61.2876 61.0109 59.1929 62.0068 58.3398 62.4074L58.5976 49.6997L63.8261 49.9608Z" fill="url(#paint5_linear_2478_12719)"/>
<path d="M68.4509 50.1913L68.1753 57.3132C66.8647 58.0798 65.4769 58.8326 64.1636 59.5232L64.3014 49.9924L68.4509 50.1913Z" fill="url(#paint6_linear_2478_12719)"/>
<path d="M68.7718 41.8278L68.47 49.65L64.3081 49.4414L64.4749 37.6384L68.7718 41.8278Z" fill="url(#paint7_linear_2478_12719)"/>
<path d="M64.4748 37.6383L64.3081 49.4413L63.834 49.4178L64.0007 37.177L64.4748 37.6383Z" fill="#898989"/>
<path d="M74.877 49.9705L68.98 49.6763L69.2556 42.2961L73.3404 46.2797C73.3404 46.2797 74.7433 47.9069 74.877 49.9705Z" fill="url(#paint8_linear_2478_12719)"/>
<path d="M74.8826 50.5134C74.833 51.53 74.4375 52.6212 73.4039 53.6571C72.4144 54.6489 70.6766 55.8271 68.7183 56.9957L68.9663 50.2178L74.8826 50.5134Z" fill="url(#paint9_linear_2478_12719)"/>
<path d="M69.2516 42.2961L68.9801 49.6763L68.4702 49.65L68.772 41.8279L69.2516 42.2961Z" fill="#898989"/>
<path d="M9.53349 34.1549C9.25786 36.9769 9.19998 41.5502 9.95657 46.4786L8.30282 46.4496L8.09473 31.5222L9.86286 31.5443C9.85321 31.5996 9.84356 31.6617 9.83254 31.7308C9.82151 31.7999 9.80911 31.8689 9.79808 31.9601C9.79119 31.9974 9.78568 32.0388 9.77741 32.0802C9.73331 32.391 9.68232 32.7833 9.62858 33.2433C9.61479 33.351 9.60239 33.4643 9.59137 33.5803C9.59137 33.6066 9.59137 33.63 9.5831 33.6549C9.56518 33.8179 9.55002 33.9823 9.53349 34.1549Z" fill="#969696"/>
<path d="M11.8788 31.5692V33.8704L10.4497 31.5513L11.8788 31.5692Z" fill="#969696"/>
<path d="M11.912 33.9256V44.8915L11.8789 44.9205V33.8704L11.912 33.9256Z" fill="#969696"/>
<path d="M9.95654 46.4815L11.879 44.9207V46.5202L9.95654 46.4815Z" fill="#969696"/>
<path d="M14.2757 31.598V46.5655L13.2918 46.5489L13.3124 46.5365L14.2509 46.042V32.4406L13.0864 31.5842L14.2757 31.598Z" fill="#969696"/>
<path d="M15.4497 31.6133L16.606 31.6271V46.6139L15.5407 46.5918H15.5227L16.5053 46.0393V32.4407L15.4497 31.6133Z" fill="#969696"/>
<path d="M21.1649 32.6396V46.0573L20.0403 46.6816H20.0265L18.9351 46.6595V31.6548L20.0223 31.7453L20.0037 31.7307L21.1649 32.6396Z" fill="url(#paint10_linear_2478_12719)"/>
<path d="M18.9348 31.6547V46.6594L17.7923 46.6359H17.7744L18.8342 46.0392V32.4406L17.8158 31.6409L18.9348 31.6547Z" fill="#969696"/>
<path d="M29.4499 31.7859L30.6875 31.7997V46.8928L29.104 46.8611L30.5524 46.0572V32.6395L29.4499 31.7859Z" fill="#969696"/>
<path d="M24.7487 31.7859L25.9863 31.7997V46.8928L24.4028 46.8611L25.8512 46.0572V32.6395L24.7487 31.7859Z" fill="#969696"/>
<path d="M20.0039 31.7307L21.451 31.7446V46.8045L20.0039 46.6839L21.0892 46.0809V32.5748L20.0039 31.7307Z" fill="#969696"/>
<path d="M31.8521 31.8164L33.0511 31.8302V46.9386L31.3877 46.9068L32.916 46.0573V32.6396L31.8521 31.8164Z" fill="#969696"/>
<path d="M27.1505 31.8164L28.3494 31.8302V46.9386L26.686 46.9068L28.2144 46.0573V32.6396L27.1505 31.8164Z" fill="#969696"/>
<path d="M34.2543 31.8467L35.3816 31.8605V46.984L33.6714 46.9495L35.281 46.0572V32.6395L34.2543 31.8467Z" fill="#969696"/>
<path d="M36.6218 31.8745L37.745 31.8883V47.0312L35.9189 46.9967L37.6099 46.0574V32.6397L36.6218 31.8745Z" fill="#969696"/>
<path d="M39.024 31.9033L40.1086 31.9171V47.078L38.2026 47.0393L39.9749 46.0572V32.6395L39.024 31.9033Z" fill="#969696"/>
<path d="M41.4258 31.9338L42.3367 31.9463V32.6397L41.4258 31.9338Z" fill="#969696"/>
<path d="M40.4858 47.085L42.3367 46.0574V47.121L40.4858 47.085Z" fill="#969696"/>
<path d="M44.5653 44.1567V45.5587C44.5251 45.0923 44.5251 44.6232 44.5653 44.1567Z" stroke="#969696" stroke-miterlimit="10"/>
<path d="M44.5653 46.0572V45.5586C44.6192 46.1075 44.7286 46.6494 44.8919 47.1761L42.6387 47.1291L44.5653 46.0572Z" fill="#969696"/>
<path d="M45.0147 31.978C44.6454 34.4822 44.5406 37.0184 44.7019 39.5446C44.8397 41.8196 44.644 43.0572 44.5641 44.1567V32.6396L43.689 31.9614L45.0147 31.978Z" fill="#969696"/>
<path d="M47.0654 43.4191V32.8081V32.7805L47.093 32.8081C47.093 32.8081 47.0255 35.9851 47.2308 36.905C47.3645 37.4906 47.2129 40.9535 47.0654 43.4191Z" fill="#969696"/>
<path d="M47.2691 32.007L47.0707 32.7805L46.2852 31.9932L47.2691 32.007Z" fill="#969696"/>
<path d="M47.3588 47.2162L45.4639 47.1831C45.9917 46.7687 46.7979 46.1223 46.8654 45.9399C46.9012 45.8432 46.9839 44.7838 47.068 43.4177V45.6001C47.0652 46.4593 47.2072 46.94 47.3588 47.2162Z" fill="#969696"/>
<path d="M49.4329 45.3916C49.3749 44.4169 49.4067 43.439 49.5279 42.4702C49.5403 43.52 49.5445 44.7093 49.4329 45.3916Z" fill="#969696"/>
<path d="M48.2725 32.0222L49.5624 32.0374C49.4779 32.8896 49.4438 33.7462 49.4604 34.6024C49.4935 36.1591 49.8656 40.4576 49.6285 41.7781C49.5927 41.9729 49.5569 42.2063 49.5252 42.4688C49.5183 41.7174 49.5045 41.0364 49.5252 40.6648C49.5927 39.5833 49.5582 35.4533 49.3874 34.0347C49.2881 33.1452 48.7011 32.4366 48.2725 32.0222Z" fill="#969696"/>
<path d="M49.4329 45.3916C49.4867 46.1168 49.6176 46.7908 49.8656 47.2701L48.0176 47.2342C48.38 46.8488 48.9699 46.2217 49.2579 45.9082C49.3596 45.754 49.4199 45.576 49.4329 45.3916Z" fill="#969696"/>
<path d="M51.9865 47.3114L50.2129 47.2783C50.5905 47.0711 51.252 46.5241 51.5566 45.1621C51.6075 44.9315 51.6627 44.6815 51.7206 44.4163C51.7091 44.5634 51.7091 44.7112 51.7206 44.8583C51.8184 45.6967 51.4794 46.5462 51.9865 47.3114Z" fill="#969696"/>
<path d="M51.8874 35.5388C51.5718 33.8247 51.31 32.6768 50.7036 32.0483L52.0817 32.0649C52.0363 32.5083 51.8475 34.3191 51.8874 35.5388Z" fill="#969696"/>
<path d="M52.1631 37.0735C52.6413 39.6689 52.1452 42.4466 51.7207 44.4122C51.78 43.129 52.3023 40.3747 52.3326 39.7822C52.3657 39.104 52.2981 37.4119 51.995 36.4312C51.9238 36.141 51.8877 35.8433 51.8875 35.5444C51.9729 36.0113 52.0625 36.521 52.1631 37.0735Z" fill="#969696"/>
<path d="M54.2162 32.0928C54.0234 32.5261 53.893 32.9846 53.829 33.4547C53.7198 32.9684 53.5302 32.5039 53.2681 32.0803L54.2162 32.0928Z" fill="#969696"/>
<path d="M53.8003 45.2258C53.9714 45.9665 54.2295 46.6843 54.5693 47.364L52.6592 47.3254C53.0754 47.0919 53.617 46.5367 53.8003 45.2258Z" fill="#969696"/>
<path d="M57.4825 32.1329L57.0774 47.4138L55.436 47.3821C55.6662 46.6182 56.2243 44.6582 56.2505 43.5049C56.2836 42.049 56.6212 41.6774 56.6888 37.8845C56.7397 34.9838 55.9818 32.9202 55.6235 32.1094L57.4825 32.1329Z" fill="#969696"/>
<path d="M22.4045 31.7307L23.6214 31.7446V46.845L22.1743 46.8045L23.183 46.1829L23.0645 32.6735L22.4045 31.7307Z" fill="#969696"/>
<path d="M23.3845 32.5754V46.0707L22.9021 46.3221L21.8958 46.8045L21.2139 46.8045V31.7307L22.3482 31.7474L23.3845 32.5754Z" fill="url(#paint11_linear_2478_12719)"/>
<path d="M14.2507 32.4407V46.042L13.3122 46.5365L13.2915 46.549L13.2253 46.5462L11.8789 46.52V44.9205L11.912 44.8914V33.9255L11.8789 33.8703V31.5691L13.0861 31.5843L14.2507 32.4407Z" fill="url(#paint12_linear_2478_12719)"/>
<path d="M56.6888 37.8843C56.6213 41.6772 56.2837 42.0488 56.2506 43.5047C56.2244 44.658 55.6663 46.618 55.4361 47.3819L54.5693 47.3639C54.2296 46.6842 53.9714 45.9664 53.8003 45.2257C53.8237 45.0683 53.8403 44.9039 53.8513 44.7243C54.0208 41.9825 54.5624 40.3236 54.4273 39.2407C54.2923 38.1578 53.8857 36.6688 54.0139 35.6867C54.0783 34.9376 54.0135 34.183 53.8223 33.4559C53.8864 32.9859 54.0168 32.5273 54.2096 32.094H54.7953L55.6222 32.105C55.9819 32.92 56.7398 34.9878 56.6888 37.8843Z" fill="url(#paint13_linear_2478_12719)"/>
<path d="M42.3368 32.6396V46.0573L40.486 47.085L40.1084 47.0781V31.9172L41.4259 31.9338L42.3368 32.6396Z" fill="url(#paint14_linear_2478_12719)"/>
<path d="M44.5653 44.1566C44.5254 44.6222 44.5254 45.0903 44.5653 45.5559V46.0573L42.636 47.1264H42.3369V31.9448L43.6902 31.9614L44.5653 32.6396V44.1566Z" fill="url(#paint15_linear_2478_12719)"/>
<path d="M39.9749 32.6396V46.0573L38.2027 47.0393L37.7451 47.0311V31.8882L39.0226 31.9034H39.024L39.9749 32.6396Z" fill="url(#paint16_linear_2478_12719)"/>
<path d="M37.6098 32.6396V46.0573L35.9188 46.9966L35.3813 46.9841V31.8606L36.6217 31.8744L37.6098 32.6396Z" fill="url(#paint17_linear_2478_12719)"/>
<path d="M35.2811 32.6395V46.0572L33.6714 46.9495H33.67L33.0513 46.9384V31.8301L34.253 31.8467H34.2544L35.2811 32.6395Z" fill="url(#paint18_linear_2478_12719)"/>
<path d="M32.9159 32.6396V46.0573L31.3876 46.9068H31.3862L30.6875 46.8929V31.7998L31.852 31.8164L32.9159 32.6396Z" fill="url(#paint19_linear_2478_12719)"/>
<path d="M28.2148 32.6396V46.0573L26.6864 46.9068H26.685L25.9863 46.8929V31.7998L27.1508 31.8164L28.2148 32.6396Z" fill="url(#paint20_linear_2478_12719)"/>
<path d="M30.5526 32.6397V46.0573L29.1041 46.8612L28.3228 46.8446V31.7722L29.4501 31.786L30.5526 32.6397Z" fill="url(#paint21_linear_2478_12719)"/>
<path d="M25.8509 32.6397V46.0573L24.4025 46.8612L23.6211 46.8446V31.7722L24.7484 31.786L25.8509 32.6397Z" fill="url(#paint22_linear_2478_12719)"/>
<path d="M18.8344 32.4408V46.0394L17.7746 46.6361L16.606 46.614V31.6272L17.8159 31.641L18.8344 32.4408Z" fill="url(#paint23_linear_2478_12719)"/>
<path d="M16.5052 32.4407V46.0393L15.5226 46.5918L14.2754 46.5656V31.5981L15.4495 31.6133L16.5052 32.4407Z" fill="url(#paint24_linear_2478_12719)"/>
<path d="M9.95387 46.4812C9.30141 42.406 9.16251 38.2647 9.54043 34.1548C9.55697 33.9821 9.57489 33.815 9.59005 33.6548C9.59005 33.6299 9.59005 33.6064 9.59831 33.5802C9.60934 33.4642 9.62174 33.3509 9.63552 33.2432C9.68927 32.7832 9.74026 32.3909 9.78436 32.0801C9.79263 32.0387 9.79814 31.9972 9.80503 31.96C9.81606 31.8757 9.82846 31.7997 9.83949 31.7307C9.85051 31.6616 9.86016 31.5925 9.8698 31.5442L10.4569 31.5511L11.8791 33.8702V44.9204L9.95663 46.4812" fill="url(#paint25_linear_2478_12719)"/>
<path d="M47.0709 32.7805V32.8082V43.4191C46.9868 44.7852 46.9041 45.8446 46.8683 45.9413C46.8007 46.1222 45.9945 46.7701 45.4667 47.1844L44.8989 47.1748C44.7334 46.6488 44.6216 46.1073 44.5654 45.5587V44.1567C44.644 43.0517 44.8411 41.8196 44.7032 39.5446C44.5419 37.0184 44.6468 34.4822 45.0161 31.978L46.2839 31.9932L47.0709 32.7805Z" fill="url(#paint26_linear_2478_12719)"/>
<path d="M49.5307 40.6606C49.5072 41.0322 49.521 41.7132 49.5307 42.4646C49.4095 43.4334 49.3776 44.4113 49.4356 45.386C49.423 45.5703 49.3631 45.7482 49.2619 45.9026C48.9725 46.2161 48.3827 46.8432 48.0216 47.2286L47.3629 47.2148C47.2113 46.9385 47.0693 46.4537 47.0693 45.5959V43.4135C47.2168 40.948 47.3684 37.4851 47.2375 36.8994C47.0349 35.985 47.0997 32.8026 47.0997 32.8026L47.0721 32.775L47.2705 32.0015L48.2738 32.0139C48.7024 32.4283 49.2895 33.1396 49.3956 34.0223C49.5637 35.4491 49.5982 39.5791 49.5307 40.6606Z" fill="url(#paint27_linear_2478_12719)"/>
<path d="M52.3322 39.7823C52.3019 40.3749 51.7809 43.1291 51.7203 44.4123C51.6624 44.6775 51.6073 44.9275 51.5563 45.1582C51.2517 46.5201 50.5916 47.0671 50.2126 47.2743L49.8653 47.266C49.6173 46.7867 49.4864 46.1127 49.4326 45.3875C49.5442 44.7051 49.5401 43.5159 49.5277 42.4661C49.5594 42.2078 49.5952 41.9744 49.6311 41.7755C49.8681 40.455 49.4933 36.1565 49.4629 34.5998C49.4453 33.7426 49.4785 32.8852 49.5622 32.032L50.7032 32.0458C51.3096 32.6743 51.5715 33.8221 51.8871 35.5363C51.8873 35.8351 51.9234 36.1328 51.9945 36.423C52.2977 37.4093 52.3653 39.1041 52.3322 39.7823Z" fill="url(#paint28_linear_2478_12719)"/>
<path d="M53.8512 44.73C53.8402 44.9096 53.8236 45.0739 53.8002 45.2314C53.6169 46.5422 53.0753 47.0975 52.6591 47.3309L51.9894 47.3171C51.4822 46.5519 51.8212 45.7066 51.7275 44.864C51.716 44.7169 51.716 44.5691 51.7275 44.422C52.152 42.4564 52.6481 39.6787 52.1699 37.0833C52.0693 36.5308 51.9797 36.0211 51.8943 35.5542C51.8543 34.3346 52.0431 32.5237 52.0913 32.0803L53.2751 32.0955C53.5373 32.5191 53.7269 32.9836 53.836 33.4699C54.0272 34.1969 54.092 34.9515 54.0276 35.7006C53.8898 36.6827 54.3032 38.1731 54.441 39.2546C54.5788 40.3362 54.0207 41.9813 53.8512 44.73Z" fill="url(#paint29_linear_2478_12719)"/>
<path d="M9.5934 49.6088C9.28321 52.2983 9.16582 56.6623 9.85091 61.376L8.21242 61.3261L8.20215 47.0769L9.95408 47.1217C9.94379 47.1743 9.93342 47.2335 9.92158 47.2993C9.90975 47.365 9.89655 47.4308 9.88443 47.5177C9.87711 47.5532 9.87111 47.5926 9.86237 47.6321C9.81459 47.9281 9.7589 48.3018 9.6996 48.74C9.68453 48.8427 9.67075 48.9506 9.65831 49.0612C9.65796 49.0862 9.65765 49.1087 9.64913 49.1323C9.62924 49.2876 9.61206 49.4443 9.5934 49.6088Z" fill="#969696"/>
<path d="M11.9521 47.1723L11.9219 49.3685L10.5361 47.136L11.9521 47.1723Z" fill="#969696"/>
<path d="M11.9539 49.4218L11.81 59.8875L11.7768 59.9147L11.9219 49.3687L11.9539 49.4218Z" fill="#969696"/>
<path d="M9.85109 61.3785L11.7768 59.9147L11.7558 61.4413L9.85109 61.3785Z" fill="#969696"/>
<path d="M14.3264 47.2323L14.1299 61.5169L13.155 61.4879L13.1757 61.4763L14.1122 61.017L14.2907 48.0361L13.1479 47.2031L14.3264 47.2323Z" fill="#969696"/>
<path d="M15.4902 47.2625L16.6359 47.2912L16.4392 61.5943L15.3838 61.5589L15.366 61.5586L16.347 61.0445L16.5255 48.0663L15.4902 47.2625Z" fill="#969696"/>
<path d="M21.1402 48.3187L20.964 61.1243L19.8414 61.705L19.8278 61.7049L18.7464 61.6691L18.9434 47.3489L20.0196 47.4498L20.0014 47.4357L21.1402 48.3187Z" fill="url(#paint30_linear_2478_12719)"/>
<path d="M18.9432 47.3488L18.7462 61.6691L17.6144 61.6313L17.5966 61.6311L18.6547 61.0758L18.8332 48.0976L17.8344 47.3206L18.9432 47.3488Z" fill="#969696"/>
<path d="M29.3618 47.6152L30.5881 47.645L30.3899 62.0496L28.8068 62.0496L30.2671 61.2502L30.4432 48.4447L29.3618 47.6152Z" fill="#969696"/>
<path d="M24.7031 47.552L25.9294 47.5818L25.7313 61.9864L24.1625 61.9348L25.6084 61.187L25.7845 48.3815L24.7031 47.552Z" fill="#969696"/>
<path d="M20.0015 47.4355L21.2578 47.4658L21.0601 61.8387L19.8052 61.7066L20.7555 61.1439L20.9328 48.2539L20.0015 47.4355Z" fill="#969696"/>
<path d="M31.742 47.6764L32.93 47.7057L32.7317 62.1248L31.0836 62.0721L32.6094 61.2819L32.7855 48.4764L31.742 47.6764Z" fill="#969696"/>
<path d="M27.0828 47.6132L28.2708 47.6424L28.0725 62.0616L26.4245 62.0089L27.9502 61.2187L28.1263 48.4131L27.0828 47.6132Z" fill="#969696"/>
<path d="M34.1221 47.7376L35.2391 47.7659L35.0406 62.1995L33.3462 62.1436L34.9531 61.3136L35.1292 48.508L34.1221 47.7376Z" fill="#969696"/>
<path d="M36.468 47.7958L37.5809 47.8241L37.3821 62.2761L35.573 62.2187L37.261 61.3449L37.4372 48.5394L36.468 47.7958Z" fill="#969696"/>
<path d="M38.8482 47.8555L39.9228 47.8832L39.7238 62.3524L37.8355 62.29L39.6047 61.3765L39.7808 48.5709L38.8482 47.8555Z" fill="#969696"/>
<path d="M41.228 47.917L42.1306 47.9411L42.1215 48.6028L41.228 47.917Z" fill="#969696"/>
<path d="M40.0978 62.3643L41.9455 61.4084L41.9315 62.4234L40.0978 62.3643Z" fill="#969696"/>
<path d="M44.1785 59.6242L44.1601 60.9622C44.1268 60.5165 44.1329 60.0688 44.1785 59.6242Z" stroke="#969696" stroke-miterlimit="10"/>
<path d="M44.1537 61.4383L44.1603 60.9624C44.2064 61.4869 44.3078 62.0056 44.4627 62.5104L42.2304 62.4354L44.1537 61.4383Z" fill="#969696"/>
<path d="M44.7838 48.0072C44.385 50.3922 44.2478 52.8113 44.3745 55.2245C44.4812 57.3975 44.271 58.576 44.1774 59.6243L44.3285 48.6326L43.4702 47.9736L44.7838 48.0072Z" fill="#969696"/>
<path d="M46.666 58.954L46.8053 48.8271L46.8057 48.8008L46.8326 48.8275C46.8326 48.8275 46.724 51.8586 46.9154 52.7393C47.0402 53.3001 46.8445 56.6029 46.666 58.954Z" fill="#969696"/>
<path d="M47.0179 48.0652L46.8111 48.8008L46.043 48.0388L47.0179 48.0652Z" fill="#969696"/>
<path d="M46.9071 62.5818L45.0297 62.5247C45.5582 62.1363 46.3656 61.5302 46.4349 61.3571C46.4717 61.2653 46.5676 60.2553 46.6688 58.9527L46.6402 61.0355C46.6261 61.8554 46.7605 62.3161 46.9071 62.5818Z" fill="#969696"/>
<path d="M48.9865 60.8681C48.9419 59.9371 48.9863 59.0042 49.1191 58.0812C49.1176 59.0833 49.1061 60.2184 48.9865 60.8681Z" fill="#969696"/>
<path d="M48.0117 48.0933L49.2898 48.1251C49.1949 48.9373 49.1499 49.7543 49.1551 50.5717C49.1674 52.0578 49.4798 56.1652 49.2275 57.4223C49.1895 57.6077 49.1509 57.83 49.116 58.0801C49.1191 57.3628 49.1143 56.7127 49.1397 56.3584C49.2208 55.3271 49.2409 51.3851 49.0902 50.0289C49.0035 49.1786 48.431 48.4945 48.0117 48.0933Z" fill="#969696"/>
<path d="M48.9866 60.8681C49.0303 61.5609 49.1512 62.206 49.3908 62.6668L47.5598 62.6077C47.924 62.2447 48.5168 61.6542 48.8064 61.3588C48.9092 61.213 48.9712 61.0439 48.9866 60.8681Z" fill="#969696"/>
<path d="M51.4917 62.7349L49.7344 62.6794C50.1113 62.4868 50.7741 61.9736 51.0938 60.6779C51.1473 60.4584 51.2052 60.2206 51.2661 59.9682C51.2528 60.1085 51.2508 60.2495 51.2603 60.3901C51.3462 61.1916 50.9991 61.9977 51.4917 62.7349Z" fill="#969696"/>
<path d="M51.5482 51.498C51.258 49.8578 51.0136 48.7588 50.4209 48.1509L51.7864 48.1852C51.7355 48.6077 51.5246 50.3334 51.5482 51.498Z" fill="#969696"/>
<path d="M51.8011 52.9662C52.241 55.4497 51.7129 58.094 51.2664 59.9642C51.342 58.7403 51.8957 56.1187 51.9336 55.5536C51.9752 54.9068 51.9305 53.291 51.643 52.351C51.5763 52.0731 51.5444 51.7884 51.5481 51.5032C51.6266 51.9499 51.7087 52.4376 51.8011 52.9662Z" fill="#969696"/>
<path d="M53.9014 48.2402C53.7046 48.6511 53.5694 49.087 53.4997 49.5348C53.3979 49.0692 53.2161 48.6233 52.9619 48.2156L53.9014 48.2402Z" fill="#969696"/>
<path d="M53.3164 60.7685C53.4762 61.4777 53.7226 62.1661 54.0504 62.8195L52.158 62.7569C52.5735 62.5397 53.1175 62.0171 53.3164 60.7685Z" fill="#969696"/>
<path d="M57.1377 48.3223L56.5355 62.9008L54.9094 62.8484C55.1475 62.1225 55.7263 60.2594 55.7674 59.159C55.8193 57.77 56.1588 57.4199 56.2755 53.8009C56.3641 51.0333 55.64 49.0536 55.2956 48.275L57.1377 48.3223Z" fill="#969696"/>
<path d="M22.3805 47.4678L23.5862 47.4974L23.388 61.9089L21.6921 61.7577L23.0185 61.1548L23.2628 48.2516L22.3805 47.4678Z" fill="#969696"/>
<path d="M23.2911 48.2865L23.114 61.1662L22.6556 61.4L21.6999 61.8475L21.0565 61.8388L21.2544 47.4526L22.3243 47.483L23.2911 48.2865Z" fill="url(#paint31_linear_2478_12719)"/>
<path d="M14.2906 48.036L14.1121 61.0169L13.1755 61.4762L13.1549 61.4878L13.0894 61.4843L11.7554 61.4412L11.7764 59.9146L11.8096 59.8874L11.9535 49.4218L11.9215 49.3686L11.9517 47.1724L13.1478 47.2031L14.2906 48.036Z" fill="url(#paint32_linear_2478_12719)"/>
<path d="M56.2753 53.8007C56.1586 57.4198 55.8191 57.7699 55.7672 59.1589C55.7261 60.2593 55.1473 62.1224 54.9092 62.8483L54.0504 62.8195C53.7227 62.1662 53.4763 61.4777 53.3164 60.7685C53.3417 60.6186 53.3602 60.4619 53.3735 60.2907C53.5775 57.6762 54.136 56.1003 54.0164 55.0649C53.8967 54.0296 53.5134 52.6031 53.6533 51.6675C53.727 50.9534 53.6727 50.2324 53.4927 49.5359C53.5624 49.0882 53.6976 48.6523 53.8944 48.2413L54.4748 48.2492L55.2941 48.2708C55.6399 49.0534 56.3639 51.037 56.2753 53.8007Z" fill="url(#paint33_linear_2478_12719)"/>
<path d="M42.1212 48.6029L41.9451 61.4085L40.0975 62.3644L39.7233 62.3527L39.9224 47.8835L41.2278 47.917L42.1212 48.6029Z" fill="url(#paint34_linear_2478_12719)"/>
<path d="M44.1784 59.6243C44.1327 60.0681 44.1266 60.5149 44.1601 60.9597L44.1535 61.4382L42.2274 62.4327L41.9311 62.4287L42.1304 47.9397L43.4713 47.9737L44.3296 48.6327L44.1784 59.6243Z" fill="url(#paint35_linear_2478_12719)"/>
<path d="M39.7804 48.571L39.6043 61.3766L37.8351 62.2901L37.3818 62.276L37.5806 47.824L38.8464 47.8556L38.8478 47.8556L39.7804 48.571Z" fill="url(#paint36_linear_2478_12719)"/>
<path d="M37.4369 48.5393L37.2608 61.3448L35.5727 62.2186L35.0402 62.1995L35.2388 47.7659L36.4677 47.7957L37.4369 48.5393Z" fill="url(#paint37_linear_2478_12719)"/>
<path d="M35.1288 48.508L34.9527 61.3136L33.3458 62.1435L33.3444 62.1435L32.7314 62.1247L32.9297 47.7056L34.1204 47.7375L34.1217 47.7375L35.1288 48.508Z" fill="url(#paint38_linear_2478_12719)"/>
<path d="M32.7852 48.4764L32.6091 61.282L31.0834 62.0722L31.082 62.0722L30.3898 62.0496L30.5879 47.645L31.7417 47.6765L32.7852 48.4764Z" fill="url(#paint39_linear_2478_12719)"/>
<path d="M28.1261 48.4132L27.9499 61.2188L26.4242 62.009L26.4228 62.009L25.7306 61.9864L25.9287 47.5818L27.0825 47.6132L28.1261 48.4132Z" fill="url(#paint40_linear_2478_12719)"/>
<path d="M30.4429 48.4481L30.2661 61.3063L28.8201 62.0572L28.046 62.0309L28.2446 47.5869L29.3616 47.6153L30.4429 48.4481Z" fill="url(#paint41_linear_2478_12719)"/>
<path d="M25.7838 48.3815L25.6077 61.187L24.1617 61.9348L23.3876 61.9085L23.5854 47.5237L24.7024 47.552L25.7838 48.3815Z" fill="url(#paint42_linear_2478_12719)"/>
<path d="M18.8329 48.0976L18.6544 61.0759L17.5964 61.6311L16.4385 61.5944L16.6353 47.2913L17.8342 47.3207L18.8329 48.0976Z" fill="url(#paint43_linear_2478_12719)"/>
<path d="M16.5248 48.0662L16.3463 61.0445L15.3653 61.5586L14.1297 61.5168L14.3262 47.2322L15.4896 47.2624L16.5248 48.0662Z" fill="url(#paint44_linear_2478_12719)"/>
<path d="M9.84791 61.3785C9.25482 57.4804 9.17153 53.5262 9.6 49.6088C9.61866 49.4442 9.6386 49.285 9.65573 49.1323C9.65606 49.1085 9.65637 49.0861 9.6649 49.0612C9.67735 48.9506 9.69113 48.8427 9.7062 48.74C9.7655 48.3018 9.82118 47.9281 9.86897 47.632C9.87771 47.5926 9.88371 47.5531 9.89103 47.5176C9.90306 47.4374 9.91635 47.365 9.92818 47.2993C9.94002 47.2335 9.95048 47.1677 9.96068 47.1217L10.5424 47.1362L11.9214 49.3686L11.7763 59.9147L9.85064 61.3785" fill="url(#paint45_linear_2478_12719)"/>
<path d="M46.8107 48.8008L46.8104 48.8271L46.6711 58.954C46.5698 60.2566 46.474 61.2666 46.4372 61.3584C46.3679 61.5302 45.5605 62.1376 45.0319 62.526L44.4694 62.5092C44.3122 62.005 44.2086 61.4867 44.1601 60.9623L44.1785 59.6243C44.2709 58.5708 44.4823 57.3975 44.3756 55.2245C44.2489 52.8114 44.3861 50.3922 44.785 48.0073L46.0412 48.0388L46.8107 48.8008Z" fill="url(#paint46_linear_2478_12719)"/>
<path d="M49.1453 56.3543C49.1172 56.7086 49.122 57.3587 49.1217 58.076C48.9888 58.9989 48.9444 59.9318 48.9891 60.8628C48.9741 61.0385 48.9125 61.2075 48.8102 61.3535C48.5193 61.6489 47.9265 62.2394 47.5637 62.6024L46.911 62.5804C46.7644 62.3147 46.6301 61.8501 46.6414 61.0314L46.67 58.9486C46.8485 56.5975 47.0442 53.2946 46.9221 52.7339C46.7334 51.8585 46.8394 48.8221 46.8394 48.8221L46.8124 48.7954L47.0192 48.0598L48.0133 48.0852C48.4326 48.4864 49.0051 49.1732 49.0986 50.017C49.2465 51.381 49.2265 55.323 49.1453 56.3543Z" fill="url(#paint47_linear_2478_12719)"/>
<path d="M51.9334 55.5536C51.8955 56.1187 51.3431 58.7403 51.2662 59.9642C51.2054 60.2165 51.1475 60.4544 51.0939 60.6738C50.7742 61.9695 50.1128 62.4827 49.7345 62.6754L49.3905 62.6628C49.1509 62.202 49.03 61.557 48.9863 60.8642C49.1059 60.2144 49.1174 59.0794 49.1189 58.0773C49.1537 57.8312 49.1923 57.6089 49.2304 57.4196C49.4826 56.1625 49.1676 52.0551 49.158 50.569C49.1518 49.7507 49.1959 48.9328 49.29 48.1197L50.4206 48.1482C51.0133 48.7561 51.2577 49.8551 51.548 51.4953C51.5443 51.7805 51.5762 52.0651 51.6429 52.343C51.9304 53.2884 51.975 54.9068 51.9334 55.5536Z" fill="url(#paint48_linear_2478_12719)"/>
<path d="M53.3733 60.296C53.36 60.4673 53.3415 60.6239 53.3162 60.7739C53.1174 62.0224 52.5733 62.5451 52.1578 62.7623L51.4943 62.7401C51.0017 62.003 51.3488 61.2008 51.267 60.3954C51.2575 60.2548 51.2595 60.1138 51.2728 59.9736C51.7192 58.1034 52.2474 55.459 51.8075 52.9756C51.7151 52.4469 51.633 51.9593 51.5544 51.5126C51.5309 50.348 51.7417 48.6223 51.7953 48.1998L52.9683 48.2302C53.2225 48.6379 53.4043 49.0838 53.5061 49.5494C53.686 50.2458 53.7403 50.9669 53.6667 51.6809C53.5172 52.6164 53.9074 54.0443 54.0297 55.0784C54.1521 56.1124 53.5774 57.675 53.3733 60.296Z" fill="url(#paint49_linear_2478_12719)"/>
</g>
<defs>
<filter id="filter0_d_2478_12719" x="2" y="27" width="79.1021" height="43" filterUnits="userSpaceOnUse" color-interpolation-filters="sRGB">
<feFlood flood-opacity="0" result="BackgroundImageFix"/>
<feColorMatrix in="SourceAlpha" type="matrix" values="0 0 0 0 0 0 0 0 0 0 0 0 0 0 0 0 0 0 127 0" result="hardAlpha"/>
<feOffset dy="2"/>
<feGaussianBlur stdDeviation="2"/>
<feComposite in2="hardAlpha" operator="out"/>
<feColorMatrix type="matrix" values="0 0 0 0 0 0 0 0 0 0 0 0 0 0 0 0 0 0 0.25 0"/>
<feBlend mode="normal" in2="BackgroundImageFix" result="effect1_dropShadow_2478_12719"/>
<feBlend mode="normal" in="SourceGraphic" in2="effect1_dropShadow_2478_12719" result="shape"/>
</filter>
<linearGradient id="paint0_linear_2478_12719" x1="47.1795" y1="72.5" x2="40.3445" y2="32.4412" gradientUnits="userSpaceOnUse">
<stop stop-color="#C5C5C5"/>
<stop offset="1" stop-color="#5F5F5F"/>
</linearGradient>
<linearGradient id="paint1_linear_2478_12719" x1="26" y1="34.5" x2="-13" y2="-37" gradientUnits="userSpaceOnUse">
<stop stop-color="#D9D9D9"/>
<stop offset="1" stop-color="#737373"/>
</linearGradient>
<linearGradient id="paint2_linear_2478_12719" x1="33.1213" y1="30.605" x2="33.1213" y2="64" gradientUnits="userSpaceOnUse">
<stop stop-color="#6F6F6F"/>
<stop offset="0.47" stop-color="#919191"/>
<stop offset="1" stop-color="#4C4C4C"/>
</linearGradient>
<linearGradient id="paint3_linear_2478_12719" x1="48.2217" y1="37.1573" x2="57.1454" y2="16.2952" gradientUnits="userSpaceOnUse">
<stop stop-color="#3D3D3D"/>
<stop offset="0.399245" stop-color="#717171"/>
<stop offset="0.51971" stop-color="#A3A3A3"/>
</linearGradient>
<linearGradient id="paint4_linear_2478_12719" x1="63.1594" y1="32.4584" x2="58.7282" y2="51.8654" gradientUnits="userSpaceOnUse">
<stop stop-color="#B7B7B7"/>
<stop offset="0.47" stop-color="#B2B2B2"/>
<stop offset="1" stop-color="#737373"/>
</linearGradient>
<linearGradient id="paint5_linear_2478_12719" x1="62.2146" y1="64.2519" x2="58.9305" y2="49.888" gradientUnits="userSpaceOnUse">
<stop stop-color="#B7B7B7"/>
<stop offset="0.47" stop-color="#B2B2B2"/>
<stop offset="1" stop-color="#737373"/>
</linearGradient>
<linearGradient id="paint6_linear_2478_12719" x1="65.8856" y1="61.0212" x2="65.9054" y2="49.9701" gradientUnits="userSpaceOnUse">
<stop stop-color="#B7B7B7"/>
<stop offset="0.47" stop-color="#B2B2B2"/>
<stop offset="1" stop-color="#737373"/>
</linearGradient>
<linearGradient id="paint7_linear_2478_12719" x1="66.4892" y1="37.6154" x2="65.8477" y2="51.2729" gradientUnits="userSpaceOnUse">
<stop stop-color="#B7B7B7"/>
<stop offset="0.47" stop-color="#B2B2B2"/>
<stop offset="1" stop-color="#737373"/>
</linearGradient>
<linearGradient id="paint8_linear_2478_12719" x1="73.5579" y1="42.7563" x2="70.0093" y2="50.9181" gradientUnits="userSpaceOnUse">
<stop stop-color="#B7B7B7"/>
<stop offset="0.47" stop-color="#B2B2B2"/>
<stop offset="1" stop-color="#737373"/>
</linearGradient>
<linearGradient id="paint9_linear_2478_12719" x1="72.9923" y1="57.7312" x2="69.2445" y2="50.8218" gradientUnits="userSpaceOnUse">
<stop stop-color="#B7B7B7"/>
<stop offset="0.47" stop-color="#B2B2B2"/>
<stop offset="1" stop-color="#737373"/>
</linearGradient>
<linearGradient id="paint10_linear_2478_12719" x1="20.05" y1="31.6548" x2="18.8769" y2="44.1822" gradientUnits="userSpaceOnUse">
<stop stop-color="#BDBABA"/>
<stop offset="0.385" stop-color="#CFCFCF"/>
<stop offset="0.835" stop-color="#A2A2A2"/>
</linearGradient>
<linearGradient id="paint11_linear_2478_12719" x1="22.2992" y1="31.7307" x2="21.0872" y2="44.2905" gradientUnits="userSpaceOnUse">
<stop stop-color="#BDBABA"/>
<stop offset="0.34" stop-color="#CFCFCF"/>
<stop offset="1" stop-color="#A2A2A2"/>
</linearGradient>
<linearGradient id="paint12_linear_2478_12719" x1="13.0648" y1="31.5691" x2="11.9676" y2="44.0706" gradientUnits="userSpaceOnUse">
<stop stop-color="#BDBABA"/>
<stop offset="0.34" stop-color="#CFCFCF"/>
<stop offset="1" stop-color="#A2A2A2"/>
</linearGradient>
<linearGradient id="paint13_linear_2478_12719" x1="55.2458" y1="32.094" x2="54.3062" y2="44.8818" gradientUnits="userSpaceOnUse">
<stop stop-color="#BDBABA"/>
<stop offset="0.285" stop-color="#CFCFCF"/>
<stop offset="0.835" stop-color="#A2A2A2"/>
</linearGradient>
<linearGradient id="paint14_linear_2478_12719" x1="41.2226" y1="31.9172" x2="40.0269" y2="44.5599" gradientUnits="userSpaceOnUse">
<stop stop-color="#BDBABA"/>
<stop offset="0.34" stop-color="#CFCFCF"/>
<stop offset="1" stop-color="#A2A2A2"/>
</linearGradient>
<linearGradient id="paint15_linear_2478_12719" x1="43.4511" y1="31.9448" x2="42.2533" y2="44.5988" gradientUnits="userSpaceOnUse">
<stop stop-color="#BDBABA"/>
<stop offset="0.285" stop-color="#CFCFCF"/>
<stop offset="0.835" stop-color="#A2A2A2"/>
</linearGradient>
<linearGradient id="paint16_linear_2478_12719" x1="38.86" y1="31.8882" x2="37.6676" y2="44.5174" gradientUnits="userSpaceOnUse">
<stop stop-color="#BDBABA"/>
<stop offset="0.285" stop-color="#CFCFCF"/>
<stop offset="0.835" stop-color="#A2A2A2"/>
</linearGradient>
<linearGradient id="paint17_linear_2478_12719" x1="36.4956" y1="31.8606" x2="35.3048" y2="44.4772" gradientUnits="userSpaceOnUse">
<stop stop-color="#BDBABA"/>
<stop offset="0.34" stop-color="#CFCFCF"/>
<stop offset="1" stop-color="#A2A2A2"/>
</linearGradient>
<linearGradient id="paint18_linear_2478_12719" x1="34.1662" y1="31.8301" x2="32.9787" y2="44.4333" gradientUnits="userSpaceOnUse">
<stop stop-color="#BDBABA"/>
<stop offset="0.285" stop-color="#CFCFCF"/>
<stop offset="0.835" stop-color="#A2A2A2"/>
</linearGradient>
<linearGradient id="paint19_linear_2478_12719" x1="31.8017" y1="31.7998" x2="30.6155" y2="44.3927" gradientUnits="userSpaceOnUse">
<stop stop-color="#BDBABA"/>
<stop offset="0.34" stop-color="#CFCFCF"/>
<stop offset="1" stop-color="#A2A2A2"/>
</linearGradient>
<linearGradient id="paint20_linear_2478_12719" x1="27.1005" y1="31.7998" x2="25.9143" y2="44.3927" gradientUnits="userSpaceOnUse">
<stop stop-color="#BDBABA"/>
<stop offset="0.34" stop-color="#CFCFCF"/>
<stop offset="1" stop-color="#A2A2A2"/>
</linearGradient>
<linearGradient id="paint21_linear_2478_12719" x1="29.4377" y1="31.7722" x2="28.2549" y2="44.3505" gradientUnits="userSpaceOnUse">
<stop stop-color="#BDBABA"/>
<stop offset="0.285" stop-color="#CFCFCF"/>
<stop offset="0.835" stop-color="#A2A2A2"/>
</linearGradient>
<linearGradient id="paint22_linear_2478_12719" x1="24.736" y1="31.7722" x2="23.5533" y2="44.3505" gradientUnits="userSpaceOnUse">
<stop stop-color="#BDBABA"/>
<stop offset="0.56" stop-color="#CFCFCF"/>
<stop offset="0.88" stop-color="#A2A2A2"/>
</linearGradient>
<linearGradient id="paint23_linear_2478_12719" x1="17.7202" y1="31.6272" x2="16.5492" y2="44.1398" gradientUnits="userSpaceOnUse">
<stop stop-color="#BDBABA"/>
<stop offset="0.34" stop-color="#CFCFCF"/>
<stop offset="1" stop-color="#A2A2A2"/>
</linearGradient>
<linearGradient id="paint24_linear_2478_12719" x1="15.3903" y1="31.5981" x2="14.2223" y2="44.0984" gradientUnits="userSpaceOnUse">
<stop stop-color="#BDBABA"/>
<stop offset="0.385" stop-color="#CFCFCF"/>
<stop offset="0.835" stop-color="#A2A2A2"/>
</linearGradient>
<linearGradient id="paint25_linear_2478_12719" x1="10.6061" y1="31.5442" x2="9.58881" y2="44.023" gradientUnits="userSpaceOnUse">
<stop stop-color="#BDBABA"/>
<stop offset="0.385" stop-color="#CFCFCF"/>
<stop offset="0.835" stop-color="#A2A2A2"/>
</linearGradient>
<linearGradient id="paint26_linear_2478_12719" x1="45.8181" y1="31.978" x2="44.7473" y2="44.676" gradientUnits="userSpaceOnUse">
<stop stop-color="#BDBABA"/>
<stop offset="0.285" stop-color="#CFCFCF"/>
<stop offset="0.835" stop-color="#A2A2A2"/>
</linearGradient>
<linearGradient id="paint27_linear_2478_12719" x1="48.3162" y1="32.0015" x2="47.2375" y2="44.7156" gradientUnits="userSpaceOnUse">
<stop stop-color="#BDBABA"/>
<stop offset="0.34" stop-color="#CFCFCF"/>
<stop offset="1" stop-color="#A2A2A2"/>
</linearGradient>
<linearGradient id="paint28_linear_2478_12719" x1="50.8862" y1="32.032" x2="49.9573" y2="44.7828" gradientUnits="userSpaceOnUse">
<stop stop-color="#BDBABA"/>
<stop offset="0.285" stop-color="#CFCFCF"/>
<stop offset="0.835" stop-color="#A2A2A2"/>
</linearGradient>
<linearGradient id="paint29_linear_2478_12719" x1="53.0824" y1="32.0803" x2="52.1037" y2="44.8306" gradientUnits="userSpaceOnUse">
<stop stop-color="#BDBABA"/>
<stop offset="0.34" stop-color="#CFCFCF"/>
<stop offset="1" stop-color="#A2A2A2"/>
</linearGradient>
<linearGradient id="paint30_linear_2478_12719" x1="20.0482" y1="47.3638" x2="19.854" y2="61.7052" gradientUnits="userSpaceOnUse">
<stop stop-color="#A3A3A3"/>
<stop offset="0.34" stop-color="#B3B3B3"/>
<stop offset="1" stop-color="#858585"/>
</linearGradient>
<linearGradient id="paint31_linear_2478_12719" x1="22.2783" y1="47.4665" x2="18.6223" y2="61.8831" gradientUnits="userSpaceOnUse">
<stop stop-color="#A3A3A3"/>
<stop offset="0.56" stop-color="#B3B3B3"/>
<stop offset="0.8" stop-color="#858585"/>
</linearGradient>
<linearGradient id="paint32_linear_2478_12719" x1="14.3517" y1="50.0172" x2="13.4569" y2="61.155" gradientUnits="userSpaceOnUse">
<stop stop-color="#A3A3A3"/>
<stop offset="0.34" stop-color="#B3B3B3"/>
<stop offset="0.905483" stop-color="#858585"/>
</linearGradient>
<linearGradient id="paint33_linear_2478_12719" x1="56.422" y1="51.1457" x2="55.6312" y2="62.5293" gradientUnits="userSpaceOnUse">
<stop stop-color="#A3A3A3"/>
<stop offset="0.34" stop-color="#B3B3B3"/>
<stop offset="0.905483" stop-color="#858585"/>
</linearGradient>
<linearGradient id="paint34_linear_2478_12719" x1="42.1746" y1="50.7616" x2="41.2107" y2="62.0303" gradientUnits="userSpaceOnUse">
<stop stop-color="#A3A3A3"/>
<stop offset="0.34" stop-color="#B3B3B3"/>
<stop offset="0.905483" stop-color="#858585"/>
</linearGradient>
<linearGradient id="paint35_linear_2478_12719" x1="42.1085" y1="49.529" x2="44.0081" y2="60.8949" gradientUnits="userSpaceOnUse">
<stop stop-color="#A3A3A3"/>
<stop offset="0.34" stop-color="#B3B3B3"/>
<stop offset="1" stop-color="#858585"/>
</linearGradient>
<linearGradient id="paint36_linear_2478_12719" x1="38.6854" y1="47.8389" x2="38.4896" y2="62.299" gradientUnits="userSpaceOnUse">
<stop stop-color="#A3A3A3"/>
<stop offset="0.34" stop-color="#B3B3B3"/>
<stop offset="1" stop-color="#858585"/>
</linearGradient>
<linearGradient id="paint37_linear_2478_12719" x1="36.343" y1="47.7808" x2="36.1473" y2="62.2263" gradientUnits="userSpaceOnUse">
<stop stop-color="#A3A3A3"/>
<stop offset="0.472613" stop-color="#B3B3B3"/>
<stop offset="1" stop-color="#858585"/>
</linearGradient>
<linearGradient id="paint38_linear_2478_12719" x1="34.0346" y1="47.7205" x2="33.8392" y2="62.1502" gradientUnits="userSpaceOnUse">
<stop stop-color="#A3A3A3"/>
<stop offset="0.34" stop-color="#B3B3B3"/>
<stop offset="1" stop-color="#858585"/>
</linearGradient>
<linearGradient id="paint39_linear_2478_12719" x1="31.6921" y1="47.66" x2="30.4382" y2="59.6716" gradientUnits="userSpaceOnUse">
<stop stop-color="#A3A3A3"/>
<stop offset="0.34" stop-color="#B3B3B3"/>
<stop offset="1" stop-color="#858585"/>
</linearGradient>
<linearGradient id="paint40_linear_2478_12719" x1="27.0329" y1="47.5967" x2="25.779" y2="59.6083" gradientUnits="userSpaceOnUse">
<stop stop-color="#A3A3A3"/>
<stop offset="0.34" stop-color="#B3B3B3"/>
<stop offset="1" stop-color="#858585"/>
</linearGradient>
<linearGradient id="paint41_linear_2478_12719" x1="30.4983" y1="50.4619" x2="29.5369" y2="61.7183" gradientUnits="userSpaceOnUse">
<stop stop-color="#A3A3A3"/>
<stop offset="0.34" stop-color="#B3B3B3"/>
<stop offset="0.905483" stop-color="#858585"/>
</linearGradient>
<linearGradient id="paint42_linear_2478_12719" x1="24.6903" y1="47.5386" x2="24.4953" y2="61.9393" gradientUnits="userSpaceOnUse">
<stop stop-color="#A3A3A3"/>
<stop offset="0.34" stop-color="#B3B3B3"/>
<stop offset="1" stop-color="#858585"/>
</linearGradient>
<linearGradient id="paint43_linear_2478_12719" x1="18.8879" y1="50.1395" x2="17.9424" y2="61.2915" gradientUnits="userSpaceOnUse">
<stop stop-color="#A3A3A3"/>
<stop offset="0.34" stop-color="#B3B3B3"/>
<stop offset="0.905483" stop-color="#858585"/>
</linearGradient>
<linearGradient id="paint44_linear_2478_12719" x1="15.431" y1="47.2471" x2="12.036" y2="61.7084" gradientUnits="userSpaceOnUse">
<stop stop-color="#A3A3A3"/>
<stop offset="0.56" stop-color="#B3B3B3"/>
<stop offset="0.8" stop-color="#858585"/>
</linearGradient>
<linearGradient id="paint45_linear_2478_12719" x1="10.6903" y1="47.1316" x2="7.68123" y2="61.7051" gradientUnits="userSpaceOnUse">
<stop stop-color="#A3A3A3"/>
<stop offset="0.56" stop-color="#B3B3B3"/>
<stop offset="0.8" stop-color="#858585"/>
</linearGradient>
<linearGradient id="paint46_linear_2478_12719" x1="45.5798" y1="48.018" x2="42.4255" y2="62.8159" gradientUnits="userSpaceOnUse">
<stop stop-color="#A3A3A3"/>
<stop offset="0.56" stop-color="#B3B3B3"/>
<stop offset="0.8" stop-color="#858585"/>
</linearGradient>
<linearGradient id="paint47_linear_2478_12719" x1="49.3448" y1="50.9501" x2="48.46" y2="62.2754" gradientUnits="userSpaceOnUse">
<stop stop-color="#A3A3A3"/>
<stop offset="0.34" stop-color="#B3B3B3"/>
<stop offset="0.905483" stop-color="#858585"/>
</linearGradient>
<linearGradient id="paint48_linear_2478_12719" x1="50.6021" y1="48.1374" x2="49.8555" y2="61.54" gradientUnits="userSpaceOnUse">
<stop stop-color="#A3A3A3"/>
<stop offset="0.34" stop-color="#B3B3B3"/>
<stop offset="1" stop-color="#858585"/>
</linearGradient>
<linearGradient id="paint49_linear_2478_12719" x1="52.7775" y1="48.2131" x2="49.8609" y2="63.1552" gradientUnits="userSpaceOnUse">
<stop stop-color="#A3A3A3"/>
<stop offset="0.56" stop-color="#B3B3B3"/>
<stop offset="0.8" stop-color="#858585"/>
</linearGradient>
</defs>
</svg>
