<svg width="69" height="69" viewBox="0 0 69 69" fill="none" xmlns="http://www.w3.org/2000/svg">
<circle cx="34.5" cy="34.5" r="30" fill="#666666" fill-opacity="0.2"/>
<circle cx="34.5" cy="34.5" r="34" fill="#666666" fill-opacity="0.1"/>
<path d="M34.4993 11.167C21.6193 11.167 11.166 21.6203 11.166 34.5003C11.166 47.3803 21.6193 57.8337 34.4993 57.8337C47.3793 57.8337 57.8327 47.3803 57.8327 34.5003C57.8327 21.6203 47.3793 11.167 34.4993 11.167ZM36.8327 50.8337H32.166V46.167H36.8327V50.8337ZM41.6627 32.7503L39.5627 34.897C37.8827 36.6003 36.8327 38.0003 36.8327 41.5003H32.166V40.3337C32.166 37.767 33.216 35.4337 34.896 33.7303L37.7893 30.7903C38.6527 29.9503 39.166 28.7837 39.166 27.5003C39.166 24.9337 37.066 22.8337 34.4993 22.8337C31.9327 22.8337 29.8327 24.9337 29.8327 27.5003H25.166C25.166 22.3437 29.3427 18.167 34.4993 18.167C39.656 18.167 43.8327 22.3437 43.8327 27.5003C43.8327 29.5537 42.9927 31.4203 41.6627 32.7503Z" fill="#666666"/>
</svg>
