<svg width="40" height="40" viewBox="0 0 40 40" fill="none" xmlns="http://www.w3.org/2000/svg">
<rect width="40" height="40" rx="8" fill="url(#paint0_linear_2294_30448)"/>
<path d="M11.332 15.7812C11.2617 16.0547 11.2852 16.2617 11.4023 16.4023C11.5195 16.5352 11.7227 16.5938 12.0117 16.5781C12.582 16.5469 13.2344 16.5156 13.9688 16.4844C14.7031 16.4531 15.582 16.4258 16.6055 16.4023C17.6289 16.3789 18.8633 16.3672 20.3086 16.3672C21.7617 16.3672 23 16.3789 24.0234 16.4023C25.0469 16.4258 25.9258 16.4531 26.6602 16.4844C27.3945 16.5156 28.0469 16.5469 28.6172 16.5781C28.9141 16.5938 29.1172 16.5352 29.2266 16.4023C29.3438 16.2617 29.3711 16.0547 29.3086 15.7812C29.2227 15.4219 29.1133 15.0352 28.9805 14.6211C28.8555 14.207 28.7266 13.8203 28.5938 13.4609C28.4688 13.1016 28.3516 12.8242 28.2422 12.6289C28.0547 12.3008 27.8438 12.0625 27.6094 11.9141C27.3828 11.7578 27.0742 11.6523 26.6836 11.5977C26.293 11.5352 25.5781 11.4922 24.5391 11.4688C23.5 11.4375 22.0898 11.4219 20.3086 11.4219C18.5273 11.4219 17.1211 11.4375 16.0898 11.4688C15.0586 11.5 14.3438 11.543 13.9453 11.5977C13.5547 11.6523 13.2422 11.7578 13.0078 11.9141C12.7734 12.0625 12.5664 12.3008 12.3867 12.6289C12.2852 12.832 12.1641 13.1133 12.0234 13.4727C11.8906 13.8242 11.7578 14.207 11.625 14.6211C11.5 15.0352 11.4023 15.4219 11.332 15.7812ZM11.6484 24.9336C12.2188 24.9336 12.6953 24.7422 13.0781 24.3594C13.4688 23.9688 13.6641 23.4922 13.6641 22.9297C13.6641 22.3516 13.4688 21.8711 13.0781 21.4883C12.6953 21.0977 12.2188 20.9023 11.6484 20.9023C11.0703 20.9023 10.5898 21.0977 10.207 21.4883C9.82422 21.8711 9.63281 22.3516 9.63281 22.9297C9.63281 23.4922 9.82422 23.9688 10.207 24.3594C10.5898 24.7422 11.0703 24.9336 11.6484 24.9336ZM17.1094 24.4297H23.5195C23.9492 24.4297 24.3008 24.293 24.5742 24.0195C24.8477 23.7461 24.9844 23.3945 24.9844 22.9648C24.9844 22.5352 24.8477 22.1875 24.5742 21.9219C24.3008 21.6484 23.9492 21.5117 23.5195 21.5117H17.1094C16.6797 21.5117 16.3281 21.6484 16.0547 21.9219C15.7812 22.1875 15.6445 22.5352 15.6445 22.9648C15.6445 23.3945 15.7812 23.7461 16.0547 24.0195C16.3281 24.293 16.6797 24.4297 17.1094 24.4297ZM28.9805 24.9336C29.5508 24.9336 30.0273 24.7422 30.4102 24.3594C30.8008 23.9688 30.9961 23.4922 30.9961 22.9297C30.9961 22.3516 30.8008 21.8711 30.4102 21.4883C30.0273 21.0977 29.5508 20.9023 28.9805 20.9023C28.4102 20.9023 27.9336 21.0977 27.5508 21.4883C27.168 21.8711 26.9766 22.3516 26.9766 22.9297C26.9766 23.4922 27.168 23.9688 27.5508 24.3594C27.9336 24.7422 28.4102 24.9336 28.9805 24.9336ZM20.3086 28.2734C19.3008 28.2734 18.2383 28.2617 17.1211 28.2383C16.0117 28.2148 14.9219 28.1836 13.8516 28.1445C12.7891 28.0977 11.8164 28.0469 10.9336 27.9922C10.0508 27.9375 9.33203 27.8789 8.77734 27.8164C7.89453 27.7148 7.20703 27.418 6.71484 26.9258C6.23047 26.4258 5.98828 25.7539 5.98828 24.9102V22.9766C5.98828 22.2656 6.03516 21.6484 6.12891 21.125C6.22266 20.5938 6.375 20.1016 6.58594 19.6484C6.79688 19.1953 7.08984 18.7305 7.46484 18.2539L8.53125 16.9297C8.67188 16.2266 8.84375 15.5312 9.04688 14.8438C9.25 14.1562 9.44922 13.5391 9.64453 12.9922C9.84766 12.4453 10.0195 12.0273 10.1602 11.7383C10.4883 11.0273 10.9648 10.4609 11.5898 10.0391C12.2148 9.60938 12.9453 9.34375 13.7812 9.24219C14.0703 9.20312 14.5273 9.17188 15.1523 9.14844C15.7773 9.11719 16.5273 9.09375 17.4023 9.07812C18.2852 9.0625 19.2539 9.05469 20.3086 9.05469C21.3711 9.05469 22.3398 9.0625 23.2148 9.07812C24.0977 9.08594 24.8477 9.10547 25.4648 9.13672C26.0898 9.16016 26.5547 9.19531 26.8594 9.24219C27.6875 9.35156 28.4141 9.61719 29.0391 10.0391C29.6641 10.4609 30.1445 11.0273 30.4805 11.7383C30.6133 12.0273 30.7773 12.4453 30.9727 12.9922C31.1758 13.5391 31.3789 14.1562 31.582 14.8438C31.7852 15.5312 31.957 16.2266 32.0977 16.9297L33.1641 18.2539C33.5312 18.7305 33.8242 19.1953 34.043 19.6484C34.2617 20.1016 34.4141 20.5938 34.5 21.125C34.5938 21.6484 34.6406 22.2656 34.6406 22.9766V24.9102C34.6406 25.7539 34.3945 26.4219 33.9023 26.9141C33.418 27.4062 32.7344 27.707 31.8516 27.8164C31.2969 27.8789 30.5742 27.9375 29.6836 27.9922C28.8008 28.0469 27.8242 28.0977 26.7539 28.1445C25.6914 28.1836 24.6055 28.2148 23.4961 28.2383C22.3867 28.2617 21.3242 28.2734 20.3086 28.2734ZM7.59375 31.6484C7.14062 31.6484 6.75781 31.4922 6.44531 31.1797C6.14062 30.875 5.98828 30.4961 5.98828 30.043V24.6523L10.6406 27.0312V30.043C10.6406 30.4961 10.4844 30.875 10.1719 31.1797C9.85938 31.4922 9.47656 31.6484 9.02344 31.6484H7.59375ZM31.6055 31.6484C31.1523 31.6484 30.7695 31.4922 30.457 31.1797C30.1523 30.875 30 30.4961 30 30.043V27.0312L34.6406 24.6523V30.043C34.6406 30.4961 34.4844 30.875 34.1719 31.1797C33.8672 31.4922 33.4883 31.6484 33.0352 31.6484H31.6055Z" fill="#A3A1A1"/>
<defs>
<linearGradient id="paint0_linear_2294_30448" x1="20" y1="-52" x2="20.3175" y2="106.999" gradientUnits="userSpaceOnUse">
<stop stop-color="#A7A7A7"/>
<stop offset="0.448245" stop-color="#F1F1F1"/>
<stop offset="1" stop-color="#8B8B8B"/>
</linearGradient>
</defs>
</svg>
