<svg width="32" height="32" viewBox="0 0 32 32" fill="none" xmlns="http://www.w3.org/2000/svg">
<path d="M10.107 5.10667L8.20036 3.2C5.00036 5.64 2.8937 9.4 2.70703 13.6667H5.3737C5.5737 10.1333 7.38703 7.04 10.107 5.10667ZM26.627 13.6667H29.2937C29.0937 9.4 26.987 5.64 23.8004 3.2L21.907 5.10667C24.6004 7.04 26.427 10.1333 26.627 13.6667ZM24.0004 14.3333C24.0004 10.24 21.8137 6.81333 18.0004 5.90667V5C18.0004 3.89333 17.107 3 16.0004 3C14.8937 3 14.0004 3.89333 14.0004 5V5.90667C10.1737 6.81333 8.00036 10.2267 8.00036 14.3333V21L5.3337 23.6667V25H26.667V23.6667L24.0004 21V14.3333ZM16.0004 29C16.187 29 16.3604 28.9867 16.5337 28.9467C17.4004 28.76 18.107 28.1733 18.4537 27.3733C18.587 27.0533 18.6537 26.7067 18.6537 26.3333H13.3204C13.3337 27.8 14.5204 29 16.0004 29Z" fill="#0862B8"/>
</svg>
