<svg width="361" height="315" viewBox="0 0 361 315" fill="none" xmlns="http://www.w3.org/2000/svg">
<path d="M66.32 299.091L69.1591 307.678H69.271L72.1048 299.091H74.2781L70.4322 310H67.9926L64.152 299.091H66.32ZM78.143 310.16C77.3227 310.16 76.6142 309.989 76.0176 309.648C75.4246 309.304 74.9683 308.817 74.6487 308.189C74.3291 307.557 74.1693 306.813 74.1693 305.957C74.1693 305.115 74.3291 304.377 74.6487 303.741C74.9718 303.102 75.4228 302.605 76.0017 302.25C76.5805 301.891 77.2605 301.712 78.0418 301.712C78.5461 301.712 79.0219 301.793 79.4694 301.957C79.9203 302.116 80.3181 302.365 80.6625 302.702C81.0105 303.04 81.284 303.469 81.4828 303.991C81.6817 304.51 81.7811 305.128 81.7811 305.845V306.436H75.0748V305.137H79.9328C79.9292 304.767 79.8493 304.439 79.6931 304.151C79.5368 303.86 79.3184 303.631 79.0379 303.464C78.7609 303.297 78.4377 303.214 78.0684 303.214C77.6743 303.214 77.328 303.31 77.0297 303.501C76.7314 303.69 76.4988 303.938 76.3319 304.247C76.1686 304.553 76.0851 304.888 76.0816 305.254V306.388C76.0816 306.864 76.1686 307.273 76.3426 307.614C76.5166 307.951 76.7598 308.21 77.0723 308.391C77.3848 308.569 77.7506 308.658 78.1696 308.658C78.4502 308.658 78.7041 308.619 78.9314 308.54C79.1586 308.459 79.3557 308.34 79.5226 308.184C79.6895 308.027 79.8156 307.834 79.9008 307.603L81.7012 307.805C81.5876 308.281 81.371 308.697 81.0514 309.052C80.7353 309.403 80.3305 309.677 79.8369 309.872C79.3433 310.064 78.7787 310.16 78.143 310.16ZM85.1107 305.206V310H83.1824V299.091H85.0681V303.208H85.164C85.3557 302.747 85.6523 302.383 86.0535 302.116C86.4584 301.847 86.9733 301.712 87.5983 301.712C88.1665 301.712 88.6619 301.831 89.0844 302.069C89.507 302.306 89.8337 302.654 90.0646 303.113C90.2989 303.571 90.4161 304.13 90.4161 304.79V310H88.4878V305.089C88.4878 304.538 88.3458 304.11 88.0617 303.805C87.7812 303.496 87.387 303.342 86.8792 303.342C86.5383 303.342 86.2329 303.416 85.963 303.565C85.6967 303.711 85.4871 303.922 85.3344 304.199C85.1853 304.476 85.1107 304.812 85.1107 305.206ZM92.1517 310V301.818H94.0799V310H92.1517ZM93.1211 300.657C92.8157 300.657 92.5529 300.556 92.3328 300.353C92.1126 300.147 92.0025 299.901 92.0025 299.613C92.0025 299.322 92.1126 299.075 92.3328 298.873C92.5529 298.667 92.8157 298.564 93.1211 298.564C93.4301 298.564 93.6929 298.667 93.9095 298.873C94.1296 299.075 94.2397 299.322 94.2397 299.613C94.2397 299.901 94.1296 300.147 93.9095 300.353C93.6929 300.556 93.4301 300.657 93.1211 300.657ZM99.4017 310.16C98.5849 310.16 97.8836 309.98 97.2976 309.622C96.7153 309.263 96.266 308.768 95.95 308.136C95.6375 307.5 95.4812 306.768 95.4812 305.941C95.4812 305.11 95.641 304.377 95.9606 303.741C96.2802 303.102 96.7312 302.605 97.3136 302.25C97.8996 301.891 98.592 301.712 99.391 301.712C100.055 301.712 100.643 301.834 101.154 302.079C101.669 302.321 102.079 302.663 102.385 303.107C102.69 303.548 102.864 304.062 102.907 304.652H101.064C100.989 304.258 100.811 303.929 100.531 303.667C100.254 303.4 99.8829 303.267 99.4177 303.267C99.0235 303.267 98.6773 303.374 98.379 303.587C98.0807 303.796 97.8481 304.098 97.6812 304.492C97.5178 304.886 97.4361 305.359 97.4361 305.909C97.4361 306.467 97.5178 306.946 97.6812 307.347C97.8445 307.745 98.0736 308.052 98.3683 308.269C98.6666 308.482 99.0164 308.588 99.4177 308.588C99.7018 308.588 99.9557 308.535 100.179 308.429C100.407 308.319 100.597 308.161 100.749 307.955C100.902 307.749 101.007 307.498 101.064 307.203H102.907C102.86 307.782 102.69 308.295 102.395 308.743C102.101 309.187 101.699 309.535 101.191 309.787C100.684 310.036 100.087 310.16 99.4017 310.16ZM106.188 299.091V310H104.26V299.091H106.188ZM111.563 310.16C110.743 310.16 110.035 309.989 109.438 309.648C108.845 309.304 108.389 308.817 108.069 308.189C107.749 307.557 107.59 306.813 107.59 305.957C107.59 305.115 107.749 304.377 108.069 303.741C108.392 303.102 108.843 302.605 109.422 302.25C110.001 301.891 110.681 301.712 111.462 301.712C111.966 301.712 112.442 301.793 112.89 301.957C113.341 302.116 113.738 302.365 114.083 302.702C114.431 303.04 114.704 303.469 114.903 303.991C115.102 304.51 115.201 305.128 115.201 305.845V306.436H108.495V305.137H113.353C113.35 304.767 113.27 304.439 113.113 304.151C112.957 303.86 112.739 303.631 112.458 303.464C112.181 303.297 111.858 303.214 111.489 303.214C111.095 303.214 110.748 303.31 110.45 303.501C110.152 303.69 109.919 303.938 109.752 304.247C109.589 304.553 109.505 304.888 109.502 305.254V306.388C109.502 306.864 109.589 307.273 109.763 307.614C109.937 307.951 110.18 308.21 110.493 308.391C110.805 308.569 111.171 308.658 111.59 308.658C111.87 308.658 112.124 308.619 112.352 308.54C112.579 308.459 112.776 308.34 112.943 308.184C113.11 308.027 113.236 307.834 113.321 307.603L115.122 307.805C115.008 308.281 114.791 308.697 114.472 309.052C114.156 309.403 113.751 309.677 113.257 309.872C112.764 310.064 112.199 310.16 111.563 310.16ZM129.516 302.772H127.524C127.467 302.445 127.363 302.156 127.21 301.903C127.057 301.648 126.867 301.431 126.64 301.254C126.413 301.076 126.153 300.943 125.862 300.854C125.575 300.762 125.264 300.716 124.93 300.716C124.337 300.716 123.811 300.865 123.353 301.163C122.895 301.458 122.537 301.891 122.277 302.463C122.018 303.031 121.889 303.725 121.889 304.545C121.889 305.38 122.018 306.083 122.277 306.655C122.54 307.223 122.899 307.653 123.353 307.944C123.811 308.232 124.335 308.375 124.925 308.375C125.251 308.375 125.557 308.333 125.841 308.248C126.129 308.159 126.386 308.029 126.613 307.859C126.844 307.688 127.038 307.479 127.194 307.23C127.354 306.982 127.464 306.697 127.524 306.378L129.516 306.388C129.442 306.907 129.28 307.393 129.032 307.848C128.787 308.303 128.465 308.704 128.068 309.052C127.67 309.396 127.205 309.666 126.672 309.862C126.139 310.053 125.548 310.149 124.898 310.149C123.939 310.149 123.084 309.927 122.331 309.483C121.578 309.039 120.985 308.398 120.552 307.56C120.118 306.722 119.902 305.717 119.902 304.545C119.902 303.37 120.12 302.365 120.557 301.531C120.994 300.692 121.588 300.051 122.341 299.608C123.094 299.164 123.946 298.942 124.898 298.942C125.505 298.942 126.07 299.027 126.592 299.197C127.114 299.368 127.579 299.618 127.988 299.949C128.396 300.275 128.732 300.676 128.994 301.152C129.261 301.625 129.435 302.164 129.516 302.772ZM133.365 310.165C132.847 310.165 132.38 310.073 131.964 309.888C131.552 309.7 131.226 309.423 130.984 309.057C130.746 308.691 130.627 308.24 130.627 307.704C130.627 307.243 130.713 306.861 130.883 306.559C131.054 306.257 131.286 306.016 131.581 305.835C131.876 305.653 132.208 305.517 132.577 305.424C132.95 305.328 133.335 305.259 133.733 305.217C134.212 305.167 134.601 305.123 134.899 305.083C135.198 305.041 135.414 304.977 135.549 304.892C135.688 304.803 135.757 304.666 135.757 304.482V304.45C135.757 304.048 135.638 303.738 135.4 303.517C135.162 303.297 134.82 303.187 134.372 303.187C133.9 303.187 133.525 303.29 133.248 303.496C132.975 303.702 132.79 303.945 132.694 304.226L130.894 303.97C131.036 303.473 131.27 303.058 131.597 302.724C131.924 302.386 132.323 302.134 132.795 301.967C133.268 301.797 133.79 301.712 134.361 301.712C134.756 301.712 135.148 301.758 135.539 301.85C135.929 301.942 136.286 302.095 136.609 302.308C136.932 302.518 137.192 302.804 137.387 303.166C137.586 303.528 137.685 303.981 137.685 304.524V310H135.832V308.876H135.768C135.65 309.103 135.485 309.316 135.272 309.515C135.063 309.711 134.798 309.869 134.479 309.989C134.163 310.107 133.791 310.165 133.365 310.165ZM133.866 308.748C134.253 308.748 134.589 308.672 134.873 308.519C135.157 308.363 135.375 308.157 135.528 307.901C135.684 307.646 135.762 307.367 135.762 307.065V306.101C135.702 306.151 135.599 306.197 135.453 306.239C135.311 306.282 135.152 306.319 134.974 306.351C134.796 306.383 134.621 306.412 134.447 306.436C134.273 306.461 134.122 306.483 133.994 306.5C133.706 306.539 133.449 306.603 133.222 306.692C132.994 306.781 132.815 306.905 132.684 307.065C132.552 307.221 132.486 307.424 132.486 307.672C132.486 308.027 132.616 308.295 132.875 308.477C133.135 308.658 133.465 308.748 133.866 308.748ZM139.394 310V301.818H141.264V303.182H141.349C141.498 302.71 141.754 302.346 142.116 302.09C142.482 301.831 142.899 301.701 143.368 301.701C143.474 301.701 143.593 301.706 143.725 301.717C143.86 301.724 143.972 301.737 144.06 301.754V303.528C143.979 303.5 143.849 303.475 143.672 303.453C143.498 303.429 143.329 303.416 143.166 303.416C142.814 303.416 142.498 303.493 142.217 303.645C141.94 303.794 141.722 304.002 141.562 304.268C141.402 304.535 141.322 304.842 141.322 305.19V310H139.394ZM148.397 310.16C147.576 310.16 146.868 309.989 146.271 309.648C145.678 309.304 145.222 308.817 144.902 308.189C144.583 307.557 144.423 306.813 144.423 305.957C144.423 305.115 144.583 304.377 144.902 303.741C145.226 303.102 145.677 302.605 146.255 302.25C146.834 301.891 147.514 301.712 148.296 301.712C148.8 301.712 149.276 301.793 149.723 301.957C150.174 302.116 150.572 302.365 150.916 302.702C151.264 303.04 151.538 303.469 151.737 303.991C151.935 304.51 152.035 305.128 152.035 305.845V306.436H145.329V305.137H150.186C150.183 304.767 150.103 304.439 149.947 304.151C149.791 303.86 149.572 303.631 149.292 303.464C149.015 303.297 148.691 303.214 148.322 303.214C147.928 303.214 147.582 303.31 147.283 303.501C146.985 303.69 146.753 303.938 146.586 304.247C146.422 304.553 146.339 304.888 146.335 305.254V306.388C146.335 306.864 146.422 307.273 146.596 307.614C146.77 307.951 147.014 308.21 147.326 308.391C147.639 308.569 148.004 308.658 148.423 308.658C148.704 308.658 148.958 308.619 149.185 308.54C149.412 308.459 149.609 308.34 149.776 308.184C149.943 308.027 150.069 307.834 150.155 307.603L151.955 307.805C151.841 308.281 151.625 308.697 151.305 309.052C150.989 309.403 150.584 309.677 150.091 309.872C149.597 310.064 149.032 310.16 148.397 310.16ZM158.615 310L156.304 301.818H158.269L159.707 307.571H159.782L161.252 301.818H163.196L164.667 307.539H164.746L166.163 301.818H168.134L165.817 310H163.809L162.275 304.471H162.163L160.629 310H158.615ZM169.251 310V301.818H171.179V310H169.251ZM170.22 300.657C169.915 300.657 169.652 300.556 169.432 300.353C169.212 300.147 169.101 299.901 169.101 299.613C169.101 299.322 169.212 299.075 169.432 298.873C169.652 298.667 169.915 298.564 170.22 298.564C170.529 298.564 170.792 298.667 171.008 298.873C171.229 299.075 171.339 299.322 171.339 299.613C171.339 299.901 171.229 300.147 171.008 300.353C170.792 300.556 170.529 300.657 170.22 300.657ZM177.017 301.818V303.31H172.314V301.818H177.017ZM173.475 299.858H175.403V307.539C175.403 307.798 175.442 307.997 175.52 308.136C175.602 308.271 175.709 308.363 175.84 308.413C175.971 308.462 176.117 308.487 176.277 308.487C176.398 308.487 176.508 308.478 176.607 308.461C176.71 308.443 176.788 308.427 176.842 308.413L177.166 309.92C177.063 309.956 176.916 309.995 176.724 310.037C176.536 310.08 176.305 310.105 176.032 310.112C175.549 310.126 175.114 310.053 174.727 309.893C174.34 309.73 174.033 309.478 173.805 309.137C173.582 308.796 173.471 308.37 173.475 307.859V299.858ZM180.504 305.206V310H178.576V299.091H180.461V303.208H180.557C180.749 302.747 181.046 302.383 181.447 302.116C181.852 301.847 182.367 301.712 182.992 301.712C183.56 301.712 184.055 301.831 184.478 302.069C184.9 302.306 185.227 302.654 185.458 303.113C185.692 303.571 185.809 304.13 185.809 304.79V310H183.881V305.089C183.881 304.538 183.739 304.11 183.455 303.805C183.174 303.496 182.78 303.342 182.272 303.342C181.932 303.342 181.626 303.416 181.356 303.565C181.09 303.711 180.88 303.922 180.728 304.199C180.579 304.476 180.504 304.812 180.504 305.206ZM195.121 301.818V303.31H190.418V301.818H195.121ZM191.579 299.858H193.507V307.539C193.507 307.798 193.546 307.997 193.624 308.136C193.706 308.271 193.813 308.363 193.944 308.413C194.075 308.462 194.221 308.487 194.381 308.487C194.502 308.487 194.612 308.478 194.711 308.461C194.814 308.443 194.892 308.427 194.945 308.413L195.27 309.92C195.167 309.956 195.02 309.995 194.828 310.037C194.64 310.08 194.409 310.105 194.136 310.112C193.653 310.126 193.218 310.053 192.831 309.893C192.444 309.73 192.137 309.478 191.909 309.137C191.686 308.796 191.575 308.37 191.579 307.859V299.858ZM198.608 305.206V310H196.68V299.091H198.565V303.208H198.661C198.853 302.747 199.149 302.383 199.551 302.116C199.956 301.847 200.471 301.712 201.096 301.712C201.664 301.712 202.159 301.831 202.582 302.069C203.004 302.306 203.331 302.654 203.562 303.113C203.796 303.571 203.913 304.13 203.913 304.79V310H201.985V305.089C201.985 304.538 201.843 304.11 201.559 303.805C201.278 303.496 200.884 303.342 200.376 303.342C200.035 303.342 199.73 303.416 199.46 303.565C199.194 303.711 198.984 303.922 198.832 304.199C198.683 304.476 198.608 304.812 198.608 305.206ZM209.271 310.16C208.451 310.16 207.742 309.989 207.146 309.648C206.553 309.304 206.096 308.817 205.777 308.189C205.457 307.557 205.297 306.813 205.297 305.957C205.297 305.115 205.457 304.377 205.777 303.741C206.1 303.102 206.551 302.605 207.13 302.25C207.709 301.891 208.389 301.712 209.17 301.712C209.674 301.712 210.15 301.793 210.597 301.957C211.048 302.116 211.446 302.365 211.791 302.702C212.139 303.04 212.412 303.469 212.611 303.991C212.81 304.51 212.909 305.128 212.909 305.845V306.436H206.203V305.137H211.061C211.057 304.767 210.977 304.439 210.821 304.151C210.665 303.86 210.446 303.631 210.166 303.464C209.889 303.297 209.566 303.214 209.196 303.214C208.802 303.214 208.456 303.31 208.158 303.501C207.859 303.69 207.627 303.938 207.46 304.247C207.297 304.553 207.213 304.888 207.21 305.254V306.388C207.21 306.864 207.297 307.273 207.471 307.614C207.645 307.951 207.888 308.21 208.2 308.391C208.513 308.569 208.879 308.658 209.298 308.658C209.578 308.658 209.832 308.619 210.059 308.54C210.287 308.459 210.484 308.34 210.651 308.184C210.818 308.027 210.944 307.834 211.029 307.603L212.829 307.805C212.716 308.281 212.499 308.697 212.179 309.052C211.863 309.403 211.459 309.677 210.965 309.872C210.471 310.064 209.907 310.16 209.271 310.16ZM217.886 310V299.091H221.977C222.815 299.091 223.519 299.237 224.087 299.528C224.658 299.819 225.09 300.227 225.381 300.753C225.676 301.275 225.823 301.884 225.823 302.58C225.823 303.279 225.674 303.887 225.376 304.402C225.081 304.913 224.646 305.309 224.071 305.589C223.495 305.866 222.789 306.005 221.951 306.005H219.037V304.364H221.684C222.174 304.364 222.576 304.297 222.888 304.162C223.201 304.023 223.432 303.823 223.581 303.56C223.733 303.294 223.81 302.967 223.81 302.58C223.81 302.193 223.733 301.863 223.581 301.589C223.428 301.312 223.195 301.103 222.883 300.961C222.57 300.815 222.167 300.742 221.674 300.742H219.863V310H217.886ZM223.522 305.057L226.223 310H224.017L221.365 305.057H223.522ZM227.327 310V301.818H229.255V310H227.327ZM228.297 300.657C227.991 300.657 227.728 300.556 227.508 300.353C227.288 300.147 227.178 299.901 227.178 299.613C227.178 299.322 227.288 299.075 227.508 298.873C227.728 298.667 227.991 298.564 228.297 298.564C228.605 298.564 228.868 298.667 229.085 298.873C229.305 299.075 229.415 299.322 229.415 299.613C229.415 299.901 229.305 300.147 229.085 300.353C228.868 300.556 228.605 300.657 228.297 300.657ZM234.566 313.239C233.874 313.239 233.279 313.145 232.782 312.956C232.285 312.772 231.885 312.523 231.583 312.211C231.282 311.898 231.072 311.552 230.955 311.172L232.691 310.751C232.77 310.911 232.883 311.069 233.032 311.225C233.181 311.385 233.382 311.516 233.634 311.619C233.89 311.726 234.211 311.779 234.598 311.779C235.145 311.779 235.598 311.646 235.957 311.38C236.315 311.117 236.495 310.684 236.495 310.08V308.53H236.399C236.299 308.729 236.154 308.933 235.962 309.142C235.774 309.352 235.523 309.528 235.211 309.67C234.902 309.812 234.513 309.883 234.044 309.883C233.416 309.883 232.846 309.735 232.335 309.441C231.827 309.142 231.422 308.699 231.12 308.109C230.822 307.516 230.673 306.774 230.673 305.882C230.673 304.984 230.822 304.226 231.12 303.608C231.422 302.987 231.829 302.516 232.34 302.196C232.851 301.873 233.421 301.712 234.05 301.712C234.529 301.712 234.923 301.793 235.232 301.957C235.545 302.116 235.793 302.31 235.978 302.537C236.163 302.761 236.303 302.972 236.399 303.171H236.505V301.818H238.407V310.133C238.407 310.833 238.24 311.412 237.906 311.87C237.572 312.328 237.116 312.67 236.537 312.898C235.958 313.125 235.302 313.239 234.566 313.239ZM234.582 308.37C234.991 308.37 235.339 308.271 235.626 308.072C235.914 307.873 236.132 307.587 236.282 307.214C236.431 306.841 236.505 306.394 236.505 305.872C236.505 305.357 236.431 304.906 236.282 304.519C236.136 304.132 235.919 303.832 235.632 303.619C235.348 303.402 234.998 303.294 234.582 303.294C234.153 303.294 233.794 303.406 233.506 303.629C233.219 303.853 233.002 304.16 232.857 304.551C232.711 304.938 232.638 305.378 232.638 305.872C232.638 306.373 232.711 306.811 232.857 307.188C233.006 307.56 233.224 307.852 233.512 308.061C233.803 308.267 234.16 308.37 234.582 308.37ZM242.081 305.206V310H240.153V299.091H242.039V303.208H242.135C242.326 302.747 242.623 302.383 243.024 302.116C243.429 301.847 243.944 301.712 244.569 301.712C245.137 301.712 245.633 301.831 246.055 302.069C246.478 302.306 246.804 302.654 247.035 303.113C247.27 303.571 247.387 304.13 247.387 304.79V310H245.459V305.089C245.459 304.538 245.317 304.11 245.032 303.805C244.752 303.496 244.358 303.342 243.85 303.342C243.509 303.342 243.204 303.416 242.934 303.565C242.667 303.711 242.458 303.922 242.305 304.199C242.156 304.476 242.081 304.812 242.081 305.206ZM253.208 301.818V303.31H248.505V301.818H253.208ZM249.666 299.858H251.594V307.539C251.594 307.798 251.633 307.997 251.711 308.136C251.793 308.271 251.899 308.363 252.031 308.413C252.162 308.462 252.308 308.487 252.468 308.487C252.588 308.487 252.698 308.478 252.798 308.461C252.901 308.443 252.979 308.427 253.032 308.413L253.357 309.92C253.254 309.956 253.107 309.995 252.915 310.037C252.727 310.08 252.496 310.105 252.223 310.112C251.74 310.126 251.305 310.053 250.918 309.893C250.53 309.73 250.223 309.478 249.996 309.137C249.772 308.796 249.662 308.37 249.666 307.859V299.858ZM267.504 302.772H265.512C265.455 302.445 265.351 302.156 265.198 301.903C265.045 301.648 264.855 301.431 264.628 301.254C264.401 301.076 264.141 300.943 263.85 300.854C263.563 300.762 263.252 300.716 262.918 300.716C262.325 300.716 261.799 300.865 261.341 301.163C260.883 301.458 260.525 301.891 260.265 302.463C260.006 303.031 259.876 303.725 259.876 304.545C259.876 305.38 260.006 306.083 260.265 306.655C260.528 307.223 260.887 307.653 261.341 307.944C261.799 308.232 262.323 308.375 262.913 308.375C263.239 308.375 263.545 308.333 263.829 308.248C264.116 308.159 264.374 308.029 264.601 307.859C264.832 307.688 265.026 307.479 265.182 307.23C265.342 306.982 265.452 306.697 265.512 306.378L267.504 306.388C267.43 306.907 267.268 307.393 267.02 307.848C266.775 308.303 266.453 308.704 266.055 309.052C265.658 309.396 265.192 309.666 264.66 309.862C264.127 310.053 263.536 310.149 262.886 310.149C261.927 310.149 261.071 309.927 260.319 309.483C259.566 309.039 258.973 308.398 258.539 307.56C258.106 306.722 257.89 305.717 257.89 304.545C257.89 303.37 258.108 302.365 258.545 301.531C258.982 300.692 259.576 300.051 260.329 299.608C261.082 299.164 261.934 298.942 262.886 298.942C263.493 298.942 264.058 299.027 264.58 299.197C265.102 299.368 265.567 299.618 265.976 299.949C266.384 300.275 266.719 300.676 266.982 301.152C267.249 301.625 267.423 302.164 267.504 302.772ZM270.271 313.068C270.008 313.068 269.765 313.047 269.541 313.004C269.321 312.965 269.145 312.919 269.013 312.866L269.461 311.364C269.741 311.445 269.992 311.484 270.212 311.481C270.432 311.477 270.626 311.408 270.793 311.273C270.963 311.142 271.107 310.922 271.224 310.613L271.389 310.17L268.422 301.818H270.468L272.353 307.997H272.439L274.33 301.818H276.38L273.104 310.991C272.952 311.424 272.749 311.795 272.497 312.104C272.245 312.417 271.936 312.654 271.57 312.818C271.208 312.985 270.775 313.068 270.271 313.068ZM280.775 310.16C279.958 310.16 279.257 309.98 278.671 309.622C278.089 309.263 277.64 308.768 277.324 308.136C277.011 307.5 276.855 306.768 276.855 305.941C276.855 305.11 277.015 304.377 277.334 303.741C277.654 303.102 278.105 302.605 278.687 302.25C279.273 301.891 279.966 301.712 280.765 301.712C281.429 301.712 282.016 301.834 282.528 302.079C283.043 302.321 283.453 302.663 283.758 303.107C284.064 303.548 284.238 304.062 284.28 304.652H282.437C282.363 304.258 282.185 303.929 281.904 303.667C281.627 303.4 281.256 303.267 280.791 303.267C280.397 303.267 280.051 303.374 279.752 303.587C279.454 303.796 279.222 304.098 279.055 304.492C278.891 304.886 278.81 305.359 278.81 305.909C278.81 306.467 278.891 306.946 279.055 307.347C279.218 307.745 279.447 308.052 279.742 308.269C280.04 308.482 280.39 308.588 280.791 308.588C281.075 308.588 281.329 308.535 281.553 308.429C281.78 308.319 281.97 308.161 282.123 307.955C282.276 307.749 282.38 307.498 282.437 307.203H284.28C284.234 307.782 284.064 308.295 283.769 308.743C283.474 309.187 283.073 309.535 282.565 309.787C282.057 310.036 281.461 310.16 280.775 310.16ZM287.562 299.091V310H285.634V299.091H287.562ZM292.937 310.16C292.117 310.16 291.408 309.989 290.811 309.648C290.218 309.304 289.762 308.817 289.443 308.189C289.123 307.557 288.963 306.813 288.963 305.957C288.963 305.115 289.123 304.377 289.443 303.741C289.766 303.102 290.217 302.605 290.796 302.25C291.374 301.891 292.054 301.712 292.836 301.712C293.34 301.712 293.816 301.793 294.263 301.957C294.714 302.116 295.112 302.365 295.456 302.702C295.804 303.04 296.078 303.469 296.277 303.991C296.476 304.51 296.575 305.128 296.575 305.845V306.436H289.869V305.137H294.727C294.723 304.767 294.643 304.439 294.487 304.151C294.331 303.86 294.112 303.631 293.832 303.464C293.555 303.297 293.232 303.214 292.862 303.214C292.468 303.214 292.122 303.31 291.824 303.501C291.525 303.69 291.293 303.938 291.126 304.247C290.962 304.553 290.879 304.888 290.875 305.254V306.388C290.875 306.864 290.962 307.273 291.136 307.614C291.31 307.951 291.554 308.21 291.866 308.391C292.179 308.569 292.544 308.658 292.963 308.658C293.244 308.658 293.498 308.619 293.725 308.54C293.952 308.459 294.15 308.34 294.316 308.184C294.483 308.027 294.609 307.834 294.695 307.603L296.495 307.805C296.381 308.281 296.165 308.697 295.845 309.052C295.529 309.403 295.124 309.677 294.631 309.872C294.137 310.064 293.572 310.16 292.937 310.16Z" fill="#417FC1"/>
<path d="M286.315 18.0505L242.655 3.57048C241.295 3.12142 239.815 3.21386 238.523 3.82856C237.23 4.44325 236.224 5.53283 235.715 6.87048C222.345 35.4005 209.215 64.0505 195.125 92.2105L194.585 93.3005C187.245 107.74 184.195 105.99 181.795 105.96C179.795 105.96 178.105 103.39 176.255 101.39L164.035 85.8405L175.725 86.1205C176.862 86.1179 177.953 85.6653 178.759 84.8617C179.564 84.058 180.019 82.9684 180.025 81.8305V81.6705C180.019 80.5326 179.564 79.443 178.759 78.6393C177.953 77.8356 176.862 77.3831 175.725 77.3805L153.975 77.0505C152.838 77.0531 151.748 77.5059 150.944 78.3099C150.14 79.1139 149.687 80.2035 149.685 81.3405V81.5005C149.685 81.6005 149.685 81.7005 149.685 81.8005L150.365 103.8C150.367 104.938 150.82 106.029 151.623 106.835C152.427 107.64 153.517 108.095 154.655 108.1H154.815C155.953 108.095 157.044 107.64 157.849 106.835C158.655 106.03 159.109 104.939 159.115 103.8L158.325 94.6005L170.325 110.6C170.325 110.6 176.125 118.18 181.805 118.18C191.525 118.18 195.535 114.86 203.485 100.69C212.865 83.9605 219.855 65.9605 227.975 48.5905C230.345 43.3405 232.885 38.1705 235.335 32.9605C236.595 30.2705 237.865 27.5705 239.025 24.8305C239.975 22.5805 240.755 20.1605 242.505 18.3805C243.479 17.4213 244.778 16.8612 246.145 16.8105C248.615 16.6705 251.365 18.1105 253.715 18.8905L261.345 21.4405L271.255 24.7405C272.65 25.2023 273.806 26.198 274.469 27.5098C275.133 28.8216 275.25 30.3427 274.795 31.7405L243.745 101.9C243.295 103.307 243.423 104.835 244.1 106.148C244.777 107.461 245.948 108.451 247.355 108.9C247.902 109.07 248.472 109.157 249.045 109.16C250.207 109.16 251.339 108.796 252.283 108.117C253.227 107.439 253.934 106.482 254.305 105.38L289.825 25.0505C290.287 23.6567 290.176 22.1366 289.518 20.8241C288.86 19.5115 287.708 18.5139 286.315 18.0505Z" fill="url(#paint0_linear_1757_17037)" stroke="url(#paint1_linear_1757_17037)" stroke-width="2" stroke-miterlimit="10"/>
<path d="M103.554 81.0505L103.614 80.9005C103.614 80.8105 103.664 80.7105 103.694 80.6205L112.114 60.6205C112.535 59.5769 112.532 58.41 112.104 57.3692C111.676 56.3284 110.858 55.4962 109.824 55.0505L109.674 54.9805C108.625 54.5468 107.446 54.5439 106.395 54.9725C105.343 55.4011 104.502 56.2267 104.054 57.2705L100.184 66.4805L84.9844 35.2705C84.3453 33.9549 84.2504 32.4404 84.7203 31.0552C85.1901 29.6701 86.1868 28.5259 87.4944 27.8705L109.234 17.0505C110.542 16.3955 112.055 16.2822 113.446 16.7352C114.837 17.1882 115.993 18.1709 116.664 19.4705L140.354 68.1905C141.055 69.4387 142.211 70.3684 143.58 70.7862C144.949 71.2039 146.427 71.0775 147.705 70.4332C148.983 69.7888 149.964 68.6763 150.442 67.3272C150.921 65.9781 150.861 64.4964 150.274 63.1905L122.614 4.10052C122.29 3.44282 121.839 2.85579 121.286 2.37324C120.734 1.89069 120.092 1.52216 119.397 1.28886C118.702 1.05556 117.967 0.9621 117.235 1.01387C116.504 1.06565 115.79 1.26162 115.134 1.59052L74.0644 22.2605C72.7857 22.901 71.8035 24.0105 71.3228 25.3575C70.8422 26.7045 70.9 28.1851 71.4844 29.4905L89.8244 70.4905L81.0044 66.7805C79.958 66.3374 78.7786 66.3276 77.7249 66.7532C76.6713 67.1787 75.8295 68.005 75.3844 69.0505L75.3244 69.1905C75.1056 69.7099 74.9913 70.2673 74.988 70.8308C74.9846 71.3944 75.0924 71.9531 75.305 72.475C75.5177 72.9969 75.8311 73.4718 76.2274 73.8725C76.6236 74.2733 77.0949 74.592 77.6144 74.8105L97.9244 83.3705C98.9788 83.8083 100.164 83.8099 101.219 83.3749C102.275 82.94 103.115 82.104 103.554 81.0505Z" fill="url(#paint2_linear_1757_17037)" stroke="url(#paint3_linear_1757_17037)" stroke-width="2" stroke-miterlimit="10"/>
<path d="M252.374 142.111L246.304 120.881C245.974 119.77 245.221 118.833 244.208 118.272C243.194 117.711 242 117.571 240.884 117.881H240.724L240.444 117.991L219.034 123.811C218.49 123.961 217.98 124.217 217.535 124.564C217.09 124.911 216.717 125.343 216.438 125.834C216.16 126.325 215.981 126.867 215.911 127.427C215.842 127.988 215.884 128.556 216.034 129.101V129.251C216.364 130.361 217.117 131.298 218.131 131.859C219.144 132.42 220.338 132.561 221.454 132.251L228.034 130.461V130.391L231.974 129.321L229.534 133.661L226.464 139.111L218.834 152.671L208.974 170.191L199.204 187.541L191.874 200.541C189.784 204.251 187.874 208.811 182.734 208.541C178.814 208.311 176.994 205.241 175.274 202.201L171.584 195.701L161.294 177.581L151.914 161.081L148.914 155.831L128.914 122.301L112.604 96.8606C111.779 95.568 110.49 94.6405 109.002 94.2685C107.514 93.8966 105.941 94.1084 104.604 94.8606C103.744 95.3314 103.025 96.0239 102.522 96.8661C102.019 97.7083 101.75 98.6697 101.744 99.6506C101.745 100.602 102.004 101.535 102.494 102.351L135.074 156.931L139.074 163.551L148.294 179.051L159.024 196.981L167.324 210.861C167.934 211.861 168.514 212.921 169.144 213.911C171.754 218.001 177.354 221.561 182.294 221.561C188.994 221.561 193.464 216.821 197.184 210.911C200.324 205.911 228.094 156.981 236.794 141.621L239.384 137.041L240.744 134.371V134.151L240.844 134.481V134.371L243.744 144.461C244.076 145.57 244.83 146.505 245.843 147.066C246.856 147.626 248.048 147.768 249.164 147.461H249.324C249.88 147.317 250.402 147.064 250.858 146.715C251.315 146.367 251.697 145.93 251.981 145.431C252.265 144.932 252.447 144.381 252.514 143.811C252.582 143.24 252.534 142.662 252.374 142.111Z" fill="#3E77BC" stroke="#3F77BC" stroke-width="2" stroke-linecap="round" stroke-linejoin="round"/>
<path d="M114.544 237.931C113.696 237.904 112.86 238.134 112.144 238.591C111.44 239.088 110.9 239.784 110.594 240.591L98.2145 270.251L86.0745 241.251L88.3545 242.651C88.8064 242.918 89.3453 242.997 89.8549 242.871C90.3646 242.744 90.804 242.422 91.0784 241.975C91.3528 241.527 91.4401 240.989 91.3215 240.478C91.2029 239.966 90.8879 239.522 90.4445 239.241L80.5845 233.181C80.3243 233.012 80.0286 232.907 79.7207 232.872C79.4128 232.838 79.1011 232.876 78.8102 232.982C78.5193 233.089 78.2571 233.262 78.0444 233.487C77.8317 233.712 77.6743 233.984 77.5845 234.281L74.0945 245.381C74.0154 245.631 73.9866 245.895 74.0097 246.157C74.0327 246.419 74.1072 246.674 74.2289 246.907C74.3506 247.14 74.5171 247.347 74.7188 247.516C74.9205 247.685 75.1535 247.812 75.4045 247.891C75.599 247.95 75.8012 247.98 76.0045 247.981C76.4304 247.981 76.8454 247.845 77.189 247.594C77.5325 247.342 77.7867 246.987 77.9145 246.581L78.5745 244.471L94.4045 281.471C94.6967 282.24 95.2195 282.901 95.9014 283.363C96.5833 283.825 97.3911 284.065 98.2145 284.051C98.9608 284.054 99.694 283.854 100.334 283.471C101.067 282.988 101.63 282.289 101.944 281.471L118.014 243.771C118.275 243.185 118.41 242.551 118.41 241.911C118.41 241.27 118.275 240.636 118.014 240.051C117.711 239.394 117.219 238.842 116.601 238.464C115.983 238.087 115.268 237.901 114.544 237.931ZM80.7445 238.051C80.6345 238.051 80.7445 238.051 80.6645 238.051H80.7445Z" fill="url(#paint4_linear_1757_17037)"/>
<path d="M282.975 275.98H261.805V264.98H275.235L275.095 265.12C274.898 265.336 274.767 265.603 274.719 265.891C274.671 266.179 274.707 266.475 274.823 266.743C274.94 267.01 275.131 267.239 275.375 267.4C275.618 267.561 275.903 267.648 276.195 267.65C276.399 267.649 276.6 267.606 276.787 267.525C276.974 267.445 277.144 267.327 277.285 267.18L282.045 262.05C282.311 261.77 282.46 261.398 282.46 261.01C282.46 260.623 282.311 260.251 282.045 259.97L277.045 254.86C276.781 254.581 276.419 254.414 276.036 254.394C275.652 254.375 275.275 254.505 274.985 254.756C274.694 255.008 274.512 255.362 274.477 255.745C274.441 256.128 274.555 256.51 274.795 256.81H261.795V245.97H282.965C284.034 245.98 285.064 245.571 285.835 244.83C286.23 244.457 286.544 244.006 286.759 243.507C286.974 243.007 287.085 242.469 287.085 241.925C287.085 241.382 286.974 240.844 286.759 240.344C286.544 239.845 286.23 239.394 285.835 239.02C285.063 238.312 284.052 237.923 283.005 237.93H257.745C257.203 237.917 256.663 238.013 256.16 238.215C255.656 238.416 255.199 238.717 254.815 239.101C254.432 239.484 254.13 239.942 253.929 240.445C253.728 240.949 253.631 241.488 253.645 242.03V279.92C253.627 280.465 253.72 281.008 253.92 281.515C254.119 282.022 254.42 282.483 254.804 282.87C255.188 283.257 255.647 283.561 256.152 283.764C256.658 283.967 257.2 284.064 257.745 284.05H283.025C284.073 284.062 285.085 283.672 285.855 282.96C286.248 282.587 286.561 282.137 286.775 281.638C286.989 281.14 287.1 280.603 287.1 280.06C287.1 279.518 286.989 278.981 286.775 278.483C286.561 277.984 286.248 277.534 285.855 277.16C285.476 276.784 285.027 276.486 284.532 276.284C284.038 276.081 283.509 275.978 282.975 275.98Z" fill="url(#paint5_linear_1757_17037)"/>
<path d="M162.474 236.761C162.436 236.536 162.347 236.323 162.214 236.139C162.081 235.954 161.908 235.802 161.707 235.695C161.506 235.588 161.283 235.528 161.056 235.52C160.828 235.513 160.602 235.557 160.394 235.651L153.454 238.721C153.145 238.857 152.891 239.095 152.734 239.394C152.577 239.693 152.525 240.037 152.588 240.369C152.65 240.702 152.823 241.003 153.078 241.225C153.334 241.446 153.657 241.575 153.994 241.591L143.314 258.791L131.554 239.851C131.217 239.334 130.783 238.889 130.274 238.541C129.631 238.127 128.879 237.915 128.114 237.931C127.125 237.92 126.166 238.276 125.424 238.931C124.734 239.55 124.276 240.386 124.124 241.301C124.034 241.821 124.048 242.354 124.164 242.869C124.281 243.383 124.499 243.87 124.804 244.301L138.664 266.301L138.584 266.441H138.744L139.144 267.071V279.961C139.141 280.499 139.246 281.034 139.452 281.532C139.658 282.029 139.961 282.481 140.344 282.861C140.918 283.434 141.648 283.825 142.444 283.983C143.24 284.142 144.064 284.061 144.814 283.75C145.563 283.44 146.203 282.914 146.654 282.239C147.104 281.565 147.345 280.772 147.344 279.961V267.051L147.744 266.421H148.024L147.884 266.201L161.084 245.361C161.222 245.547 161.401 245.7 161.608 245.805C161.814 245.911 162.042 245.968 162.274 245.971C162.357 245.98 162.441 245.98 162.524 245.971C162.719 245.938 162.905 245.867 163.072 245.762C163.239 245.658 163.384 245.521 163.498 245.361C163.612 245.2 163.694 245.018 163.738 244.826C163.782 244.634 163.787 244.435 163.754 244.241L162.474 236.761Z" fill="url(#paint6_linear_1757_17037)"/>
<path d="M197.225 250.05C197.292 250.391 197.475 250.698 197.743 250.919C198.011 251.139 198.347 251.26 198.695 251.26H198.985L206.515 249.78C206.729 249.739 206.932 249.652 207.108 249.524C207.285 249.396 207.431 249.231 207.537 249.04C207.643 248.849 207.706 248.638 207.721 248.42C207.736 248.202 207.703 247.984 207.625 247.78L204.805 240.16C204.739 239.975 204.637 239.804 204.506 239.657C204.374 239.51 204.214 239.391 204.037 239.306C203.859 239.221 203.666 239.172 203.469 239.162C203.272 239.151 203.075 239.18 202.89 239.245C202.704 239.311 202.533 239.413 202.386 239.544C202.24 239.676 202.12 239.836 202.035 240.013C201.95 240.191 201.901 240.384 201.891 240.581C201.88 240.778 201.909 240.975 201.975 241.16C200.478 240.122 198.855 239.278 197.145 238.65C194.659 237.793 192.044 237.37 189.415 237.4C186.316 237.383 183.249 238.02 180.415 239.27C177.681 240.495 175.204 242.225 173.115 244.37C171.011 246.532 169.35 249.083 168.225 251.88C165.885 257.732 165.885 264.259 168.225 270.11C169.375 272.903 171.041 275.454 173.135 277.63C175.213 279.794 177.697 281.527 180.445 282.73C183.283 283.965 186.349 284.592 189.445 284.57C192.038 284.579 194.617 284.195 197.095 283.43C198.65 282.939 200.131 282.236 201.495 281.34C201.573 281.636 201.74 281.901 201.974 282.098C202.208 282.295 202.497 282.416 202.802 282.443C203.107 282.47 203.413 282.403 203.678 282.251C203.943 282.098 204.155 281.868 204.285 281.59L207.595 274.67C207.689 274.474 207.74 274.26 207.743 274.042C207.746 273.825 207.702 273.609 207.613 273.41C207.525 273.211 207.394 273.034 207.23 272.891C207.067 272.748 206.873 272.642 206.665 272.58L198.865 270.3C198.675 270.245 198.477 270.228 198.282 270.249C198.086 270.271 197.896 270.33 197.723 270.425C197.374 270.616 197.116 270.938 197.005 271.32C196.893 271.702 196.938 272.113 197.129 272.462C197.321 272.81 197.643 273.069 198.025 273.18L198.655 273.36C197.35 274.361 195.904 275.163 194.365 275.74C192.787 276.307 191.121 276.591 189.445 276.58C187.475 276.595 185.525 276.189 183.725 275.39C181.943 274.585 180.334 273.444 178.985 272.03C177.603 270.58 176.504 268.884 175.745 267.03C174.959 265.1 174.562 263.034 174.575 260.95C174.564 258.893 174.962 256.853 175.745 254.95C176.504 253.097 177.603 251.401 178.985 249.95C180.339 248.53 181.951 247.38 183.735 246.56C185.527 245.744 187.475 245.327 189.445 245.34C191.173 245.305 192.894 245.566 194.535 246.11C195.913 246.623 197.192 247.371 198.315 248.32C197.949 248.42 197.634 248.652 197.432 248.973C197.23 249.293 197.156 249.678 197.225 250.05Z" fill="url(#paint7_linear_1757_17037)"/>
<path d="M245.244 273.631C245.109 273.482 244.945 273.362 244.762 273.278C244.58 273.194 244.382 273.148 244.181 273.142C243.98 273.135 243.78 273.17 243.593 273.243C243.405 273.315 243.234 273.425 243.09 273.565C242.946 273.705 242.831 273.873 242.753 274.058C242.675 274.244 242.635 274.443 242.636 274.644C242.636 274.845 242.677 275.044 242.756 275.229C242.835 275.414 242.95 275.581 243.094 275.721L243.394 276.041H224.744V242.051C224.748 241.238 224.509 240.443 224.058 239.767C223.608 239.091 222.966 238.564 222.215 238.254C221.464 237.944 220.638 237.865 219.842 238.026C219.045 238.188 218.315 238.583 217.744 239.161C217.36 239.537 217.056 239.987 216.85 240.483C216.644 240.98 216.54 241.513 216.544 242.051V279.941C216.536 280.49 216.64 281.036 216.852 281.544C217.064 282.051 217.378 282.51 217.774 282.891C218.541 283.638 219.573 284.052 220.644 284.041H243.114C242.917 284.331 242.829 284.683 242.866 285.032C242.902 285.382 243.061 285.707 243.314 285.951C243.604 286.224 243.989 286.371 244.387 286.36C244.784 286.348 245.161 286.18 245.434 285.891L250.194 280.831C250.463 280.553 250.613 280.182 250.613 279.796C250.613 279.409 250.463 279.038 250.194 278.761L245.244 273.631Z" fill="url(#paint8_linear_1757_17037)"/>
<defs>
<linearGradient id="paint0_linear_1757_17037" x1="169.415" y1="61.7905" x2="280.415" y2="58.9805" gradientUnits="userSpaceOnUse">
<stop offset="0.28" stop-color="#4FADE1"/>
<stop offset="0.31" stop-color="#4DA7DD"/>
<stop offset="0.44" stop-color="#4692CE"/>
<stop offset="0.58" stop-color="#4283C4"/>
<stop offset="0.75" stop-color="#3F7ABE"/>
<stop offset="1" stop-color="#3E77BC"/>
</linearGradient>
<linearGradient id="paint1_linear_1757_17037" x1="148.195" y1="62.3305" x2="292.025" y2="58.6905" gradientUnits="userSpaceOnUse">
<stop offset="0.39" stop-color="#4FADE1"/>
<stop offset="0.43" stop-color="#4BA1D9"/>
<stop offset="0.52" stop-color="#458ECC"/>
<stop offset="0.62" stop-color="#4181C3"/>
<stop offset="0.75" stop-color="#3F79BE"/>
<stop offset="1" stop-color="#3E77BC"/>
</linearGradient>
<linearGradient id="paint2_linear_1757_17037" x1="71.0044" y1="42.3505" x2="150.854" y2="42.3505" gradientUnits="userSpaceOnUse">
<stop stop-color="#3E77BC"/>
<stop offset="0.32" stop-color="#3F7ABE"/>
<stop offset="0.57" stop-color="#4283C5"/>
<stop offset="0.78" stop-color="#4794D0"/>
<stop offset="0.98" stop-color="#4EAADF"/>
<stop offset="1" stop-color="#4FADE1"/>
</linearGradient>
<linearGradient id="paint3_linear_1757_17037" x1="70.0044" y1="42.3505" x2="151.854" y2="42.3505" gradientUnits="userSpaceOnUse">
<stop stop-color="#3E77BC"/>
<stop offset="0.32" stop-color="#3F7ABE"/>
<stop offset="0.57" stop-color="#4283C5"/>
<stop offset="0.78" stop-color="#4794D0"/>
<stop offset="0.98" stop-color="#4EAADF"/>
<stop offset="1" stop-color="#4FADE1"/>
</linearGradient>
<linearGradient id="paint4_linear_1757_17037" x1="74.0445" y1="258.441" x2="118.414" y2="258.441" gradientUnits="userSpaceOnUse">
<stop stop-color="#4FADE1"/>
<stop offset="1" stop-color="#3E77BC"/>
</linearGradient>
<linearGradient id="paint5_linear_1757_17037" x1="253.595" y1="260.98" x2="287.075" y2="260.98" gradientUnits="userSpaceOnUse">
<stop stop-color="#4FADE1"/>
<stop offset="1" stop-color="#3E77BC"/>
</linearGradient>
<linearGradient id="paint6_linear_1757_17037" x1="124.064" y1="259.771" x2="163.784" y2="259.771" gradientUnits="userSpaceOnUse">
<stop stop-color="#4FADE1"/>
<stop offset="1" stop-color="#3E77BC"/>
</linearGradient>
<linearGradient id="paint7_linear_1757_17037" x1="166.455" y1="260.98" x2="207.725" y2="260.98" gradientUnits="userSpaceOnUse">
<stop stop-color="#4FADE1"/>
<stop offset="1" stop-color="#3E77BC"/>
</linearGradient>
<linearGradient id="paint8_linear_1757_17037" x1="216.564" y1="262.141" x2="250.624" y2="262.141" gradientUnits="userSpaceOnUse">
<stop stop-color="#4FADE1"/>
<stop offset="1" stop-color="#3E77BC"/>
</linearGradient>
</defs>
</svg>
