<svg width="80" height="80" viewBox="0 0 80 80" fill="none" xmlns="http://www.w3.org/2000/svg">
<path d="M0 51.3856H80V79.0548H0V51.3856Z" fill="url(#paint0_linear_2478_12601)"/>
<path d="M0 0H80V57.3147H0V0Z" fill="url(#paint1_linear_2478_12601)"/>
<g clip-path="url(#clip0_2478_12601)">
<path d="M52.9757 48.9115C53.0247 48.7595 53.1187 48.6255 53.246 48.5263C53.3732 48.4271 53.5279 48.3673 53.6904 48.3544C53.8845 48.348 54.0764 48.3988 54.2413 48.5003C54.2926 48.528 54.3384 48.5644 54.3767 48.6078L54.3928 48.6278C54.4083 48.6564 54.3078 48.7102 54.2274 48.7693C54.1819 48.796 54.146 48.836 54.1248 48.8837C54.1247 48.89 54.123 48.8961 54.1199 48.9016C54.0411 49.1394 53.5915 49.1218 53.4247 49.2681C53.3946 49.2935 53.3744 49.3283 53.3676 49.3666L53.3564 49.4475C52.637 53.9221 54.6499 58.7654 55.1151 59.7485C55.1549 59.8711 55.2203 59.9843 55.3071 60.081C55.3939 60.1777 55.5003 60.2558 55.6194 60.3103C55.7688 60.3678 55.9267 60.4007 56.0868 60.4078L56.1168 60.4158C56.1877 60.4191 56.2555 60.4457 56.3093 60.4912C56.3503 60.5196 56.3837 60.5572 56.4066 60.6009C56.4551 60.6691 56.4865 60.7475 56.4984 60.8297C56.5171 60.9195 56.5016 61.0128 56.4548 61.0918C56.4079 61.1709 56.3331 61.2303 56.2443 61.2588C56.0107 61.335 55.6732 61.3855 55.473 61.266C54.4296 60.6402 54.0012 58.9537 53.6156 57.9077C53.5373 57.7017 53.4661 57.4958 53.3962 57.2851C51.967 52.9879 52.7351 49.6868 52.9757 48.9115Z" fill="url(#paint2_linear_2478_12601)"/>
<path d="M54.2292 48.7697C53.1269 52.8878 55.7644 59.2283 56.3114 60.497C56.1303 60.6238 55.5155 60.5222 55.1331 59.9927C54.5053 59.1274 52.7388 54.3057 53.2985 49.6944C53.3785 49.0354 53.6437 48.7843 54.0876 48.7637C54.1349 48.763 54.1821 48.765 54.2292 48.7697Z" fill="#3D3D3D"/>
<path d="M55.4885 48.4511C54.3883 52.5679 56.9851 58.9293 57.5334 60.2001C57.3506 60.3265 56.7363 60.2232 56.3538 59.6937C55.7261 58.8284 53.8543 53.945 54.5188 49.397C54.5364 48.7634 54.8661 48.4857 55.3163 48.4686C55.3607 48.4662 55.4443 48.4462 55.4885 48.4511Z" fill="#3D3D3D"/>
<path d="M56.8545 48.1749C56.8827 48.2225 56.6147 48.3333 56.5935 48.4378C56.5289 48.7423 55.8822 48.6725 55.8441 48.9386C55.1906 53.4533 57.338 58.3025 57.8259 59.2811C57.8682 59.4031 57.9362 59.5152 58.0254 59.6101C58.1146 59.7051 58.2231 59.7808 58.3437 59.8325C58.504 59.8907 58.6733 59.9207 58.8439 59.9212C59.2246 59.9294 59.4408 60.6036 58.9923 60.7663C58.7591 60.8479 58.4181 60.9044 58.222 60.7895C57.1645 60.1827 56.6914 58.5158 56.2852 57.4801C56.2026 57.2834 56.1285 57.0681 56.054 56.8613C54.5276 52.5926 55.2235 49.2741 55.4463 48.4854C55.4926 48.3327 55.584 48.197 55.709 48.0952C55.8339 47.9934 55.987 47.93 56.149 47.9129C56.2784 47.9068 56.4079 47.9269 56.5293 47.972C56.6507 48.0171 56.7614 48.0861 56.8545 48.1749Z" fill="url(#paint3_linear_2478_12601)"/>
<path d="M56.6984 48.3083C55.6901 52.4495 58.4682 58.7398 59.0453 59.9903C58.8653 60.1261 58.2504 60.0315 57.8565 59.5112C57.2097 58.6565 55.3387 53.8771 55.7889 49.2543C55.8082 48.6062 56.1149 48.3356 56.5661 48.3082C56.6101 48.306 56.6543 48.306 56.6984 48.3083Z" fill="#3D3D3D"/>
<path d="M58.0758 47.9198C58.1057 47.9679 57.839 48.0808 57.824 48.1887C57.7631 48.4924 57.1176 48.4316 57.0829 48.6916C56.4863 53.2145 58.6956 58.0328 59.1928 59.0104C59.2374 59.1315 59.307 59.2424 59.3974 59.3361C59.4878 59.4298 59.5969 59.5043 59.7179 59.555C59.8794 59.6117 60.0497 59.6402 60.221 59.6393C60.6014 59.6421 60.8229 60.323 60.3791 60.4816C60.1471 60.5653 59.8148 60.6294 59.6099 60.5139C58.5456 59.9192 58.0544 58.2598 57.6394 57.2235C57.5534 57.026 57.4764 56.8151 57.3997 56.6095C55.8207 52.3566 56.4757 49.0238 56.6862 48.2475C56.7305 48.0945 56.82 47.9579 56.9434 47.8547C57.0668 47.7516 57.2188 47.6864 57.3803 47.6674C57.5074 47.6612 57.6346 47.6804 57.7542 47.7238C57.8738 47.7671 57.9832 47.8338 58.0758 47.9198Z" fill="url(#paint4_linear_2478_12601)"/>
<path d="M58.0671 48.005C57.1193 52.1605 59.8186 58.47 60.4115 59.7212C60.2327 59.8592 59.6156 59.7727 59.2154 59.2559C58.551 58.4071 56.5866 53.6868 56.9861 49.0594C57.0251 48.6187 57.334 48.101 57.7848 48.0683C57.829 48.0655 58.0228 48.0032 58.0671 48.005Z" fill="#3D3D3D"/>
<path d="M59.4063 47.6447C59.4345 47.6923 59.1661 47.8048 59.1432 47.9089C59.0786 48.2133 58.4336 48.1439 58.3954 48.41C57.742 52.9248 59.8935 57.7715 60.3793 58.7514C60.4227 58.8731 60.4912 58.985 60.5806 59.0799C60.67 59.1749 60.7784 59.2509 60.8989 59.3032C61.0593 59.3606 61.2285 59.3906 61.3991 59.3919C61.7797 59.4001 61.9959 60.0743 61.5479 60.2354C61.3163 60.3174 60.9732 60.3751 60.7788 60.2607C59.7196 59.6534 59.2483 57.9869 58.8387 56.9504C58.756 56.7537 58.6816 56.54 58.607 56.3332C57.0811 52.0629 57.7748 48.7456 57.9954 47.965C58.0414 47.8121 58.1326 47.6761 58.2577 47.5742C58.3827 47.4724 58.536 47.4091 58.6982 47.3925C58.8273 47.3852 58.9567 47.4039 59.0784 47.4472C59.2002 47.4906 59.3118 47.5578 59.4063 47.6447Z" fill="url(#paint5_linear_2478_12601)"/>
<path d="M59.204 47.812C58.2049 51.934 60.964 58.1817 61.5459 59.435C61.3651 59.5715 60.7478 59.4759 60.3517 58.9553C59.6985 58.1041 57.8093 53.3425 58.2492 48.7384C58.2906 48.3007 58.5721 47.8256 59.0249 47.7994C59.0691 47.7966 59.1598 47.809 59.204 47.812Z" fill="#3D3D3D"/>
<path d="M60.6197 47.3209C60.648 47.3686 60.38 47.4794 60.3588 47.5839C60.2941 47.8884 59.6474 47.8186 59.6093 48.0846C58.9575 52.5999 61.107 57.4478 61.5949 58.4265C61.6373 58.5484 61.7052 58.6605 61.7944 58.7555C61.8836 58.8504 61.9921 58.9262 62.1127 58.9778C62.273 59.0361 62.4423 59.0661 62.6129 59.0666C63.1079 59.0057 63.2115 59.7494 62.7613 59.9116C62.5302 59.992 62.1871 60.0497 61.9927 59.9353C60.9352 59.3285 60.4621 57.6616 60.0526 56.625C59.9723 56.4196 59.8956 56.2141 59.8226 56.0083C58.2962 51.7396 58.9887 48.4202 59.2115 47.6315C59.2577 47.4787 59.349 47.3428 59.474 47.241C59.599 47.1392 59.7521 47.0758 59.9142 47.059C60.0437 47.0529 60.1731 47.073 60.2945 47.1181C60.4159 47.1631 60.5266 47.2322 60.6197 47.3209Z" fill="url(#paint6_linear_2478_12601)"/>
<path d="M60.4604 47.4658C59.4537 51.6074 62.2766 57.8926 62.8518 59.1496C62.6735 59.2859 62.0161 59.1882 61.6222 58.6679C60.9755 57.8133 59.1024 53.035 59.5508 48.4118C59.5588 47.8355 59.8769 47.4931 60.3263 47.4653C60.3699 47.4628 60.4193 47.4654 60.4604 47.4658Z" fill="#3D3D3D"/>
<path d="M61.8587 47.1333C61.889 47.1798 61.623 47.2964 61.6069 47.4022C61.5489 47.7085 60.9016 47.6542 60.8705 47.9204C60.3208 52.4487 62.5744 57.249 63.0855 58.2146C63.1307 58.3367 63.2017 58.4482 63.2937 58.5418C63.3858 58.6355 63.4969 58.7092 63.6199 58.7581C63.7818 58.8123 63.9519 58.839 64.1227 58.8371C64.5022 58.8362 64.7343 59.5111 64.29 59.6784C64.0592 59.7641 63.7265 59.8298 63.5207 59.7176C62.4495 59.1351 61.9415 57.4782 61.5092 56.4461C61.4232 56.2486 61.3424 56.0384 61.2637 55.834C59.6409 51.5975 60.2586 48.2635 60.4621 47.4802C60.5054 47.3257 60.5946 47.1875 60.7185 47.0831C60.8423 46.9787 60.9953 46.9127 61.1579 46.8936C61.2849 46.8854 61.4125 46.9024 61.5329 46.9436C61.6534 46.9848 61.7642 47.0493 61.8587 47.1333Z" fill="url(#paint7_linear_2478_12601)"/>
<path d="M61.7021 47.2823C60.7897 51.4454 63.7172 57.6669 64.3178 58.9096C64.1415 59.0517 63.5231 58.9701 63.1165 58.457C62.4498 57.6162 60.4706 52.8798 60.8144 48.2463C60.8612 47.6159 61.1188 47.3219 61.5688 47.2855C61.6131 47.2815 61.6576 47.2805 61.7021 47.2823Z" fill="#3D3D3D"/>
<path d="M63.0731 46.8502C63.1051 46.8971 62.8399 47.0174 62.8204 47.1224C62.7662 47.4279 62.1188 47.3806 62.0894 47.6472C61.5966 52.1835 63.9151 56.9556 64.4359 57.9185C64.4828 58.0389 64.5548 58.1485 64.6472 58.2404C64.7397 58.3323 64.8506 58.4044 64.9728 58.4522C65.1356 58.5052 65.3064 58.5297 65.4774 58.5247C65.8579 58.5205 66.0963 59.1919 65.6544 59.3633C65.4261 59.4532 65.0937 59.5242 64.8875 59.4137C63.8077 58.8429 63.2799 57.193 62.8342 56.1643C62.7466 55.9663 62.6628 55.7606 62.5807 55.5553C60.9043 51.3448 61.4832 48.0023 61.6758 47.2196C61.7159 47.0648 61.8023 46.9254 61.9238 46.8191C62.0453 46.7128 62.1965 46.6444 62.3583 46.6225C62.4868 46.6103 62.6166 46.6243 62.7396 46.6635C62.8626 46.7027 62.9761 46.7662 63.0731 46.8502Z" fill="url(#paint8_linear_2478_12601)"/>
<path d="M62.9178 47.0082C62.956 51.1171 65.059 57.3633 65.6781 58.6039C65.503 58.748 64.8845 58.6734 64.4728 58.1659C63.7857 57.3215 61.6965 52.4825 62.0572 47.7801C62.0684 47.5896 62.1465 47.4091 62.2783 47.2691C62.4102 47.1292 62.5877 47.0384 62.7808 47.0121C62.8263 47.0076 62.8721 47.0063 62.9178 47.0082Z" fill="#3D3D3D"/>
<path d="M54.1157 48.904L54.1529 48.7671C54.1692 48.7067 54.1829 48.6562 54.1971 48.604C54.1998 48.5907 54.2033 48.5776 54.2077 48.5648C54.2148 48.539 54.2251 48.5141 54.2385 48.4908C54.2551 48.4569 54.2737 48.4239 54.294 48.3919C54.3663 48.2956 54.4582 48.215 54.564 48.1552C54.6698 48.0954 54.7872 48.0577 54.9089 48.0444C55.1379 48.0411 55.3617 48.1145 55.5431 48.2525C55.5692 48.2709 55.5914 48.294 55.6087 48.3206C55.6242 48.3491 55.5313 48.4014 55.445 48.4625C55.4001 48.4908 55.3643 48.531 55.342 48.5785C55.283 48.8356 54.8078 48.8129 54.6398 48.9641C54.6089 48.9889 54.5886 49.024 54.5827 49.0626C54.576 49.0871 54.5681 49.1165 54.5614 49.1409C53.8436 53.6159 55.8566 58.4592 56.3222 59.4407C56.3615 59.5633 56.4265 59.6767 56.513 59.7736C56.5994 59.8706 56.7055 59.9489 56.8244 60.0036C56.9839 60.0644 57.1528 60.0979 57.3236 60.1026C57.3945 60.1051 57.6227 60.0624 57.6767 60.1076C57.9171 60.2901 57.8201 60.8318 57.4543 60.9535C57.3055 61.0021 57.1499 61.0287 56.9928 61.0323C56.8851 61.0315 56.7793 61.0035 56.6857 60.951C56.6172 60.9093 56.5513 60.8638 56.4882 60.8148C56.4294 60.7677 56.371 60.7191 56.3127 60.6634C56.2545 60.6078 56.2277 60.5745 56.1852 60.5266C56.1452 60.4848 56.1076 60.441 56.0723 60.3953C55.4514 59.6104 55.1257 58.416 54.8249 57.5987C54.7466 57.3927 54.6758 57.1852 54.6055 56.9761C53.3257 53.0978 53.8307 50.0276 54.1157 48.904Z" fill="url(#paint9_linear_2478_12601)"/>
<g filter="url(#filter0_d_2478_12601)">
<path d="M51.0583 47.729L51.1817 47.7617C51.1817 47.7617 51.2238 47.7187 51.2958 47.6574C51.4349 47.5314 51.5929 47.427 51.7644 47.348C51.895 47.2878 52.9913 46.7314 54.296 48.4045C54.2757 48.4365 54.2572 48.4695 54.2405 48.5035C54.0757 48.402 53.8837 48.3512 53.6896 48.3576C53.5271 48.3705 53.3724 48.4303 53.2452 48.5295C53.1179 48.6287 53.0239 48.7627 52.975 48.9147C52.7343 49.69 51.9662 52.9911 53.3879 57.2898C53.4578 57.5005 53.529 57.7064 53.6073 57.9124C54.0009 58.9552 54.4292 60.6418 55.4726 61.2676C55.6745 61.3875 56.0104 61.3366 56.244 61.2604C56.3328 61.2318 56.4076 61.1724 56.4544 61.0934C56.5012 61.0143 56.5168 60.9211 56.4981 60.8312C56.5612 60.8803 56.6271 60.9258 56.6956 60.9674C56.7892 61.02 56.895 61.048 57.0027 61.0488C56.9388 61.3639 56.5791 62.9938 55.6553 63.2928C55.3979 63.3753 55.1249 63.4019 54.8553 63.371C54.5857 63.34 54.3258 63.2522 54.0936 63.1135C54.0131 63.0699 53.9371 63.0187 53.8666 62.9608L53.8574 62.995C52.6285 61.5224 48.957 55.9732 51.0583 47.729Z" fill="url(#paint10_linear_2478_12601)"/>
<path d="M39.9395 51.0703L40.3016 49.7346L42.1134 49.302L42.9666 50.0418C41.6317 55.9282 45.543 63.1339 45.6702 63.3511L45.4271 63.9177L43.7747 64.1916L42.7936 63.8968L42.65 63.8588L42.5365 63.8287L42.3546 63.7806L41.3339 61.7048L39.8036 56.1905L39.9395 51.0703Z" fill="url(#paint11_linear_2478_12601)"/>
<path d="M37.9918 52.8409C37.9918 52.8409 38.464 52.057 38.827 51.5181C39.5024 51.1848 39.9358 51.0694 39.9358 51.0694L39.7999 56.1896L41.3312 61.6937L42.2291 63.496L42.0488 63.4483L40.473 63.3017L39.538 62.0054C39.538 62.0054 38.2854 59.01 37.9196 57.4624C37.5787 55.9878 37.9918 52.8409 37.9918 52.8409Z" fill="url(#paint12_linear_2478_12601)"/>
<path d="M23.0084 55.8982L23.0601 55.9119C23.0601 55.9119 23.5724 55.5336 25.0153 55.1746C26.4582 54.8155 37.9932 52.8429 37.9932 52.8429C37.9932 52.8429 37.5801 55.9898 37.93 57.4511C38.2958 58.9987 39.5484 61.9941 39.5484 61.9941L26.6545 63.5999C26.6545 63.5999 25.1039 63.7032 24.3702 63.3936C24.3489 63.4217 24.3256 63.4482 24.3003 63.473C23.6234 62.1563 23.1541 60.7478 22.9084 59.2958C22.7256 58.1658 22.7595 57.0136 23.0084 55.8982Z" fill="url(#paint13_linear_2478_12601)"/>
<path d="M16.713 57.9542C16.8519 57.7323 17.1571 57.3324 17.5408 57.3099C17.5408 57.3099 17.5775 57.2865 17.6381 57.2413C17.4998 58.0944 17.3348 59.3231 17.3601 60.1933C17.3845 61.1523 17.9839 62.6307 18.3987 63.5358C18.2949 63.5652 18.186 63.5741 18.0784 63.5621C17.9708 63.5501 17.8666 63.5174 17.7717 63.4659C17.1992 62.6606 16.3776 61.3489 16.415 60.4587C16.4677 59.6189 16.5672 58.7828 16.713 57.9542Z" fill="#BABABA"/>
<path d="M17.6386 57.2382C18.0125 56.9876 19.2681 56.1578 19.6519 56.2139C19.709 56.2221 19.7657 56.2336 19.8215 56.2483C19.6212 56.8945 19.4071 57.9879 19.4419 59.6279C19.5006 61.1984 19.9774 62.729 20.825 64.0684C20.4895 64.1682 20.1344 64.1902 19.7877 64.1328C19.3289 63.9841 18.8934 63.7729 18.4942 63.5054C18.4942 63.5054 18.4584 63.5187 18.4004 63.5348C17.9865 62.6264 17.3863 61.1513 17.3618 60.1922C17.3353 59.32 17.5003 58.0913 17.6386 57.2382Z" fill="url(#paint14_linear_2478_12601)"/>
<path d="M19.8154 56.2448C19.9956 56.2873 20.1546 56.3914 20.2637 56.5383C20.3027 56.472 20.3473 56.4089 20.397 56.3499C20.0882 57.5983 20.0265 58.8942 20.2152 60.1681C20.4595 62.0121 21.0644 63.2455 21.5235 63.9543C21.4892 63.9323 21.4585 63.9053 21.4325 63.8743C21.2341 63.9491 21.0312 64.0121 20.8249 64.063C19.9772 62.7236 19.5005 61.1929 19.4417 59.6224C19.401 57.9844 19.6147 56.8926 19.8154 56.2448Z" fill="#BABABA"/>
<path d="M20.397 56.3499C20.6563 56.048 21.0131 55.8418 21.4091 55.7649C21.7162 55.7197 22.0287 55.7189 22.3366 55.7623C21.8973 57.0732 21.7286 58.458 21.8403 59.8362C22.0084 61.3158 22.5354 62.7365 23.3772 63.9802C22.7964 64.1427 22.0216 64.3606 21.5312 63.972C21.0721 63.2632 20.4672 62.0298 20.2229 60.1858C20.0293 58.9066 20.0884 57.6044 20.397 56.3499Z" fill="url(#paint15_linear_2478_12601)"/>
<path d="M22.3379 55.7574C22.5675 55.7845 22.7941 55.8322 23.015 55.8999C22.7646 57.0173 22.7301 58.1718 22.9132 59.304C23.1589 60.7561 23.6282 62.1646 24.3051 63.4812C24.0726 63.711 23.7809 63.8753 23.4605 63.9567L23.381 63.9794C22.5382 62.7342 22.0111 61.3115 21.8437 59.8301C21.7315 58.4524 21.8995 57.0681 22.3379 55.7574Z" fill="#BABABA"/>
<path d="M9.09513 59.9836L10.9066 58.7731C10.6322 60.638 11.0338 62.5418 12.0418 64.1547L11.9941 64.1788L9.54932 63.7063C9.19213 63.1577 8.96576 62.5379 8.88711 61.8933C8.80846 61.2487 8.87957 60.5959 9.09513 59.9836Z" fill="url(#paint16_linear_2478_12601)"/>
<path d="M10.9064 58.7731L11.1707 58.5966L11.2384 58.5516L12.4633 58.9896L13.8262 58.952L14.3004 58.2787L16.6309 58.097C16.6569 58.0483 16.6859 58.0011 16.7176 57.9557C16.5704 58.7815 16.4693 59.6148 16.4147 60.4518C16.3765 61.3384 17.1989 62.6538 17.7714 63.4591C17.6925 63.4054 17.6247 63.3376 17.5715 63.2594L15.4806 63.6129L14.3107 63.1895L13.4967 63.3742L12.3177 64.0006L12.0428 64.1499C11.0355 62.5385 10.6335 60.6366 10.9064 58.7731Z" fill="url(#paint17_linear_2478_12601)"/>
<path d="M66.6136 57.1649C66.6136 57.1649 67.0928 58.4856 67.5583 58.7487C67.5991 58.7762 67.6473 58.7911 67.6967 58.7914C67.7461 58.7917 67.7944 58.7774 67.8352 58.7503C67.9485 58.6755 68.0483 58.4922 68.1323 58.1561L72.8062 57.3958C72.8062 57.3958 74.7746 56.9924 74.5631 54.4929C74.3516 51.9933 74.2638 52.3302 74.2638 52.3302L74.4908 51.5391L73.8752 49.5932L73.0106 49.0269C72.8588 48.8256 72.6649 48.6582 72.4419 48.5358C72.219 48.4135 71.9721 48.3391 71.7179 48.3176C70.8902 48.282 66.7951 48.762 66.7951 48.762L66.2388 47.1185C66.118 46.967 65.9718 46.8367 65.8065 46.7331C65.734 46.6763 65.6424 46.6481 65.55 46.654C65.4576 46.66 65.3711 46.6997 65.3075 46.7653C65.2127 46.8854 65.1483 47.0258 65.1194 47.1752C64.8414 48.3129 66.6136 57.1649 66.6136 57.1649ZM70.4699 51.0529C71.5866 50.999 72.2133 51.9673 72.2133 51.9673C72.2133 51.9673 72.5802 53.5903 72.8674 54.8339C73.1547 56.0776 72.0194 56.2262 72.0194 56.2262L67.8636 56.8177C67.4799 57.0185 67.2508 56.603 67.2508 56.603C66.3959 55.7439 66.0742 51.5198 66.0742 51.5198C66.0742 51.5198 69.3531 51.1068 70.4699 51.0529Z" fill="url(#paint18_linear_2478_12601)"/>
<path d="M65.3075 46.7653C65.2127 46.8854 65.1483 47.0258 65.1194 47.1752C64.838 48.312 66.6136 57.1649 66.6136 57.1649C66.6136 57.1649 67.0928 58.4856 67.5583 58.7487L65.6618 58.7219C65.2276 58.2899 64.8993 57.7672 64.702 57.1936C64.4244 56.3039 63.0156 50.4006 62.8751 49.3548C62.7346 48.3091 62.6684 47.755 62.8045 46.9363L65.3075 46.7653Z" fill="url(#paint19_linear_2478_12601)"/>
<path d="M42.9626 50.0424L43.1793 49.2434L44.9072 48.9021C44.9072 48.9021 45.766 49.3707 46.0031 49.6048L45.8263 53.7144L47.4193 61.4196L48.3748 63.3331L48.2468 63.5544L46.806 63.8004C46.806 63.8004 46.0323 63.7371 45.6737 63.3572C45.5412 63.1264 41.6277 55.9289 42.9626 50.0424Z" fill="url(#paint20_linear_2478_12601)"/>
<path d="M46.0246 49.4729C46.0246 49.4729 46.4258 48.046 47.4678 47.8656C48.5097 47.6853 50.2615 47.4605 50.2615 47.4605L51.1634 47.757C49.0621 56.0012 52.7794 61.5929 53.8571 62.9898C53.7716 63.286 53.6087 63.5549 53.3843 63.7701C52.9888 64.153 49.9534 64.2354 49.9534 64.2354C49.9534 64.2354 48.8682 64.3368 48.4397 63.5178L48.3614 63.3298L47.4059 61.4163L45.813 53.7111L45.9897 49.6014C46.0115 49.6184 46.0083 49.4508 46.0246 49.4729Z" fill="url(#paint21_linear_2478_12601)"/>
</g>
</g>
<defs>
<filter id="filter0_d_2478_12601" x="4.85596" y="46.6532" width="73.7231" height="25.5863" filterUnits="userSpaceOnUse" color-interpolation-filters="sRGB">
<feFlood flood-opacity="0" result="BackgroundImageFix"/>
<feColorMatrix in="SourceAlpha" type="matrix" values="0 0 0 0 0 0 0 0 0 0 0 0 0 0 0 0 0 0 127 0" result="hardAlpha"/>
<feOffset dy="4"/>
<feGaussianBlur stdDeviation="2"/>
<feComposite in2="hardAlpha" operator="out"/>
<feColorMatrix type="matrix" values="0 0 0 0 0 0 0 0 0 0 0 0 0 0 0 0 0 0 0.04 0"/>
<feBlend mode="normal" in2="BackgroundImageFix" result="effect1_dropShadow_2478_12601"/>
<feBlend mode="normal" in="SourceGraphic" in2="effect1_dropShadow_2478_12601" result="shape"/>
</filter>
<linearGradient id="paint0_linear_2478_12601" x1="47.1795" y1="71.6434" x2="40.5006" y2="32.0316" gradientUnits="userSpaceOnUse">
<stop stop-color="#C5C5C5"/>
<stop offset="1" stop-color="#5F5F5F"/>
</linearGradient>
<linearGradient id="paint1_linear_2478_12601" x1="26" y1="34.0924" x2="-12.2901" y2="-36.9455" gradientUnits="userSpaceOnUse">
<stop stop-color="#D9D9D9"/>
<stop offset="1" stop-color="#737373"/>
</linearGradient>
<linearGradient id="paint2_linear_2478_12601" x1="53.1818" y1="60.6764" x2="56.2747" y2="48.9953" gradientUnits="userSpaceOnUse">
<stop stop-color="#6F6F6F"/>
<stop offset="0.47" stop-color="#919191"/>
<stop offset="1" stop-color="#4C4C4C"/>
</linearGradient>
<linearGradient id="paint3_linear_2478_12601" x1="55.8021" y1="60.1638" x2="58.8676" y2="48.5865" gradientUnits="userSpaceOnUse">
<stop stop-color="#6F6F6F"/>
<stop offset="0.47" stop-color="#919191"/>
<stop offset="1" stop-color="#4C4C4C"/>
</linearGradient>
<linearGradient id="paint4_linear_2478_12601" x1="57.1227" y1="59.8693" x2="60.1703" y2="48.3596" gradientUnits="userSpaceOnUse">
<stop stop-color="#6F6F6F"/>
<stop offset="0.47" stop-color="#919191"/>
<stop offset="1" stop-color="#4C4C4C"/>
</linearGradient>
<linearGradient id="paint5_linear_2478_12601" x1="58.3556" y1="59.6339" x2="61.4193" y2="48.0636" gradientUnits="userSpaceOnUse">
<stop stop-color="#6F6F6F"/>
<stop offset="0.47" stop-color="#919191"/>
<stop offset="1" stop-color="#4C4C4C"/>
</linearGradient>
<linearGradient id="paint6_linear_2478_12601" x1="59.5698" y1="59.3087" x2="62.6349" y2="47.7331" gradientUnits="userSpaceOnUse">
<stop stop-color="#6F6F6F"/>
<stop offset="0.47" stop-color="#919191"/>
<stop offset="1" stop-color="#4C4C4C"/>
</linearGradient>
<linearGradient id="paint7_linear_2478_12601" x1="60.9724" y1="59.0553" x2="64.0066" y2="47.5961" gradientUnits="userSpaceOnUse">
<stop stop-color="#6F6F6F"/>
<stop offset="0.47" stop-color="#919191"/>
<stop offset="1" stop-color="#4C4C4C"/>
</linearGradient>
<linearGradient id="paint8_linear_2478_12601" x1="62.2694" y1="58.7319" x2="65.2867" y2="47.3367" gradientUnits="userSpaceOnUse">
<stop stop-color="#6F6F6F"/>
<stop offset="0.47" stop-color="#919191"/>
<stop offset="1" stop-color="#4C4C4C"/>
</linearGradient>
<linearGradient id="paint9_linear_2478_12601" x1="54.3982" y1="60.3661" x2="57.4902" y2="48.6885" gradientUnits="userSpaceOnUse">
<stop stop-color="#6F6F6F"/>
<stop offset="0.47" stop-color="#919191"/>
<stop offset="1" stop-color="#4C4C4C"/>
</linearGradient>
<linearGradient id="paint10_linear_2478_12601" x1="50.8154" y1="64.7194" x2="54.5136" y2="45.3346" gradientUnits="userSpaceOnUse">
<stop stop-color="#8A8A8A"/>
<stop offset="0.468951" stop-color="#D0D0D0"/>
<stop offset="1" stop-color="#6A6A6A"/>
</linearGradient>
<linearGradient id="paint11_linear_2478_12601" x1="40.121" y1="65.4071" x2="43.552" y2="47.7632" gradientUnits="userSpaceOnUse">
<stop stop-color="#8A8A8A"/>
<stop offset="0.468951" stop-color="#D0D0D0"/>
<stop offset="1" stop-color="#6A6A6A"/>
</linearGradient>
<linearGradient id="paint12_linear_2478_12601" x1="38.2462" y1="62.7236" x2="40.89" y2="49.7238" gradientUnits="userSpaceOnUse">
<stop stop-color="#8A8A8A"/>
<stop offset="0.468951" stop-color="#D0D0D0"/>
<stop offset="1" stop-color="#6A6A6A"/>
</linearGradient>
<linearGradient id="paint13_linear_2478_12601" x1="34.7118" y1="66.1621" x2="33.4215" y2="51.5797" gradientUnits="userSpaceOnUse">
<stop offset="0.143511" stop-color="#949494"/>
<stop offset="0.396002" stop-color="#D8D8D8"/>
<stop offset="0.95657" stop-color="#7E7E7E"/>
</linearGradient>
<linearGradient id="paint14_linear_2478_12601" x1="16.1068" y1="62.8989" x2="21.9965" y2="61.4754" gradientUnits="userSpaceOnUse">
<stop stop-color="#919191"/>
<stop offset="0.773893" stop-color="#D0D0D0"/>
</linearGradient>
<linearGradient id="paint15_linear_2478_12601" x1="18.5979" y1="62.9962" x2="24.634" y2="61.7276" gradientUnits="userSpaceOnUse">
<stop offset="0.0570889" stop-color="#919191"/>
<stop offset="0.722675" stop-color="#D0D0D0"/>
</linearGradient>
<linearGradient id="paint16_linear_2478_12601" x1="10.0805" y1="63.8469" x2="15.7418" y2="56.5472" gradientUnits="userSpaceOnUse">
<stop stop-color="#D0D0D0"/>
<stop offset="1" stop-color="#6A6A6A"/>
</linearGradient>
<linearGradient id="paint17_linear_2478_12601" x1="14.4239" y1="64.7415" x2="13.7782" y2="54.6625" gradientUnits="userSpaceOnUse">
<stop stop-color="#9B9B9B"/>
<stop offset="0.282594" stop-color="#DCDCDC"/>
<stop offset="1" stop-color="#767676"/>
</linearGradient>
<linearGradient id="paint18_linear_2478_12601" x1="74.9986" y1="52.2059" x2="62.6256" y2="53.7933" gradientUnits="userSpaceOnUse">
<stop stop-color="#989898"/>
<stop offset="0.451159" stop-color="#A1A1A1"/>
<stop offset="0.717132" stop-color="#7B7B7B"/>
</linearGradient>
<linearGradient id="paint19_linear_2478_12601" x1="60.8382" y1="54.188" x2="69.5546" y2="50.997" gradientUnits="userSpaceOnUse">
<stop stop-color="#DFDFDF"/>
<stop offset="1" stop-color="#797979"/>
</linearGradient>
<linearGradient id="paint20_linear_2478_12601" x1="39.8557" y1="61.5212" x2="50.4684" y2="59.0574" gradientUnits="userSpaceOnUse">
<stop offset="0.0570889" stop-color="#919191"/>
<stop offset="0.484732" stop-color="#D0D0D0"/>
<stop offset="1" stop-color="#6A6A6A"/>
</linearGradient>
<linearGradient id="paint21_linear_2478_12601" x1="42.6933" y1="61.7846" x2="55.8311" y2="58.219" gradientUnits="userSpaceOnUse">
<stop offset="0.0570889" stop-color="#919191"/>
<stop offset="0.484732" stop-color="#D0D0D0"/>
<stop offset="1" stop-color="#6A6A6A"/>
</linearGradient>
<clipPath id="clip0_2478_12601">
<rect width="61.9512" height="31.6474" fill="white" transform="matrix(-0.966687 -0.255962 0.261703 -0.965148 67.8877 80)"/>
</clipPath>
</defs>
</svg>
