<svg width="25" height="24" viewBox="0 0 25 24" fill="none" xmlns="http://www.w3.org/2000/svg">
<path d="M19.7944 17.8862L6.61437 4.69621C6.22437 4.30621 5.59437 4.30621 5.20437 4.69621C4.81437 5.08621 4.81437 5.71621 5.20437 6.10621L11.0944 11.9962L6.20437 16.8862C5.81437 17.2762 5.81437 17.9062 6.20437 18.2962C6.59437 18.6862 7.22437 18.6862 7.61437 18.2962L11.5044 14.4062V20.5862C11.5044 21.4762 12.5844 21.9262 13.2144 21.2962L16.8044 17.7062L18.3944 19.2962C18.7844 19.6862 19.4144 19.6862 19.8044 19.2962C20.1844 18.9062 20.1844 18.2662 19.7944 17.8862ZM13.5044 18.1662V14.4062L15.3844 16.2862L13.5044 18.1662ZM13.5044 5.82621L15.3844 7.70621L13.9144 9.17621L15.3244 10.5862L17.5044 8.41621C17.8944 8.02621 17.8944 7.39621 17.5044 6.99621L13.2144 2.70621C12.5844 2.07621 11.5044 2.51621 11.5044 3.40621V6.76621L13.5044 8.76621V5.82621Z" fill="#CE2323"/>
</svg>
