<svg width="40" height="40" viewBox="0 0 40 40" fill="none" xmlns="http://www.w3.org/2000/svg">
<rect width="40" height="40" rx="8" fill="url(#paint0_linear_1943_13446)"/>
<path d="M18.748 9.04167C18.5281 9.07061 17.9783 9.1227 17.5326 9.15164C13.7476 9.42944 9.82367 10.8184 7.1267 12.8383C6.35697 13.417 5.02005 14.7655 4.52812 15.4658C2.95392 17.6882 2.58352 20.1884 3.47479 22.5728C4.22138 24.5695 5.9229 26.4852 8.19739 27.9089C10.3619 29.2574 13.2441 30.2876 16.1147 30.739C17.6021 30.9705 18.0824 31.0052 19.9344 30.9994C21.9137 30.9994 22.996 30.9184 24.576 30.6522C29.6053 29.813 33.8476 27.4633 35.9137 24.3785C36.7587 23.1226 37.1522 22.0577 37.3027 20.663C37.4937 18.9209 36.8918 16.8837 35.7401 15.35C34.4784 13.6717 32.7942 12.3348 30.6124 11.2699C28.6909 10.3323 26.6132 9.68409 24.4487 9.33684C24.2403 9.3079 23.9741 9.2616 23.8526 9.24424C22.6603 9.05325 19.6045 8.93171 18.748 9.04167ZM19.1242 10.8763C19.1242 10.9052 19.0142 10.9978 18.8869 11.0962C18.5802 11.3162 18.1345 11.8081 17.8567 12.219C17.2259 13.1508 16.7455 14.4703 16.4041 16.2471C16.2941 16.8259 16.1899 17.202 16.1378 17.202C16.1263 17.202 15.7211 17.121 15.235 17.0284C12.1734 16.4207 10.3619 15.3906 10.3561 14.2504C10.3561 13.8453 10.4719 13.6022 10.8596 13.226C11.9477 12.1669 14.6736 11.2699 17.8799 10.9226C18.7075 10.8358 19.1242 10.8184 19.1242 10.8763ZM22.3767 10.9226C24.7149 11.183 26.6826 11.6923 28.1816 12.4274C30.3461 13.4865 30.4792 14.7771 28.5462 15.8883C28.0659 16.1661 27.2845 16.4323 26.156 16.7043C25.5541 16.8548 24.9638 16.9937 24.8538 17.0226C24.7438 17.0516 24.5413 17.0921 24.4082 17.1152C24.1361 17.1557 24.1593 17.202 24.0146 16.4497C23.922 15.9982 23.6037 14.7018 23.4706 14.2794C23.1291 13.1508 22.3825 11.9238 21.6244 11.2351C21.4276 11.0557 21.2656 10.8937 21.2656 10.8763C21.2656 10.8184 21.5665 10.83 22.3767 10.9226ZM20.6 13.0293C21.2077 13.3071 21.7806 14.3199 22.151 15.7841C22.3883 16.7217 22.4925 17.3352 22.4173 17.3815C22.3247 17.4335 18.6554 17.4509 18.2445 17.3988L17.9551 17.3583L17.9956 16.9474C18.0882 15.9925 18.3313 15.0722 18.6843 14.372C19.321 13.0987 19.8881 12.7052 20.6 13.0293ZM7.46238 15.3037C7.52604 15.7089 7.86171 16.3397 8.18581 16.6696C8.94398 17.4393 10.5876 18.2959 12.2081 18.7589C13.0357 18.9962 14.2395 19.2508 15.3623 19.4302C15.7385 19.4881 15.9353 19.546 15.9874 19.6154C16.0279 19.6733 16.0568 19.9106 16.0568 20.2405C16.0568 22.5323 16.5835 25.1483 17.359 26.6935C17.8451 27.6658 18.5107 28.5571 18.9158 28.7712C18.9911 28.8175 19.0721 28.887 19.0895 28.9333C19.1531 29.0953 16.9307 28.8986 15.5938 28.6208C15.3565 28.5745 15.0961 28.5166 15.0151 28.505C14.5926 28.424 13.1631 27.9841 12.4743 27.7295C10.3561 26.9366 8.61409 25.837 7.36978 24.5059C6.29909 23.3541 5.72034 22.3355 5.39624 21.0218C5.34994 20.8192 5.321 20.3562 5.321 19.7196C5.32679 18.8631 5.34415 18.6721 5.46569 18.2438C5.70298 17.393 6.0155 16.7448 6.53638 16.0156C6.9415 15.4484 7.2656 15.0722 7.3582 15.0665C7.39293 15.0607 7.43923 15.1706 7.46238 15.3037ZM33.7318 16.2066C34.2874 17.0226 34.5594 17.694 34.7562 18.7299C35.1092 20.5761 34.5363 22.4166 33.0547 24.1818C31.6483 25.8601 29.1076 27.3649 26.3007 28.1867C25.5078 28.4182 24.3966 28.6671 23.6674 28.7712C22.1742 28.9854 21.2135 29.0896 21.173 29.049C21.1498 29.0317 21.2887 28.8754 21.4739 28.7076C22.3594 27.9031 22.8687 27.1739 23.297 26.0974C23.731 25.0209 24.1998 22.4629 24.3271 20.4778C24.3619 20.0032 24.3966 19.6096 24.4082 19.5923C24.4197 19.5807 24.7149 19.5228 25.0621 19.4592C27.6434 18.9846 28.8472 18.6663 30.132 18.0991C31.6136 17.4393 32.4875 16.7333 32.9274 15.8304L33.1357 15.4021L33.2688 15.5642C33.3441 15.6568 33.5524 15.9404 33.7318 16.2066ZM22.3536 19.8469C22.452 20.0495 22.2263 22.2487 22.0121 23.1632C21.7922 24.0949 21.3466 25.0962 20.9704 25.5071C20.6752 25.8254 20.2354 26.0222 19.9286 25.9701C18.8753 25.7907 17.9262 23.4062 17.8104 20.634L17.7757 19.8064L19.1589 19.7891C19.9171 19.7833 20.9357 19.7717 21.4218 19.7601C22.2089 19.7485 22.3073 19.7601 22.3536 19.8469Z" fill="#A3A1A1"/>
<defs>
<linearGradient id="paint0_linear_1943_13446" x1="20" y1="-52" x2="20.3175" y2="106.999" gradientUnits="userSpaceOnUse">
<stop stop-color="#A7A7A7"/>
<stop offset="0.448245" stop-color="#F1F1F1"/>
<stop offset="1" stop-color="#8B8B8B"/>
</linearGradient>
</defs>
</svg>
