<svg width="107" height="94" viewBox="0 0 107 94" fill="none" xmlns="http://www.w3.org/2000/svg">
<g clip-path="url(#clip0_1377_15918)">
<path fill-rule="evenodd" clip-rule="evenodd" d="M25.2518 24.8318C25.2829 24.863 25.3483 24.9465 25.4377 25.0611C25.7989 25.5239 26.555 26.4923 27.0587 26.5551C27.2281 26.5763 27.729 26.6657 28.3718 26.7806C30.1124 27.0915 32.8934 27.5883 32.9508 27.4168C33.3241 27.4607 33.8596 27.5614 34.3649 27.7282C35.0644 27.9593 35.7059 28.3173 35.779 28.8268C35.9361 29.9235 35.5433 31.4901 35.1505 32.9785C34.9346 33.7963 34.4815 34.9452 34.1823 36.5035C33.9371 37.7808 33.795 39.3332 33.9721 41.2035C34.0071 41.5746 34.0637 41.9959 34.1377 42.4568C34.8925 47.1521 37.478 55.9696 37.9787 57.9668C38.0331 58.1835 38.1035 58.5035 38.1867 58.9068C38.5384 60.6107 39.118 63.8018 39.674 66.9751C40.3184 70.6513 40.9312 74.3035 41.1211 75.5918C41.5139 78.2551 55.812 76.6101 56.9904 76.5318C58.0667 76.4602 67.9909 75.3432 70.66 74.3742C70.9132 74.2822 71.1011 74.1917 71.21 74.1035C72.4669 73.0851 73.4097 71.9885 73.5668 71.1268C73.7239 70.2651 75.3737 63.9201 75.2951 62.9801C75.2574 62.5294 75.2017 60.1517 75.509 57.4185C75.2805 57.3401 74.3524 57.4028 72.4669 58.2801C70.1101 59.3768 64.4792 60.6102 63.4324 59.6118C63.2557 59.4434 63.0964 59.2226 62.9526 58.958C61.6255 56.5153 61.6255 50.321 61.6255 46.7396C64.8985 46.8394 68.6358 46.9218 70.0316 46.9218C72.3884 46.9218 74.9023 44.6501 75.688 44.0235C76.4736 43.3968 76.8664 43.2401 79.8517 42.5351C84.4346 41.2085 92.634 38.0787 94.6997 36.6695C95.1186 36.5881 95.9724 36.4878 96.0352 36.7385C96.1138 37.0518 96.1924 37.5218 96.5852 38.0701C96.978 38.6185 99.9633 41.5951 101.142 45.3551C101.77 46.6868 102.87 50.2901 102.32 50.6035C101.77 50.9168 97.2922 52.4835 96.0352 53.0318C94.7783 53.5801 86.9222 54.4418 83.2298 60.2385C81.9383 62.2007 80.5025 67.5228 79.6759 70.3435C79.4465 71.1262 79.264 71.7162 79.1446 71.9885C78.5947 73.2418 76.7878 78.9601 73.7239 79.3518C70.66 79.7435 42.928 82.3285 42.221 82.3285C41.5139 82.3285 34.3649 79.1951 34.2863 78.8818C34.2103 78.5786 34.2813 77.1025 35.0685 75.8009C35.0983 75.7582 35.1257 75.7146 35.1505 75.6701C35.1505 74.6518 34.7577 70.6568 34.4435 69.7168C34.3336 69.3884 33.9171 68.0469 33.4115 66.4268C32.4697 63.4088 31.2187 59.4239 31.0653 59.2201C30.8297 58.9068 27.6087 53.0318 22.188 53.1885C21.2452 50.1596 19.4697 43.4595 19.9097 40.8901C20.4596 37.6785 22.895 30.2368 25.2518 24.8318ZM29.2584 32.4301C29.2584 31.8035 27.5301 31.7251 27.2944 32.1168C26.4302 33.1351 26.116 39.0885 26.1946 39.3235C26.2731 39.5585 26.823 39.5585 27.7658 39.5585C28.52 39.5585 29.0751 34.8063 29.2584 32.4301Z" fill="#FFFFE3"/>
<path fill-rule="evenodd" clip-rule="evenodd" d="M25.2518 24.8318C25.2829 24.863 25.3483 24.9465 25.4377 25.0611C25.7989 25.5239 26.555 26.4923 27.0587 26.5551C27.2281 26.5763 27.729 26.6657 28.3718 26.7806C30.1124 27.0915 32.8934 27.5883 32.9508 27.4168C33.3241 27.4607 33.8596 27.5614 34.3649 27.7282C35.0644 27.9593 35.7059 28.3173 35.779 28.8268C35.9361 29.9235 35.5433 31.4901 35.1505 32.9785C34.9346 33.7963 34.4815 34.9452 34.1823 36.5035C33.9371 37.7808 33.795 39.3332 33.9721 41.2035C34.0071 41.5746 34.0637 41.9959 34.1377 42.4568C34.8925 47.1521 37.478 55.9696 37.9787 57.9668C38.0331 58.1835 38.1035 58.5035 38.1867 58.9068C38.5384 60.6107 39.118 63.8018 39.674 66.9751C40.3184 70.6513 40.9312 74.3035 41.1211 75.5918C41.5139 78.2551 55.812 76.6101 56.9904 76.5318C58.0667 76.4602 67.9909 75.3432 70.66 74.3742C70.9132 74.2822 71.1011 74.1917 71.21 74.1035C72.4669 73.0851 73.4097 71.9885 73.5668 71.1268C73.7239 70.2651 75.3737 63.9201 75.2951 62.9801C75.2574 62.5294 75.2017 60.1517 75.509 57.4185C75.2805 57.3401 74.3524 57.4028 72.4669 58.2801C70.1101 59.3768 64.4792 60.6102 63.4324 59.6118C63.2557 59.4434 63.0964 59.2226 62.9526 58.958C61.6255 56.5153 61.6255 50.321 61.6255 46.7396C64.8985 46.8394 68.6358 46.9218 70.0316 46.9218C72.3884 46.9218 74.9023 44.6501 75.688 44.0235C76.4736 43.3968 76.8664 43.2401 79.8517 42.5351C84.4346 41.2085 92.634 38.0787 94.6997 36.6695C95.1186 36.5881 95.9724 36.4878 96.0352 36.7385C96.1138 37.0518 96.1924 37.5218 96.5852 38.0701C96.978 38.6185 99.9633 41.5951 101.142 45.3551C101.77 46.6868 102.87 50.2901 102.32 50.6035C101.77 50.9168 97.2922 52.4835 96.0352 53.0318C94.7783 53.5801 86.9222 54.4418 83.2298 60.2385C81.9383 62.2007 80.5025 67.5228 79.6759 70.3435C79.4465 71.1262 79.264 71.7162 79.1446 71.9885C78.5947 73.2418 76.7878 78.9601 73.7239 79.3518C70.66 79.7435 42.928 82.3285 42.221 82.3285C41.5139 82.3285 34.3649 79.1951 34.2863 78.8818C34.2103 78.5786 34.2813 77.1025 35.0685 75.8009C35.0983 75.7582 35.1257 75.7146 35.1505 75.6701C35.1505 74.6518 34.7577 70.6568 34.4435 69.7168C34.3336 69.3884 33.9171 68.0469 33.4115 66.4268C32.4697 63.4088 31.2187 59.4239 31.0653 59.2201C30.8297 58.9068 27.6087 53.0318 22.188 53.1885C21.2452 50.1596 19.4697 43.4595 19.9097 40.8901C20.4596 37.6785 22.895 30.2368 25.2518 24.8318ZM29.2584 32.4301C29.2584 31.8035 27.5301 31.7251 27.2944 32.1168C26.4302 33.1351 26.116 39.0885 26.1946 39.3235C26.2731 39.5585 26.823 39.5585 27.7658 39.5585C28.52 39.5585 29.0751 34.8063 29.2584 32.4301Z" fill="url(#paint0_linear_1377_15918)" fill-opacity="0.2"/>
<path d="M17.3957 33.0566C17.0029 33.84 14.7246 38.775 14.8817 41.36C15.0282 43.7697 15.839 50.1272 17.1341 53.58C16.2524 52.6138 14.3632 50.196 13.8605 48.2533C13.232 45.825 11.8179 43.3966 11.975 41.2033L11.9854 41.0573C12.096 39.5102 12.1343 38.9744 12.5048 37.9916C12.6948 37.9916 13.1691 37.9603 13.5462 37.835C14.0176 37.6783 15.9816 31.8816 16.1388 31.4116C16.2645 31.0356 15.8651 30.8371 15.6497 30.785C15.8564 30.3131 16.0052 29.9728 16.0602 29.845C16.2959 29.2966 17.8671 28.7483 18.6527 27.3383C19.2812 26.2103 20.7476 25.8768 21.4023 25.8511C20.624 27.3429 17.7557 32.3386 17.3957 33.0566Z" fill="#FFFFE3"/>
<path d="M17.3957 33.0566C17.0029 33.84 14.7246 38.775 14.8817 41.36C15.0282 43.7697 15.839 50.1272 17.1341 53.58C16.2524 52.6138 14.3632 50.196 13.8605 48.2533C13.232 45.825 11.8179 43.3966 11.975 41.2033L11.9854 41.0573C12.096 39.5102 12.1343 38.9744 12.5048 37.9916C12.6948 37.9916 13.1691 37.9603 13.5462 37.835C14.0176 37.6783 15.9816 31.8816 16.1388 31.4116C16.2645 31.0356 15.8651 30.8371 15.6497 30.785C15.8564 30.3131 16.0052 29.9728 16.0602 29.845C16.2959 29.2966 17.8671 28.7483 18.6527 27.3383C19.2812 26.2103 20.7476 25.8768 21.4023 25.8511C20.624 27.3429 17.7557 32.3386 17.3957 33.0566Z" fill="url(#paint1_linear_1377_15918)" fill-opacity="0.2"/>
<path fill-rule="evenodd" clip-rule="evenodd" d="M23.7592 24.8316C23.7215 24.9068 24.0279 24.8738 24.374 24.8363C24.7488 24.7957 25.1702 24.7501 25.2519 24.8316C22.895 30.2366 20.4597 37.6783 19.9097 40.8899C19.4698 43.4593 21.2453 50.1594 22.188 53.1883C20.0313 53.3227 19.7826 52.9959 17.4245 54.2849C17.3252 54.067 17.2283 53.8312 17.1342 53.5799C15.839 50.1272 15.0282 43.7696 14.8818 41.3599C14.7247 38.7749 17.003 33.8399 17.3958 33.0566C17.7557 32.3386 20.624 27.3428 21.4024 25.851C21.4732 25.7152 21.5267 25.6085 21.5595 25.5366C21.8737 24.8473 23.1568 24.7794 23.7592 24.8316ZM21.9523 30.3149C22.3451 29.6099 20.931 29.2966 20.7739 29.7666C19.3859 32.7171 16.5787 38.7279 16.453 39.1666C16.2959 39.7149 16.5316 40.2633 16.7673 40.4199C17.003 40.5766 17.3958 40.4199 17.8671 39.9499C18.2442 39.5739 20.7477 33.3699 21.9523 30.3149Z" fill="#F5F5DC"/>
<path fill-rule="evenodd" clip-rule="evenodd" d="M23.7592 24.8316C23.7215 24.9068 24.0279 24.8738 24.374 24.8363C24.7488 24.7957 25.1702 24.7501 25.2519 24.8316C22.895 30.2366 20.4597 37.6783 19.9097 40.8899C19.4698 43.4593 21.2453 50.1594 22.188 53.1883C20.0313 53.3227 19.7826 52.9959 17.4245 54.2849C17.3252 54.067 17.2283 53.8312 17.1342 53.5799C15.839 50.1272 15.0282 43.7696 14.8818 41.3599C14.7247 38.7749 17.003 33.8399 17.3958 33.0566C17.7557 32.3386 20.624 27.3428 21.4024 25.851C21.4732 25.7152 21.5267 25.6085 21.5595 25.5366C21.8737 24.8473 23.1568 24.7794 23.7592 24.8316ZM21.9523 30.3149C22.3451 29.6099 20.931 29.2966 20.7739 29.7666C19.3859 32.7171 16.5787 38.7279 16.453 39.1666C16.2959 39.7149 16.5316 40.2633 16.7673 40.4199C17.003 40.5766 17.3958 40.4199 17.8671 39.9499C18.2442 39.5739 20.7477 33.3699 21.9523 30.3149Z" fill="url(#paint2_linear_1377_15918)" fill-opacity="0.2"/>
<path d="M46.1486 14.9618C45.363 14.9618 44.8916 17.5797 45.6772 17.7034H40.3351C40.0208 15.8861 40.2565 14.1001 40.6493 14.1001L46.1486 14.9618Z" fill="#FFFFE3"/>
<path d="M46.1486 14.9618C45.363 14.9618 44.8916 17.5797 45.6772 17.7034H40.3351C40.0208 15.8861 40.2565 14.1001 40.6493 14.1001L46.1486 14.9618Z" fill="#2A2A27"/>
<path d="M46.1485 14.9617C47.0127 14.9617 46.5413 17.8393 45.6772 17.7033C44.8916 17.5796 45.3629 14.9617 46.1485 14.9617Z" fill="#FFFFE3"/>
<path d="M46.1485 14.9617C47.0127 14.9617 46.5413 17.8393 45.6772 17.7033C44.8916 17.5796 45.3629 14.9617 46.1485 14.9617Z" fill="#10100E"/>
<path d="M40.6492 14.1C40.2564 14.1 40.0207 15.886 40.3349 17.7034L38.949 17.6307C38.8798 17.6271 38.8137 17.6006 38.7611 17.5556L38.6589 17.4684L36.6426 15.745L38.8776 13.8136C38.954 13.7475 39.0577 13.7222 39.1562 13.7456L40.6492 14.1Z" fill="#FFFFE3"/>
<path d="M40.6492 14.1C40.2564 14.1 40.0207 15.886 40.3349 17.7034L38.949 17.6307C38.8798 17.6271 38.8137 17.6006 38.7611 17.5556L38.6589 17.4684L36.6426 15.745L38.8776 13.8136C38.954 13.7475 39.0577 13.7222 39.1562 13.7456L40.6492 14.1Z" fill="#171715"/>
<path d="M22.1878 53.1884C27.6085 53.0317 30.8295 58.9067 31.0652 59.22C31.2185 59.4239 32.4696 63.4087 33.4113 66.4267C33.1651 66.74 28.8655 68.2284 28.1584 68.6984C27.4514 69.1684 24.9374 69.1684 23.759 69.1684C23.7089 69.1684 23.6566 69.1676 23.6019 69.1659C22.9371 69.146 21.9391 69.0098 20.8774 68.8651C19.9689 68.7411 19.0138 68.611 18.1812 68.5417C16.2957 68.385 10.2465 69.1684 5.92565 69.795C5.62591 69.8384 5.33787 69.8729 5.06148 69.8992C1.35379 70.2524 -0.25886 69.1466 0.0335836 68.855C0.347828 68.5417 1.52624 66.5834 2.86177 63.8417C4.19731 61.1 5.2186 60.9434 6.23989 60.2384C7.26118 59.5334 12.3676 57.2617 16.0601 55.0684C16.5848 54.7566 17.0336 54.4986 17.4243 54.285C19.7824 52.996 20.0312 53.3228 22.1878 53.1884Z" fill="#FFFFE3"/>
<path d="M22.1878 53.1884C27.6085 53.0317 30.8295 58.9067 31.0652 59.22C31.2185 59.4239 32.4696 63.4087 33.4113 66.4267C33.1651 66.74 28.8655 68.2284 28.1584 68.6984C27.4514 69.1684 24.9374 69.1684 23.759 69.1684C23.7089 69.1684 23.6566 69.1676 23.6019 69.1659C22.9371 69.146 21.9391 69.0098 20.8774 68.8651C19.9689 68.7411 19.0138 68.611 18.1812 68.5417C16.2957 68.385 10.2465 69.1684 5.92565 69.795C5.62591 69.8384 5.33787 69.8729 5.06148 69.8992C1.35379 70.2524 -0.25886 69.1466 0.0335836 68.855C0.347828 68.5417 1.52624 66.5834 2.86177 63.8417C4.19731 61.1 5.2186 60.9434 6.23989 60.2384C7.26118 59.5334 12.3676 57.2617 16.0601 55.0684C16.5848 54.7566 17.0336 54.4986 17.4243 54.285C19.7824 52.996 20.0312 53.3228 22.1878 53.1884Z" fill="url(#paint3_radial_1377_15918)" fill-opacity="0.2"/>
<path d="M34.1373 42.4568C34.0633 41.9958 34.0067 41.5746 33.9717 41.2034C33.7946 39.3331 33.9367 37.7807 34.1819 36.5034C34.7666 36.9734 35.92 38.1014 35.8572 38.8534C35.7786 39.7934 34.8359 41.213 34.7573 42.8531C34.5279 42.7051 34.318 42.571 34.1373 42.4568Z" fill="#FFFFE3"/>
<path d="M34.1373 42.4568C34.0633 41.9958 34.0067 41.5746 33.9717 41.2034C33.7946 39.3331 33.9367 37.7807 34.1819 36.5034C34.7666 36.9734 35.92 38.1014 35.8572 38.8534C35.7786 39.7934 34.8359 41.213 34.7573 42.8531C34.5279 42.7051 34.318 42.571 34.1373 42.4568Z" fill="#2A2A27"/>
<path d="M38.1867 58.9068C38.1034 58.5035 38.0331 58.1835 37.9787 57.9668C37.4779 55.9696 34.8925 47.1521 34.1377 42.4568C34.3184 42.571 34.5283 42.7051 34.7577 42.8532C36.154 43.7551 38.2736 45.1792 38.9214 45.8251C39.6756 46.5771 38.7458 54.8596 38.1867 58.9068Z" fill="#FFFFE3"/>
<path d="M38.1867 58.9068C38.1034 58.5035 38.0331 58.1835 37.9787 57.9668C37.4779 55.9696 34.8925 47.1521 34.1377 42.4568C34.3184 42.571 34.5283 42.7051 34.7577 42.8532C36.154 43.7551 38.2736 45.1792 38.9214 45.8251C39.6756 46.5771 38.7458 54.8596 38.1867 58.9068Z" fill="#2A2A27"/>
<path d="M34.443 69.7168C34.7572 70.6568 35.15 74.6518 35.15 75.6701C35.1219 75.7135 35.0946 75.757 35.068 75.8009C34.1569 77.1064 30.9407 77.5936 28.5104 76.7025C27.9102 74.3295 26.1264 71.5817 25.1728 70.3434L24.4657 69.7168C24.2143 69.5288 23.7848 69.2712 23.6016 69.1659C23.6562 69.1676 23.7086 69.1684 23.7587 69.1684C24.9371 69.1684 27.451 69.1684 28.1581 68.6984C28.8651 68.2284 33.1648 66.7401 33.411 66.4268C33.9166 68.0468 34.3331 69.3884 34.443 69.7168Z" fill="#FFFFE3"/>
<path d="M28.7306 78.8816C28.7302 78.5196 28.7211 78.203 28.7084 77.9416C28.6891 77.5482 28.6193 77.1315 28.5107 76.7024C30.9411 77.5935 34.1572 77.1063 35.0684 75.8008C34.2812 77.1024 34.2102 78.5785 34.2862 78.8816C33.5677 79.3255 31.4506 79.947 28.7306 78.8816Z" fill="#FAFADE"/>
<path d="M28.7306 78.8816C28.7302 78.5196 28.7211 78.203 28.7084 77.9416C28.6891 77.5482 28.6193 77.1315 28.5107 76.7024C30.9411 77.5935 34.1572 77.1063 35.0684 75.8008C34.2812 77.1024 34.2102 78.5785 34.2862 78.8816C33.5677 79.3255 31.4506 79.947 28.7306 78.8816Z" fill="black" fill-opacity="0.13"/>
<path d="M56.9902 76.5317C55.8118 76.6101 41.5137 78.2551 41.1209 75.5917C40.931 74.3035 40.3182 70.6512 39.6738 66.9751C46.4758 67.1317 48.7413 64.7034 49.2913 64.2334C49.5427 64.5467 50.81 65.8262 51.4124 66.4267V68.1501C51.6481 68.8551 56.1261 70.5001 57.1474 70.7351C57.2842 70.7666 57.4152 70.7924 57.5499 70.8134C58.4138 70.9481 59.4187 70.8822 62.9609 70.8148L63.0394 70.8134C69.0729 71.1267 70.6336 73.3177 70.6598 74.3741C67.9906 75.3431 58.0665 76.4601 56.9902 76.5317Z" fill="#2B2B26"/>
<path d="M56.9902 76.5317C55.8118 76.6101 41.5137 78.2551 41.1209 75.5917C40.931 74.3035 40.3182 70.6512 39.6738 66.9751C46.4758 67.1317 48.7413 64.7034 49.2913 64.2334C49.5427 64.5467 50.81 65.8262 51.4124 66.4267V68.1501C51.6481 68.8551 56.1261 70.5001 57.1474 70.7351C57.2842 70.7666 57.4152 70.7924 57.5499 70.8134C58.4138 70.9481 59.4187 70.8822 62.9609 70.8148L63.0394 70.8134C69.0729 71.1267 70.6336 73.3177 70.6598 74.3741C67.9906 75.3431 58.0665 76.4601 56.9902 76.5317Z" fill="url(#paint4_linear_1377_15918)" fill-opacity="0.6"/>
<path d="M20.7741 29.7667C20.9312 29.2967 22.3453 29.61 21.9525 30.315C20.7478 33.37 18.2444 39.574 17.8673 39.95C17.3959 40.42 17.0031 40.5767 16.7675 40.42C16.5318 40.2634 16.2961 39.715 16.4532 39.1667C16.5789 38.728 19.3861 32.7172 20.7741 29.7667Z" fill="#FEF28D"/>
<path d="M20.7741 29.7667C20.9312 29.2967 22.3453 29.61 21.9525 30.315C20.7478 33.37 18.2444 39.574 17.8673 39.95C17.3959 40.42 17.0031 40.5767 16.7675 40.42C16.5318 40.2634 16.2961 39.715 16.4532 39.1667C16.5789 38.728 19.3861 32.7172 20.7741 29.7667Z" fill="url(#paint5_radial_1377_15918)" fill-opacity="0.2"/>
<path d="M27.2941 32.1166C27.5298 31.7249 29.2581 31.8033 29.2581 32.4299C29.0748 34.8061 28.5197 39.5583 27.7655 39.5583C26.8227 39.5583 26.2728 39.5583 26.1942 39.3233C26.1157 39.0883 26.4299 33.1349 27.2941 32.1166Z" fill="#FFF177"/>
<path d="M27.2941 32.1166C27.5298 31.7249 29.2581 31.8033 29.2581 32.4299C29.0748 34.8061 28.5197 39.5583 27.7655 39.5583C26.8227 39.5583 26.2728 39.5583 26.1942 39.3233C26.1157 39.0883 26.4299 33.1349 27.2941 32.1166Z" fill="url(#paint6_radial_1377_15918)" fill-opacity="0.2"/>
<path d="M12.9964 36.8166C13.6592 35.3146 14.969 32.3379 15.6498 30.7849C15.8651 30.8371 16.2645 31.0356 16.1388 31.4116C15.9817 31.8816 14.0177 37.6782 13.5463 37.8349C13.1692 37.9602 12.6949 37.9916 12.5049 37.9916C12.6275 37.6665 12.7864 37.2924 12.9964 36.8166Z" fill="#F0E372"/>
<path d="M12.9964 36.8166C13.6592 35.3146 14.969 32.3379 15.6498 30.7849C15.8651 30.8371 16.2645 31.0356 16.1388 31.4116C15.9817 31.8816 14.0177 37.6782 13.5463 37.8349C13.1692 37.9602 12.6949 37.9916 12.5049 37.9916C12.6275 37.6665 12.7864 37.2924 12.9964 36.8166Z" fill="url(#paint7_radial_1377_15918)" fill-opacity="0.2"/>
<path fill-rule="evenodd" clip-rule="evenodd" d="M16.262 8.45997C16.3009 8.39091 16.3437 8.32685 16.3897 8.26758C17.1802 7.25122 18.9546 7.64579 19.483 8.45997C20.3471 9.79163 21.6041 15.8233 18.0239 17.7816C17.4479 17.9093 16.4966 17.8498 15.9598 16.8747C15.8376 16.6528 15.737 16.3835 15.6671 16.0583C15.4314 15.1966 14.8479 13.0033 15.005 11.985C15.3226 9.92627 15.5549 9.7133 16.262 8.45997ZM17.9454 9.16497C18.0711 8.85163 17.5862 8.32913 17.3954 8.45997C16.1385 9.32163 16.1385 12.455 16.1385 12.6116C16.1385 12.7683 16.6884 12.69 16.6098 12.69C16.5313 12.22 17.7883 9.55663 17.9454 9.16497ZM17.5189 15.8233C17.3932 15.6353 16.9953 14.9616 16.8119 14.6483C16.6548 14.4916 16.6884 14.4133 16.4527 14.6483C16.217 14.8833 16.8455 15.745 17.0812 15.98C17.3169 16.215 17.6761 16.0583 17.5189 15.8233Z" fill="#F4E34A" fill-opacity="0.82"/>
<path fill-rule="evenodd" clip-rule="evenodd" d="M16.262 8.45997C16.3009 8.39091 16.3437 8.32685 16.3897 8.26758C17.1802 7.25122 18.9546 7.64579 19.483 8.45997C20.3471 9.79163 21.6041 15.8233 18.0239 17.7816C17.4479 17.9093 16.4966 17.8498 15.9598 16.8747C15.8376 16.6528 15.737 16.3835 15.6671 16.0583C15.4314 15.1966 14.8479 13.0033 15.005 11.985C15.3226 9.92627 15.5549 9.7133 16.262 8.45997ZM17.9454 9.16497C18.0711 8.85163 17.5862 8.32913 17.3954 8.45997C16.1385 9.32163 16.1385 12.455 16.1385 12.6116C16.1385 12.7683 16.6884 12.69 16.6098 12.69C16.5313 12.22 17.7883 9.55663 17.9454 9.16497ZM17.5189 15.8233C17.3932 15.6353 16.9953 14.9616 16.8119 14.6483C16.6548 14.4916 16.6884 14.4133 16.4527 14.6483C16.217 14.8833 16.8455 15.745 17.0812 15.98C17.3169 16.215 17.6761 16.0583 17.5189 15.8233Z" fill="url(#paint8_radial_1377_15918)" fill-opacity="0.2"/>
<path d="M14.6462 71.0483C15.2381 71.0155 16.0043 71.0644 16.846 71.2463C16.2175 73.1647 15.5104 77.221 17.7101 78.0983C18.81 78.3333 21.8113 76.14 23.1388 76.14C23.3791 76.6411 23.5882 77.1882 23.7593 77.785C24.2018 79.3294 24.2978 80.6827 24.1716 81.8583C22.0699 81.3883 20.6954 80.605 17.7887 81.545C16.1389 82.0784 18.9409 85.9504 20.6954 87.8008C20.4136 88.0109 20.1894 88.1533 20.0644 88.2327C20.0322 88.2533 20.0066 88.2694 19.9884 88.2816C19.6324 88.5183 15.9598 90.0509 12.5251 89.0654C12.7607 88.5174 15.3533 83.19 13.7035 82.0933C12.3836 81.216 8.60265 82.5633 6.87714 83.3466C5.91313 80.8334 6.24413 78.6386 6.60623 77.55C8.15068 78.8033 13.4678 80.2133 13.3892 78.3333C13.3551 77.5169 11.4776 74.0743 10.2468 72.3757C11.3544 71.6469 12.7875 71.1235 14.6462 71.0483Z" fill="#E3E3E3"/>
<path d="M14.6462 71.0483C15.2381 71.0155 16.0043 71.0644 16.846 71.2463C16.2175 73.1647 15.5104 77.221 17.7101 78.0983C18.81 78.3333 21.8113 76.14 23.1388 76.14C23.3791 76.6411 23.5882 77.1882 23.7593 77.785C24.2018 79.3294 24.2978 80.6827 24.1716 81.8583C22.0699 81.3883 20.6954 80.605 17.7887 81.545C16.1389 82.0784 18.9409 85.9504 20.6954 87.8008C20.4136 88.0109 20.1894 88.1533 20.0644 88.2327C20.0322 88.2533 20.0066 88.2694 19.9884 88.2816C19.6324 88.5183 15.9598 90.0509 12.5251 89.0654C12.7607 88.5174 15.3533 83.19 13.7035 82.0933C12.3836 81.216 8.60265 82.5633 6.87714 83.3466C5.91313 80.8334 6.24413 78.6386 6.60623 77.55C8.15068 78.8033 13.4678 80.2133 13.3892 78.3333C13.3551 77.5169 11.4776 74.0743 10.2468 72.3757C11.3544 71.6469 12.7875 71.1235 14.6462 71.0483Z" fill="url(#paint9_linear_1377_15918)" fill-opacity="0.2"/>
<path d="M91.7144 65.6433C93.1599 65.7686 92.8403 60.7942 92.5 58.2913C94.0333 58.3849 96.5581 58.911 98.6277 60.2863C94.5426 65.8959 95.6424 66.1133 95.9567 66.8966C96.2081 67.5233 100.33 67.7322 102.36 67.7583C102.355 70.4295 101.307 72.6526 100.356 73.6693C98.5492 71.7469 95.171 69.325 93.9141 70.265C92.8142 71.0875 93.7307 74.5519 94.0712 76.4212C93.1616 76.4688 92.2076 76.3516 91.243 75.9833C89.7816 75.4253 88.4187 74.5973 87.315 73.5431C87.7078 73.3743 91.0073 70.4216 91.0859 69.0116C91.1487 67.8836 86.8477 66.8183 84.6895 66.4266C84.8304 64.4085 85.2376 62.447 86.4684 60.9433C86.486 61.7266 89.9075 65.4866 91.7144 65.6433Z" fill="#E3E3E3"/>
<path d="M91.7144 65.6433C93.1599 65.7686 92.8403 60.7942 92.5 58.2913C94.0333 58.3849 96.5581 58.911 98.6277 60.2863C94.5426 65.8959 95.6424 66.1133 95.9567 66.8966C96.2081 67.5233 100.33 67.7322 102.36 67.7583C102.355 70.4295 101.307 72.6526 100.356 73.6693C98.5492 71.7469 95.171 69.325 93.9141 70.265C92.8142 71.0875 93.7307 74.5519 94.0712 76.4212C93.1616 76.4688 92.2076 76.3516 91.243 75.9833C89.7816 75.4253 88.4187 74.5973 87.315 73.5431C87.7078 73.3743 91.0073 70.4216 91.0859 69.0116C91.1487 67.8836 86.8477 66.8183 84.6895 66.4266C84.8304 64.4085 85.2376 62.447 86.4684 60.9433C86.486 61.7266 89.9075 65.4866 91.7144 65.6433Z" fill="url(#paint10_linear_1377_15918)" fill-opacity="0.2"/>
<path d="M51.4122 66.4265C50.8098 65.826 49.5424 64.5465 49.291 64.2332C49.9981 63.3454 51.4122 61.3819 51.4122 60.6299V66.4265Z" fill="#171715"/>
<path d="M51.4122 66.4265C50.8098 65.826 49.5424 64.5465 49.291 64.2332C49.9981 63.3454 51.4122 61.3819 51.4122 60.6299V66.4265Z" fill="url(#paint11_linear_1377_15918)" fill-opacity="0.2"/>
<path d="M57.1471 70.7349C56.1258 70.4999 51.6478 68.8549 51.4121 68.1499V66.4266V60.6299V52.9533V45.2766C52.3548 45.6421 54.6802 46.4046 56.44 46.5299C56.6457 46.5447 56.9112 46.5599 57.2256 46.5757L57.5496 70.8133C57.415 70.7923 57.2839 70.7664 57.1471 70.7349Z" fill="#FFFFE3"/>
<path d="M57.1471 70.7349C56.1258 70.4999 51.6478 68.8549 51.4121 68.1499V66.4266V60.6299V52.9533V45.2766C52.3548 45.6421 54.6802 46.4046 56.44 46.5299C56.6457 46.5447 56.9112 46.5599 57.2256 46.5757L57.5496 70.8133C57.415 70.7923 57.2839 70.7664 57.1471 70.7349Z" fill="url(#paint12_linear_1377_15918)" fill-opacity="0.2"/>
<path d="M73.5663 71.1266C73.4091 71.9883 72.4664 73.0849 71.2094 74.1033C71.1005 74.1915 70.9126 74.282 70.6595 74.374C70.6333 73.3176 69.0726 71.1266 63.0391 70.8133L62.9605 70.8147C59.4184 70.882 58.4134 70.948 57.5496 70.8133L57.2256 46.5757C58.2816 46.6286 59.8879 46.6864 61.625 46.7394C61.625 50.3208 61.625 56.5151 62.9521 58.9578C63.0958 59.2224 63.2551 59.4432 63.4319 59.6116C64.4786 60.61 70.1096 59.3766 72.4664 58.2799C74.3519 57.4026 75.28 57.3399 75.5084 57.4183C75.2011 60.1515 75.2569 62.5292 75.2946 62.9799C75.3732 63.9199 73.7234 70.2649 73.5663 71.1266Z" fill="#171716"/>
<path d="M73.5663 71.1266C73.4091 71.9883 72.4664 73.0849 71.2094 74.1033C71.1005 74.1915 70.9126 74.282 70.6595 74.374C70.6333 73.3176 69.0726 71.1266 63.0391 70.8133L62.9605 70.8147C59.4184 70.882 58.4134 70.948 57.5496 70.8133L57.2256 46.5757C58.2816 46.6286 59.8879 46.6864 61.625 46.7394C61.625 50.3208 61.625 56.5151 62.9521 58.9578C63.0958 59.2224 63.2551 59.4432 63.4319 59.6116C64.4786 60.61 70.1096 59.3766 72.4664 58.2799C74.3519 57.4026 75.28 57.3399 75.5084 57.4183C75.2011 60.1515 75.2569 62.5292 75.2946 62.9799C75.3732 63.9199 73.7234 70.2649 73.5663 71.1266Z" fill="url(#paint13_linear_1377_15918)" fill-opacity="0.8"/>
<path d="M51.4121 40.7334C52.1452 39.2972 55.8115 36.2997 64.6103 35.7984C69.324 35.0151 71.6808 31.4901 74.8233 31.4117C75.451 31.3726 76.5929 31.3218 77.2587 31.3514C77.4816 31.3613 77.6511 31.3802 77.73 31.4117C78.1228 31.5684 85.0362 34.3884 85.1147 34.6234C88.2309 33.9445 94.5106 32.3987 94.6992 31.6467C95.2491 32.8217 96.0819 35.4224 95.0134 36.4251C94.9344 36.4992 94.829 36.5809 94.6992 36.6695C92.6335 38.0787 84.4341 41.2084 79.8512 42.5351C76.8659 43.2401 76.473 43.3967 75.6874 44.0234C74.9018 44.6501 72.3879 46.9217 70.031 46.9217C68.6353 46.9217 64.898 46.8393 61.625 46.7395C59.8879 46.6866 58.2816 46.6288 57.2256 46.5758C56.9112 46.56 56.6457 46.5448 56.44 46.5301C54.6802 46.4047 52.3548 45.6422 51.4121 45.2767V40.7334Z" fill="#684F31" fill-opacity="0.95"/>
<path d="M51.4121 40.7334C52.1452 39.2972 55.8115 36.2997 64.6103 35.7984C69.324 35.0151 71.6808 31.4901 74.8233 31.4117C75.451 31.3726 76.5929 31.3218 77.2587 31.3514C77.4816 31.3613 77.6511 31.3802 77.73 31.4117C78.1228 31.5684 85.0362 34.3884 85.1147 34.6234C88.2309 33.9445 94.5106 32.3987 94.6992 31.6467C95.2491 32.8217 96.0819 35.4224 95.0134 36.4251C94.9344 36.4992 94.829 36.5809 94.6992 36.6695C92.6335 38.0787 84.4341 41.2084 79.8512 42.5351C76.8659 43.2401 76.473 43.3967 75.6874 44.0234C74.9018 44.6501 72.3879 46.9217 70.031 46.9217C68.6353 46.9217 64.898 46.8393 61.625 46.7395C59.8879 46.6866 58.2816 46.6288 57.2256 46.5758C56.9112 46.56 56.6457 46.5448 56.44 46.5301C54.6802 46.4047 52.3548 45.6422 51.4121 45.2767V40.7334Z" fill="url(#paint14_linear_1377_15918)" fill-opacity="0.4"/>
<path d="M85.1149 34.6234C85.0363 34.3884 78.123 31.5684 77.7302 31.4118C77.6513 31.3803 77.4817 31.3613 77.2588 31.3515C79.2228 31.1345 93.5209 30.0801 93.9923 30.1584C94.4636 30.2368 94.935 30.7068 94.6993 31.6468C94.5108 32.3988 88.2311 33.9446 85.1149 34.6234Z" fill="#5C4831"/>
<path fill-rule="evenodd" clip-rule="evenodd" d="M16.2617 8.45996C16.3035 8.39416 16.3463 8.33006 16.3895 8.26758C16.3434 8.32685 16.3007 8.39091 16.2617 8.45996ZM18.4309 19.828C18.4047 19.8264 18.3738 19.8258 18.3379 19.8264C18.3802 19.8548 18.4254 19.8841 18.4734 19.9142C18.5755 19.8927 18.6074 19.8393 18.4335 19.8282C18.4327 19.8282 18.4317 19.828 18.4309 19.828Z" fill="#FFFFE3"/>
<path fill-rule="evenodd" clip-rule="evenodd" d="M16.2617 8.45996C16.3035 8.39416 16.3463 8.33006 16.3895 8.26758C16.3434 8.32685 16.3007 8.39091 16.2617 8.45996ZM18.4309 19.828C18.4047 19.8264 18.3738 19.8258 18.3379 19.8264C18.3802 19.8548 18.4254 19.8841 18.4734 19.9142C18.5755 19.8927 18.6074 19.8393 18.4335 19.8282C18.4327 19.8282 18.4317 19.828 18.4309 19.828Z" fill="#B2B9B8"/>
<path d="M33.71 10.2616C33.6402 9.73939 33.6419 8.5226 34.2076 7.83327C34.9146 6.9716 37.1143 5.63994 37.2715 5.48327C37.4286 5.3266 37.2715 4.1516 38.607 2.0366C39.9425 -0.0783952 43.0064 0.783271 43.7135 1.17494C44.4205 1.5666 45.1275 1.8016 45.1275 3.2116C45.1275 4.6216 44.9704 5.71827 43.2421 6.10994C41.5137 6.50161 38.6856 5.63994 38.5284 5.71827C38.3713 5.7966 35.0718 7.12827 34.8361 8.22494C34.6004 9.3216 34.6004 9.75903 34.6004 10.4412L33.71 10.2616Z" fill="#DEDEDE"/>
<path d="M33.71 10.2616C33.6402 9.73939 33.6419 8.5226 34.2076 7.83327C34.9146 6.9716 37.1143 5.63994 37.2715 5.48327C37.4286 5.3266 37.2715 4.1516 38.607 2.0366C39.9425 -0.0783952 43.0064 0.783271 43.7135 1.17494C44.4205 1.5666 45.1275 1.8016 45.1275 3.2116C45.1275 4.6216 44.9704 5.71827 43.2421 6.10994C41.5137 6.50161 38.6856 5.63994 38.5284 5.71827C38.3713 5.7966 35.0718 7.12827 34.8361 8.22494C34.6004 9.3216 34.6004 9.75903 34.6004 10.4412L33.71 10.2616Z" fill="url(#paint15_linear_1377_15918)" fill-opacity="0.2"/>
<path d="M22.7957 4.54333C22.9349 4.98073 23.1302 5.4995 23.1302 5.95333H22.1875C22.1875 5.90535 22.1286 5.24019 22.0828 4.67791C22.0832 4.67717 22.0835 4.67641 22.0836 4.67562L22.0843 4.67402C22.0967 4.63707 22.0847 4.55729 22.0717 4.46935L22.0682 4.4451C22.0651 4.4237 22.0619 4.4021 22.0593 4.3806V4.38043C22.056 4.33714 22.0528 4.29556 22.05 4.2563C22.0509 4.02531 22.0304 3.7963 22.0304 3.91667C22.0304 3.96855 22.0381 4.09301 22.05 4.2563C22.0498 4.29221 22.0533 4.3324 22.0583 4.37348L22.0593 4.38043V4.3806C22.0629 4.42814 22.0668 4.47782 22.0709 4.52903C22.0747 4.57747 22.0788 4.62727 22.0828 4.67791C22.0692 4.71043 22.0324 4.70202 21.9518 4.62167C21.7947 4.465 20.0663 3.525 19.9092 3.36833C19.7521 3.21167 18.9665 0 20.7734 0C22.5803 0 22.8945 2.27167 23.2088 3.21167C23.4602 3.96367 23.0381 4.41278 22.7957 4.54333C22.75 4.17778 22.5467 3.525 22.6588 3.91667C22.7049 4.07767 22.6808 3.995 22.7957 4.54333Z" fill="#DEDEDE"/>
<path d="M22.7957 4.54333C22.9349 4.98073 23.1302 5.4995 23.1302 5.95333H22.1875C22.1875 5.90535 22.1286 5.24019 22.0828 4.67791C22.0832 4.67717 22.0835 4.67641 22.0836 4.67562L22.0843 4.67402C22.0967 4.63707 22.0847 4.55729 22.0717 4.46935L22.0682 4.4451C22.0651 4.4237 22.0619 4.4021 22.0593 4.3806V4.38043C22.056 4.33714 22.0528 4.29556 22.05 4.2563C22.0509 4.02531 22.0304 3.7963 22.0304 3.91667C22.0304 3.96855 22.0381 4.09301 22.05 4.2563C22.0498 4.29221 22.0533 4.3324 22.0583 4.37348L22.0593 4.38043V4.3806C22.0629 4.42814 22.0668 4.47782 22.0709 4.52903C22.0747 4.57747 22.0788 4.62727 22.0828 4.67791C22.0692 4.71043 22.0324 4.70202 21.9518 4.62167C21.7947 4.465 20.0663 3.525 19.9092 3.36833C19.7521 3.21167 18.9665 0 20.7734 0C22.5803 0 22.8945 2.27167 23.2088 3.21167C23.4602 3.96367 23.0381 4.41278 22.7957 4.54333C22.75 4.17778 22.5467 3.525 22.6588 3.91667C22.7049 4.07767 22.6808 3.995 22.7957 4.54333Z" fill="url(#paint16_linear_1377_15918)" fill-opacity="0.2"/>
<path d="M31.3792 9.7917C30.2008 10.6534 27.4175 15.5884 29.3815 18.7217L34.6002 19.356C32.7422 25.9127 32.9018 26.9763 32.949 27.2901C32.9576 27.3478 32.9625 27.3802 32.9504 27.4167C32.8931 27.5883 30.112 27.0915 28.3714 26.7805C27.7286 26.6656 27.2277 26.5762 27.0583 26.555C26.5546 26.4922 25.7985 25.5239 25.4373 25.0611C25.3479 24.9464 25.2825 24.8629 25.2514 24.8317C25.1697 24.7502 24.7483 24.7958 24.3736 24.8364C24.0274 24.8738 23.7211 24.9069 23.7588 24.8317C23.797 24.7556 23.6866 24.0504 23.5723 23.3186C23.4513 22.5447 23.3256 21.7408 23.366 21.62C23.409 21.4909 23.5705 21.4801 23.9025 21.4576C24.1751 21.4389 24.5628 21.4126 25.0943 21.3067C22.32 21.7878 19.6133 20.6293 18.4735 19.9142C18.5756 19.8928 18.6075 19.8394 18.4336 19.8282C20.5478 19.8517 22.5122 18.7629 23.2088 16.2934C23.2153 16.2705 23.2217 16.2476 23.2282 16.2246C23.3991 15.6197 23.5784 14.9856 23.7409 13.5517C23.7707 13.2889 23.7437 11.5528 23.7409 11.1915C23.5723 9.16504 23.7042 6.41366 22.1876 5.95337H23.1303C27.0898 5.95337 30.2793 8.51225 31.3792 9.7917Z" fill="#FFFFE3"/>
<path d="M31.3792 9.7917C30.2008 10.6534 27.4175 15.5884 29.3815 18.7217L34.6002 19.356C32.7422 25.9127 32.9018 26.9763 32.949 27.2901C32.9576 27.3478 32.9625 27.3802 32.9504 27.4167C32.8931 27.5883 30.112 27.0915 28.3714 26.7805C27.7286 26.6656 27.2277 26.5762 27.0583 26.555C26.5546 26.4922 25.7985 25.5239 25.4373 25.0611C25.3479 24.9464 25.2825 24.8629 25.2514 24.8317C25.1697 24.7502 24.7483 24.7958 24.3736 24.8364C24.0274 24.8738 23.7211 24.9069 23.7588 24.8317C23.797 24.7556 23.6866 24.0504 23.5723 23.3186C23.4513 22.5447 23.3256 21.7408 23.366 21.62C23.409 21.4909 23.5705 21.4801 23.9025 21.4576C24.1751 21.4389 24.5628 21.4126 25.0943 21.3067C22.32 21.7878 19.6133 20.6293 18.4735 19.9142C18.5756 19.8928 18.6075 19.8394 18.4336 19.8282C20.5478 19.8517 22.5122 18.7629 23.2088 16.2934C23.2153 16.2705 23.2217 16.2476 23.2282 16.2246C23.3991 15.6197 23.5784 14.9856 23.7409 13.5517C23.7707 13.2889 23.7437 11.5528 23.7409 11.1915C23.5723 9.16504 23.7042 6.41366 22.1876 5.95337H23.1303C27.0898 5.95337 30.2793 8.51225 31.3792 9.7917Z" fill="url(#paint17_linear_1377_15918)" fill-opacity="0.2"/>
<path d="M38.8639 13.8255L36.6426 15.7451L38.659 17.4684L37.9782 19.5051L34.6001 19.3561L29.3814 18.7217C27.4174 15.5884 30.2006 10.6534 31.3791 9.79175L33.7096 10.2617L34.6001 10.4413L37.852 11.0971C38.1656 11.1604 38.4095 11.407 38.4684 11.7206L38.8639 13.8255Z" fill="#FFFFE3"/>
<path d="M38.8639 13.8255L36.6426 15.7451L38.659 17.4684L37.9782 19.5051L34.6001 19.3561L29.3814 18.7217C27.4174 15.5884 30.2006 10.6534 31.3791 9.79175L33.7096 10.2617L34.6001 10.4413L37.852 11.0971C38.1656 11.1604 38.4095 11.407 38.4684 11.7206L38.8639 13.8255Z" fill="url(#paint18_linear_1377_15918)" fill-opacity="0.2"/>
<path d="M18.0241 17.7817C21.6042 15.8234 20.3473 9.79172 19.4831 8.46005C18.9547 7.64587 17.1803 7.2513 16.3898 8.26766C18.4621 5.28012 22.1878 6.03012 22.1878 5.95338C23.7045 6.41367 23.5725 9.16505 23.7411 11.1915C23.7439 11.5528 23.771 13.2889 23.7411 13.5517C23.5786 14.9857 23.3994 15.6197 23.2284 16.2246L23.2091 16.2934C22.5124 18.7629 20.5481 19.8518 18.4338 19.8283L18.4313 19.8281C18.4051 19.8265 18.3741 19.8259 18.3383 19.8265C18.3806 19.8549 18.4258 19.8842 18.4738 19.9143C18.3749 19.9349 17.6266 19.2205 17.5191 19.1134C16.812 18.4084 16.2621 17.7817 15.96 16.8748C16.4967 17.8499 17.4481 17.9094 18.0241 17.7817Z" fill="#DFDFDF"/>
<path d="M18.0241 17.7817C21.6042 15.8234 20.3473 9.79172 19.4831 8.46005C18.9547 7.64587 17.1803 7.2513 16.3898 8.26766C18.4621 5.28012 22.1878 6.03012 22.1878 5.95338C23.7045 6.41367 23.5725 9.16505 23.7411 11.1915C23.7439 11.5528 23.771 13.2889 23.7411 13.5517C23.5786 14.9857 23.3994 15.6197 23.2284 16.2246L23.2091 16.2934C22.5124 18.7629 20.5481 19.8518 18.4338 19.8283L18.4313 19.8281C18.4051 19.8265 18.3741 19.8259 18.3383 19.8265C18.3806 19.8549 18.4258 19.8842 18.4738 19.9143C18.3749 19.9349 17.6266 19.2205 17.5191 19.1134C16.812 18.4084 16.2621 17.7817 15.96 16.8748C16.4967 17.8499 17.4481 17.9094 18.0241 17.7817Z" fill="url(#paint19_radial_1377_15918)" fill-opacity="0.2"/>
<path fill-rule="evenodd" clip-rule="evenodd" d="M5.92596 69.7951C10.2468 69.1684 16.2961 68.3851 18.1815 68.5418C19.0141 68.611 19.9692 68.7412 20.8777 68.8651C21.9394 69.0099 22.9374 69.146 23.6022 69.1659C23.7854 69.2712 24.215 69.5288 24.4664 69.7168L25.1734 70.3434C26.127 71.5817 27.9108 74.3295 28.511 76.7025C28.6196 77.1316 28.6894 77.5484 28.7087 77.9418C28.7214 78.2031 28.7305 78.5197 28.7308 78.8818C29.2586 84.7568 27.5975 92.8359 17.7102 93.8434C6.94726 94.9401 1.84079 85.8534 1.29088 80.5268C0.740949 75.2001 3.25489 71.6485 5.06179 69.8993C5.33819 69.873 5.62622 69.8385 5.92596 69.7951ZM16.846 71.2464C16.0043 71.0646 15.2381 71.0157 14.6462 71.0484C12.7875 71.1236 11.3544 71.647 10.2468 72.3759C7.89021 73.9264 7.00712 76.406 6.63301 77.4718C6.62409 77.4971 6.61516 77.5233 6.60625 77.5501C6.24415 78.6388 5.91316 80.8335 6.87716 83.3468C7.3504 84.5805 8.13573 85.891 9.38264 87.1851C10.3246 88.1627 11.4124 88.7463 12.5251 89.0656C15.9598 90.051 19.6324 88.5185 19.9884 88.2818C20.0066 88.2695 20.0323 88.2534 20.0645 88.2329C20.1894 88.1534 20.4136 88.011 20.6955 87.8009C21.8098 86.9703 23.8256 85.0826 24.1716 81.8584C24.2978 80.6828 24.2018 79.3295 23.7593 77.7851C23.5882 77.1883 23.3791 76.6413 23.1389 76.1401C21.6599 73.0553 19.005 71.7132 16.846 71.2464Z" fill="#2A2A27"/>
<path fill-rule="evenodd" clip-rule="evenodd" d="M5.92596 69.7951C10.2468 69.1684 16.2961 68.3851 18.1815 68.5418C19.0141 68.611 19.9692 68.7412 20.8777 68.8651C21.9394 69.0099 22.9374 69.146 23.6022 69.1659C23.7854 69.2712 24.215 69.5288 24.4664 69.7168L25.1734 70.3434C26.127 71.5817 27.9108 74.3295 28.511 76.7025C28.6196 77.1316 28.6894 77.5484 28.7087 77.9418C28.7214 78.2031 28.7305 78.5197 28.7308 78.8818C29.2586 84.7568 27.5975 92.8359 17.7102 93.8434C6.94726 94.9401 1.84079 85.8534 1.29088 80.5268C0.740949 75.2001 3.25489 71.6485 5.06179 69.8993C5.33819 69.873 5.62622 69.8385 5.92596 69.7951ZM16.846 71.2464C16.0043 71.0646 15.2381 71.0157 14.6462 71.0484C12.7875 71.1236 11.3544 71.647 10.2468 72.3759C7.89021 73.9264 7.00712 76.406 6.63301 77.4718C6.62409 77.4971 6.61516 77.5233 6.60625 77.5501C6.24415 78.6388 5.91316 80.8335 6.87716 83.3468C7.3504 84.5805 8.13573 85.891 9.38264 87.1851C10.3246 88.1627 11.4124 88.7463 12.5251 89.0656C15.9598 90.051 19.6324 88.5185 19.9884 88.2818C20.0066 88.2695 20.0323 88.2534 20.0645 88.2329C20.1894 88.1534 20.4136 88.011 20.6955 87.8009C21.8098 86.9703 23.8256 85.0826 24.1716 81.8584C24.2978 80.6828 24.2018 79.3295 23.7593 77.7851C23.5882 77.1883 23.3791 76.6413 23.1389 76.1401C21.6599 73.0553 19.005 71.7132 16.846 71.2464Z" fill="url(#paint20_linear_1377_15918)" fill-opacity="0.13"/>
<path fill-rule="evenodd" clip-rule="evenodd" d="M83.2297 60.2384C86.9221 54.4417 94.7782 53.5801 96.0352 53.0317C98.5752 53.8151 104.143 56.9014 106.091 62.9801C108.039 69.0587 106.17 73.3915 105.777 74.3741C105.384 75.3567 101.063 81.7017 93.0498 81.1534C84.1725 80.2917 79.8142 71.6751 79.6758 70.3434C80.5024 67.5228 81.9382 62.2007 83.2297 60.2384ZM92.4999 58.2914C92.4185 58.2865 92.3398 58.2827 92.2642 58.2801C89.3779 58.5922 87.5844 59.5796 86.4683 60.9434C85.2376 62.4471 84.8303 64.4086 84.6894 66.4267C84.6693 66.7131 84.6547 67.0008 84.6438 67.2884C84.5489 69.797 85.6298 71.9337 87.3149 73.5432C88.4187 74.5974 89.7815 75.4254 91.2429 75.9834C92.2075 76.3517 93.1616 76.4689 94.0711 76.4213C96.6431 76.2866 98.8605 74.8352 99.9632 74.0251C100.09 73.9319 100.222 73.8126 100.356 73.6694C101.307 72.6527 102.355 70.4296 102.359 67.7584C102.362 66.3807 102.087 64.8839 101.377 63.3717C100.754 62.044 99.7591 61.0382 98.6277 60.2863C96.5581 58.9111 94.0333 58.385 92.4999 58.2914Z" fill="#252523"/>
<path fill-rule="evenodd" clip-rule="evenodd" d="M83.2297 60.2384C86.9221 54.4417 94.7782 53.5801 96.0352 53.0317C98.5752 53.8151 104.143 56.9014 106.091 62.9801C108.039 69.0587 106.17 73.3915 105.777 74.3741C105.384 75.3567 101.063 81.7017 93.0498 81.1534C84.1725 80.2917 79.8142 71.6751 79.6758 70.3434C80.5024 67.5228 81.9382 62.2007 83.2297 60.2384ZM92.4999 58.2914C92.4185 58.2865 92.3398 58.2827 92.2642 58.2801C89.3779 58.5922 87.5844 59.5796 86.4683 60.9434C85.2376 62.4471 84.8303 64.4086 84.6894 66.4267C84.6693 66.7131 84.6547 67.0008 84.6438 67.2884C84.5489 69.797 85.6298 71.9337 87.3149 73.5432C88.4187 74.5974 89.7815 75.4254 91.2429 75.9834C92.2075 76.3517 93.1616 76.4689 94.0711 76.4213C96.6431 76.2866 98.8605 74.8352 99.9632 74.0251C100.09 73.9319 100.222 73.8126 100.356 73.6694C101.307 72.6527 102.355 70.4296 102.359 67.7584C102.362 66.3807 102.087 64.8839 101.377 63.3717C100.754 62.044 99.7591 61.0382 98.6277 60.2863C96.5581 58.9111 94.0333 58.385 92.4999 58.2914Z" fill="url(#paint21_linear_1377_15918)" fill-opacity="0.13"/>
</g>
<defs>
<linearGradient id="paint0_linear_1377_15918" x1="40.1421" y1="5.40512" x2="59.71" y2="91.1093" gradientUnits="userSpaceOnUse">
<stop offset="0.215837" stop-opacity="0.9"/>
<stop offset="0.274567" stop-opacity="0"/>
<stop offset="0.474573" stop-opacity="0.702158"/>
<stop offset="0.637206" stop-opacity="0"/>
<stop offset="0.817317" stop-opacity="0.7"/>
<stop offset="0.867107" stop-opacity="0.15"/>
<stop offset="0.911829"/>
</linearGradient>
<linearGradient id="paint1_linear_1377_15918" x1="53.4815" y1="-2.17205e-05" x2="53.4815" y2="93.9342" gradientUnits="userSpaceOnUse">
<stop offset="0.285" stop-opacity="0.8"/>
<stop offset="0.34" stop-opacity="0"/>
<stop offset="0.363471" stop-opacity="0"/>
<stop offset="0.477367" stop-opacity="0.702158"/>
<stop offset="0.544607"/>
<stop offset="0.86"/>
</linearGradient>
<linearGradient id="paint2_linear_1377_15918" x1="53.4815" y1="-5.4495e-05" x2="53.4815" y2="93.9341" gradientUnits="userSpaceOnUse">
<stop offset="0.259181" stop-opacity="0.8"/>
<stop offset="0.309954" stop-opacity="0"/>
<stop offset="0.36896" stop-opacity="0.25"/>
<stop offset="0.430711" stop-opacity="0"/>
<stop offset="0.478739" stop-opacity="0.424382"/>
<stop offset="0.555584" stop-opacity="0.702158"/>
</linearGradient>
<radialGradient id="paint3_radial_1377_15918" cx="0" cy="0" r="1" gradientUnits="userSpaceOnUse" gradientTransform="translate(46.3357 50.6034) rotate(80.6358) scale(43.9161 43.8376)">
<stop offset="0.740046" stop-opacity="0.1"/>
<stop offset="0.757631" stop-color="#4C3E0D" stop-opacity="0.8"/>
<stop offset="0.777586" stop-opacity="0.2"/>
<stop offset="0.808384" stop-opacity="0"/>
<stop offset="0.831239" stop-opacity="0.25"/>
<stop offset="0.852036" stop-color="#4C3E0D"/>
</radialGradient>
<linearGradient id="paint4_linear_1377_15918" x1="53.4702" y1="60.7867" x2="53.4702" y2="79.7434" gradientUnits="userSpaceOnUse">
<stop offset="0.297615"/>
<stop offset="0.422699" stop-opacity="0"/>
<stop offset="1"/>
</linearGradient>
<radialGradient id="paint5_radial_1377_15918" cx="0" cy="0" r="1" gradientUnits="userSpaceOnUse" gradientTransform="translate(15.6808 33.6834) rotate(118.162) scale(7.6413 5.37069)">
<stop stop-opacity="0"/>
<stop offset="0.29" stop-opacity="0.02"/>
<stop offset="0.851884" stop-opacity="0.0992178"/>
<stop offset="1"/>
</radialGradient>
<radialGradient id="paint6_radial_1377_15918" cx="0" cy="0" r="1" gradientUnits="userSpaceOnUse" gradientTransform="translate(25.0608 34.7799) rotate(95.0151) scale(6.29074 4.42697)">
<stop stop-opacity="0"/>
<stop offset="0.29" stop-opacity="0.02"/>
<stop offset="0.851884" stop-opacity="0.0992178"/>
<stop offset="1"/>
</radialGradient>
<radialGradient id="paint7_radial_1377_15918" cx="0" cy="0" r="1" gradientUnits="userSpaceOnUse" gradientTransform="translate(12.4129 32.8216) rotate(77.99) scale(5.28569 3.71891)">
<stop stop-opacity="0"/>
<stop offset="0.29" stop-opacity="0.02"/>
<stop offset="0.851884" stop-opacity="0.0992178"/>
<stop offset="1"/>
</radialGradient>
<radialGradient id="paint8_radial_1377_15918" cx="0" cy="0" r="1" gradientUnits="userSpaceOnUse" gradientTransform="translate(17.0476 12.455) rotate(76.3349) scale(5.32062 3.7432)">
<stop stop-opacity="0"/>
<stop offset="0.421719" stop-color="#D6D6D6" stop-opacity="0.9"/>
<stop offset="0.715835" stop-opacity="0.05"/>
<stop offset="1" stop-opacity="0.8"/>
</radialGradient>
<linearGradient id="paint9_linear_1377_15918" x1="10.0358" y1="66.8183" x2="27.3455" y2="86.5733" gradientUnits="userSpaceOnUse">
<stop offset="0.289687" stop-opacity="0.85"/>
<stop offset="0.5" stop-color="#989898" stop-opacity="0.3"/>
<stop offset="0.728914" stop-opacity="0.95"/>
</linearGradient>
<linearGradient id="paint10_linear_1377_15918" x1="89.3004" y1="59.2983" x2="100.107" y2="74.3474" gradientUnits="userSpaceOnUse">
<stop offset="0.289687" stop-opacity="0.85"/>
<stop offset="0.5" stop-color="#989898" stop-opacity="0.3"/>
<stop offset="0.728914" stop-opacity="0.95"/>
</linearGradient>
<linearGradient id="paint11_linear_1377_15918" x1="53.481" y1="-0.000125634" x2="53.481" y2="93.9341" gradientUnits="userSpaceOnUse">
<stop offset="0.285" stop-opacity="0.8"/>
<stop offset="0.34" stop-opacity="0"/>
<stop offset="0.545" stop-opacity="0.702158"/>
<stop offset="0.64" stop-opacity="0"/>
<stop offset="0.84" stop-opacity="0.25"/>
<stop offset="0.8599"/>
<stop offset="0.86"/>
</linearGradient>
<linearGradient id="paint12_linear_1377_15918" x1="47.5898" y1="33.0566" x2="54.9471" y2="76.6121" gradientUnits="userSpaceOnUse">
<stop offset="0.309267" stop-opacity="0.8"/>
<stop offset="0.406025" stop-opacity="0"/>
<stop offset="0.550832" stop-opacity="0"/>
<stop offset="0.771845" stop-opacity="0.25"/>
<stop offset="0.841561" stop-opacity="0.9"/>
</linearGradient>
<linearGradient id="paint13_linear_1377_15918" x1="56.6061" y1="45.2766" x2="72.6557" y2="78.1094" gradientUnits="userSpaceOnUse">
<stop offset="0.0406432" stop-opacity="0.335261"/>
<stop offset="0.337599" stop-opacity="0"/>
<stop offset="1"/>
</linearGradient>
<linearGradient id="paint14_linear_1377_15918" x1="53.4809" y1="5.27911e-05" x2="53.4809" y2="93.9342" gradientUnits="userSpaceOnUse">
<stop offset="0.342914" stop-opacity="0.8"/>
<stop offset="0.374285" stop-opacity="0.2"/>
<stop offset="0.412377" stop-opacity="0"/>
<stop offset="0.457192" stop-opacity="0.2"/>
<stop offset="0.494164" stop-opacity="0.8"/>
</linearGradient>
<linearGradient id="paint15_linear_1377_15918" x1="47.6864" y1="2.34994" x2="36.315" y2="9.82185" gradientUnits="userSpaceOnUse">
<stop offset="0.201062" stop-opacity="0"/>
<stop offset="0.290658" stop-color="#545454" stop-opacity="0.6"/>
<stop offset="0.379329" stop-color="#B8B8B8" stop-opacity="0.5"/>
<stop offset="1"/>
</linearGradient>
<linearGradient id="paint16_linear_1377_15918" x1="21.7164" y1="5.29815" x2="25.5223" y2="1.94738" gradientUnits="userSpaceOnUse">
<stop stop-opacity="0"/>
<stop offset="0.382219" stop-color="#6E6E6E" stop-opacity="0.7"/>
<stop offset="0.470344" stop-color="#B8B8B8" stop-opacity="0.5"/>
<stop offset="0.718726"/>
</linearGradient>
<linearGradient id="paint17_linear_1377_15918" x1="10.7409" y1="2.58504" x2="16.7677" y2="32.6671" gradientUnits="userSpaceOnUse">
<stop offset="0.158452" stop-opacity="0.8"/>
<stop offset="0.292515" stop-opacity="0"/>
<stop offset="0.686839" stop-opacity="0.5"/>
<stop offset="0.757793" stop-opacity="0.15"/>
<stop offset="0.805607" stop-opacity="0.25"/>
<stop offset="0.923987" stop-opacity="0.9"/>
</linearGradient>
<linearGradient id="paint18_linear_1377_15918" x1="42.423" y1="3.38535" x2="40.0595" y2="23.6403" gradientUnits="userSpaceOnUse">
<stop offset="0.35274" stop-opacity="0.7"/>
<stop offset="0.449806" stop-opacity="0"/>
<stop offset="0.630776" stop-opacity="0.3"/>
<stop offset="0.765552" stop-opacity="0"/>
<stop offset="0.849321"/>
</linearGradient>
<radialGradient id="paint19_radial_1377_15918" cx="0" cy="0" r="1" gradientUnits="userSpaceOnUse" gradientTransform="translate(15.2884 15.8234) rotate(66.1519) scale(10.2775 14.1508)">
<stop stop-opacity="0.8"/>
<stop offset="0.127182" stop-color="#C9C9C9" stop-opacity="0.7"/>
<stop offset="0.300527" stop-color="#747474" stop-opacity="0.4"/>
<stop offset="0.5" stop-color="white" stop-opacity="0.6"/>
<stop offset="0.66584" stop-color="#636363" stop-opacity="0.8"/>
<stop offset="1"/>
</radialGradient>
<linearGradient id="paint20_linear_1377_15918" x1="12.5447" y1="75.6701" x2="18.7358" y2="79.1214" gradientUnits="userSpaceOnUse">
<stop offset="0.101965" stop-color="#292828"/>
<stop offset="0.242864" stop-color="#A3A1A1" stop-opacity="0.7"/>
<stop offset="0.36802" stop-color="#373737" stop-opacity="0.8"/>
<stop offset="0.522558" stop-color="#B1AFAF" stop-opacity="0.8"/>
<stop offset="0.731324"/>
</linearGradient>
<linearGradient id="paint21_linear_1377_15918" x1="95.0236" y1="64.7817" x2="87.6542" y2="63.5262" gradientUnits="userSpaceOnUse">
<stop offset="0.101965" stop-color="#292828"/>
<stop offset="0.242864" stop-color="#A3A1A1" stop-opacity="0.7"/>
<stop offset="0.36802" stop-color="#373737" stop-opacity="0.8"/>
<stop offset="0.522558" stop-color="#B1AFAF" stop-opacity="0.8"/>
<stop offset="0.731324"/>
</linearGradient>
<clipPath id="clip0_1377_15918">
<rect width="107" height="94" fill="white"/>
</clipPath>
</defs>
</svg>
