<svg width="21" height="59" viewBox="0 0 21 59" fill="none" xmlns="http://www.w3.org/2000/svg">
<g clip-path="url(#clip0_3305_61002)">
<path d="M16.9306 7.626C16.9112 7.96781 16.8805 8.30799 16.84 8.64165C15.0494 7.72247 13.0715 7.23279 11.0614 7.21095C7.75797 7.21095 4.97707 8.51307 4.48365 8.76373C4.45696 8.77566 4.43102 8.78925 4.406 8.80442C4.406 8.80442 3.97686 3.02235 4.64057 1.86739C4.85985 1.65204 5.09931 1.45853 5.35562 1.28958V6.92774C5.35562 6.92774 6.1467 6.40852 6.42657 6.40852V0.854198L6.66276 0.946144V6.37109C6.66276 6.37109 7.40194 6.01138 7.75947 6.01138V0.548998L8.13006 0.460008V6.05532C8.53214 5.8943 8.96496 5.8259 9.39675 5.85512V0.269043H9.63618V5.89256C9.63618 5.89256 10.3464 5.65655 10.9433 5.85512V0.348798L11.2183 0.389489V5.85187C11.5631 5.78467 11.9195 5.81165 12.2505 5.93V0.589689L12.574 0.667816V5.93C12.9116 5.93 13.1073 5.93 13.4334 6.12071V0.773892L13.81 0.868016V6.3304C14.1295 6.3613 14.3245 6.33997 14.6073 6.49278V1.11179L14.999 1.39049V6.63593C14.999 6.63593 15.4551 6.63593 15.8291 6.92774V1.66556L16.1476 1.94877V7.08562L16.9306 7.626Z" fill="#D7F3FF" fill-opacity="0.6"/>
<path d="M20.9632 15.1001V20.9873C19.2726 20.7041 14.0392 19.8902 10.1048 19.8902C6.27562 19.8902 1.62136 20.7171 -0.0449219 21.0394C-0.0449219 17.6213 -0.0174207 15.2401 0.0392005 14.8673C0.277009 13.2722 4.40712 10.0837 4.40712 10.0837V9.9209C6.69876 9.24892 9.07196 8.89999 11.4589 8.88409C13.306 8.87872 15.1364 9.23587 16.8476 9.93555V10.0804C20.0103 12.1524 20.9632 15.1001 20.9632 15.1001Z" fill="#D7F3FF"/>
<path d="M16.8409 8.64172V9.93407C15.1297 9.23439 13.2993 8.87724 11.4522 8.88261C9.06523 8.89851 6.69202 9.24744 4.40039 9.91942V8.80123C4.42541 8.78606 4.45135 8.77247 4.47804 8.76054C4.96337 8.51639 7.75236 7.20776 11.0558 7.20776C13.0576 7.22992 15.0276 7.71498 16.8134 8.62544L16.8344 8.63846C16.8369 8.63881 16.8391 8.63995 16.8409 8.64172Z" fill="#D7F3FF" fill-opacity="0.8"/>
<path d="M11.0563 7.20776C7.75284 7.20776 4.97193 8.50987 4.47852 8.76053C11.8846 4.76954 16.6424 8.4822 16.8349 8.63846C15.0442 7.71928 13.0664 7.2296 11.0563 7.20776Z" fill="#D7F3FF" fill-opacity="0.8"/>
<path d="M20.9625 20.9874V22.5679C19.4725 22.2863 15.1807 21.5587 10.5798 21.5587C6.3526 21.5587 1.94747 22.1268 -0.0488281 22.4246C-0.0488281 21.9363 -0.0488281 21.4806 -0.0488281 21.0346C1.61745 20.7091 6.27171 19.8855 10.1009 19.8855C14.0385 19.8904 19.2719 20.7042 20.9625 20.9874Z" fill="#D7F3FF" fill-opacity="0.8"/>
<path d="M20.9626 22.5677V46.1312C19.573 46.9873 16.1336 48.6703 10.5799 48.6703C5.17501 48.6703 1.60626 46.9092 0.0532199 45.944C0.00630517 38.9451 -0.0519345 29.1451 -0.0486991 22.4245C1.9476 22.1266 6.35273 21.5586 10.5799 21.5586C15.1808 21.5586 19.4727 22.2862 20.9626 22.5677Z" fill="#D7F3FF"/>
<path d="M4.40002 49.152L4.47767 50.1856C8.83588 52.0216 11.4518 50.9034 11.4518 50.9034L11.8497 51.7042C9.07369 52.5001 4.55856 51.2159 4.55856 51.2159L4.72033 52.3341C8.20658 54.087 12.8091 52.5717 12.8091 52.5717L13.1326 53.3709C10.4791 54.0834 7.68274 54.0553 5.04388 53.2895C5.04388 54.8862 7.02401 55.4445 7.02401 55.4445C15.5673 55.4445 19.6149 53.5467 20.9738 52.7149V54.7267C20.3381 55.923 18.2803 59.0302 10.0363 59.0302C1.79221 59.0302 0.13078 54.5672 0.13078 54.5672C0.13078 54.5672 0.101661 50.9701 0.0644531 45.9407C1.61749 46.9059 5.18624 48.667 10.5911 48.667C16.1449 48.667 19.5842 46.984 20.9738 46.1279V47.43C12.7589 51.8783 4.40002 49.152 4.40002 49.152Z" fill="#D7F3FF"/>
<path d="M20.9625 47.4351V52.7217C19.6036 53.5534 15.556 55.4512 7.01266 55.4512C7.01266 55.4512 5.03253 54.8929 5.03253 53.2962C7.67139 54.062 10.4677 54.0901 13.1213 53.3776L12.7977 52.5784C12.7977 52.5784 8.20009 54.0938 4.70899 52.3408L4.54721 51.2226C4.54721 51.2226 9.06234 52.5003 11.8384 51.7109L11.4404 50.9101C11.4404 50.9101 8.82454 52.0283 4.46632 50.1923L4.38867 49.1587C4.38867 49.1587 12.7589 51.8785 20.9625 47.4351Z" fill="#D7F3FF" fill-opacity="0.6"/>
<path d="M16.9318 7.62597L16.123 7.08559V1.94548L15.924 1.78272V7.04815C15.6004 6.73076 14.9744 6.73076 14.9744 6.73076V1.3872L14.6977 1.22444V6.60869C14.4184 6.45731 14.1122 6.36274 13.7966 6.33036V0.867981L13.4731 0.82729V6.17085C13.1576 6.0924 12.8477 6.05203 12.5607 6.05203V0.667781H12.3259V5.9789C11.9885 5.92775 11.5433 5.85183 11.205 5.85183V0.389454L10.9564 0.348763V5.85183C10.2653 5.7818 9.62285 5.88927 9.62285 5.88927V0.389454H9.45635V5.85183C8.94232 5.85183 8.60853 5.9132 8.12482 6.05203V0.525673L7.84656 0.548963V6.11031C7.48904 6.11031 6.65752 6.40849 6.65752 6.40849V0.946109L6.45635 0.98558V6.43881C6.06505 6.60869 5.34766 7.03013 5.34766 7.03013L5.35038 1.28629C6.343 0.617503 7.48786 0.212645 8.67809 0.109498C10.2353 -0.0349914 11.8036 -0.00770175 13.355 0.190881C13.355 0.190881 15.924 0.867981 16.8911 1.8397C16.8911 1.8397 17.3477 3.67934 16.9318 7.62597Z" fill="#D7F3FF" fill-opacity="0.8"/>
</g>
<defs>
<clipPath id="clip0_3305_61002">
<rect width="21" height="59" fill="white"/>
</clipPath>
</defs>
</svg>
