<svg width="48" height="32" viewBox="0 0 48 32" fill="none" xmlns="http://www.w3.org/2000/svg">
<g clip-path="url(#clip0_3305_60901)">
<path d="M45.6909 11.0329C44.1436 15.4122 37.6394 17.9918 31.1622 16.7913C24.6851 15.5907 20.6911 11.0686 22.2379 6.69051C23.5037 3.10618 28.0813 0.732041 33.2495 0.63975C33.3563 0.63723 33.4637 0.636488 33.5689 0.637559L33.856 0.633985C33.9514 0.634583 34.0457 0.637574 34.1389 0.639986C34.3287 0.64655 34.5186 0.656087 34.708 0.666822C34.7431 0.66817 34.7765 0.673109 34.8106 0.676851C34.9504 0.683442 35.0939 0.697724 35.2339 0.710262C35.3999 0.725454 35.5649 0.74601 35.7304 0.765373C35.7811 0.770097 35.8307 0.777216 35.8832 0.784299C36.0177 0.802857 36.1527 0.820218 36.2872 0.838776C36.4426 0.86481 36.5991 0.891425 36.7542 0.924603C36.7729 0.933892 36.794 0.93125 36.8143 0.936948C37.1709 1.00154 37.5199 1.07991 37.864 1.16607L38.1306 1.23714C38.2198 1.26102 38.3074 1.28552 38.3967 1.31237C38.4861 1.33923 38.5702 1.36496 38.6572 1.39065C44.0003 3.05162 47.0826 7.10013 45.6909 11.0329ZM36.5892 1.64728C30.9324 0.601345 25.2523 2.85174 23.9006 6.67576C22.549 10.4998 26.0407 14.4504 31.6965 15.4987C37.3522 16.547 43.0317 14.2948 44.3827 10.469C45.7337 6.64325 42.2397 2.6915 36.5892 1.64728Z" fill="#D7F3FF" fill-opacity="0.68"/>
<path d="M41.0332 7.61621L41.0156 7.60614" stroke="#D7F3FF" stroke-miterlimit="10"/>
<path d="M38.7427 1.3403C44.039 2.95095 47.0762 6.9799 45.6591 10.9317C44.0842 15.3307 37.5882 17.9688 31.1487 16.8206C24.7093 15.6725 20.7681 11.1768 22.3424 6.77901C23.6308 3.17852 28.207 0.762358 33.3535 0.626623C27.9853 0.748527 23.204 3.29889 21.8594 7.09957C21.1169 9.20726 21.5587 11.336 22.8902 13.1405C24.4835 15.3066 27.3544 17.0103 30.9938 17.6665C36.721 18.6984 42.4892 16.8043 45.0496 13.3286C45.469 12.7635 45.8046 12.1359 46.0452 11.4664C47.524 7.27741 44.3183 3.0035 38.7427 1.3403Z" fill="#D7F3FF" fill-opacity="0.8"/>
<path d="M44.3645 10.3752C42.9895 14.2182 37.316 16.5208 31.6943 15.5188C26.0726 14.5169 22.6266 10.5907 24.0017 6.74767C25.3768 2.90468 31.0503 0.605011 36.6742 1.60515C42.2982 2.60529 45.7402 6.53395 44.3645 10.3752ZM36.2354 2.65355C31.4653 1.80417 26.6432 3.75768 25.4792 7.01646C24.3153 10.2752 27.2326 13.6184 32.0089 14.4635C36.7851 15.3086 41.6022 13.3599 42.7712 10.0963C43.9402 6.83263 41.0123 3.50338 36.2354 2.65355Z" fill="#D7F3FF"/>
<path d="M35.3629 11.5907C34.884 11.5412 34.4698 11.8001 34.4386 12.1643C34.4075 12.5284 34.7698 12.8617 35.2493 12.91C35.7288 12.9584 36.1459 12.6994 36.1771 12.3382C36.2083 11.9771 35.8453 11.639 35.3629 11.5907Z" fill="#D7F3FF" fill-opacity="0.8"/>
<path d="M30.7067 10.9181C30.2267 10.871 29.8124 11.127 29.7813 11.4911C29.7502 11.8553 30.1142 12.1879 30.5942 12.235C31.0743 12.2822 31.4897 12.0268 31.5208 11.6627C31.5519 11.2985 31.1891 10.9664 30.7067 10.9181Z" fill="#D7F3FF" fill-opacity="0.8"/>
<path d="M28.4144 8.12452C27.9354 8.07495 27.5189 8.33276 27.4866 8.69633C27.4544 9.05991 27.8213 9.39547 28.3008 9.44383C28.7803 9.49219 29.1973 9.23318 29.2274 8.87144C29.2574 8.5097 28.8944 8.17168 28.4144 8.12452Z" fill="#D7F3FF" fill-opacity="0.8"/>
<path d="M29.5152 5.41562C29.0547 5.36925 28.6624 5.56394 28.6375 5.85162C28.6125 6.13931 28.9663 6.40655 29.4273 6.45171C29.8883 6.49687 30.2806 6.30219 30.305 6.01571C30.3295 5.72923 29.9704 5.45792 29.5152 5.41562Z" fill="#D7F3FF" fill-opacity="0.8"/>
<path d="M33.2425 3.96028C32.7758 3.91524 32.3807 4.10998 32.3545 4.39411C32.3282 4.67825 32.6879 4.95132 33.1535 4.99579C33.6191 5.04026 34.0142 4.84849 34.0392 4.56081C34.0642 4.27313 33.7059 4.00956 33.2425 3.96028Z" fill="#D7F3FF" fill-opacity="0.8"/>
<path d="M37.3205 4.54797C36.856 4.5011 36.4597 4.69527 36.4336 4.98238C36.4075 5.26949 36.7664 5.53781 37.232 5.58228C37.6976 5.62675 38.0928 5.43499 38.1178 5.14731C38.1427 4.85963 37.7856 4.59365 37.3205 4.54797Z" fill="#D7F3FF" fill-opacity="0.8"/>
<path d="M39.7857 6.91501C39.319 6.86997 38.9234 7.06592 38.8977 7.34885C38.872 7.63178 39.2306 7.90726 39.6962 7.95173C40.1618 7.99619 40.5569 7.80443 40.5819 7.51675C40.6069 7.22907 40.2479 6.96074 39.7857 6.91501Z" fill="#D7F3FF" fill-opacity="0.8"/>
<path d="M39.1715 9.96701C38.7064 9.92134 38.3096 10.1167 38.2874 10.4014C38.2652 10.686 38.6168 10.9581 39.0836 11.0031C39.5503 11.0481 39.9443 10.8558 39.9682 10.5675C39.992 10.2793 39.6371 10.0145 39.1715 9.96701Z" fill="#D7F3FF" fill-opacity="0.8"/>
<path d="M30.9784 17.6771C27.3391 17.021 24.4682 15.3173 22.875 13.1513L24.1438 20.501L25.9517 22.5082L26.4188 22.8005L29.5072 24.766L29.6973 24.7936L33.728 25.4266L33.7515 25.4309L38.092 24.8842L38.2402 24.7911L41.6353 22.6011L41.6555 22.5876L43.9004 20.0845L45.0329 13.3447C42.4735 16.815 36.7055 18.709 30.9784 17.6771Z" fill="#D7F3FF"/>
<path d="M43.8874 20.0576L41.6377 22.5651L41.6174 22.5786L41.3189 26.2623C41.4375 26.138 41.5055 26.0596 41.5055 26.0596C42.4275 25.1516 43.3538 23.2436 43.3538 23.2436L43.8874 20.0576Z" fill="#D7F3FF" fill-opacity="0.72"/>
<path d="M41.6164 22.5861L38.2172 24.7786L38.18 28.218C39.4829 28.0672 40.8345 26.7712 41.3182 26.2677L41.6164 22.5861Z" fill="#D7F3FF" fill-opacity="0.72"/>
<path d="M38.2203 24.7906L38.0699 24.8886L33.7267 25.4379L33.7031 25.4337L33.8751 28.9032C35.0425 29.4558 38.1263 28.2407 38.1263 28.2407C38.1441 28.2393 38.1618 28.2367 38.1793 28.2331L38.2203 24.7906Z" fill="#D7F3FF" fill-opacity="0.72"/>
<path d="M33.7084 25.4406L29.6778 24.8075L29.5561 28.0128C29.6603 28.0642 29.7232 28.085 29.7232 28.085C30.6548 29.1434 33.867 28.9004 33.867 28.9004L33.8809 28.9072L33.7084 25.4406Z" fill="#D7F3FF" fill-opacity="0.72"/>
<path d="M26.3383 26.0496C26.8989 26.7998 28.9563 27.7504 29.556 28.0184L29.6777 24.8139L29.4901 24.7905L26.4023 22.8255L26.3383 26.0496Z" fill="#D7F3FF" fill-opacity="0.72"/>
<path d="M24.1342 20.529L24.617 23.3464C24.7638 24.1545 26.2851 25.9632 26.2851 25.9632C26.3041 25.9932 26.3232 26.0232 26.3457 26.0549L26.4097 22.8291L25.9436 22.5343L24.1342 20.529Z" fill="#D7F3FF" fill-opacity="0.72"/>
<path d="M45.0399 13.2822L45.0371 13.3037" stroke="#D7F3FF" stroke-miterlimit="10"/>
<path d="M34.6131 7.55437C33.3199 7.37353 32.0157 7.77555 31.6995 8.45774C31.5313 8.83062 31.6869 9.20446 32.0791 9.49949C32.4823 9.76584 32.9352 9.93921 33.4073 10.0079C33.4073 10.0079 33.4131 10.0107 33.4177 10.013L33.4372 10.0138C33.4711 10.0202 33.5049 10.0237 33.5405 10.0295C33.5761 10.0353 33.6048 10.0377 33.6363 10.04C33.6478 10.0424 33.6596 10.0437 33.6713 10.044C33.7143 10.0491 33.7556 10.0518 33.7968 10.0545C33.8381 10.0572 33.8891 10.0603 33.9349 10.0623C33.9807 10.0644 34.0242 10.0652 34.0671 10.0643C34.11 10.0634 34.1707 10.0669 34.2232 10.0635L34.3267 10.0601C34.3404 10.0599 34.3542 10.0588 34.3678 10.0569C34.9649 10.0315 35.545 9.84748 36.0531 9.52235L36.0569 9.51393C36.1961 9.41181 36.3094 9.27596 36.3869 9.118C36.7009 8.43765 35.9064 7.7382 34.6131 7.55437Z" fill="#D7F3FF" fill-opacity="0.68"/>
<path d="M42.7695 10.0999C41.6005 13.3636 36.7808 15.3182 32.0072 14.4671C27.2337 13.6161 24.3091 10.2826 25.4776 7.02011C26.646 3.75767 31.4618 1.80249 36.2353 2.65359C41.0089 3.50469 43.9358 6.83932 42.7695 10.0999ZM39.6982 7.96782C40.1616 8.01413 40.5591 7.8205 40.5841 7.53276C40.609 7.24503 40.25 6.97665 39.7878 6.93091C39.3255 6.88517 38.9253 7.08185 38.8996 7.36483C38.8739 7.64781 39.2336 7.92094 39.6982 7.96782ZM39.092 11.0135C39.5565 11.0604 39.9529 10.8662 39.9767 10.5779C40.0005 10.2896 39.6456 10.0247 39.1799 9.97724C38.7141 9.92979 38.3179 10.127 38.2957 10.4117C38.2735 10.6964 38.6252 10.9685 39.092 11.0135ZM30.7122 10.9053C30.2322 10.8581 29.8179 11.1141 29.7868 11.4782C29.7557 11.8424 30.1197 12.175 30.5997 12.2222C31.0798 12.2693 31.4952 12.0139 31.5263 11.6498C31.5574 11.2856 31.1946 10.9536 30.7122 10.9053ZM35.2599 12.907C35.7399 12.9541 36.1564 12.6963 36.1876 12.3352C36.2188 11.974 35.8547 11.6384 35.3724 11.5901C34.89 11.5418 34.4793 11.7995 34.4481 12.1636C34.417 12.5278 34.7804 12.8586 35.2599 12.907ZM28.4118 8.10933C27.9329 8.05977 27.5164 8.31756 27.4841 8.68113C27.4518 9.04469 27.8188 9.38024 28.2983 9.42859C28.7778 9.47695 29.1948 9.21796 29.2248 8.85623C29.2549 8.4945 28.8919 8.15649 28.4118 8.10933ZM29.5076 5.40674C29.0471 5.36037 28.6548 5.55509 28.6298 5.84282C28.6048 6.13056 28.9586 6.39785 29.4197 6.44302C29.8808 6.48819 30.2731 6.29347 30.2976 6.00694C30.322 5.7204 29.9629 5.44905 29.5076 5.40674ZM30.9311 7.55666C30.507 8.6256 31.5734 9.71816 33.3132 9.99875C33.3427 10.0038 33.3724 10.0071 33.4021 10.0088C33.4021 10.0088 33.4079 10.0117 33.4126 10.0139C33.4172 10.0162 33.4265 10.0208 33.4378 10.0176C33.4498 10.0183 33.4618 10.0202 33.4734 10.0234C33.4952 10.0253 33.5142 10.0273 33.5354 10.0304C33.5566 10.0336 33.5997 10.0386 33.6312 10.041C33.6427 10.0433 33.6545 10.0447 33.6662 10.045C33.6966 10.0497 33.7259 10.0509 33.7551 10.055C33.7844 10.0592 33.8405 10.0604 33.8818 10.0631C33.8957 10.07 33.9155 10.0636 33.931 10.0639C33.9757 10.0653 34.0203 10.0668 34.0632 10.0659C34.1061 10.065 34.1668 10.0685 34.2194 10.065L34.3228 10.0616C34.3366 10.0615 34.3503 10.0604 34.364 10.0584C35.7094 10.0046 36.8973 9.42736 37.2335 8.57537C37.6587 7.507 36.5906 6.41209 34.8508 6.1315C33.1109 5.85092 31.3574 6.48588 30.9311 7.55666ZM33.2346 3.96298C32.7677 3.91793 32.3726 4.11271 32.3464 4.39689C32.3202 4.68108 32.6799 4.95421 33.1455 4.99868C33.6112 5.04316 34.0064 4.85136 34.0314 4.56363C34.0564 4.27589 33.6981 4.01227 33.2346 3.96298ZM37.3153 4.56043C36.8507 4.51355 36.4544 4.70776 36.4283 4.99492C36.4022 5.28208 36.7612 5.55046 37.2268 5.59494C37.6925 5.63941 38.0877 5.44761 38.1127 5.15988C38.1377 4.87214 37.7804 4.60611 37.3153 4.56043Z" fill="#D7F3FF" fill-opacity="0.6"/>
<path d="M34.6871 6.66894C33.2373 6.42997 31.7684 6.9773 31.4151 7.90168C31.1881 8.48678 31.4669 9.08035 32.0732 9.49725C31.6868 9.20504 31.5254 8.82828 31.6936 8.45534C32.0098 7.77304 33.3152 7.37154 34.6075 7.55184C35.8997 7.73214 36.6955 8.43525 36.381 9.11691C36.3034 9.27489 36.1901 9.41076 36.0508 9.5129C36.3233 9.33655 36.5382 9.07882 36.6677 8.77307C37.0291 7.85567 36.1393 6.91203 34.6871 6.66894Z" fill="#D7F3FF" fill-opacity="0.6"/>
<path d="M34.8507 6.13009C33.1108 5.84655 31.357 6.48564 30.9307 7.55631C30.5045 8.62699 31.5764 9.71933 33.3121 9.99938C33.3416 10.0044 33.3713 10.0078 33.4011 10.0094C32.9258 9.9546 32.4699 9.78009 32.0728 9.501C31.4665 9.0841 31.1876 8.49054 31.4147 7.90546C31.7679 6.9811 33.2345 6.43264 34.6866 6.67274C36.1387 6.91285 37.0286 7.85945 36.673 8.77969C36.5435 9.08543 36.3286 9.34315 36.0561 9.5195L36.0523 9.52792C35.6666 9.82735 35.049 10.0226 34.3669 10.0625C35.7123 10.0087 36.9001 9.43153 37.2362 8.57962C37.6584 7.50546 36.5904 6.41065 34.8507 6.13009Z" fill="#D7F3FF" fill-opacity="0.64"/>
<path d="M22.3391 7.24135C17.8433 6.85566 12.7674 11.8564 11.0044 18.4132C9.2413 24.97 11.4566 30.5953 15.9512 30.981C19.6306 31.2973 23.6908 28.0116 26.0147 23.2191C26.0633 23.1203 26.1106 23.0202 26.1553 22.9215L26.283 22.6545C26.3239 22.5651 26.3622 22.4757 26.4006 22.3876C26.4772 22.2074 26.5513 22.0259 26.6241 21.8444C26.6382 21.8111 26.6484 21.7777 26.6599 21.7443C26.7149 21.6109 26.7647 21.4707 26.8145 21.3346C26.8733 21.1731 26.9269 21.0103 26.9819 20.8475C26.9998 20.7981 27.0151 20.7487 27.0317 20.6967C27.0739 20.5632 27.1173 20.4298 27.1595 20.2963C27.2042 20.1402 27.2489 19.9827 27.2872 19.8239C27.2872 19.8025 27.2987 19.7838 27.3025 19.7625C27.4009 19.4021 27.484 19.0431 27.5581 18.6855L27.6117 18.4065C27.6296 18.3131 27.6462 18.221 27.6615 18.1263C27.6769 18.0315 27.6909 17.9421 27.7063 17.85C28.575 12.1607 26.3776 7.58568 22.3391 7.24135ZM26.5845 19.6757C25.0425 25.4011 20.6118 29.7692 16.6858 29.4329C12.7598 29.0966 10.8255 24.18 12.365 18.4546C13.9045 12.7292 18.3364 8.36241 22.2637 8.70006C26.191 9.03771 28.1253 13.957 26.5845 19.6757Z" fill="#D7F3FF" fill-opacity="0.6"/>
<path d="M23.2168 13.0015L23.218 13.0221" stroke="#D7F3FF" stroke-miterlimit="10"/>
<path d="M27.7028 17.8366C28.5741 12.1606 26.3767 7.58566 22.3369 7.24133C17.8411 6.85564 12.7652 11.8563 11.0022 18.4132C9.2391 24.97 11.4544 30.5953 15.949 30.981C19.6284 31.2973 23.6886 28.0116 26.0125 23.219C23.6056 28.2264 19.341 31.6483 15.4635 31.3C13.3146 31.1038 11.655 29.7826 10.6585 27.7607C9.46012 25.3384 9.211 21.9085 10.2011 18.1997C11.7598 12.3635 15.8774 7.73246 19.9938 6.79692C20.6644 6.64177 21.3534 6.59229 22.038 6.65011C26.3102 7.03714 28.6482 11.875 27.7028 17.8366Z" fill="#D7F3FF" fill-opacity="0.8"/>
<path d="M22.2639 8.70021C18.3366 8.36256 13.9047 12.7307 12.3652 18.4547C10.8257 24.1788 12.7587 29.0954 16.686 29.4331C20.6133 29.7707 25.0427 25.4013 26.5847 19.6759C28.1268 13.9505 26.19 9.03653 22.2639 8.70021ZM25.486 19.6438C24.179 24.5004 20.4153 28.2146 17.0859 27.9263C13.7565 27.638 12.1033 23.4674 13.4166 18.6069C14.73 13.7463 18.4874 10.0348 21.8232 10.3204C25.1589 10.606 26.7955 14.7806 25.486 19.6438Z" fill="#D7F3FF" fill-opacity="0.68"/>
<path d="M17.354 16.6582C17.1918 17.1306 16.7894 17.4109 16.4597 17.2854C16.1301 17.16 15.996 16.6769 16.1595 16.2044C16.323 15.732 16.7268 15.449 17.0538 15.5732C17.3809 15.6973 17.5189 16.1831 17.354 16.6582Z" fill="#D7F3FF" fill-opacity="0.8"/>
<path d="M15.9502 21.3415C15.7854 21.8139 15.3855 22.0955 15.0559 21.9701C14.7263 21.8446 14.5934 21.3601 14.7582 20.8877C14.9231 20.4153 15.3229 20.1323 15.6526 20.2578C15.9822 20.3832 16.115 20.8663 15.9502 21.3415Z" fill="#D7F3FF" fill-opacity="0.8"/>
<path d="M17.3931 24.6979C17.2309 25.1704 16.8284 25.4533 16.4988 25.3292C16.1692 25.2051 16.035 24.7166 16.1986 24.2441C16.3621 23.7717 16.7658 23.4888 17.0929 23.6142C17.4199 23.7397 17.5579 24.2255 17.3931 24.6979Z" fill="#D7F3FF" fill-opacity="0.8"/>
<path d="M20.2102 24.814C20.0531 25.2677 19.7158 25.5547 19.4552 25.4559C19.1945 25.3572 19.1141 24.9101 19.2725 24.4563C19.4309 24.0026 19.7682 23.7156 20.0275 23.8144C20.2869 23.9131 20.3686 24.3669 20.2102 24.814Z" fill="#D7F3FF" fill-opacity="0.8"/>
<path d="M23.0611 21.9152C22.9001 22.3743 22.5615 22.6639 22.3035 22.5678C22.0454 22.4717 21.9624 22.0166 22.1233 21.5588C22.2843 21.1011 22.6203 20.8101 22.8809 20.9089C23.1416 21.0077 23.2169 21.4574 23.0611 21.9152Z" fill="#D7F3FF" fill-opacity="0.8"/>
<path d="M24.2912 17.8153C24.1328 18.2731 23.7942 18.564 23.5336 18.4666C23.273 18.3692 23.1938 17.9168 23.3548 17.459C23.5157 17.0012 23.8517 16.7103 24.1124 16.809C24.373 16.9078 24.4509 17.3576 24.2912 17.8153Z" fill="#D7F3FF" fill-opacity="0.8"/>
<path d="M23.2922 14.4777C23.1312 14.9368 22.7914 15.2264 22.5346 15.1303C22.2778 15.0342 22.1922 14.5791 22.3531 14.1213C22.5141 13.6636 22.8501 13.3726 23.1108 13.4714C23.3714 13.5702 23.4506 14.0226 23.2922 14.4777Z" fill="#D7F3FF" fill-opacity="0.8"/>
<path d="M20.3866 13.7555C20.2269 14.2133 19.8871 14.5043 19.6303 14.4042C19.3735 14.3041 19.2879 13.857 19.4488 13.3979C19.6098 12.9388 19.9458 12.6492 20.2065 12.7493C20.4671 12.8494 20.545 13.2965 20.3866 13.7555Z" fill="#D7F3FF" fill-opacity="0.8"/>
<path d="M10.2019 18.1998C9.21175 21.9086 9.46088 25.3385 10.6593 27.7608L4.81941 23.4407L3.851 20.8837L3.79734 20.3191L3.41406 16.5729L3.47155 16.3821L4.64949 12.3143L4.65588 12.2902L6.99131 8.43195L7.13567 8.33185L10.4932 6.06305L10.5136 6.0497L13.6501 4.99805L19.9895 6.79574C15.8782 7.73262 11.7605 12.3636 10.2019 18.1998Z" fill="#D7F3FF"/>
<path d="M13.6564 4.9993L10.5199 6.05096L10.4995 6.06431L7.17773 4.78177C7.33616 4.72304 7.43325 4.69235 7.43325 4.69235C8.61502 4.21056 10.6655 4.14917 10.6655 4.14917L13.6564 4.9993Z" fill="#D7F3FF" fill-opacity="0.72"/>
<path d="M10.4999 6.06428L7.14235 8.33308L4.14258 6.90774C4.8312 5.74531 6.53422 5.0233 7.17813 4.78174L10.4999 6.06428Z" fill="#D7F3FF" fill-opacity="0.72"/>
<path d="M7.14128 8.33172L6.99181 8.43182L4.65382 12.2901L4.64743 12.3141L1.70898 10.6779C1.72943 9.34334 4.10574 6.95443 4.10574 6.95443C4.11463 6.93826 4.12444 6.92266 4.13512 6.90771L7.14128 8.33172Z" fill="#D7F3FF" fill-opacity="0.72"/>
<path d="M4.65279 12.3142L3.47485 16.382L0.638609 15.1342C0.638609 15.0141 0.647552 14.946 0.647552 14.946C0.127574 13.6181 1.71562 10.694 1.71562 10.694V10.678L4.65279 12.3142Z" fill="#D7F3FF" fill-opacity="0.72"/>
<path d="M0.968987 19.0085C0.557603 18.161 0.613817 15.8175 0.638092 15.1382L3.47434 16.386L3.41429 16.5729L3.79756 20.3191L0.968987 19.0085Z" fill="#D7F3FF" fill-opacity="0.72"/>
<path d="M4.8194 23.4407L2.57979 21.7885C1.94099 21.3067 1.02241 19.1046 1.02241 19.1046C1.00452 19.0739 0.986636 19.0432 0.96875 19.0085L3.79733 20.3191L3.85354 20.8836L4.8194 23.4407Z" fill="#D7F3FF" fill-opacity="0.72"/>
<path d="M20.0161 6.80358L19.9961 6.79712" stroke="#D7F3FF" stroke-miterlimit="10"/>
<path d="M20.5339 19.0886C20.1365 20.3845 19.2282 21.4428 18.5 21.4508C18.1039 21.4508 17.8458 21.1452 17.7577 20.6501C17.6991 20.1568 17.7427 19.6562 17.8854 19.182C17.8854 19.182 17.8854 19.1754 17.8854 19.17L17.8931 19.1513C17.902 19.1166 17.9135 19.0833 17.9238 19.0472C17.934 19.0112 17.9442 18.9832 17.9557 18.9525C17.9586 18.9406 17.9624 18.929 17.9672 18.9178C17.9813 18.8751 17.9966 18.835 18.0119 18.795C18.0272 18.755 18.0464 18.7056 18.0643 18.6615C18.0822 18.6175 18.1001 18.5761 18.1192 18.5361C18.1384 18.496 18.1614 18.4373 18.1869 18.3893L18.2342 18.2932C18.2403 18.2803 18.2471 18.2678 18.2547 18.2558C18.5327 17.7038 18.9413 17.2352 19.4415 16.8945H19.4505C19.5989 16.8067 19.7655 16.7577 19.936 16.7517C20.6616 16.7451 20.9286 17.7914 20.5339 19.0886Z" fill="#D7F3FF" fill-opacity="0.8"/>
<path d="M21.8186 10.3204C18.4829 10.0348 14.7191 13.7463 13.4121 18.6068C12.1051 23.4674 13.7468 27.6407 17.0813 27.9263C20.4158 28.2119 24.1783 24.5044 25.4853 19.6438C26.7923 14.7832 25.1506 10.6073 21.8186 10.3204ZM22.3539 14.1213C22.5124 13.6649 22.8509 13.3726 23.1115 13.4713C23.3722 13.5701 23.4514 14.0225 23.293 14.4776C23.1345 14.9327 22.7922 15.2263 22.5354 15.1302C22.2786 15.0341 22.1955 14.579 22.3539 14.1213ZM19.4487 13.3979C19.6071 12.9402 19.9457 12.6492 20.2063 12.7493C20.4669 12.8494 20.5449 13.2965 20.3865 13.7556C20.228 14.2147 19.8869 14.5043 19.6301 14.4042C19.3733 14.3041 19.2877 13.857 19.4487 13.3979ZM15.9507 21.3414C15.7859 21.8139 15.386 22.0955 15.0564 21.97C14.7267 21.8446 14.5939 21.3601 14.7587 20.8877C14.9235 20.4152 15.3234 20.1323 15.653 20.2577C15.9826 20.3832 16.1155 20.8663 15.9507 21.3414ZM16.1615 16.2046C16.3263 15.7321 16.7287 15.4492 17.0558 15.5733C17.3829 15.6974 17.5183 16.1832 17.3535 16.6583C17.1887 17.1335 16.7888 17.411 16.4592 17.2856C16.1295 17.1601 15.9979 16.677 16.1615 16.2046ZM17.3931 24.6979C17.2308 25.1704 16.8284 25.4533 16.4988 25.3292C16.1691 25.205 16.035 24.7166 16.1985 24.2441C16.3621 23.7717 16.7658 23.4888 17.0928 23.6142C17.4199 23.7397 17.5579 24.2255 17.3931 24.6979ZM20.2102 24.814C20.053 25.2678 19.7157 25.5547 19.4551 25.456C19.1945 25.3572 19.114 24.9101 19.2724 24.4563C19.4308 24.0026 19.7681 23.7156 20.0275 23.8144C20.2868 23.9132 20.3686 24.3669 20.2102 24.814ZM18.953 22.5586C17.8428 22.5038 17.3509 21.0345 17.853 19.2755C17.8613 19.2456 17.8711 19.2162 17.8824 19.1874C17.8824 19.1874 17.8824 19.1807 17.8824 19.1754C17.8824 19.17 17.8824 19.1594 17.8901 19.15C17.8946 19.1384 17.8981 19.1263 17.9003 19.114C17.9079 19.0926 17.9143 19.0739 17.9207 19.0526C17.9271 19.0312 17.9412 18.9885 17.9527 18.9578C17.9555 18.9459 17.9594 18.9343 17.9642 18.9231C17.9731 18.8924 17.9846 18.8644 17.9935 18.8351C18.0025 18.8057 18.0255 18.7523 18.0408 18.7123C18.0408 18.6963 18.0549 18.6802 18.0612 18.6656C18.0791 18.6229 18.097 18.5801 18.1162 18.5401C18.1353 18.5001 18.1583 18.4413 18.1839 18.3933L18.2312 18.2972C18.2372 18.2843 18.244 18.2718 18.2516 18.2598C18.8751 17.0147 19.8856 16.1405 20.7697 16.1859C21.88 16.2393 22.3731 17.7113 21.871 19.4703C21.3689 21.2293 20.0658 22.6119 18.953 22.5586ZM23.0617 21.9153C22.9007 22.3744 22.5622 22.664 22.3041 22.5679C22.046 22.4718 21.963 22.0167 22.124 21.559C22.285 21.1012 22.621 20.8102 22.8816 20.909C23.1422 21.0078 23.2176 21.4575 23.0617 21.9153ZM24.292 17.8154C24.1336 18.2732 23.7951 18.5641 23.5344 18.4667C23.2738 18.3693 23.1946 17.9169 23.3556 17.4591C23.5165 17.0013 23.8526 16.7104 24.1132 16.8091C24.3738 16.9079 24.4517 17.3577 24.292 17.8154Z" fill="#D7F3FF" fill-opacity="0.6"/>
<path d="M21.3351 19.3955C20.9211 20.8636 19.816 22.0153 18.8616 21.9553C18.2561 21.9206 17.86 21.4054 17.7578 20.6567C17.846 21.1452 18.104 21.4575 18.5001 21.4575C19.2283 21.4495 20.1367 20.3898 20.534 19.0952C20.9313 17.8007 20.6618 16.7517 19.9348 16.7584C19.7643 16.7643 19.5978 16.8133 19.4493 16.9012C19.7193 16.7194 20.0353 16.6264 20.3564 16.6343C21.3082 16.6836 21.7464 17.9235 21.3351 19.3955Z" fill="#D7F3FF" fill-opacity="0.6"/>
<path d="M21.8712 19.4702C21.3717 21.2305 20.0647 22.6118 18.952 22.5584C17.8392 22.505 17.3499 21.0303 17.8507 19.2753C17.8589 19.2454 17.8687 19.216 17.8801 19.1872C17.724 19.6585 17.6801 20.1624 17.7523 20.6553C17.8545 21.404 18.2506 21.9191 18.8561 21.9538C19.8105 22.0139 20.9156 20.8648 21.3295 19.3941C21.7435 17.9234 21.3027 16.6822 20.3509 16.6262C20.0298 16.6183 19.7138 16.7113 19.4438 16.8931H19.4349C19.0094 17.1293 18.5751 17.6284 18.248 18.2544C18.8715 17.0092 19.882 16.135 20.7661 16.1804C21.8802 16.2391 22.3733 17.7112 21.8712 19.4702Z" fill="#D7F3FF" fill-opacity="0.64"/>
</g>
<defs>
<clipPath id="clip0_3305_60901">
<rect width="48" height="32" fill="white"/>
</clipPath>
</defs>
</svg>
