<svg width="22" height="22" viewBox="0 0 22 22" fill="none" xmlns="http://www.w3.org/2000/svg">
<path d="M17.3433 4.59246C17.16 4.05163 16.6467 3.66663 16.0417 3.66663H5.95833C5.35333 3.66663 4.84917 4.05163 4.65667 4.59246L2.75 10.0833V17.4166C2.75 17.9208 3.1625 18.3333 3.66667 18.3333H4.58333C5.0875 18.3333 5.5 17.9208 5.5 17.4166V16.5H16.5V17.4166C16.5 17.9208 16.9125 18.3333 17.4167 18.3333H18.3333C18.8375 18.3333 19.25 17.9208 19.25 17.4166V10.0833L17.3433 4.59246ZM6.27917 5.49996H15.7117L16.7017 8.35079H5.28917L6.27917 5.49996ZM17.4167 14.6666H4.58333V10.0833H17.4167V14.6666Z" fill="#808080"/>
<path d="M6.875 13.75C7.63439 13.75 8.25 13.1344 8.25 12.375C8.25 11.6156 7.63439 11 6.875 11C6.11561 11 5.5 11.6156 5.5 12.375C5.5 13.1344 6.11561 13.75 6.875 13.75Z" fill="#808080"/>
<path d="M15.125 13.75C15.8844 13.75 16.5 13.1344 16.5 12.375C16.5 11.6156 15.8844 11 15.125 11C14.3656 11 13.75 11.6156 13.75 12.375C13.75 13.1344 14.3656 13.75 15.125 13.75Z" fill="#808080"/>
</svg>
